<?xml version="1.0" encoding="UTF-8"?><svg id="a" xmlns="http://www.w3.org/2000/svg" width="83.06" height="83.06" viewBox="0 0 83.06 83.06"><circle cx="41.53" cy="41.53" r="41.53" fill="#eae5ff"/><path d="M37.092,15.458c.087,0,.175-.002.264-.003.288-.002.576,0,.863,0,.2,0,.401,0,.601-.001.42,0,.839,0,1.259.003.538.003,1.075.001,1.613-.002.414-.002.827-.001,1.241,0,.198,0,.397,0,.595-.001.277-.001.554,0,.831.003q.123-.001.248-.003c.405.007.581.032.916.278.217.3.303.517.383.877.027.118.055.237.083.359.028.128.056.257.083.385.03.132.06.265.09.397.063.277.124.554.185.831.078.355.157.709.238,1.064.077.339.153.678.228,1.017.014.064.029.129.044.195.041.183.081.365.121.548.023.104.046.208.069.315q.049.271.049.663c.059.017.119.033.18.051q.123.036.249.072c.08.023.159.045.241.069q.31.103.524.223c.263.137.473.225.767.272.424-.137.76-.38,1.121-.637.208-.139.416-.278.623-.417.102-.07.205-.141.31-.213.425-.29.86-.562,1.297-.834.415-.259.828-.519,1.231-.796q.085-.057.171-.114c.147-.098.292-.198.436-.299.417-.168.75-.138,1.182-.023.257.154.451.35.657.566.059.059.119.118.18.179.194.194.385.391.576.588.135.136.269.272.404.407.354.356.705.715,1.056,1.074.288.293.577.585.866.877.597.602,1.192,1.204,1.785,1.81.055.056.11.112.167.17q.473.485.521.911c-.044.489-.222.767-.488,1.171-.048.075-.096.151-.145.228-.104.163-.208.326-.314.488-.171.265-.341.531-.509.797-.058.091-.115.181-.175.275-.117.184-.233.369-.348.554-.263.419-.528.825-.836,1.212q-.507.621-.624,1.38c.13.487.336.931.581,1.371q.079.159.079.355c.103.011.206.021.312.032.975.123,1.934.376,2.892.591.262.059.524.117.787.173.38.082.759.167,1.139.253.117.025.234.05.355.076.109.025.219.05.331.076.096.021.192.043.29.064.357.143.526.287.756.597.069.293.067.576.063.876q.001.131.003.264c.002.288,0,.576,0,.863,0,.2,0,.401.001.601,0,.42,0,.839-.003,1.259-.003.538-.001,1.075.002,1.613.002.414.001.827,0,1.241,0,.198,0,.397.001.595.001.277,0,.554-.003.831q.001.123.003.248c-.008.418-.029.58-.295.92-.314.238-.566.315-.95.403-.065.015-.13.03-.197.045-.137.031-.274.061-.412.091-.209.045-.417.094-.625.143-.134.03-.268.06-.402.089-.121.027-.241.053-.366.081-.399.038-.663-.022-1.035-.163-.281-.259-.38-.405-.435-.784.051-.349.105-.516.337-.784.738-.355,1.633-.588,2.451-.588v-6.667c-.259-.032-.518-.065-.784-.098-.187-.035-.373-.073-.558-.114-.102-.023-.205-.045-.31-.068-.108-.024-.216-.049-.328-.074q-.17-.038-.343-.077c-.238-.053-.476-.107-.714-.161-.364-.082-.728-.163-1.092-.243-.232-.052-.463-.104-.695-.157q-.163-.036-.329-.072t-.307-.07c-.089-.02-.178-.04-.269-.06-.35-.111-.657-.242-.859-.558-.027-.069-.053-.138-.08-.209-.031-.078-.063-.156-.095-.236q-.049-.125-.099-.253c-.075-.177-.151-.353-.228-.53-.077-.181-.155-.362-.232-.543-.078-.183-.156-.365-.234-.548-.034-.08-.068-.159-.103-.241-.058-.133-.119-.264-.184-.393-.118-.725.261-1.183.65-1.771.066-.102.132-.205.199-.31.137-.213.275-.426.414-.639.264-.407.524-.816.783-1.226.17-.268.34-.536.511-.804.049-.078.098-.155.149-.235.121-.185.248-.363.379-.541q.171-.235.137-.443c-.112-.278-.274-.437-.484-.65q-.128-.13-.258-.263c-.094-.094-.187-.187-.281-.281-.096-.096-.191-.193-.287-.289-.2-.202-.401-.403-.603-.603-.258-.258-.515-.517-.77-.777-.197-.199-.395-.398-.593-.596-.095-.095-.19-.191-.284-.287-.132-.134-.265-.266-.398-.398q-.113-.114-.229-.229-.196-.173-.419-.132c-.238.105-.451.231-.671.371-.095.06-.191.12-.289.182-.102.065-.203.129-.308.196q-.157.099-.317.2c-.318.2-.635.401-.951.603-.263.167-.525.334-.788.5-.152.096-.303.193-.454.29-.206.131-.413.259-.621.387-.075.047-.15.093-.228.142q-.745.443-1.243.349c-.326-.121-.637-.266-.95-.417-.623-.291-1.237-.566-1.894-.774-.23-.098-.331-.184-.49-.378q-.085-.246-.155-.544-.04-.168-.08-.339c-.028-.121-.055-.242-.084-.367-.029-.125-.058-.249-.088-.378-.078-.335-.155-.67-.231-1.006-.065-.283-.13-.565-.196-.848-.064-.278-.128-.555-.192-.833-.031-.134-.061-.268-.092-.402-.043-.188-.086-.375-.128-.563q-.037-.161-.074-.325-.052-.278-.052-.671h-6.667l-.098.784c-.035.187-.073.373-.114.558-.023.102-.045.205-.068.31-.024.108-.049.216-.074.327q-.038.17-.077.343c-.053.238-.107.476-.161.714-.082.364-.163.728-.243,1.092-.052.232-.104.463-.157.695q-.036.163-.072.329-.035.152-.07.307c-.02.089-.04.178-.06.269-.111.35-.242.657-.558.859-.069.027-.138.053-.209.08-.078.031-.156.063-.236.095-.084.033-.167.065-.253.099-.177.075-.353.151-.53.228-.181.077-.362.155-.543.232-.183.078-.365.156-.548.234q-.119.051-.241.103c-.133.058-.264.119-.393.184-.819-.002-1.295-.312-1.955-.772-.199-.135-.398-.269-.598-.403-.098-.067-.197-.133-.298-.202-.482-.321-.977-.619-1.473-.917-.445-.268-.875-.548-1.291-.86q-.165-.097-.348-.062c-.285.106-.439.266-.655.48-.087.085-.173.17-.263.258-.094.094-.187.187-.281.281-.096.096-.193.191-.289.287-.202.2-.403.401-.603.603-.258.258-.517.515-.777.77-.199.197-.398.395-.596.593-.095.095-.191.19-.287.284-.134.132-.266.265-.398.398-.076.075-.151.151-.229.229q-.173.196-.132.419c.105.238.231.451.371.671.06.095.12.191.182.289.065.102.129.203.196.308q.099.157.2.317c.2.318.401.635.603.951.167.263.334.525.5.788.096.152.193.303.29.454.131.206.259.413.387.621.047.075.093.15.142.228q.443.745.349,1.243c-.121.326-.266.637-.417.95-.291.623-.566,1.237-.774,1.894-.098.23-.184.331-.378.49q-.246.085-.544.155-.168.04-.339.08-.182.041-.367.084-.187.044-.378.088c-.335.078-.67.155-1.006.231-.283.065-.565.13-.848.196-.278.064-.555.128-.833.192-.134.031-.268.061-.402.092-.188.043-.375.086-.563.128-.107.024-.214.049-.325.074q-.278.052-.671.052v6.667c.259.032.518.065.784.098.187.035.373.073.558.114.102.023.205.045.31.068.108.024.216.049.327.074q.17.038.343.077c.238.053.476.107.714.161.364.082.728.163,1.092.243.232.052.463.104.695.157.109.024.217.048.329.072.101.023.203.046.307.07.089.02.178.04.269.06.35.111.657.242.859.558.027.069.053.138.08.209.031.078.063.156.095.236.033.084.065.167.099.253.075.177.151.353.228.53.077.181.155.362.232.543.078.183.156.365.234.548.034.08.068.159.103.241.058.133.119.264.184.393.014.658-.177,1.098-.551,1.624-.098.144-.196.288-.293.432-.053.078-.106.156-.161.236-.324.487-.629.985-.937,1.482-.121.195-.242.39-.363.585q-.085.137-.172.277c-.209.327-.433.643-.663.956q-.111.183-.076.372c.107.284.268.438.481.654.085.087.17.173.258.263.094.094.187.187.281.281.096.096.191.193.287.289.2.202.401.403.603.603.258.258.515.517.77.777.197.199.395.398.593.596.095.095.19.191.284.287.132.134.265.266.398.398.075.076.151.151.229.229q.196.173.419.132c.238-.105.451-.231.671-.371.095-.06.191-.12.289-.182q.152-.097.308-.196c.105-.066.209-.132.317-.2.318-.2.635-.402.952-.603.181-.114.361-.228.542-.342.307-.193.613-.387.92-.581q.1-.063.203-.126c.135-.087.269-.176.401-.269.438-.3.722-.436,1.269-.349.33.117.641.264.956.417.174.082.348.163.522.244.083.039.166.078.252.117.363.163.735.292,1.114.413.23.098.331.184.49.378q.085.246.155.544c.027.112.053.224.08.339.028.121.055.242.084.367.029.125.058.249.088.378.078.335.155.67.231,1.006.065.283.13.565.196.848.064.278.128.555.192.833.031.134.061.268.092.402.043.188.086.375.128.563.024.107.049.214.074.325q.052.278.052.671h6.667c.032-.259.065-.518.098-.784.095-.532.173-.954.558-1.348.411-.155.693-.157,1.109-.025q.245.135.392.392c.148.712-.059,1.449-.214,2.145-.019.09-.038.18-.058.272-.021.086-.041.172-.062.26-.018.077-.036.154-.054.233-.145.329-.309.492-.591.718-.292.071-.576.067-.876.063q-.131.001-.264.003c-.288.002-.576,0-.863,0-.2,0-.401,0-.601.001-.42,0-.839,0-1.259-.003-.538-.003-1.075-.001-1.613.002-.414.002-.827.001-1.241,0-.198,0-.397,0-.595.001-.277.001-.554,0-.831-.003-.082,0-.164.002-.248.003-.405-.007-.581-.032-.916-.278-.217-.3-.303-.517-.383-.877-.027-.118-.055-.237-.083-.359-.028-.128-.056-.257-.083-.385-.03-.132-.06-.265-.09-.397-.063-.277-.124-.554-.185-.831-.078-.355-.157-.709-.238-1.064-.077-.339-.153-.678-.228-1.017-.014-.064-.029-.129-.044-.195-.041-.183-.081-.365-.121-.548-.023-.104-.046-.208-.069-.315q-.049-.271-.049-.663c-.059-.017-.119-.033-.18-.051-.082-.024-.164-.048-.249-.072-.08-.023-.159-.045-.241-.069q-.31-.103-.524-.223c-.263-.137-.473-.225-.767-.272-.424.137-.76.38-1.121.637-.208.139-.416.278-.623.417-.102.07-.205.141-.31.213-.425.29-.86.562-1.297.834-.415.259-.828.519-1.231.796-.057.038-.113.075-.171.114-.147.098-.292.198-.436.299-.417.168-.75.137-1.182.023-.256-.151-.45-.343-.657-.555q-.089-.087-.18-.175c-.194-.191-.385-.384-.576-.578-.135-.134-.269-.268-.404-.402-.282-.281-.562-.563-.841-.846-.357-.362-.718-.72-1.08-1.078-.279-.276-.556-.554-.832-.832-.132-.133-.265-.265-.399-.397-.187-.185-.371-.372-.554-.559-.055-.054-.11-.107-.167-.162-.352-.368-.458-.662-.502-1.168.03-.399.242-.689.463-1.011.048-.074.097-.149.146-.226.105-.161.21-.322.317-.482.174-.262.343-.527.511-.793.058-.091.115-.182.175-.275.116-.184.232-.369.348-.554.263-.419.528-.825.836-1.212q.507-.621.624-1.38c-.13-.487-.336-.931-.581-1.371q-.079-.159-.079-.355c-.103-.011-.206-.021-.312-.032-.975-.123-1.934-.376-2.892-.591-.262-.059-.524-.117-.787-.173-.38-.082-.759-.167-1.139-.253-.117-.025-.234-.05-.355-.076-.109-.025-.219-.05-.331-.076q-.144-.032-.29-.064c-.357-.143-.526-.287-.756-.597-.069-.293-.067-.576-.063-.876,0-.087-.002-.175-.003-.264-.002-.288,0-.576,0-.863,0-.2,0-.401-.001-.601,0-.42,0-.839.003-1.259.003-.538.001-1.075-.002-1.613-.002-.414-.001-.827,0-1.241,0-.198,0-.397-.001-.595-.001-.277,0-.554.003-.831,0-.082-.002-.164-.003-.248.007-.405.032-.581.278-.916.3-.217.517-.303.877-.383.118-.027.237-.055.359-.083.128-.028.257-.056.385-.083.132-.03.265-.06.397-.09.277-.063.554-.124.831-.185.355-.078.709-.157,1.064-.238.339-.077.678-.153,1.017-.228.064-.014.129-.029.195-.044.183-.041.365-.081.548-.121q.156-.034.315-.069.271-.049.663-.049c.017-.059.033-.119.051-.18q.036-.123.072-.249c.023-.08.045-.159.069-.241q.103-.31.223-.524c.137-.263.225-.473.272-.767-.137-.424-.38-.76-.637-1.121-.139-.208-.278-.416-.417-.623-.07-.102-.141-.205-.213-.31-.29-.425-.562-.86-.834-1.297-.261-.415-.522-.83-.792-1.238-.037-.057-.075-.115-.113-.174-.097-.149-.195-.298-.294-.446-.171-.368-.201-.565-.13-.967.766-1.098,1.903-2.041,2.844-2.991.32-.323.64-.647.958-.973.309-.317.62-.633.933-.947.118-.119.236-.239.352-.36q1.025-1.058,1.584-1.137c.496.046.786.206,1.19.483.074.048.149.097.226.146.161.105.322.21.482.317.262.174.527.343.793.511.091.058.182.115.275.175.184.116.369.232.554.348.419.263.825.528,1.212.836q.621.507,1.38.624c.487-.13.931-.336,1.371-.581q.159-.079.355-.079c.011-.103.021-.206.032-.312.123-.975.376-1.934.591-2.892.059-.262.117-.524.173-.787.082-.38.167-.759.253-1.139.025-.117.05-.234.076-.355.025-.109.05-.219.076-.331.021-.096.043-.192.064-.29.3-.747.747-.828,1.473-.819Z" fill="#6232d7"/><path d="M49.033,29.742c2.878,2.272,4.768,5.505,5.204,9.166.043.551.037,1.104.037,1.657.001.125.002.249.004.378q.003,1.628-.396,2.177c-.256.176-.393.238-.705.245-.353-.126-.616-.224-.882-.49-.091-.395-.102-.726-.055-1.127.332-2.949-.508-5.991-2.341-8.334-2.031-2.49-4.789-4.048-7.997-4.43-3.053-.239-6.113.568-8.487,2.548-2.409,2.067-3.902,4.764-4.231,7.931-.106,1.455.051,2.82.414,4.227.021.081.042.163.063.247.021.076.041.152.062.23.018.068.037.135.055.205q.059.192.26.366c.532-.472,1.056-.951,1.572-1.44.24-.227.483-.45.73-.67q1.267-1.082,1.838-2.583c.015-.54-.035-1.065-.1-1.6-.13-1.741,1.065-3.566,2.137-4.821,1.378-1.48,3.423-2.355,5.431-2.428q2.117-.034,2.901.502c.184.234.2.415.251.711-.107.712-.715,1.137-1.246,1.58q-1.48,1.128-2.3,2.699c.064.73.312,1.381.639,2.033q.107.233.107.527c.06.01.12.02.182.03.442.08.847.175,1.261.35.493.195.963.359,1.499.307.736-.341,1.256-1.031,1.777-1.63.149-.163.299-.325.45-.486.329-.354.652-.712.969-1.076.22-.228.335-.24.658-.264.399.027.558.049.852.319.738,1.513.463,3.487-.003,5.043-.723,2.03-2.19,3.705-4.133,4.644-.954.428-1.947.777-3.002.649-.945-.103-1.771-.16-2.563.432-.575.502-1.08,1.064-1.585,1.634-.181.195-.363.388-.546.581-.442.47-.876.946-1.304,1.429.761.761,2.736.881,3.755.883q.739-.007,1.477-.025c.115-.002.23-.005.348-.007.103-.003.206-.007.312-.01.358.052.517.184.775.434.108.26.118.505.098.784-.154.355-.264.47-.588.686-2.767.741-6.228-.215-8.652-1.567-.467-.27-.912-.567-1.349-.884q-.12-.087-.242-.175c-2.905-2.217-4.631-5.394-5.202-8.975-.206-1.609-.155-3.396.248-4.968.017-.067.034-.135.051-.204.881-3.465,3.063-6.459,6.126-8.325,4.85-2.815,10.887-2.476,15.366.887ZM37.38,35.228c-.967,1.141-1.529,2.673-1.483,4.172.02.201.049.4.08.6.01.065.02.13.03.196.03.189.063.378.097.566.021.511-.17.81-.502,1.191-.087.085-.173.169-.263.256q-.072.071-.145.143c-.104.102-.207.203-.312.304-.165.16-.328.321-.492.482-.464.458-.931.914-1.398,1.37-.286.279-.571.56-.855.841-.109.107-.218.213-.327.319-.153.148-.304.297-.454.446-.086.084-.173.169-.262.256q-.196.209-.162.438c.136.283.318.525.51.771.043.056.087.111.132.169.765.961,1.697,1.972,2.779,2.576.405-.026.603-.276.876-.556.047-.048.094-.095.142-.144.101-.103.202-.207.303-.31.16-.164.32-.328.481-.491.457-.464.913-.929,1.368-1.395.278-.285.558-.569.839-.853.106-.108.212-.216.318-.325.148-.153.297-.304.447-.455.084-.086.169-.173.256-.262.395-.311.767-.419,1.267-.381.102.02.205.041.31.062,1.641.285,3.175-.065,4.571-.968,1.311-.943,2.232-2.329,2.502-3.932.024-.226.038-.449.047-.676-.53.441-1.018.911-1.501,1.403-.138.141-.277.281-.416.422-.06.061-.121.123-.183.186-.326.306-.635.266-1.062.261-.421-.027-.809-.128-1.213-.243q-.127-.035-.257-.07c-.178-.049-.355-.098-.533-.149-.272-.077-.544-.151-.816-.225-.173-.048-.347-.096-.52-.145-.081-.022-.162-.044-.246-.067-.075-.022-.151-.043-.228-.065q-.099-.028-.2-.056c-.279-.12-.43-.271-.547-.55-.018-.067-.036-.134-.055-.203-.021-.076-.043-.153-.064-.231q-.033-.123-.066-.249c-.023-.085-.047-.17-.071-.258-.049-.18-.098-.36-.146-.54-.073-.274-.148-.548-.223-.822-.048-.175-.095-.35-.142-.525-.022-.081-.044-.163-.067-.246q-.358-1.344-.07-1.845.22-.252.491-.516.071-.07.144-.142c.151-.149.303-.297.456-.444.153-.149.305-.299.458-.449.137-.135.276-.27.414-.404q.206-.166.195-.299c-1.652-.054-3.116.923-4.228,2.059Z" fill="#6232d7"/><path d="M60.412,46.221c2.193,1.744,3.614,4.094,3.978,6.887.298,2.77-.48,5.426-2.181,7.629-1.807,2.169-4.248,3.501-7.062,3.766-2.816.211-5.454-.656-7.609-2.49-.08-.071-.161-.142-.244-.216q-.102-.09-.207-.182c-1.762-1.653-2.882-4.135-2.963-6.54-.017-1.337.02-2.586.425-3.866.034-.112.069-.223.104-.339.454-1.305,1.233-2.461,2.151-3.485q.09-.102.182-.206c3.434-3.668,9.499-3.942,13.426-.958ZM48.102,48.841c-1.543,1.756-2.232,3.96-2.082,6.289.299,2.363,1.454,4.417,3.333,5.883,1.967,1.337,4.195,1.87,6.538,1.458,2.271-.522,4.173-1.867,5.435-3.83,1.145-1.925,1.467-4.13.965-6.304-.573-2.089-1.873-3.897-3.722-5.051-3.555-1.978-7.636-1.365-10.468,1.554Z" fill="#6232d7"/><path d="M59.06,50.228c.318.259.474.447.521.858-.068.707-.694,1.215-1.164,1.703-.142.149-.283.298-.425.447-.069.072-.138.145-.209.219-.343.362-.678.73-1.014,1.098-.275.301-.551.601-.828.901-.048.052-.096.104-.146.158-.271.293-.543.586-.816.878-.06.064-.12.128-.181.194-.119.127-.238.254-.357.381-.353.378-.697.761-1.025,1.161-.236.234-.474.323-.796.39-.84-.143-1.525-1.037-2.096-1.624-.483-.495-.966-.974-1.499-1.416-.276-.261-.363-.469-.455-.839.055-.365.117-.592.355-.876.361-.162.639-.21,1.017-.104.969.592,1.762,1.545,2.549,2.353.443-.362.826-.733,1.197-1.168.3-.349.619-.68.936-1.013.547-.578,1.089-1.16,1.626-1.748.297-.325.594-.649.893-.973.049-.053.097-.106.148-.161.132-.143.265-.285.398-.428.07-.075.14-.15.212-.227.369-.338.699-.271,1.161-.165Z" fill="#6232d7"/></svg>