<?xml version="1.0" encoding="UTF-8"?>
<svg id="a" xmlns="http://www.w3.org/2000/svg" width="83.06" height="83.06" viewBox="0 0 83.06 83.06">
  <defs>
    <style>
      .cls-1 {
        fill: #eae5ff;
      }

      .cls-2 {
        fill: #6232d7;
      }
    </style>
  </defs>
  <circle class="cls-1" cx="41.53" cy="41.53" r="41.53"/>
  <g>
    <path class="cls-2" d="M48.038,29.051c.04,.031,.079,.062,.12,.094q2.665,2.113,3.099,3.418c.052-.003,.103-.007,.157-.01,2.005-.071,4.037,.772,5.55,2.059,.044,.035,.088,.071,.134,.107q.294,.237,.378,.405,.042,.516-.11,.768c-.253,.152-.484,.158-.768,.11-.182-.116-.319-.219-.476-.361-.884-.743-1.858-1.217-2.963-1.541-.083-.025-.165-.05-.25-.075-2.145-.534-4.397-.052-6.266,1.059-1.787,1.12-2.919,2.972-3.408,4.992-.556,2.588,.273,4.896,1.657,7.047,.308,.47,.628,.93,.951,1.39,.073,.105,.146,.21,.219,.315,.506,.724,1.028,1.435,1.553,2.144,.128,.172,.255,.345,.381,.518,.496,.677,1,1.347,1.51,2.012,.373,.489,.736,.984,1.093,1.485,.036,.051,.073,.102,.11,.155,.032,.045,.063,.089,.096,.135q.089,.124,.232,.259c.626-.812,1.24-1.631,1.846-2.457,.217-.296,.434-.591,.651-.886,.043-.058,.085-.116,.129-.175,.235-.319,.471-.636,.709-.952,.182-.241,.362-.483,.543-.724,.034-.046,.069-.092,.104-.14,.543-.73,1.056-1.479,1.563-2.235,.07-.104,.14-.208,.21-.312,1.542-2.289,2.538-4.612,2.069-7.442-.212-.942-.557-1.817-1.064-2.637-.152-.275-.192-.455-.175-.769q.11-.215,.293-.366c.24-.064,.416-.102,.656-.03,.214,.148,.315,.35,.436,.574,.025,.046,.051,.092,.077,.14,1.229,2.256,1.561,4.891,.846,7.371-.409,1.348-1.088,2.491-1.87,3.651-.042,.063-.084,.126-.128,.19-.622,.926-1.262,1.837-1.921,2.736-.04,.055-.08,.11-.122,.167-.543,.744-1.097,1.48-1.657,2.211-.303,.396-.598,.796-.885,1.204-.338,.478-.69,.945-1.044,1.411-.085,.113-.168,.227-.251,.341q-.409,.557-.797,.665c-.373,.027-.615-.023-.908-.26-.281-.254-.492-.541-.706-.851-.082-.116-.164-.232-.246-.348-.042-.06-.085-.12-.128-.182-.231-.325-.468-.645-.705-.965-.045-.061-.09-.122-.137-.185-.105-.143-.211-.285-.316-.428-.297,.104-.523,.249-.777,.434-2.353,1.66-5.256,2.709-8.149,2.785-.056,.001-.113,.003-.171,.005-3.495,.079-6.945-.829-9.78-2.931-.046-.034-.092-.067-.139-.102-.652-.484-1.25-1.02-1.837-1.581q-.074-.07-.15-.141c-.376-.362-.7-.766-1.021-1.176-.031-.04-.063-.08-.095-.121-1.957-2.519-3.156-5.671-3.231-8.868q.034-.23,.163-.406c.219-.158,.348-.155,.609-.141,.194,.033,.299,.1,.432,.244,.07,.211,.095,.383,.115,.603,.008,.078,.016,.156,.024,.237,.016,.16,.032,.321,.046,.481,.086,.814,.277,1.517,.472,2.337,1.883,.024,3.767,.048,5.707,.073-.072-.628-.145-1.256-.219-1.902-.032-.562-.061-1.121-.073-1.683-.001-.053-.002-.105-.004-.159-.007-.337-.004-.674,.004-1.012q.002-.09,.004-.183c.029-1.148,.156-2.256,.289-3.403-1.883,.024-3.767,.048-5.707,.073q-.31,1.279-.485,2.561c-.014,.16-.028,.32-.044,.48-.006,.068-.011,.136-.017,.206-.046,.224-.127,.372-.259,.558-.229,.114-.484,.124-.732,.073-.208-.153-.283-.242-.332-.497,.036-3.944,1.897-7.603,4.575-10.405,.046-.05,.093-.099,.141-.15,4.809-4.993,12.992-5.674,20.565-1.094Zm-8.999-1.975v8.926c.771,.015,1.542,.03,2.337,.046q.363,.01,.734,.02c.193,.002,.387,.004,.58,.006q.074,.003,.15,.006,.621,.027,1.162-.237c.165-.183,.309-.37,.451-.572,.042-.038,.084-.076,.127-.115q.125-.118,.086-.395c-.062-.416-.191-.808-.327-1.205-.026-.077-.052-.154-.079-.233-.238-.687-.511-1.35-.831-2.003q-.039-.08-.079-.163c-.501-1.017-1.118-1.862-1.896-2.691q-.06-.069-.122-.139c-.564-.615-1.347-1.03-2.146-1.252h-.146Zm-3.146,.878c-.06,.049-.12,.098-.182,.148-1.929,1.656-2.881,4.146-3.577,6.523-.018,.062-.037,.124-.056,.188-.017,.06-.034,.119-.051,.181-.015,.052-.029,.103-.045,.156-.059,.28-.082,.567-.114,.851h5.926v-8.926c-.678,0-1.4,.466-1.902,.878Zm-7.463,3.073c-.042,.04-.083,.079-.126,.12-1.431,1.369-2.542,2.996-3.239,4.855h5.487q.207-.775,.413-1.551c.639-2.374,1.558-4.617,3.172-6.497,.098-.122,.196-.243,.293-.366-2.07,0-4.611,2.105-6,3.439Zm14.048-3.366c.056,.074,.112,.148,.169,.224q.06,.081,.122,.164c.107,.142,.215,.283,.325,.424,1.29,1.67,2.048,3.629,2.676,5.627,.045-.026,.089-.051,.135-.078,1.221-.688,2.5-1.174,3.889-1.385-.289-.4-.594-.771-.933-1.129-.045-.048-.09-.096-.137-.145-1.579-1.659-3.729-3.079-5.954-3.701h-.293Zm-10.902,9.658c-.049,.282-.077,.567-.11,.851-.01,.085-.02,.171-.03,.259-.09,.824-.135,1.647-.153,2.476-.002,.09-.004,.18-.007,.273-.003,.251,0,.5,.007,.751,.001,.058,.003,.116,.004,.176,.022,.858,.081,1.706,.179,2.559,.01,.084,.019,.167,.029,.253q.012,.362,.154,.671c.191,.007,.381,.009,.572,.008,.061,0,.122,0,.185,0,.198,0,.396,0,.594-.001,.122,0,.244,0,.366,0,.453,0,.907-.001,1.36-.002q1.519-.002,3.068-.005v-8.341c-1.013-.002-2.025-.003-3.068-.005-.32,0-.64-.001-.97-.002q-.286,0-.572,0c-.128,0-.256,0-.383,0-.193,0-.386,0-.579,0q-.086,0-.174,0-.257-.023-.472,.082Zm7.463-.073v8.341h3.512c-.145-.459-.29-.917-.439-1.39-.137-.607-.262-1.207-.293-1.829-.004-.077-.008-.153-.012-.232-.045-1.781,.433-3.248,1.109-4.889h-3.878Zm-13.975,9.585q.295,.786,.668,1.523c.028,.048,.056,.097,.084,.147,1.789,3.06,4.72,5.672,8.179,6.663,.144,.032,.289,.058,.434,.082q-.086-.097-.174-.197c-1.943-2.289-2.907-4.979-3.579-7.869q-.043-.198-.125-.349h-5.487Zm6.804,0c.32,2.883,1.765,6.171,4.02,8.076,.6,.457,1.17,.687,1.907,.851v-8.926h-5.926Zm7.17,0v8.926c1.094-.298,1.779-.754,2.561-1.536,.059-.059,.118-.118,.178-.178,1.258-1.328,2.042-3.154,2.602-4.87,.027-.074,.055-.148,.083-.224-.016-.375-.253-.646-.462-.946-.043-.064-.086-.128-.131-.194-.081-.12-.163-.24-.246-.36-.14-.204-.277-.41-.414-.616h-4.17Zm6.292,3.292c-.02,.05-.04,.1-.061,.151-.625,1.538-1.293,2.951-2.327,4.256-.162,.209-.313,.425-.465,.641,.46-.04,.847-.188,1.271-.366,.071-.029,.142-.059,.215-.089,1.179-.499,2.439-1.103,3.343-2.032q-.044-.058-.088-.117c-.137-.182-.274-.364-.41-.546-.05-.066-.099-.132-.15-.2-.343-.458-.683-.917-1.017-1.382-.077-.107-.157-.212-.237-.316h-.073Z"/>
    <path class="cls-2" d="M55.079,36.572c1.17,.994,2.108,2.481,2.251,4.039,.122,1.857-.221,3.424-1.39,4.902-.043,.055-.087,.111-.131,.167-.938,1.125-2.44,1.919-3.893,2.101-1.035,.057-2.015,.049-3-.293-.078-.027-.155-.053-.235-.08-1.592-.604-2.811-1.897-3.516-3.422-.675-1.556-.628-3.342-.039-4.916,.29-.704,.726-1.33,1.229-1.898,.042-.049,.085-.098,.128-.149,.718-.778,1.658-1.278,2.652-1.607q.106-.037,.213-.075c1.953-.572,4.175-.036,5.73,1.231Zm-7.846,1.479c-.95,1.109-1.388,2.471-1.301,3.923,.168,1.44,.888,2.697,2.014,3.593,1.202,.842,2.529,1.152,3.986,.949,.981-.183,1.806-.638,2.545-1.294,.047-.041,.093-.081,.141-.123,.373-.346,.628-.757,.883-1.194,.029-.047,.057-.095,.087-.143,.599-1.074,.666-2.412,.38-3.588-.239-.773-.59-1.442-1.125-2.049-.048-.055-.096-.11-.145-.166-.766-.821-1.89-1.444-3.026-1.529-1.735-.044-3.2,.332-4.438,1.623Z"/>
    <path class="cls-2" d="M51.841,38.743c.048,0,.097,0,.147,0,.102,0,.204,0,.306,.002,.155,.002,.309,0,.464-.002,.668-.001,1.105,.063,1.626,.502,.371,.443,.555,.846,.546,1.43-.045,.439-.251,.845-.528,1.182-.38,.29-.713,.45-1.195,.446-.058,0-.117,0-.177,0-.06,0-.121-.001-.183-.002-.061,0-.123,0-.186-.001-.151,0-.303-.002-.454-.004,0,.043,.002,.086,.002,.13,.003,.195,.005,.389,.007,.584,.001,.067,.002,.135,.004,.204,0,.065,0,.13,.001,.197,0,.06,.002,.12,.002,.181-.019,.189-.061,.301-.163,.46-.274,.183-.407,.186-.732,.146-.233-.184-.351-.295-.412-.588,0-.083,0-.166,0-.251-.001-.094-.002-.188-.003-.286,0-.102,.001-.204,.002-.307,0-.105,0-.211-.001-.316,0-.22,0-.441,.002-.661,.002-.282,0-.565-.001-.847-.001-.217,0-.435,0-.652,0-.104,0-.208,0-.312,0-.146,0-.291,.003-.437,0-.083,0-.165,0-.251q.046-.213,.217-.386c.249-.153,.415-.157,.706-.159Zm.367,1.283v1.024c.175,.01,.35,.017,.526,.023,.049,.003,.099,.006,.149,.009,.289,.007,.41-.022,.641-.202q.17-.185,.152-.424c-.092-.248-.141-.304-.37-.43-.196-.016-.373-.021-.567-.014-.051,0-.102,.002-.155,.003-.125,.003-.251,.007-.376,.011Z"/>
    <path class="cls-2" d="M48.81,38.741c.287,.047,.37,.107,.544,.334,.099,.198,.083,.353,.084,.575,0,.09,0,.18,.001,.272,0,.099,0,.197,0,.296,0,.101,0,.202,0,.302,0,.211,0,.423,0,.634,0,.271,0,.542,.002,.812,0,.208,0,.417,0,.625,0,.1,0,.2,0,.299,0,.14,0,.279,0,.419,0,.079,0,.159,0,.241-.018,.209-.048,.326-.164,.499-.274,.183-.407,.186-.732,.146-.231-.183-.351-.294-.412-.585,0-.081,0-.163,0-.246q-.002-.139-.003-.28c0-.1,.001-.201,.002-.301,0-.104,0-.207-.001-.311,0-.217,0-.433,.002-.65,.002-.277,0-.554-.001-.832-.001-.214,0-.428,0-.641,0-.102,0-.204,0-.307,0-.143,0-.286,.003-.429,0-.081,0-.163,0-.246,.081-.383,.293-.566,.673-.626Z"/>
  </g>
</svg>