<?xml version="1.0" encoding="UTF-8"?><svg id="a" xmlns="http://www.w3.org/2000/svg" width="72" height="72" viewBox="0 0 72 72"><rect width="72" height="72" rx="2.065" ry="2.065" fill="#eae5ff"/><path d="M39.103,32.066c1.076.945,1.895,2.109,2.012,3.584.08,1.557-.237,2.884-1.275,4.091-.562.592-1.144,1.032-1.881,1.377q-.208.096-.453.269c.092.013.185.026.28.039,2.006.305,3.825,1.221,5.069,2.885,1.004,1.4,1.498,2.853,1.51,4.578,0,.101.001.203.002.307.001.214.002.428.003.642.001.218.003.436.005.655.004.316.005.632.006.949.002.097.003.193.005.293-.003.905-.297,1.635-.919,2.294-.532.423-1.083.64-1.764.642-.106,0-.212.002-.321.002-.115,0-.23,0-.348,0-.123,0-.246.001-.369.002-.334.002-.667.002-1.001.002-.209,0-.417,0-.626,0-.729.002-1.458.002-2.187.002-.678,0-1.356.002-2.035.005-.583.002-1.167.003-1.75.003-.348,0-.696,0-1.044.002-.327.002-.655.002-.982,0-.176,0-.353.001-.529.003-.64-.004-1.125-.072-1.682-.4-.071-.041-.142-.083-.215-.126-.579-.432-.914-.939-1.1-1.642-.028-.342-.029-.684-.029-1.027,0-.1-.001-.2-.002-.303,0-.211-.001-.423-.001-.634,0-.319-.004-.638-.007-.957-.007-1.4.08-2.663.702-3.941.03-.062.059-.123.089-.187.887-1.768,2.45-3.068,4.288-3.736.589-.169,1.191-.263,1.797-.353-.258-.174-.518-.307-.794-.448-1.245-.675-2.139-1.722-2.622-3.059-.419-1.426-.242-2.963.442-4.27.777-1.228,1.945-2.117,3.341-2.51,1.51-.272,3.179-.038,4.385.966Z" fill="#6232d7"/><path d="M27.103,32.663c.898.684,1.642,1.556,1.813,2.713.125,1.542-.104,2.683-1.109,3.886-.517.562-1.148.927-1.871,1.152.073.008.147.015.222.023,1.113.135,2.153.424,3.109,1.038-.13.318-.303.479-.564.696-1.809,1.614-2.779,3.936-2.959,6.339-.029.546-.036,1.092-.043,1.639-.003.163-.006.326-.009.489-.007.393-.013.786-.018,1.179-.808.008-1.616.014-2.423.018-.375.002-.75.004-1.125.008-.363.004-.725.006-1.088.007-.138,0-.276.002-.413.004-1.093.015-1.931-.111-2.753-.896-.712-.828-.718-1.73-.721-2.773,0-.199-.004-.398-.006-.598-.014-1.88.466-3.522,1.693-4.965.054-.064.108-.128.163-.194,1.165-1.278,2.81-1.855,4.483-2.016-.054-.018-.108-.037-.164-.056-1.154-.423-2.021-1.257-2.553-2.371-.411-1.051-.449-2.386-.029-3.443.569-1.126,1.423-1.98,2.604-2.429,1.267-.338,2.674-.183,3.764.547Z" fill="#6232d7"/><path d="M49.544,32.663c.898.684,1.642,1.556,1.813,2.713.125,1.542-.104,2.683-1.109,3.886-.517.562-1.148.927-1.871,1.152.073.008.147.015.222.023,1.903.232,3.441,1.033,4.698,2.502.925,1.214,1.4,2.646,1.409,4.173,0,.064,0,.127.002.193,0,.134.001.268.002.402,0,.203.004.405.006.607.007,1.003-.069,1.823-.726,2.615-.498.506-1.08.859-1.795.909-.111,0-.222,0-.336-.001q-.092,0-.187,0c-.202,0-.404-.001-.606-.003-.141,0-.282,0-.422,0-.369,0-.738-.002-1.108-.004-.377-.002-.755-.003-1.132-.004-.739-.002-1.479-.005-2.218-.009-.001-.099-.003-.198-.004-.299-.005-.375-.012-.749-.019-1.124-.003-.161-.005-.321-.007-.482-.038-2.942-.774-5.503-2.851-7.653-.172-.165-.344-.31-.531-.459-.06-.049-.119-.098-.181-.149v-.177c1.067-.59,2.104-.974,3.331-1.061-.054-.018-.108-.037-.164-.056-1.154-.423-2.021-1.257-2.553-2.371-.411-1.051-.449-2.386-.029-3.443.569-1.126,1.423-1.98,2.604-2.429,1.267-.338,2.674-.183,3.764.547Z" fill="#6232d7"/><path d="M35.923,15.005c.071-.002.143-.003.216-.005.537.103.781.412,1.083.845.116.174.23.349.344.525.115.175.231.35.346.525.05.077.101.155.153.234.093.139.19.275.292.407q.113.16.113.337c.108.023.216.046.328.07.515.116,1.022.255,1.53.4.092.025.185.05.28.076.597.171,1.018.342,1.402.852.128.451.12.768-.084,1.182-.244.408-.538.777-.831,1.149-.109.139-.218.279-.326.418-.048.061-.096.122-.145.184-.045.058-.09.116-.137.176-.049.05-.097.1-.147.151-.177.31-.149.625-.145.972-.001.154-.002.307-.003.461,0,.241,0,.482.001.723,0,.233-.001.467-.003.7.001.072.002.143.004.217-.007.519-.126.743-.495,1.107-.313.24-.675.226-1.052.177-.421-.125-.829-.283-1.238-.442-.217-.084-.435-.167-.653-.249-.096-.037-.191-.074-.29-.112-.513-.152-.871-.079-1.363.112-.106.04-.212.08-.321.121-.166.064-.332.128-.497.192q-1.176.454-1.774.378c-.342-.182-.599-.366-.789-.707-.014-.251-.014-.483-.002-.733.004-.148.007-.296.01-.444.002-.077.003-.154.005-.233q.03-1.735-.85-3.176c-.105-.103-.213-.203-.322-.302-.438-.421-.748-.844-.798-1.46.005-.387.13-.602.378-.901.29-.26.581-.354.951-.465.057-.017.115-.035.173-.052.121-.036.241-.072.362-.108.185-.054.369-.11.553-.166q.902-.27,1.204-.27c.022-.064.045-.128.068-.193.113-.263.248-.462.419-.691.205-.276.406-.553.595-.84q.051-.077.104-.156c.097-.147.193-.294.289-.441.3-.383.577-.546,1.062-.547Z" fill="#6232d7"/><path d="M22.364,18.812c.066-.004.131-.009.199-.013.328.07.53.239.744.488.081.138.157.279.23.421.449.866.852,1.46,1.797,1.771.391.118.788.207,1.186.299q.62.156.851.39c.196.413.241.736.143,1.185-.147.293-.337.53-.548.779-.051.064-.103.128-.156.194-.096.119-.193.238-.291.356-.048.057-.095.115-.144.174-.063.066-.126.133-.191.201-.21.317-.201.525-.198.904,0,.129-.002.258-.003.387,0,.202.002.403.004.605.001.196,0,.392-.002.588q.001.175.003.353c-.068.418-.197.556-.491.851-.372.188-.81.133-1.198.02-.332-.124-.659-.259-.986-.396-.966-.383-1.577-.117-2.513.248-.475.177-.845.261-1.352.216-.297-.15-.474-.253-.629-.552-.086-.292-.074-.511-.049-.814q.121-1.579-.565-2.954c-.148-.162-.299-.319-.454-.475-.282-.306-.564-.653-.599-1.079.014-.385.089-.64.378-.912.394-.258.869-.361,1.317-.49q.157-.048.317-.096.768-.23,1.075-.23c.018-.057.037-.115.055-.174.167-.375.398-.692.635-1.025.046-.067.093-.133.141-.202q.699-.992,1.295-1.019Z" fill="#6232d7"/><path d="M49.472,18.806c.064,0,.128,0,.194,0,.37.071.584.233.813.53.054.087.109.175.165.265.277.436.564.86.866,1.28q.11.173.11.35c.112.024.223.048.338.073.454.102.902.222,1.349.353.076.021.153.042.231.063.46.135.76.264,1.062.661.115.269.125.506.088.796-.131.3-.324.54-.526.796-.075.099-.15.197-.224.296-.153.202-.307.403-.462.604-.313.409-.386.587-.374,1.102.002.116.004.233.005.353.004.184.008.369.013.553.004.179.007.357.009.536q.004.16.008.323c-.038.421-.162.719-.482.996-.775.312-1.496-.078-2.22-.364-.961-.362-1.565-.136-2.484.248-.468.186-.911.307-1.416.216-.269-.153-.474-.336-.614-.619,0-.203.003-.406.009-.609q.092-1.671-.601-3.115c-.134-.136-.272-.266-.415-.393-.293-.278-.532-.584-.63-.981.001-.07.002-.14.003-.212-.001-.07-.002-.141-.003-.213.088-.339.215-.554.497-.754.289-.097.579-.163.876-.231.965-.223,1.696-.44,2.293-1.298.202-.332.389-.67.571-1.013.231-.393.492-.603.95-.591Z" fill="#6232d7"/></svg>