<?xml version="1.0" encoding="UTF-8"?>
<svg id="Layer_1" data-name="Layer 1" xmlns="http://www.w3.org/2000/svg" width="32.92" height="32.92" viewBox="0 0 32.92 32.92">
  <defs>
    <style>
      .cls-1 {
        fill: #eae5ff;
      }

      .cls-2 {
        fill: #5c49e6;
      }
    </style>
  </defs>
  <path class="cls-1" d="M16.46,0h0c9.09,0,16.46,7.37,16.46,16.46h0c0,9.09-7.37,16.46-16.46,16.46h0C7.37,32.92,0,25.55,0,16.46H0C0,7.37,7.37,0,16.46,0Z"/>
  <g>
    <path class="cls-2" d="M7.48,6.42s.06,0,.1,0c.07,0,.13,0,.2,0,.1,0,.2,0,.31,0,.07,0,.13,0,.2,0,.03,0,.06,0,.09,0,.15,0,.22,.01,.34,.1,.1,.14,.09,.23,.07,.39-.09,.12-.14,.17-.29,.19-.05,0-.09,0-.14,0q-.08,0-.15,0t-.16,0c-.1,0-.21,0-.31,0q-.07,0-.14,0c-.18,.02-.3,.05-.43,.18-.06,.16-.05,.33-.05,.49,0,.03,0,.06,0,.1,0,.11,0,.21,0,.32,0,.07,0,.15,0,.22,0,.15,0,.31,0,.46,0,.2,0,.4,0,.59,0,.15,0,.31,0,.46,0,.07,0,.15,0,.22,0,.1,0,.2,0,.31t0,.09c0,.2,.04,.36,.1,.55,.15,.03,.28,.05,.43,.05,.04,0,.08,0,.13,0q.07,0,.14,0,.07,0,.15,0c.14,0,.27,0,.41,0,.15,0,.3,0,.44,0,.29,0,.58,0,.87,0,.24,0,.47,0,.71,0,.67,0,1.34,0,2,0,.04,0,.07,0,.11,0,.04,0,.07,0,.11,0,.58,0,1.17,0,1.75,0,.6,0,1.2,0,1.8,0,.34,0,.67,0,1.01,0,.29,0,.57,0,.86,0,.15,0,.29,0,.44,0,.16,0,.32,0,.48,0,.05,0,.09,0,.14,0,.04,0,.08,0,.13,0,.04,0,.07,0,.11,0,.11-.01,.18-.04,.27-.1,.11-.15,.1-.33,.1-.51,0-.03,0-.07,0-.1,0-.11,0-.22,0-.34,0-.08,0-.16,0-.23,0-.16,0-.33,0-.49,0-.21,0-.42,0-.63,0-.16,0-.32,0-.48,0-.08,0-.15,0-.23,0-.11,0-.22,0-.32t0-.1q0-.22-.1-.41c-.22-.1-.42-.1-.65-.1-.04,0-.08,0-.12,0-.13,0-.26,0-.4,0-.1,0-.19,0-.29,0-.2,0-.41,0-.61,0-.32,0-.65,0-.97,0-.45,0-.91,0-1.36,0-.03,0-.06,0-.09,0-.47,0-.93,0-1.4,0-.48,0-.96,0-1.44,0-.32,0-.64,0-.96,0-.2,0-.4,0-.6,0-.09,0-.19,0-.28,0-.13,0-.25,0-.38,0-.04,0-.07,0-.11,0-.18,0-.25,0-.38-.13-.08-.16-.07-.25-.02-.41,.07-.08,.1-.12,.21-.14t.09,0s.07,0,.11,0c.04,0,.08,0,.12,0,.04,0,.08,0,.12,0,.14,0,.27,0,.41,0,.1,0,.2,0,.29,0,.27,0,.53,0,.8,0,.22,0,.44,0,.67,0,.5,0,.99,0,1.49,0h.09s.04,0,.09,0c.48,0,.96,0,1.44,0,.49,0,.99,0,1.48,0,.28,0,.56,0,.83,0,.26,0,.52,0,.78,0,.1,0,.19,0,.29,0q.94,0,1.25,.29c.27,.29,.31,.62,.31,1q0,.05,0,.1c0,.11,0,.23,0,.34,0,.08,0,.16,0,.24,0,.17,0,.33,0,.5,0,.21,0,.42,0,.63,0,.16,0,.33,0,.49,0,.08,0,.16,0,.23q0,1.02-.33,1.36c-.2,.17-.37,.23-.63,.23v.73c.06,0,.11,.01,.17,.02,.26,.06,.43,.21,.6,.41,.16,.26,.17,.47,.17,.77q.08,0,.15,0c.48,0,.95,0,1.43,0,.24,0,.49,0,.73,0,.24,0,.47,0,.71,0,.09,0,.18,0,.27,0,.13,0,.25,0,.38,0,.04,0,.07,0,.11,0,.2,0,.34,.01,.5,.14q.04,.08,.05,.17s0,.06,.01,.09c-.03,.15-.11,.21-.23,.31-.14,.03-.27,.03-.41,.02q-.06,0-.12,0c-.13,0-.27,0-.4,0-.09,0-.19,0-.28,0-.24,0-.49,0-.73,0-.25,0-.5,0-.75,0-.49,0-.98,0-1.46-.01,.07,.23,.14,.45,.21,.68q3.03,.02,6.12,.04c-.01-.23-.03-.45-.04-.68-.07,0-.13,0-.2,0-.09,0-.17,0-.26,0-.04,0-.09,0-.13,0q-.32-.01-.46-.11c-.08-.14-.08-.24-.06-.39,.08-.14,.11-.16,.26-.21,.15-.01,.3,0,.46-.01q.06,0,.13,0c.3,0,.55,.02,.79,.22,.02,.03,.04,.05,.06,.08,.02,.03,.04,.05,.06,.08,.09,.13,.1,.25,.1,.4,0,.04,0,.08,0,.12,0,.04,0,.08,0,.12,0,.04,0,.08,0,.12,0,.1,0,.2,0,.3,.08,0,.17,0,.25,0,.17,0,.29,.08,.41,.2,.18,.21,.2,.33,.2,.59,0,.03,0,.07,0,.1,0,.11,0,.22,0,.33,0,.08,0,.16,0,.24,0,.21,0,.43,0,.64,0,.13,0,.27,0,.4,0,.42,0,.83,0,1.25,0,.48,0,.96,0,1.44,0,.37,0,.74,0,1.12,0,.22,0,.44,0,.67,0,.21,0,.42,0,.63,0,.08,0,.15,0,.23,0,.1,0,.21,0,.31t0,.09c0,.21-.06,.33-.19,.5-.19,.17-.29,.22-.55,.22q-.08,0-.16,0c-.06,0-.12,0-.18,0-.06,0-.12,0-.19,0-.17,0-.34,0-.51,0-.18,0-.35,0-.53,0-.34,0-.67,0-1.01,0-.38,0-.76,0-1.15,0-.79,0-1.57,0-2.36,0,0,.03,0,.06,0,.1,0,.04,0,.08,0,.13,0,.04,0,.08,0,.13,0,.16-.02,.32-.05,.48,0,.03-.01,.06-.02,.09-.2,1.03-.78,1.95-1.63,2.57-.98,.65-2.11,.91-3.28,.71-1.08-.22-1.96-.85-2.62-1.72-.09-.13-.11-.22-.11-.38q.04-.14,.09-.22c.14-.08,.27-.08,.43-.05,.12,.09,.19,.19,.28,.3,.53,.69,1.25,1.21,2.14,1.35,.04,0,.07,0,.11,.01,.04,0,.08,.01,.12,.02,.87,.1,1.77-.13,2.47-.67,.76-.62,1.23-1.45,1.34-2.43,.06-.96-.22-1.86-.85-2.6-.56-.63-1.37-1.06-2.21-1.13-1.06-.06-1.95,.24-2.75,.94-.58,.55-.95,1.36-1.03,2.15,0,.25,0,.5,.01,.74,0,.05,0,.1,0,.15q0,.07,0,.14c-.02,.15-.07,.2-.19,.29-.16,.02-.26,.03-.4-.06-.16-.24-.16-.53-.16-.81,0-.05,0-.09,0-.14q0-.05,0-.1s-.06,0-.09,0c-.75,0-1.51,0-2.26,0-.37,0-.73,0-1.1,0-.32,0-.64,0-.95,0-.17,0-.34,0-.51,0-.16,0-.32,0-.48,0-.09,0-.17,0-.26,0-.37,0-.6-.05-.89-.29-.23-.27-.29-.46-.29-.81q0-.06,0-.12c0-.13,0-.25,0-.38,0-.09,0-.18,0-.27,0-.19,0-.37,0-.56,0-.24,0-.47,0-.71,0-.18,0-.37,0-.55,0-.09,0-.17,0-.26q0-.89,.29-1.21,.11-.1,.22-.16s.07-.04,.11-.06q.11-.04,.32-.04v-.73c-.08-.01-.17-.03-.26-.04-.27-.12-.45-.31-.6-.56-.06-.17-.05-.33-.05-.5,0-.04,0-.08,0-.12,0-.13,0-.25,0-.38,0-.04,0-.09,0-.13,0-.23,0-.46,0-.69,0-.24,0-.47,0-.71,0-.18,0-.36,0-.55,0-.09,0-.17,0-.26,0-.12,0-.24,0-.37,0-.04,0-.07,0-.11,0-.28,.08-.5,.26-.72,.2-.16,.39-.3,.66-.3v-.73q-.15-.02-.3-.04-.11-.05-.2-.11s-.05-.03-.09-.06c-.22-.22-.33-.47-.34-.78,0-.04,0-.07,0-.11,0-.04,0-.08,0-.12,0-.13,0-.25,0-.38,0-.09,0-.18,0-.27,0-.19,0-.37,0-.56,0-.24,0-.47,0-.71,0-.18,0-.37,0-.55,0-.09,0-.17,0-.26q0-.9,.29-1.21c.26-.2,.47-.26,.8-.27Zm.53,5.44v.68h10.87v-.68H8.02Zm-.9,1.58c-.05,.15-.05,.29-.05,.45,0,.03,0,.07,0,.1,0,.11,0,.22,0,.32,0,.07,0,.15,0,.22,0,.16,0,.31,0,.47,0,.2,0,.4,0,.6,0,.15,0,.31,0,.46,0,.07,0,.15,0,.22,0,.1,0,.21,0,.31,0,.03,0,.06,0,.09,0,.2,.04,.33,.14,.5,.16,.11,.24,.1,.43,.1,.03,0,.06,0,.09,0,.1,0,.21,0,.31,0,.07,0,.15,0,.22,0,.2,0,.4,0,.61,0,.21,0,.42,0,.63,0,.4,0,.8,0,1.2,0,.45,0,.91,0,1.36,0,.93,0,1.87,0,2.8,0,0-.04,0-.08,0-.12,0-.15,0-.31,.01-.46,0-.07,0-.13,0-.2,0-.1,0-.19,0-.29,0-.03,0-.06,0-.09,.01-.34,.07-.61,.32-.85,.14-.08,.28-.09,.44-.11,.04,0,.08,0,.12-.01,.03,0,.06,0,.09,0t.03-.09c.04-.14,.09-.27,.13-.41q.02-.07,.04-.14,.14-.45,.35-.6c.22-.11,.37-.14,.62-.15t.09,0c.1,0,.2,0,.3,0,.07,0,.14,0,.21,0,.18,0,.36,0,.55,0,.19,0,.37,0,.56,0,.37,0,.73,0,1.1,0q0-.08,0-.16s0-.06,0-.09c-.05-.15-.11-.18-.24-.26-.16-.03-.32-.02-.49-.02q-.07,0-.15,0c-.14,0-.28,0-.42,0-.15,0-.3,0-.45,0-.29,0-.59,0-.88,0-.24,0-.48,0-.71,0q-.05,0-.1,0c-.07,0-.14,0-.21,0-.65,0-1.29,0-1.94,0-.59,0-1.18,0-1.77,0-.61,0-1.21,0-1.82,0-.07,0-.14,0-.21,0q-.05,0-.1,0c-.24,0-.48,0-.71,0-.29,0-.58,0-.87,0-.15,0-.3,0-.44,0-.16,0-.32,0-.48,0-.05,0-.09,0-.14,0-.26,0-.4,.01-.56,.24Zm9.63,1.03q-.04,.11-.08,.24s-.03,.1-.04,.15c-.03,.1-.06,.21-.09,.31-.01,.05-.03,.1-.04,.15q-.02,.07-.04,.14c-.04,.12-.08,.2-.17,.29-.12,.02-.23,.04-.35,.05-.11,0-.22,.02-.34,.04-.05,.1-.05,.16-.05,.27,0,.04,0,.08,0,.12,0,.04,0,.08,0,.13,0,.04,0,.09,0,.13,0,.15,0,.29,0,.44,0,.1,0,.2,0,.3,0,.27,0,.54,0,.8,0,.27,0,.55,0,.82,0,.54,0,1.07,0,1.61t.09-.03s.08-.02,.12-.03c.04-.01,.08-.02,.11-.03,.14-.04,.28-.08,.42-.12q.07-.02,.15-.04c1.04-.27,2.2-.06,3.13,.48,1.02,.62,1.62,1.64,1.9,2.78,.8,0,1.59,0,2.39,0,.37,0,.74,0,1.11,0,.32,0,.64,0,.97,0,.17,0,.34,0,.51,0,.16,0,.32,0,.48,0,.06,0,.12,0,.18,0,.08,0,.16,0,.24,0,.04,0,.09,0,.14,0q.11,0,.19-.06c.08-.13,.07-.23,.07-.38,0-.03,0-.06,0-.09,0-.1,0-.2,0-.31,0-.07,0-.15,0-.22,0-.2,0-.4,0-.59,0-.21,0-.41,0-.62,0-.35,0-.69,0-1.04,0-.45,0-.89,0-1.34,0-.38,0-.77,0-1.15,0-.12,0-.25,0-.37,0-.19,0-.39,0-.58,0-.07,0-.14,0-.21,0-.1,0-.19,0-.29,0-.05,0-.11,0-.16q0-.12-.05-.21-.06,0-.11,0c-.91,0-1.81,0-2.72-.01-.44,0-.88,0-1.32,0-.38,0-.76,0-1.15,0-.2,0-.4,0-.61,0-.19,0-.38,0-.57,0-.07,0-.14,0-.21,0-.1,0-.19,0-.29,0-.05,0-.11,0-.16,0-.14-.01-.23-.03-.35-.1q-.06-.12-.11-.28s-.02-.05-.03-.08c-.03-.09-.06-.17-.08-.26-.03-.09-.06-.17-.09-.26-.03-.08-.05-.16-.08-.24q-.03-.11-.08-.16c-.09,0-.18,0-.27,0-.03,0-.06,0-.08,0-.09,0-.18,0-.28,0-.06,0-.13,0-.19,0-.13,0-.27,0-.4,0-.17,0-.34,0-.52,0-.13,0-.26,0-.4,0-.06,0-.13,0-.19,0-.09,0-.18,0-.27,0q-.08,0-.15,0-.12,0-.2,.05Zm-8.73,3.51v.68h6.84v-.68h-6.84Zm-.86,1.5c-.1,.19-.1,.38-.1,.59,0,.03,0,.06,0,.1,0,.11,0,.21,0,.32,0,.07,0,.15,0,.22,0,.15,0,.31,0,.46,0,.2,0,.4,0,.59,0,.15,0,.31,0,.46,0,.07,0,.15,0,.22,0,.1,0,.2,0,.31,0,.03,0,.06,0,.09,0,.2,.03,.36,.16,.52,.14,.11,.31,.1,.48,.1q.07,0,.15,0c.05,0,.11,0,.16,0,.06,0,.12,0,.17,0,.16,0,.31,0,.47,0,.16,0,.33,0,.49,0,.31,0,.62,0,.93,0,.35,0,.71,0,1.06,0,.73,0,1.45,0,2.18,0,.01-.05,.03-.1,.04-.15,.02-.07,.04-.13,.06-.2,0-.03,.02-.07,.03-.1,.07-.22,.14-.43,.25-.64,.01-.03,.03-.06,.04-.09,.2-.38,.47-.88,.86-1.1,.14-.09,.24-.17,.28-.33,.03-.24,.01-.49,0-.73,0-.07,0-.15,0-.22,0-.18,0-.37-.02-.55-.97,0-1.93,0-2.9,0-.45,0-.9,0-1.35,0-.39,0-.78,0-1.17,0-.21,0-.41,0-.62,0-.19,0-.39,0-.58,0-.07,0-.14,0-.21,0-.1,0-.2,0-.29,0-.05,0-.11,0-.17,0-.16,.02-.27,.06-.4,.14Z"/>
    <path class="cls-2" d="M17.23,21.77c.18-.01,.26,0,.41,.1q.08,.12,.11,.25c-.03,.13-.06,.21-.16,.3-.15,.08-.33,.08-.5,.1-.34,.06-.64,.25-.87,.5q-.08,.11-.13,.21s.09,0,.14,0q.16,.04,.25,.15t.03,.27c-.18,.32-.59,.57-.93,.69-.15,0-.23-.02-.34-.12-.07-.1-.15-.21-.22-.31-.03-.04-.05-.07-.08-.11-.13-.21-.23-.36-.18-.62q.06-.1,.17-.17c.12-.01,.22,0,.34,0h.09c.05-.07,.09-.14,.13-.21,.31-.5,.76-.81,1.32-.98,.14-.03,.27-.04,.41-.06Z"/>
    <path class="cls-2" d="M19.39,24.1c.17,.15,.3,.32,.42,.51,.02,.03,.03,.05,.05,.08,.12,.18,.15,.31,.13,.53q-.05,.1-.13,.17c-.14,.04-.22,.06-.35,0-.03-.01-.05-.03-.08-.04-.02,.03-.04,.07-.06,.1-.39,.6-.83,1-1.54,1.16-.26,.04-.49,.08-.71-.07-.09-.15-.11-.21-.08-.38,.07-.12,.1-.15,.21-.21,.09-.02,.17-.03,.26-.04,.44-.05,.78-.22,1.06-.57q.05-.07,.09-.16l-.14-.02q-.16-.03-.24-.11c-.04-.14-.06-.22,0-.36,.11-.15,.25-.24,.41-.34l.09-.06c.22-.15,.34-.22,.61-.19Z"/>
    <path class="cls-2" d="M9.44,14.41c.24,.21,.4,.41,.43,.73,.01,.39-.09,.64-.36,.93-.23,.22-.5,.25-.8,.25-.31-.05-.52-.21-.73-.43-.19-.27-.19-.54-.17-.86,.05-.28,.21-.46,.43-.64,.38-.23,.84-.24,1.21,.02Zm-.86,.62q-.1,.12-.08,.28t.16,.28,.21,.04c.15-.07,.21-.12,.3-.26,0-.15-.01-.26-.1-.38-.2-.13-.32-.1-.5,.04Z"/>
    <path class="cls-2" d="M12.17,8.22c.28,.2,.43,.48,.49,.82,.01,.31-.12,.61-.31,.85-.32,.24-.59,.28-.98,.26-.31-.09-.57-.29-.72-.57-.11-.37-.11-.67,.07-1.02,.37-.45,.93-.65,1.47-.33Zm-.9,.73c-.03,.12-.03,.22,0,.34,.11,.13,.18,.16,.34,.2q.14-.02,.25-.14t.09-.28c-.06-.15-.12-.21-.26-.29-.19-.04-.3,.02-.43,.17Z"/>
    <path class="cls-2" d="M12.14,20.49c.24,.17,.38,.38,.49,.65,.04,.36,0,.65-.23,.95-.23,.25-.47,.34-.81,.36-.29,0-.53-.11-.75-.31-.21-.23-.3-.47-.3-.78,.04-.33,.16-.56,.4-.78,.33-.27,.82-.3,1.2-.08Zm-.87,.74c-.03,.12-.03,.22,0,.34q.08,.12,.21,.17c.18,0,.27-.01,.41-.14q.07-.12,.06-.25c-.05-.15-.09-.21-.21-.3-.21-.04-.33,0-.47,.17Z"/>
    <path class="cls-2" d="M12.25,14.43c.26,.23,.36,.5,.4,.83-.04,.34-.14,.61-.4,.83-.26,.19-.57,.25-.88,.2-.32-.08-.52-.23-.69-.51-.14-.28-.17-.53-.09-.83,.11-.28,.28-.52,.55-.65,.38-.13,.77-.11,1.11,.13Zm-.94,.6c-.07,.13-.06,.24-.04,.39,.08,.11,.14,.16,.27,.21,.17,0,.24-.06,.37-.17,.06-.15,.06-.22,0-.37-.08-.1-.13-.14-.25-.18-.15,0-.22,.04-.34,.13Z"/>
    <path class="cls-2" d="M9.42,20.52c.22,.15,.37,.36,.43,.62,.05,.36,0,.65-.21,.94-.23,.22-.47,.35-.8,.36-.31,0-.56-.09-.78-.32-.24-.31-.31-.6-.26-.99,.11-.35,.29-.54,.6-.72,.35-.13,.7-.08,1.02,.1Zm-.94,.75q-.04,.13,0,.26c.11,.14,.17,.2,.34,.24,.17-.04,.24-.1,.34-.24q.04-.13,0-.26c-.11-.14-.17-.2-.34-.24-.17,.04-.24,.1-.34,.24Z"/>
    <path class="cls-2" d="M9.32,8.18c.27,.16,.44,.39,.54,.68,.05,.36,0,.64-.21,.94-.18,.21-.41,.32-.67,.36-.35,.02-.63-.06-.89-.29-.24-.27-.3-.53-.29-.88,.04-.3,.17-.52,.4-.71,.34-.24,.74-.28,1.13-.11Zm-.83,.81q-.04,.13,0,.26c.11,.14,.17,.2,.34,.24,.17-.04,.24-.1,.34-.24q.04-.13,0-.26c-.11-.14-.17-.2-.34-.24-.17,.04-.24,.1-.34,.24Z"/>
    <path class="cls-2" d="M15.39,8.08s.07,0,.1,0c.16,0,.24,0,.38,.09,.1,.14,.09,.23,.06,.39-.12,.15-.18,.21-.37,.24-.06,0-.11,0-.17,0-.06,0-.11,0-.17,0-.16-.02-.24-.05-.37-.15-.05-.17-.06-.26,.01-.42,.14-.17,.31-.14,.52-.15Z"/>
    <path class="cls-2" d="M17.06,8.08h.1c.15,0,.25,0,.37,.09,.07,.1,.09,.15,.09,.27,0,.03,0,.06,0,.09-.04,.14-.12,.18-.24,.26q-.16,.02-.32,.02c-.06,0-.11,0-.17,0-.13-.01-.21-.03-.32-.1-.09-.11-.09-.18-.08-.32q.04-.15,.1-.22c.15-.08,.3-.08,.47-.07Z"/>
    <path class="cls-2" d="M17.06,9.45q.08,0,.17,0c.19,.03,.25,.09,.37,.24,.03,.16,.03,.25-.06,.39-.15,.11-.29,.1-.47,.1-.03,0-.06,0-.1,0-.14,0-.25,0-.37-.08-.1-.11-.1-.22-.11-.37,.03-.11,.06-.15,.15-.22,.14-.05,.27-.06,.42-.06Z"/>
    <path class="cls-2" d="M15.37,9.45q.08,0,.16,0c.16,.01,.24,.05,.36,.14,.07,.13,.06,.24,.04,.39q-.06,.09-.17,.17c-.13,.02-.23,.03-.36,.02-.03,0-.06,0-.1,0-.18,0-.25-.01-.4-.13q-.08-.12-.08-.27c.04-.14,.06-.19,.17-.27,.13-.06,.24-.05,.38-.05Z"/>
    <path class="cls-2" d="M14.05,8.1q.14,.07,.21,.17c.03,.18,.02,.27-.07,.43-.21,.13-.41,.13-.65,.09q-.14-.09-.21-.21c-.04-.17-.01-.23,.07-.38,.21-.14,.41-.13,.65-.09Z"/>
    <path class="cls-2" d="M14.14,9.52c.12,.1,.12,.14,.14,.3q-.01,.16-.08,.25c-.17,.13-.32,.1-.53,.1q-.13-.02-.28-.1c-.08-.15-.09-.23-.06-.39q.03-.08,.11-.16c.23-.08,.46-.09,.69,.02Z"/>
    <path class="cls-2" d="M18.65,8.08q.07,0,.15,0c.16,.03,.21,.06,.3,.19,.03,.12,.03,.22,0,.34q-.08,.11-.21,.17c-.23,.03-.44,.04-.64-.09-.09-.11-.09-.18-.08-.32q.04-.15,.11-.22c.13-.07,.23-.07,.38-.07Z"/>
    <path class="cls-2" d="M18.88,9.47q.14,.06,.21,.17c.03,.12,.03,.22,0,.34-.09,.13-.14,.17-.3,.19-.05,0-.1,0-.15,0-.05,0-.1,0-.15,0-.14-.02-.2-.04-.3-.15q-.04-.14-.04-.3c.19-.3,.4-.29,.73-.26Z"/>
  </g>
</svg>