<?xml version="1.0" encoding="UTF-8"?>
<svg id="a" xmlns="http://www.w3.org/2000/svg" width="83.06" height="83.06" viewBox="0 0 83.06 83.06">
  <defs>
    <style>
      .cls-1 {
        fill: #eae5ff;
      }

      .cls-2 {
        fill: #6232d7;
      }
    </style>
  </defs>
  <circle class="cls-1" cx="41.53" cy="41.53" r="41.53"/>
  <g>
    <path class="cls-2" d="M27.363,21.878c.126,0,.253,0,.379,0,.274,0,.549,0,.823,0,.408,0,.816,0,1.224,0,.771,0,1.543-.001,2.314-.001,.596,0,1.192,0,1.788,0,.172,0,.343,0,.515,0q.064,0,.129,0c1.2,0,2.401,0,3.601,0,.045,0,.09,0,.137,0,.229,0,.458,0,.688,0h.138c.092,0,.184,0,.276,0,1.432,0,2.864,0,4.296-.002,1.61-.002,3.22-.002,4.83-.002,.172,0,.344,0,.515,0q.063,0,.128,0c.679,0,1.359,0,2.038-.001,.683,0,1.367,0,2.05,0,.405,0,.811,0,1.216,0,.304,0,.607,0,.911,0,.122,0,.244,0,.367,0,1.595-.007,2.931,.326,4.122,1.453,1.159,1.192,1.309,2.605,1.306,4.193,0,.126,0,.253,0,.379,0,.274,0,.547,0,.821,0,.407,0,.813,0,1.22,0,.769,0,1.538,0,2.306,0,.594,0,1.188,0,1.781,0,.085,0,.171,0,.256,0,.129,0,.258,0,.386,0,1.196,0,2.393,0,3.589,0,.045,0,.09,0,.137,0,.228,0,.457,0,.685,0,.045,0,.091,0,.137,0,.092,0,.183,0,.275,0,1.427,0,2.854,.001,4.281,.001,1.605,.002,3.21,.001,4.814v.514c0,.042,0,.084,0,.128,0,.635,0,1.271,0,1.906,0,.723,0,1.446,0,2.168,0,.404,0,.808,0,1.212,0,.302,0,.604,0,.907,0,.122,0,.244,0,.366,.005,1.592-.306,2.909-1.438,4.084-.23,.221-.469,.404-.739,.573-.05,.033-.101,.066-.152,.1-.45,.278-.903,.422-1.417,.538-.036,.009-.072,.017-.11,.026-.309,.068-.602,.086-.917,.085q-.078,0-.158,0c-.174,0-.348,0-.522,0-.126,0-.252,0-.379,0-.274,0-.548,0-.823,0-.408,0-.816,0-1.223,0-.771,0-1.542,0-2.313,0-.595,0-1.191,0-1.786,0h-.257c-.129,0-.258,0-.387,0-1.199,0-2.398,0-3.598,0q-.068,0-.137,0c-.229,0-.458,0-.687,0-.045,0-.091,0-.138,0-.092,0-.184,0-.276,0-1.431,0-2.862,0-4.293,.001-1.608,.001-3.217,.002-4.825,.001-.172,0-.343,0-.515,0q-.063,0-.128,0c-.637,0-1.274,0-1.911,0-.725,0-1.45,0-2.175,0-.405,0-.811,0-1.216,0-.303,0-.607,0-.91,0-.122,0-.244,0-.367,0-1.456,.004-2.771-.185-3.888-1.196-.04-.036-.08-.071-.121-.108-.329-.309-.572-.656-.809-1.037-.041-.066-.084-.132-.127-.197-.143-.23-.223-.473-.3-.73-.01-.033-.02-.065-.03-.099-.207-.728-.195-1.45-.194-2.2,0-.126,0-.252,0-.379,0-.274,0-.548,0-.821,0-.407,0-.814,0-1.221,0-.727,0-1.455,0-2.182,0-.637,0-1.273,0-1.91,0-.042,0-.085,0-.128,0-.172,0-.343,0-.515,0-1.609,0-3.218,0-4.827,0-1.428,0-2.857,0-4.285,0-1.606,0-3.211,0-4.817,0-.171,0-.343,0-.514,0-.042,0-.084,0-.128,0-.636,0-1.272,0-1.908,0-.723,0-1.447,0-2.17,0-.405,0-.809,0-1.214,0-.303,0-.605,0-.908,0-.122,0-.244,0-.366q-.003-1.745,.264-2.366c.015-.036,.03-.073,.045-.11,.524-1.235,1.477-2.136,2.695-2.673,.805-.325,1.608-.309,2.462-.307Zm-3.215,2.797c-.223,.293-.389,.6-.522,.943q-.025,.061-.051,.123c-.063,.233-.061,.452-.06,.693,0,.053,0,.106,0,.16,0,.178,0,.355,0,.533,0,.128,0,.257,0,.385,0,.316,0,.633-.001,.949,0,.379,0,.758-.001,1.137-.002,.916-.002,1.832-.003,2.748,0,.433,0,.867,0,1.3-.001,1.484-.002,2.967-.003,4.451,0,.093,0,.186,0,.279,0,.093,0,.187,0,.28,0,.187,0,.375,0,.562,0,.046,0,.093,0,.141,0,1.505-.002,3.011-.004,4.516-.002,1.592-.004,3.184-.004,4.776,0,.175,0,.35,0,.524,0,.043,0,.086,0,.13,0,.692-.001,1.384-.003,2.076-.001,.696-.002,1.392,0,2.088,0,.413,0,.826-.001,1.24,0,.276,0,.553,0,.829,0,.157,0,.314,0,.472-.007,1.101,.189,1.902,.963,2.73,.906,.852,1.983,.83,3.15,.828,.125,0,.251,0,.376,0,.272,0,.544,0,.816,0,.404,0,.809,0,1.213,0,.722,0,1.444,0,2.166,0,.632,0,1.264,0,1.896,0,.042,0,.084,0,.127,0,.17,0,.341,0,.511,0,1.597,0,3.194,0,4.79,0,1.418,0,2.836,0,4.254,0,1.594,0,3.188,0,4.782,0,.17,0,.34,0,.51,0,.042,0,.084,0,.127,0,.632,0,1.263,0,1.895,0,.718,0,1.436,0,2.154,0,.402,0,.803,0,1.205,0,.3,0,.6,0,.9,0,.121,0,.243,0,.364,0,.165,0,.33,0,.495,0,.047,0,.094,0,.142,0,.918-.005,1.681-.285,2.355-.911,.781-.847,.887-1.72,.88-2.825,0-.128,0-.257,.001-.385,0-.278,0-.557,0-.835-.001-.414,0-.828,0-1.242,.001-.739,0-1.479,0-2.218-.001-.647-.001-1.294-.001-1.941,0-.043,0-.086,0-.13,0-.174,0-.349,0-.523,0-1.635,0-3.27-.003-4.904-.002-1.452-.002-2.903-.002-4.355,0-.093,0-.186,0-.28,0-.046,0-.092,0-.14,0-.232,0-.464,0-.696q0-.069,0-.139c0-1.214,0-2.428,0-3.642,0-.131,0-.261,0-.392,0-.087,0-.173,0-.26,0-.604,0-1.207,0-1.811,0-.778,0-1.556-.002-2.334,0-.411-.001-.822,0-1.234,0-.307,0-.614-.001-.922,0-.124,0-.248,0-.372,.003-1.076-.135-1.9-.915-2.7-.196-.186-.399-.339-.631-.477-.031-.019-.063-.038-.095-.057-.097-.053-.195-.096-.297-.139q-.057-.025-.116-.051c-.572-.213-1.167-.173-1.769-.17-.128,0-.255,0-.383,0-.277,0-.554,0-.831,0-.412,0-.824,0-1.236,0-.736-.001-1.472,0-2.209,0-.644,0-1.289,0-1.933,0q-.064,0-.13,0c-.174,0-.347,0-.521,0-1.628,0-3.256,0-4.884,0-1.446,0-2.892,0-4.337,0-1.625-.001-3.25-.001-4.875,0-.173,0-.347,0-.52,0-.043,0-.085,0-.129,0-.644,0-1.288,0-1.931,0-.732,0-1.464,0-2.196,0-.41,0-.819,0-1.229,0-.306,0-.612,0-.918,0-.124,0-.247,0-.371,0-1.218-.004-2.129,.232-2.946,1.191Z"/>
    <path class="cls-2" d="M32.414,27.731c.201,.139,.371,.316,.481,.536,.004,.11,.005,.221,.005,.331,0,.033,0,.065,0,.099,0,.104,0,.208-.002,.312,0,.07,0,.141,0,.211,0,.173-.001,.345-.002,.518q.051,.007,.104,.015c.307,.049,.561,.12,.834,.267q.05,.026,.102,.053c1.088,.576,1.786,1.432,2.2,2.588,.316,1.132,.08,2.305-.478,3.307-.602,.994-1.542,1.634-2.663,1.911h-.098c0,.036,0,.072,0,.108,.004,2.119,.008,4.238,.01,6.357,0,.254,0,.509,0,.763,0,.051,0,.101,0,.153,0,.82,.002,1.64,.004,2.46,.002,.841,.003,1.683,.003,2.524,0,.519,.001,1.039,.003,1.558,.001,.356,.001,.712,.001,1.068,0,.205,0,.411,.001,.616,0,.188,.001,.376,0,.565,0,.068,0,.136,0,.204,.003,.382-.01,.659-.221,.984-.148,.144-.289,.243-.49,.294-.286-.014-.547-.047-.753-.267-.229-.318-.213-.638-.209-1.017,0-.071,0-.141,0-.212,0-.194,0-.387,.002-.581,.001-.209,0-.418,0-.627,0-.362,0-.724,.002-1.086,.002-.524,.003-1.047,.003-1.571,0-.849,.002-1.699,.004-2.548,.002-.825,.004-1.65,.005-2.475,0-.051,0-.102,0-.154,0-.255,0-.51,0-.766,.003-2.117,.007-4.234,.012-6.35l-.292-.034c-.872-.129-1.746-.855-2.259-1.535-.279-.402-.485-.81-.638-1.275q-.019-.051-.038-.103c-.126-.366-.135-.717-.133-1.101,0-.032,0-.065,0-.098,.003-.535,.059-1,.269-1.492,.013-.031,.026-.061,.039-.093,.175-.407,.399-.757,.697-1.085,.04-.044,.08-.089,.121-.134,.587-.621,1.366-1.124,2.233-1.19q-.002-.064-.003-.13c-.003-.16-.006-.32-.008-.48,0-.069-.002-.138-.004-.207-.011-.438-.016-.747,.29-1.085,.281-.206,.535-.215,.862-.106Z"/>
    <path class="cls-2" d="M51.54,27.714c.248,.115,.407,.255,.531,.504,.005,.075,.006,.149,.006,.224q0,.071,0,.143t0,.157c0,.055,0,.109,0,.165,0,.181,0,.362,0,.543,0,.125,0,.25,0,.376,0,.296,0,.593-.001,.889,0,.337,0,.675-.001,1.012,0,.694-.001,1.388-.002,2.082,.054,.013,.108,.026,.164,.04,.072,.018,.143,.035,.215,.053,.036,.009,.071,.017,.108,.026,.969,.239,1.784,.965,2.309,1.794,.022,.035,.044,.069,.067,.105,.483,.811,.676,1.869,.484,2.8-.046,.179-.1,.353-.159,.528-.014,.047-.028,.094-.043,.143-.192,.596-.555,1.08-.987,1.525-.028,.031-.056,.062-.085,.094-.463,.499-1.175,.854-1.827,1.034-.082,.001-.163,.002-.245,0,0,.027,0,.055,0,.083,.005,1.621,.01,3.243,.012,4.864,0,.195,0,.389,0,.584,0,.039,0,.078,0,.117,.001,.628,.003,1.255,.005,1.883,.002,.644,.004,1.288,.004,1.932,0,.397,.001,.795,.003,1.192,.001,.305,.002,.609,.001,.914,0,.125,0,.25,.001,.375,.001,.171,0,.341,0,.512,0,.049,.001,.099,.002,.15-.003,.319-.066,.539-.277,.783-.209,.176-.407,.229-.68,.215-.251-.045-.436-.222-.592-.415-.107-.194-.084-.411-.081-.627,0-.054,0-.107,0-.163,0-.18,0-.36,.002-.54,0-.129,0-.258,0-.387,0-.278,0-.556,.002-.834,.002-.402,.003-.803,.003-1.205,0-.652,.002-1.304,.004-1.955,.002-.633,.004-1.266,.005-1.899q0-.059,0-.118c0-.196,0-.392,0-.587,.003-1.624,.007-3.248,.012-4.873-.03-.003-.06-.006-.091-.009-.04-.004-.079-.008-.12-.013q-.059-.006-.119-.012c-.909-.122-1.744-.853-2.283-1.558-.146-.212-.266-.434-.38-.664q-.027-.053-.055-.106c-.319-.658-.369-1.285-.338-2.003l.005-.168c.042-.808,.403-1.58,.927-2.186,.027-.033,.053-.066,.081-.1,.556-.673,1.338-1.108,2.175-1.322h.196c0-.028,0-.057,0-.086-.002-.69-.004-1.379-.005-2.069,0-.334-.001-.667-.002-1.001-.001-.322-.002-.644-.002-.965,0-.123,0-.246-.001-.369,0-.172,0-.344,0-.516,0-.051,0-.102-.001-.154,0-.047,0-.094,0-.142,0-.041,0-.081,0-.123,.018-.178,.068-.317,.191-.449,.03-.024,.06-.048,.09-.073,.03-.025,.06-.049,.09-.074,.205-.153,.441-.153,.678-.074Z"/>
    <path class="cls-2" d="M41.919,27.679c.251,.128,.41,.29,.539,.539q.018,.132,.018,.277c0,.055,0,.111,0,.168,0,.061,0,.121-.001,.184,0,.065,0,.129,0,.196,0,.18,0,.359,0,.538,0,.194,0,.387,0,.581,0,.335,0,.671-.001,1.006-.001,.485-.002,.97-.002,1.455,0,.787-.001,1.573-.003,2.36-.001,.764-.002,1.529-.003,2.293,0,.047,0,.094,0,.143,0,.236,0,.473,0,.709-.002,1.961-.004,3.921-.007,5.882,.033,.007,.067,.013,.101,.02q.066,.013,.133,.026c.044,.009,.087,.017,.132,.026,.974,.207,1.817,.944,2.38,1.743,.583,.947,.815,2.103,.576,3.204-.175,.622-.458,1.202-.871,1.7-.032,.039-.063,.078-.096,.118-.514,.602-1.234,1.113-2.013,1.305-.114,.001-.229,.001-.343,0,0,.034,0,.069,.001,.104,.004,.324,.007,.648,.009,.972,.001,.167,.002,.333,.005,.5,.003,.192,.003,.383,.004,.575,.001,.059,.002,.119,.003,.18,0,.33-.016,.542-.218,.808-.224,.198-.442,.257-.736,.245-.288-.082-.423-.202-.589-.441-.054-.158-.055-.305-.055-.471q0-.082,0-.167c0-.059,0-.118,0-.179,0-.061,0-.121,0-.184,0-.161,0-.322,.001-.483,0-.164,0-.329,0-.493,0-.322,.001-.644,.002-.967q-.065-.009-.132-.019c-.057-.008-.114-.017-.173-.025-.057-.008-.113-.016-.172-.025-.207-.038-.375-.107-.559-.207-.033-.017-.066-.035-.1-.052-.781-.421-1.3-.987-1.758-1.732q-.038-.059-.077-.12c-.472-.824-.556-1.978-.34-2.89,.344-1.184,1.125-2.109,2.182-2.728,.33-.162,.759-.343,1.128-.343,0-.033,0-.067,0-.101-.004-1.973-.008-3.946-.01-5.919,0-.237,0-.474,0-.71,0-.047,0-.094,0-.143,0-.764-.002-1.528-.004-2.291-.002-.784-.003-1.567-.003-2.351,0-.484-.001-.967-.003-1.451-.001-.331-.001-.663-.001-.994,0-.191,0-.383-.001-.574,0-.175-.001-.35,0-.525,0-.093,0-.187-.002-.28,.003-.377,.041-.553,.299-.828,.238-.183,.462-.228,.757-.163Z"/>
  </g>
</svg>