<?xml version="1.0" encoding="UTF-8"?><svg id="a" xmlns="http://www.w3.org/2000/svg" width="83.06" height="83.06" viewBox="0 0 83.06 83.06"><circle cx="41.53" cy="41.53" r="41.53" fill="#eae5ff"/><path d="M43.995,21.478q.153.016.31.033c1.821.2,3.703.447,5.463.972.405.103.633.094,1.001-.104.054-.033.109-.065.165-.099.122-.065.245-.13.369-.193.062-.032.124-.064.187-.097.301-.144.612-.241.932-.332.054-.016.109-.032.165-.049,2.68-.746,5.516-.307,7.915,1.045.764.446,1.424,1.004,2.066,1.609.059.055.118.109.179.166,1.561,1.491,2.675,3.856,2.79,6.024q.047,2.749-.353,4.025-.026.087-.053.175c-.452,1.431-1.262,2.959-2.395,3.961-.255.077-.401.039-.675,0q-.211-.132-.338-.338c-.042-.285-.054-.496.092-.752.133-.175.272-.342.414-.509,1.604-1.991,2.094-4.386,1.833-6.909-.325-2.211-1.663-4.316-3.422-5.661-.989-.726-2.117-1.238-3.307-1.532-.074-.019-.148-.038-.225-.057-2.185-.459-4.585-.013-6.465,1.176-1.385.919-2.419,2.048-3.187,3.524-.04.074-.08.148-.121.225-1.018,2.043-1.03,4.424-.375,6.571.381,1.076.922,2.055,1.678,2.912.037.049.075.099.113.149,1.264,1.641,3.553,2.595,5.543,2.89,1.87.119,3.385-.132,5.065-.929.396-.185.66-.308,1.097-.169q.158.09.253.253.052.464,0,.675c-.833,1.03-2.771,1.396-4.009,1.585-.24.022-.477.02-.718.019,0,.061.001.121.002.184.007.571.012,1.143.015,1.714.002.294.004.587.008.881.004.338.006.676.008,1.013.002.105.003.211.005.319,0,.098,0,.196,0,.297,0,.086.001.172.002.261-.051.286-.154.385-.378.564q-.169.048-.338.047c-.056.002-.111.004-.169.006-.273-.086-.36-.234-.506-.475-.037-.23-.058-.43-.063-.659q-.004-.088-.008-.177c-.006-.143-.01-.286-.014-.429-.065.042-.129.084-.196.127-5.942,3.768-14.976,3.591-24.844,2.169-2.022-.473-4.212-1.049-5.856-2.381-.004.694-.007,1.388-.009,2.083,0,.322-.002.645-.004.967-.002.311-.003.623-.003.934,0,.118,0,.237-.002.355-.001.167-.001.333-.001.5,0,.095,0,.189-.001.287.05.682.281,1.097.78,1.542,2.361,1.74,5.563,2.291,8.399,2.68.061.009.122.017.185.026,2.01.277,4.024.365,6.051.359.106,0,.212,0,.322,0,4.4-.011,11.41-.033,14.757-3.318.435-.513.478-.964.47-1.62q-.007-.835.187-1.178c.197-.165.272-.213.525-.204.056,0,.111,0,.169,0,.265.075.344.158.506.385.052.315.046.628.044.947q0,.145.002.293c.001.32,0,.64,0,.961,0,.223,0,.445,0,.668,0,.467,0,.935-.002,1.402-.002.539-.001,1.077,0,1.616.002.52.002,1.039,0,1.559,0,.22,0,.441,0,.661,0,.309,0,.618-.002.927,0,.09.001.181.002.274-.011.953-.321,1.603-.978,2.286-.438.395-.919.696-1.432.985-.092.052-.184.104-.279.158-2.427,1.285-5.289,1.792-7.983,2.137-.1.013-.201.026-.304.04-1.949.237-3.901.314-5.863.309-.108,0-.216,0-.327,0-1.79-.004-3.557-.072-5.334-.279-.108-.012-.217-.024-.328-.037-3.343-.387-7.789-1-10.224-3.593-.433-.552-.696-1.029-.698-1.742q0-.083-.001-.168c0-.186,0-.372,0-.559,0-.135,0-.269-.002-.404-.001-.371-.002-.741-.002-1.112,0-.4-.002-.799-.003-1.199-.002-.874-.003-1.748-.004-2.621,0-.546-.001-1.091-.002-1.637-.002-1.511-.004-3.022-.004-4.533,0-.097,0-.193,0-.293,0-.097,0-.194,0-.294,0-.196,0-.393,0-.589q0-.146,0-.295c0-1.579-.004-3.157-.008-4.735-.004-1.621-.006-3.242-.006-4.863,0-.91-.001-1.82-.004-2.73-.003-.775-.003-1.55-.002-2.325,0-.395,0-.79-.002-1.186-.002-.362-.002-.725,0-1.087,0-.131,0-.261-.002-.392-.011-.996.185-1.773.861-2.532,4.857-4.41,14.795-4.204,20.898-3.535ZM33.696,22.913c-.059.007-.117.015-.177.022q-5.426.61-9.784,3.523c-.15.3-.136.601-.084.929.454,1.101,1.748,1.677,2.786,2.11,3.008,1.173,6.254,1.606,9.454,1.857.075.006.15.012.228.018,2.946.227,5.96.083,8.889-.272.145-.309.201-.602.244-.939.335-2.63,1.611-4.651,3.471-6.489-1.292-.551-2.858-.624-4.247-.781-.062-.007-.123-.014-.187-.021-1.179-.132-2.352-.224-3.539-.228-.104,0-.209-.001-.316-.002-.336-.001-.671-.002-1.007-.002-.057,0-.115,0-.174,0-1.862,0-3.707.039-5.556.274ZM23.566,29.413c-.004.705-.007,1.41-.009,2.116,0,.327-.002.655-.004.982-.002.316-.003.633-.003.949,0,.12,0,.241-.002.361-.001.169-.001.339-.001.508,0,.096,0,.192-.001.291.053.733.334,1.15.864,1.63,3.872,2.915,10.098,3.06,14.752,3.055.083,0,.166,0,.251,0,2.789-.005,5.556-.238,8.296-.775-.111-.32-.247-.533-.47-.786-1.221-1.496-1.849-3.391-2.063-5.292-.511-.01-1.01.009-1.519.059-1.331.128-2.658.139-3.993.137-.256,0-.512,0-.768.002-4.944.029-10.605-.321-14.908-2.983-.141-.085-.281-.169-.422-.253ZM23.566,37.264c-.004.705-.007,1.41-.009,2.116,0,.327-.002.655-.004.982-.002.316-.003.633-.003.949,0,.12,0,.241-.002.361-.001.169-.001.339-.001.508,0,.096,0,.192-.001.291.05.685.28,1.098.78,1.546,3.929,2.951,9.985,3.142,14.699,3.144.094,0,.188,0,.285,0,4.575-.004,11.502-.104,14.984-3.477.47-.575.384-1.245.337-1.946-.048-.008-.097-.015-.146-.023-1.762-.282-3.647-.687-5.04-1.887-.162-.129-.257-.198-.465-.21-.062.008-.124.016-.188.024-.075.01-.15.019-.227.029-.428.066-.855.14-1.282.216-1.571.278-3.132.468-4.723.585-.075.006-.15.012-.227.018-5.844.454-13.364.159-18.446-3.025-.06-.038-.12-.075-.182-.114-.046-.029-.091-.057-.138-.087ZM23.566,52.965c-.004.705-.007,1.41-.009,2.116,0,.327-.002.655-.004.982-.002.316-.003.633-.003.949,0,.12,0,.241-.002.361-.001.169-.001.339-.001.508,0,.096,0,.192-.001.291.056.774.383,1.213.949,1.714.378.261.771.474,1.182.675.051.025.102.051.155.077,2.16,1.049,4.54,1.498,6.899,1.844.057.009.114.017.172.026,1.998.296,4.007.365,6.024.36.175,0,.349,0,.524,0,1.779-.003,3.538-.053,5.304-.279.1-.012.199-.024.302-.037q5.095-.61,9.321-3.255c.223-.379.284-.652.282-1.091q0-.084,0-.17c0-.184-.002-.367-.004-.551,0-.128,0-.256-.001-.384,0-.336-.003-.671-.006-1.007-.003-.343-.004-.686-.005-1.029-.003-.672-.007-1.344-.012-2.016-.08.046-.16.092-.242.139-.106.061-.213.122-.319.183-.052.03-.105.06-.159.091-6.106,3.494-14.792,3.299-25.705,1.57-1.682-.462-3.189-1.097-4.64-2.067Z" fill="#6232d7"/><path d="M50.843,31.645c.07.053.14.107.212.161.141.108.282.216.422.324.179.137.359.271.542.404.099.073.197.146.296.218.085.063.171.126.259.19.216.198.294.326.369.606,0,.439-.008.591-.306.918-.304.191-.529.272-.876.348.824.875,1.875,1.489,3.098,1.548,1.547.028,2.824-.343,3.969-1.429.523-.552.864-1.174,1.183-1.86q.107-.2.275-.285.609-.039.839.095c.169.298.198.574.111.903-.752,1.722-1.862,2.921-3.625,3.634-1.555.589-3.32.506-4.854-.095-.902-.414-1.745-1.045-2.347-1.836-.267.042-.493.114-.739.222-.386.147-.724.164-1.118.032-.269-.214-.398-.336-.446-.675-.002-.613.103-1.194.227-1.793.035-.17.068-.341.102-.511q.269-1.329.709-1.663c.668-.286,1.198.153,1.699.543ZM49.904,32.79c-.176.446-.218.878-.253,1.351.343-.055.636-.164.955-.301.09-.038.18-.077.273-.116q.102-.044.207-.089c-.217-.224-.437-.425-.686-.612-.058-.044-.115-.088-.175-.133q-.146-.114-.321-.099Z" fill="#6232d7"/><path d="M59.008,26.373c.43.334.821.703,1.195,1.099q.08-.026.161-.052,1.141-.359,1.638-.19c.256.179.362.292.48.58.021.433-.031.836-.117,1.259q-.018.093-.037.187c-.026.13-.053.259-.079.388-.04.197-.079.394-.117.591-.026.126-.052.253-.077.379-.011.058-.022.117-.034.177-.083.392-.221.671-.466.986-.294.188-.558.192-.9.145-.419-.128-.743-.433-1.078-.704-.075-.059-.15-.118-.228-.179-.15-.118-.298-.236-.447-.355-.269-.214-.542-.421-.817-.626-.223-.192-.391-.367-.449-.659,0-.316.012-.527.158-.813.295-.252.616-.385.976-.522-1.2-1.067-2.451-1.441-4.023-1.367-1.092.089-2.236.643-2.984,1.451-.427.529-.747,1.113-1.057,1.715q-.125.227-.294.396-.585.057-.886-.132c-.175-.285-.153-.464-.127-.797.084-.229.168-.429.28-.644.03-.058.06-.117.091-.177.82-1.529,2.155-2.543,3.812-3.048,1.856-.513,3.85-.187,5.428.913ZM60.144,29.033c-.1.039-.199.078-.302.119-.076.03-.153.061-.231.092v.253c.164.144.324.27.501.396.048.035.095.07.144.106q.206.18.452.258c.084-.474.167-.947.253-1.435-.314,0-.526.096-.818.211Z" fill="#6232d7"/></svg>