<?xml version="1.0" encoding="UTF-8"?><svg id="a" xmlns="http://www.w3.org/2000/svg" width="72.906" height="72.906" viewBox="0 0 72.906 72.906"><circle cx="36.453" cy="36.453" r="36.453" fill="#eae5ff"/><path d="M46.805,20.196c.191.209.313.415.424.674.031.071.061.142.093.216q.05.117.1.237c.036.083.072.167.107.25.102.238.203.476.304.714.073.173.147.346.221.519.24.564.479,1.127.717,1.692.049.117.099.233.149.35.115.27.224.538.316.816q.168.513.516.913c.178.084.353.151.541.209.188.062.368.14.55.218.155.066.311.131.468.195.226.093.453.186.679.279.478.197.955.394,1.433.59.284.116.567.233.851.351.106.044.213.088.32.131.149.061.297.122.445.184.043.017.087.035.131.053.295.124.507.27.738.488q.049.161.044.322c0,.053,0,.106,0,.161-.081.29-.306.447-.56.595q-.106.05-.214.101-.059.028-.118.057c-.128.061-.256.121-.384.181-.089.042-.178.085-.268.127-.275.13-.55.259-.826.388-.087.041-.174.082-.261.122-.514.24-1.029.479-1.546.715-.057.026-.113.052-.171.079-.051.023-.103.047-.155.071-.044.02-.088.04-.133.061-.203.077-.361.078-.574.046-.31-.164-.534-.393-.775-.644-.522.244-.988.672-1.291,1.159-.177.51-.133,1.063-.121,1.595,0,.159,0,.318-.002.477-.001.34,0,.68.006,1.021.007.493.008.985.008,1.478,0,.801.004,1.601.011,2.402.007.775.012,1.55.014,2.326,0,.048,0,.096,0,.145.001.476.003.952.004,1.428,0,.231.001.463.002.694,0,.045,0,.09,0,.137.002.623.005,1.247.01,1.87.002.29.004.579.006.869.001.154.002.308.004.462.002.211.003.421.005.632q.001.091.003.183c.002.792-.135,1.484-.678,2.082-.641.601-1.412.628-2.244.629-.077,0-.155,0-.235,0-.211,0-.423.001-.634.002-.132,0-.264,0-.397,0-.414,0-.828.002-1.243.002-.477,0-.954.001-1.431.003-.37.001-.739.002-1.109.002-.22,0-.441,0-.661.002-.246.001-.492,0-.737,0q-.109,0-.22.002c-.386-.002-.675-.022-1.011-.218-.163-.256-.203-.387-.157-.688.096-.22.167-.321.351-.471q.158-.032.338-.032c.068,0,.137-.001.208-.002q.112,0,.227.002c.079,0,.158,0,.24-.001.172,0,.344,0,.516,0,.272.001.544,0,.816-.001.529-.002,1.058-.002,1.587-.002.672,0,1.345,0,2.017-.003.27,0,.54,0,.81,0,.208,0,.417,0,.625-.001.074,0,.148,0,.225.002q.614.006,1.171-.218c.202-.402.221-.845.217-1.286,0-.061,0-.123,0-.186,0-.204,0-.407-.002-.611,0-.147,0-.293,0-.44,0-.397-.001-.794-.002-1.19-.001-.415-.001-.83-.002-1.246,0-.696-.002-1.393-.003-2.089-.002-.717-.003-1.434-.004-2.151,0-.044,0-.089,0-.134,0-.222,0-.444,0-.666-.002-1.84-.005-3.68-.01-5.52q-.043.033-.087.066c-.133.101-.266.201-.399.301-.045.034-.09.069-.137.104-1.561,1.174-3.481,2.05-5.461,2.068-.049,0-.098.001-.149.002-.434-.007-.776-.121-1.142-.36-.436-.455-.508-.988-.5-1.602.033-.434.108-.861.194-1.288-5.049-.021-10.097-.043-15.299-.064q.008,2.831.017,5.661c.001.381.003.763.004,1.144,0,.048,0,.096,0,.145.003.772.005,1.544.007,2.316.002.792.004,1.584.007,2.377.002.489.003.978.004,1.467,0,.375.002.749.004,1.124,0,.154,0,.308.001.462,0,.21.001.419.002.629,0,.061,0,.122,0,.185q-.001.408.147.782c.398.261.938.22,1.394.216q.119,0,.241,0c.172,0,.344,0,.515,0,.272-.001.544,0,.815,0,.724.002,1.447.002,2.171,0,.476,0,.953,0,1.429.001.27,0,.54,0,.81-.001.207,0,.415,0,.622.001.075,0,.149-.002.226-.003q.562.006.76.197c.173.247.21.378.181.682-.112.215-.188.351-.408.461-.182.057-.324.071-.514.071-.067,0-.135,0-.204.001-.073,0-.147,0-.222,0-.078,0-.155,0-.235,0-.213,0-.425,0-.638,0-.223,0-.447,0-.67,0-.375,0-.75,0-1.126,0-.432,0-.865,0-1.297,0-.372,0-.744,0-1.117,0-.222,0-.444,0-.666,0-.248,0-.496,0-.744,0-.073,0-.145,0-.22,0-.803-.004-1.49-.131-2.099-.681-.364-.386-.571-.844-.572-1.377,0-.072,0-.143-.001-.217,0-.078,0-.156,0-.237,0-.084,0-.167,0-.253,0-.231,0-.463,0-.694,0-.25,0-.5-.001-.749-.001-.489-.001-.979-.001-1.468,0-.398,0-.796,0-1.193-.001-1.128-.002-2.256-.002-3.384,0-.061,0-.122,0-.184,0-.061,0-.122,0-.184,0-.986-.001-1.973-.003-2.959-.002-1.013-.003-2.026-.003-3.039,0-.569,0-1.137-.002-1.706-.001-.484-.001-.968,0-1.453,0-.247,0-.494,0-.741-.001-.268,0-.536,0-.804,0-.078-.001-.155-.002-.236.006-.676.21-1.209.679-1.704.594-.503,1.237-.61,1.997-.597.075,0,.15,0,.228.001.207.001.414.003.62.006.224.002.447.004.671.005.337.002.674.005,1.012.008.663.006,1.327.009,1.99.011.105,0,.209,0,.314.001.159,0,.317.001.476.002.597.002,1.194.004,1.791.006.055,0,.109,0,.165,0,.883.004,1.766.011,2.649.019.908.008,1.817.013,2.725.013.559,0,1.118.004,1.677.012.384.005.768.006,1.152.004.221-.001.441,0,.662.005.829.019,1.466.024,2.097-.565.223-.234.43-.476.624-.735-.13-.277-.316-.452-.537-.663-.16-.257-.167-.466-.108-.754.122-.319.276-.619.432-.922.067-.133.133-.265.199-.398.045-.091.091-.181.136-.272.266-.529.511-1.067.757-1.606q.604-1.313.893-1.459c.279-.054.423-.032.682.085ZM46.353,22.45c-.146.288-.291.577-.435.866-.057.114-.114.228-.172.341-.092.182-.183.364-.273.547-.03.058-.06.116-.09.177-.027.055-.054.11-.082.167q-.037.073-.074.148-.05.138.009.272c.083.122.164.213.274.312q.059.054.119.109c.043.039.086.077.13.117.456.418.898.85,1.335,1.288.031.031.061.061.093.093.174.174.347.348.52.523.075-.057.149-.115.222-.173q.062-.048.125-.097c.135-.149.159-.237.17-.438q-.052-.183-.143-.373c-.033-.074-.066-.149-.1-.225-.018-.04-.036-.079-.055-.12-.097-.213-.192-.427-.287-.641-.02-.045-.041-.091-.061-.137-.253-.568-.49-1.141-.729-1.715-.043-.104-.087-.208-.13-.312-.101-.242-.201-.484-.302-.726h-.065ZM45.083,27.432c-.041.041-.082.082-.124.124-.043.042-.085.084-.129.128-.091.09-.181.18-.271.271-.135.135-.272.27-.408.404-.72.715-1.347,1.468-1.913,2.31-.034.049-.069.098-.104.149-.032.047-.064.095-.097.144-.028.041-.057.083-.086.126-.069.16-.048.217.012.379q.107.137.245.273c.052.053.104.106.157.161q.085.085.171.172c.058.058.116.117.175.177.123.123.245.246.369.369.158.157.314.316.47.475.149.151.3.302.45.452.056.057.112.115.17.174.053.052.106.104.16.158.046.046.092.093.14.14q.135.108.309.078c.167-.056.29-.127.435-.228q.08-.055.161-.112c.055-.039.11-.078.166-.118.053-.036.105-.072.159-.11.863-.607,1.615-1.328,2.354-2.076.08-.08.16-.161.24-.241.192-.193.384-.387.575-.58-.101-.243-.253-.397-.438-.582-.031-.031-.063-.063-.095-.095-.103-.103-.207-.206-.31-.309-.072-.072-.144-.144-.216-.215-.15-.15-.301-.3-.452-.45-.194-.192-.387-.385-.58-.579-.148-.148-.297-.296-.445-.444-.071-.071-.143-.142-.214-.214-.099-.099-.199-.198-.299-.297-.057-.056-.113-.113-.172-.171-.262-.23-.351-.052-.568.161ZM49.082,27.957q-.061.063-.123.127c-.041.042-.082.084-.124.127-.031.033-.062.065-.094.099.104.263.294.437.493.631.036.036.072.071.109.108.115.114.231.227.346.34.151.148.302.297.453.446.036.036.072.071.109.108.234.233.457.472.668.726q.079.098.21.153.181-.066.388-.166.058-.027.117-.054c.082-.038.164-.077.246-.115.123-.058.247-.116.37-.173.432-.202.856-.411,1.268-.651-.189-.189-.427-.261-.671-.36-.055-.023-.11-.045-.166-.068-.178-.073-.357-.146-.535-.219-.121-.05-.243-.1-.364-.15-.238-.098-.477-.196-.716-.293-.271-.111-.541-.222-.811-.334-.127-.052-.254-.105-.381-.157-.056-.023-.113-.047-.171-.071q-.325-.168-.623-.052ZM24.405,29.018c-.51.848-.194,1.973-.194,2.962h15.815l.516-1.03c.34-.628.713-1.192,1.148-1.757.099-.14.185-.286.273-.433-2.162-.006-4.324-.01-6.487-.013-.255,0-.511,0-.766,0-.051,0-.102,0-.154,0-.823-.001-1.646-.003-2.468-.006-.844-.002-1.689-.004-2.533-.004-.521,0-1.042-.001-1.563-.004-.4-.002-.799-.002-1.199-.001-.164,0-.328,0-.492-.002-.224-.001-.447,0-.671,0-.065,0-.13-.002-.196-.002-.383.003-.723.043-1.029.291ZM41.189,32.624c-.296.899-.477,1.684-.452,2.64.934.039,1.769-.13,2.647-.451-.256-.305-.522-.594-.804-.875-.038-.038-.076-.076-.115-.115-.079-.079-.159-.158-.238-.237-.122-.122-.244-.244-.366-.366-.077-.077-.155-.154-.232-.232-.037-.037-.073-.073-.111-.111q-.141-.174-.328-.254Z" fill="#6232d7"/><path d="M36.025,34.684c.181.116.291.194.387.386.005.089.007.177.006.266q0,.078,0,.157t-.002.164c0,.055,0,.109,0,.166,0,.135-.002.27-.003.406q.059.002.12.005c1.268.064,2.476.793,3.328,1.702.707.799,1.369,1.968,1.329,3.058.08-.003.16-.006.243-.009.106-.002.212-.005.318-.007.053-.002.105-.004.16-.007.267-.004.404,0,.636.144.212.226.218.399.216.699-.037.231-.165.33-.346.468-.214.107-.451.071-.686.068q-.078,0-.157,0c-.128,0-.256-.002-.384-.003-.002.038-.003.075-.005.114-.092,1.322-.858,2.539-1.83,3.408-.783.652-1.897,1.243-2.941,1.243.004.08.007.16.011.242.003.106.006.211.009.317.003.053.005.105.008.159.006.288.002.402-.183.635-.269.204-.409.205-.737.165q-.142-.037-.303-.19c-.166-.289-.169-.533-.165-.857,0-.045,0-.09,0-.137,0-.111.002-.223.003-.334-.044-.005-.088-.01-.133-.015-1.339-.181-2.563-.866-3.433-1.901-.642-.849-1.012-1.743-1.21-2.785-.071-.002-.142-.005-.215-.007-.094-.004-.188-.009-.282-.013-.047-.001-.093-.003-.141-.004-.29-.015-.48-.053-.718-.233-.164-.191-.21-.333-.198-.58.017-.211.083-.273.231-.433.252-.197.489-.183.798-.166.051.001.101.003.153.004.124.004.247.01.371.016.005-.044.01-.088.015-.133.201-1.478,1.002-2.733,2.164-3.654.727-.517,1.69-.978,2.598-.978-.002-.071-.004-.141-.007-.214-.002-.094-.004-.187-.005-.281-.002-.046-.003-.093-.005-.141-.005-.367.072-.568.32-.833.219-.112.428-.12.666-.076ZM32.751,38.781c-.543.564-1.066,1.411-1.051,2.214.067.003.134.006.203.01.088.005.177.01.265.015.044.002.088.004.133.006.236.014.426.03.625.163.164.221.157.441.129.708-.138.218-.205.304-.452.386-.154.015-.309.026-.464.036-.082.005-.164.011-.249.016-.063.004-.126.008-.191.012.043.743.39,1.353.839,1.932.041.054.083.108.125.164.513.61,1.306,1.041,2.069,1.253q.178.011.323,0,.004-.084.007-.17.044-.771.251-1.054c.204-.154.396-.154.646-.129q.299.146.387.322c.015.185.027.37.036.555.003.052.006.103.008.156.007.128.013.255.02.383.819-.165,1.5-.479,2.13-1.03.04-.034.079-.069.12-.104.633-.586,1.071-1.425,1.171-2.279-.066-.002-.132-.005-.2-.007-.088-.004-.176-.009-.264-.013-.043-.001-.087-.003-.132-.004-.282-.015-.47-.061-.695-.233-.073-.146-.082-.244-.089-.406q-.005-.073-.01-.148c.053-.24.162-.329.357-.476.179-.046.352-.051.537-.052.048-.002.096-.003.145-.005.117-.004.234-.006.351-.007-.087-.898-.586-1.706-1.226-2.318-.038-.04-.076-.08-.115-.121-.531-.521-1.339-.903-2.08-.974-.002.071-.003.141-.005.214-.004.094-.007.187-.011.281,0,.046-.002.093-.003.141-.014.315-.066.489-.304.717-.251.089-.373.069-.629-.008-.243-.14-.262-.183-.339-.443-.018-.156-.032-.314-.04-.471-.005-.081-.01-.162-.015-.245-.003-.061-.006-.123-.01-.186-.854,0-1.719.652-2.305,1.199Z" fill="#6232d7"/><path d="M55.519,20.003c.193.103.297.179.366.39.052.307.033.458-.148.719-.185.237-.403.445-.616.657q-.076.076-.154.154c-.107.107-.214.213-.321.32-.164.163-.328.327-.492.491-.104.104-.208.207-.312.311-.049.049-.098.098-.149.149-.046.045-.091.09-.138.137-.04.04-.08.08-.121.121-.164.139-.306.158-.517.182-.311-.032-.421-.113-.625-.346-.069-.177-.098-.327-.065-.515.209-.359.488-.635.78-.927.05-.051.101-.101.153-.153.106-.106.213-.213.32-.319.163-.162.325-.326.487-.489.104-.104.207-.207.311-.31.048-.049.097-.098.147-.148.046-.045.091-.09.138-.137q.06-.06.121-.12c.274-.221.499-.263.835-.165Z" fill="#6232d7"/><path d="M51.84,20.003c.226.136.304.201.387.451.034.218.051.378-.08.565-.036.039-.072.078-.109.119-.041.045-.082.09-.124.136-.253.266-.512.527-.773.786q-.083.083-.168.168c-.053.053-.106.105-.16.16-.048.048-.096.095-.145.144-.205.191-.361.191-.639.185-.165-.012-.256-.033-.385-.138-.142-.211-.192-.349-.202-.604.169-.544.73-.963,1.126-1.356.052-.052.105-.105.158-.159.05-.05.1-.1.151-.151.045-.045.09-.09.137-.136.241-.223.51-.21.824-.17Z" fill="#6232d7"/><path d="M55.196,23.931c.192.114.35.248.452.451.035.364-.034.56-.258.837-.178.194-.365.379-.553.563-.05.049-.099.099-.15.15q-.535.529-.903.543c-.177-.004-.293-.009-.445-.101-.166-.175-.212-.335-.257-.567.015-.229.09-.338.244-.506.041-.045.082-.089.124-.135.22-.231.443-.458.669-.683.046-.046.092-.093.14-.14.044-.044.088-.088.134-.133.04-.04.079-.079.12-.12.214-.196.4-.186.683-.158Z" fill="#6232d7"/><path d="M26.148,29.79c.195.132.303.225.352.461.013.264-.007.406-.15.634-.216.203-.36.209-.656.202-.168-.012-.255-.028-.385-.138-.127-.227-.194-.391-.194-.652.082-.236.197-.349.387-.507.248-.083.392-.061.646,0Z" fill="#6232d7"/><path d="M35.885,49.854c.206.041.32.135.462.285.104.208.101.419.065.644-.116.232-.262.364-.508.455-.265-.005-.425-.064-.654-.197-.16-.219-.194-.345-.194-.616.132-.454.375-.596.829-.571Z" fill="#6232d7"/><path d="M28.153,29.77c.043.01.087.019.131.029.166.075.226.157.316.313.054.257.071.527-.069.757-.174.165-.347.23-.581.245-.277-.04-.384-.096-.577-.294-.112-.224-.103-.464-.065-.708.238-.316.457-.435.843-.342Z" fill="#6232d7"/></svg>