<?xml version="1.0" encoding="UTF-8"?>
<svg id="a" xmlns="http://www.w3.org/2000/svg" width="83.06" height="83.06" viewBox="0 0 83.06 83.06">
  <defs>
    <style>
      .cls-1 {
        fill: #eae5ff;
      }

      .cls-2 {
        fill: #6232d7;
      }
    </style>
  </defs>
  <circle class="cls-1" cx="41.53" cy="41.53" r="41.53"/>
  <g>
    <path class="cls-2" d="M34.268,20.67h6.117c.856,0,1.712,0,2.566-.002,.734,0,1.468-.002,2.205-.002h3.627c.059,0,.12,0,.181-.002,.417,.006,.655,.105,.97,.373,.234,.321,.279,.546,.279,.939,0,.107,0,.214,.002,.325v12.519c0,1.48,0,2.961,.002,4.441,.002,1.52,.004,3.038,.002,4.559v8.018c-.063,.393-.253,.655-.555,.904-.297,.124-.57,.127-.886,.122h-.197c-.214,0-.428-.002-.644-.004h-.446c-.391,0-.784-.004-1.175-.006-.4-.002-.799-.004-1.199-.006-.784-.002-1.568-.007-2.352-.013v2.719c.19,.053,.38,.109,.577,.164,.856,.491,1.421,1.166,1.813,2.059v.164h5.191c.053-.162,.109-.327,.164-.494,.469-.895,1.116-1.518,2.059-1.895,.028-.871,.053-1.74,.083-2.636h2.472v2.636c.19,.053,.38,.109,.577,.164,.856,.491,1.421,1.166,1.813,2.059v.164c.053,0,.107,0,.162-.002,.559-.007,1.118-.013,1.675-.017,.208,0,.417-.004,.625-.007,.301-.004,.6-.006,.9-.007,.092,0,.186-.004,.282-.006,.515,0,.828,.017,1.216,.367,.334,.43,.312,.878,.247,1.4-.181,.38-.371,.553-.742,.742-.144,.022-.293,.034-.448,.035-.087,0-.175,.004-.266,.006h-.282c-.095,0-.192,.001-.291,.004-.308,.004-.614,.007-.922,.009-.208,.002-.417,.006-.625,.009-.511,.007-1.022,.013-1.531,.017-.028,.057-.055,.114-.085,.172-.037,.074-.074,.149-.111,.225-.037,.074-.072,.148-.111,.223-.411,.788-1.14,1.31-1.948,1.635-.98,.299-2.182,.275-3.099-.196-.891-.528-1.354-1.142-1.813-2.059h-5.191c-.137,.271-.271,.544-.411,.825-.579,.825-1.398,1.373-2.389,1.566-1.229,.127-2.26-.033-3.256-.806-.524-.467-.795-.952-1.111-1.583h-5.273c-.137,.271-.271,.544-.411,.825-.579,.825-1.398,1.373-2.389,1.566-1.229,.127-2.26-.033-3.256-.806-.413-.369-.708-.771-.954-1.266-.03-.059-.059-.118-.089-.179-.022-.046-.044-.09-.068-.137h-.162c-.559-.004-1.118-.009-1.675-.017-.208-.002-.417-.004-.625-.006-.301,0-.6-.006-.9-.009h-.282c-.511-.009-.83-.033-1.216-.38-.334-.43-.312-.878-.247-1.4,.181-.38,.371-.553,.742-.742,.144-.02,.293-.029,.448-.028h.266c.094,0,.186,.002,.282,.004h.291c.308,0,.614,.004,.922,.007,.208,0,.417,.002,.625,.004,.511,.002,1.022,.007,1.531,.013,.024-.09,.048-.181,.074-.273,.253-.845,.933-1.465,1.679-1.895,.283-.148,.495-.221,.636-.221v-2.636h2.472c.028,.871,.054,1.74,.083,2.636,.271,.137,.544,.271,.825,.411,.642,.491,1.076,1.07,1.4,1.813v.164h5.273c.053-.162,.109-.327,.164-.494,.469-.895,1.116-1.518,2.059-1.895,.028-.897,.053-1.795,.083-2.719-.199,.001-.401,.003-.605,.006-.66,.006-1.321,.009-1.98,.011-.4,0-.801,.004-1.201,.007-.386,.004-.773,.006-1.159,.006-.148,0-.295,0-.441,.004-.207,.002-.413,.002-.62,.002-.061,0-.122,.002-.184,.004-.421-.004-.66-.098-.98-.371-.234-.321-.279-.546-.279-.939,0-.107,0-.215-.002-.325v-12.519c0-1.48,0-2.961-.002-4.441-.002-1.52-.004-3.038-.002-4.559v-8.018c.063-.393,.253-.655,.557-.904,.293-.124,.561-.129,.873-.127h-.006Zm2.155,5.551c-.225,.369-.218,.734-.164,1.153,.181,.369,.369,.57,.742,.742,.4,.111,.802,.094,1.214,.094h2.752c.494,0,.991,0,1.485,.002h2.686c.535-.002,.983-.024,1.404-.387,.325-.38,.382-.589,.371-1.076-.039-.304-.151-.476-.356-.701-.5-.371-1.028-.341-1.625-.341h-2.752c-.494,0-.991,0-1.485-.002h-2.686c-.618,.004-1.12,.065-1.585,.517Zm0,4.944c-.225,.369-.218,.734-.164,1.153,.181,.369,.369,.57,.742,.742,.4,.111,.802,.094,1.214,.094h2.752c.494,0,.991,0,1.485,.002h2.686c.535-.002,.983-.024,1.404-.387,.325-.38,.382-.589,.371-1.076-.039-.304-.151-.476-.356-.701-.5-.371-1.028-.341-1.625-.341h-2.752c-.494,0-.991,0-1.485-.002h-2.686c-.618,.004-1.12,.065-1.585,.517Zm0,4.942c-.225,.369-.218,.734-.164,1.153,.181,.369,.369,.57,.742,.742,.397,.109,.797,.094,1.207,.094h2.727c.491,0,.98,0,1.47,.002h2.658c.533-.002,.98-.024,1.398-.387,.325-.38,.382-.589,.371-1.076-.039-.304-.151-.476-.356-.701-.498-.371-1.024-.341-1.618-.341h-2.727c-.491,0-.98,0-1.47-.002h-2.658c-.616,.004-1.116,.066-1.579,.517Zm0,4.944c-.225,.369-.218,.734-.164,1.153,.181,.369,.369,.57,.742,.742,.397,.109,.797,.094,1.207,.094h2.727c.491,0,.98,0,1.47,.002h2.658c.533-.002,.98-.024,1.398-.387,.325-.38,.382-.589,.371-1.076-.039-.304-.151-.476-.356-.701-.498-.371-1.024-.341-1.618-.341h-2.727c-.491,0-.98,0-1.47-.002h-2.658c-.616,.004-1.116,.066-1.579,.517Zm4.12,4.944c-.227,.365-.218,.736-.164,1.153,.179,.363,.362,.592,.742,.742,.415,.057,.727,.048,1.107-.138,.277-.249,.434-.417,.485-.795,.022-.47-.03-.764-.356-1.125-.314-.277-.625-.293-1.029-.282-.327,.055-.559,.205-.784,.446Z"/>
    <path class="cls-2" d="M52.653,23.257c1.523-.009,2.608-.014,3.256-.017,.664-.002,1.328-.004,1.992-.009,.535-.004,1.07-.006,1.605-.006,.205,0,.408,0,.612-.004,.286-.002,.572-.002,.858-.002,.085,0,.17-.001,.256-.004,.476,.002,.775,.035,1.142,.371,.21,.297,.279,.5,.279,.863,0,.09,0,.181,.002,.273v10.495c0,1.24,0,2.481,.002,3.721,.002,1.273,.004,2.548,.002,3.821v5.913c0,.098,0,.197,.002,.297-.006,.517-.022,.838-.373,1.229-.378,.338-.826,.28-1.306,.275h-.273c-.297,0-.594-.002-.893-.004h-.618c-.487,0-.974-.004-1.461-.006-.707-.004-1.413-.006-2.12-.006-.989-.002-1.978-.007-2.968-.011v-4.944c1.487-.021,2.464-.034,2.931-.039,.184-.004,.369-.006,.553-.009,.094,0,.19-.002,.288-.004,.567-.002,1.092-.137,1.574-.402,.286-.336,.28-.563,.275-.991-.024-.268-.087-.415-.266-.616-.404-.299-.795-.339-1.286-.347-.09,0-.181-.004-.275-.006-.098,0-.194-.002-.293-.004-.1-.001-.2-.003-.303-.006-.319-.006-.638-.011-.957-.015-.216-.004-.434-.007-.649-.011-.529-.009-1.061-.017-1.59-.026v-2.472c.321-.004,.64-.007,.97-.013,.312-.004,.622-.009,.933-.015,.216-.004,.432-.006,.648-.009,.31-.004,.622-.009,.932-.013,.096,0,.192-.002,.291-.004,.566-.002,1.089-.137,1.57-.402,.286-.336,.28-.563,.275-.991-.024-.268-.087-.415-.266-.616-.404-.299-.795-.339-1.286-.347-.09,0-.181-.004-.275-.006-.098,0-.194-.002-.293-.004-.1-.001-.2-.003-.303-.006-.319-.006-.638-.011-.957-.015-.216-.004-.434-.007-.649-.011-.529-.009-1.061-.017-1.59-.026v-2.472c.321-.004,.64-.007,.97-.013,.312-.004,.622-.009,.933-.015,.216-.004,.432-.006,.648-.009,.31-.004,.622-.009,.932-.013,.096,0,.192-.002,.291-.004,.566-.002,1.089-.137,1.57-.402,.286-.336,.28-.563,.275-.991-.024-.268-.087-.415-.266-.616-.404-.299-.795-.339-1.286-.347-.09,0-.181-.004-.275-.006-.098,0-.194-.002-.293-.004-.1-.001-.2-.003-.303-.006-.319-.006-.638-.011-.957-.015-.216-.004-.434-.007-.649-.011-.529-.009-1.061-.017-1.59-.026v-2.472c.321-.004,.64-.007,.97-.013,.312-.004,.622-.009,.933-.015,.216-.004,.432-.006,.648-.009,.31-.004,.622-.009,.932-.013,.096,0,.192-.002,.291-.004,.566-.002,1.089-.137,1.57-.402,.286-.336,.28-.563,.275-.991-.024-.268-.087-.415-.266-.616-.404-.299-.795-.339-1.286-.347-.092,0-.184-.004-.279-.006-.096,0-.192-.002-.29-.004-.089,0-.177-.004-.269-.006-.33-.006-.66-.011-.991-.015-.74-.011-1.478-.024-2.24-.037v-4.944l.002,.015Z"/>
    <path class="cls-2" d="M22.075,23.227h.273c.297,0,.594,.002,.893,.004h.618c.487,0,.974,.004,1.461,.006,.707,.004,1.413,.006,2.12,.006,.989,.002,1.978,.007,2.968,.011v4.944c-1.487,.021-2.464,.034-2.931,.039-.184,.004-.369,.006-.553,.009-.094,0-.19,.002-.288,.004-.567,.002-1.092,.137-1.574,.402-.286,.336-.28,.563-.275,.991,.024,.268,.087,.415,.266,.616,.404,.299,.795,.339,1.286,.347,.091,.001,.183,.003,.275,.006,.098,0,.194,.002,.293,.004,.1,.001,.2,.003,.303,.006,.319,.006,.638,.011,.957,.015,.216,.004,.434,.007,.649,.011,.529,.009,1.061,.017,1.59,.026v2.472c-.321,.004-.644,.008-.97,.013-.312,.004-.622,.009-.933,.015-.216,.004-.432,.006-.648,.009-.31,.004-.622,.009-.932,.013-.096,0-.192,.002-.291,.004-.566,.002-1.089,.137-1.57,.402-.286,.336-.28,.563-.275,.991,.024,.268,.087,.415,.266,.616,.404,.299,.795,.339,1.286,.347,.09,0,.181,.004,.275,.006,.098,0,.194,.002,.293,.004,.1,.001,.2,.003,.303,.006,.319,.006,.638,.011,.957,.015,.216,.004,.434,.007,.649,.011,.529,.009,1.061,.017,1.59,.026v2.472c-.321,.004-.644,.008-.97,.013-.312,.004-.622,.009-.933,.015-.216,.004-.432,.006-.648,.009-.31,.004-.622,.009-.932,.013-.096,0-.192,.002-.291,.004-.566,.002-1.089,.137-1.57,.402-.286,.336-.28,.563-.275,.991,.024,.268,.087,.415,.266,.616,.404,.299,.795,.339,1.286,.347,.09,0,.181,.004,.275,.006,.098,0,.194,.002,.293,.004,.1,.001,.2,.003,.303,.006,.319,.006,.638,.011,.957,.015,.216,.004,.434,.007,.649,.011,.529,.009,1.061,.017,1.59,.026v2.472c-.321,.004-.644,.008-.97,.013-.312,.004-.622,.009-.933,.015-.216,.004-.432,.006-.648,.009-.31,.004-.622,.009-.932,.013-.096,0-.192,.002-.291,.004-.566,.002-1.089,.137-1.57,.402-.286,.336-.28,.563-.275,.991,.024,.268,.087,.415,.266,.616,.404,.299,.795,.339,1.286,.347,.092,.001,.185,.003,.279,.006,.096,0,.192,.002,.29,.004,.089,0,.177,.004,.269,.006,.33,.006,.66,.011,.991,.015,.739,.012,1.486,.025,2.24,.037v4.944c-1.523,.009-2.608,.014-3.256,.017-.664,.002-1.328,.004-1.992,.009-.535,.004-1.07,.006-1.605,.006-.205,0-.408,0-.612,.004-.286,.002-.572,.002-.858,.002-.085,0-.17,.001-.256,.004-.476-.002-.775-.035-1.142-.371-.21-.297-.279-.5-.279-.863,0-.09,0-.181-.002-.273v-10.495c0-1.24,0-2.481-.002-3.721-.002-1.273-.004-2.548-.002-3.821v-5.913c0-.098,0-.197-.002-.297,.006-.517,.022-.838,.373-1.229,.378-.338,.826-.28,1.306-.275l-.002-.015Z"/>
  </g>
</svg>