<?xml version="1.0" encoding="UTF-8"?><svg id="a" xmlns="http://www.w3.org/2000/svg" width="34.098" height="34.098" viewBox="0 0 34.098 34.098"><circle cx="17.049" cy="17.049" r="17.049" fill="#eae5ff"/><path d="M11.965,10.926c-.098.046-.2.159-.228.257-.014.05-.024,1.085-.024,2.768v2.688h-.248c-.308,0-.428.05-.515.216l-.055.104v2.953c0,2.027.007,2.975.027,3.02.034.091.137.2.231.238.065.029.577.034,3.033.034h2.955l.104-.055c.166-.087.216-.207.216-.515v-.248h2.688c1.741,0,2.717-.01,2.775-.024.108-.031.252-.185.272-.293.007-.043.01-2.515.007-5.492l-.007-5.41-.06-.089c-.034-.05-.104-.111-.159-.137-.096-.048-.159-.048-5.519-.048-4.475.002-5.432.007-5.492.034h0ZM22.389,16.64v4.93h-4.93v-4.61l-.055-.104c-.039-.072-.089-.123-.161-.161l-.104-.055h-4.61v-4.93h9.859s0,4.93,0,4.93ZM16.642,19.922v2.465h-4.93v-4.93h4.93v2.465h0Z" fill="#6232d7"/><path d="M18.963,12.564c-.322.116-.361.58-.058.734.084.043.142.048.676.048h.584l-1.123,1.123c-.955.959-1.125,1.14-1.15,1.226-.094.312.2.606.512.512.087-.024.267-.195,1.226-1.15l1.123-1.123v.587c0,.56.002.589.053.68.173.305.644.248.738-.089.017-.065.027-.512.027-1.342v-1.243h-1.255c-1.019.002-1.277.01-1.354.036h0Z" fill="#6232d7"/><path d="M13.97,17.979h.015c.016,0,.032,0,.048,0,.011,0,.022,0,.034,0,.023,0,.047,0,.07,0,.03,0,.06,0,.09,0,.023,0,.046,0,.069,0,.011,0,.022,0,.033,0,.015,0,.031,0,.046,0h.027c.028.004.04.013.06.033.019.037.025.074.031.115q.013.107.067.196c.041.021.086.026.131.033.037.007.07.022.104.037.006.003.013.006.019.008.045.02.089.042.131.068.018.01.031.017.052.016.025-.008.046-.02.069-.034.005-.003.009-.006.014-.008.014-.009.029-.018.043-.027.014-.009.029-.018.043-.027.009-.006.018-.011.027-.017.04-.025.067-.036.114-.027q.014.009.028.022c.005.005.01.009.015.014.005.005.011.01.016.016.005.005.011.01.016.016.018.017.035.035.052.052.006.006.013.013.019.019.013.013.026.026.04.04.02.02.041.041.061.061.013.013.026.026.039.039.006.006.012.012.018.018q.008.008.017.017s.01.01.015.015c.02.022.023.043.023.073-.009.048-.041.09-.066.131-.006.01-.012.02-.018.03-.02.033-.04.065-.061.097.002.035.021.063.037.093.025.047.048.093.068.143.003.006.005.012.008.019.013.033.022.062.025.097q.007.06.04.108c.067.034.149.046.222.057.036.006.06.016.089.039.018.027.017.039.017.07q0,.007,0,.015c0,.016,0,.032,0,.048,0,.011,0,.022,0,.034,0,.023,0,.047,0,.07,0,.03,0,.06,0,.09,0,.023,0,.046,0,.069,0,.011,0,.022,0,.033,0,.015,0,.031,0,.046,0,.009,0,.018,0,.027-.004.028-.013.04-.033.06-.033.017-.063.023-.1.028q-.118.013-.213.073c-.024.049-.034.101-.045.155-.008.038-.023.071-.04.106-.003.006-.005.012-.008.018-.019.042-.042.08-.071.116-.008.031.004.047.019.075.028.046.057.092.086.138q.048.077.042.118c-.006.019-.013.029-.027.044-.005.005-.009.01-.014.016-.027.029-.055.057-.083.085-.006.006-.013.013-.019.019-.013.013-.026.026-.04.04-.02.02-.041.041-.061.061-.013.013-.026.026-.039.039-.006.006-.012.012-.018.018-.006.006-.011.011-.017.017-.005.005-.01.01-.015.015-.022.02-.043.023-.073.023-.048-.009-.09-.04-.13-.066-.01-.006-.019-.012-.029-.018-.018-.011-.036-.022-.053-.033-.008-.005-.015-.009-.023-.014-.007-.004-.013-.009-.02-.013q-.017-.011-.038-.005c-.026.012-.05.025-.074.038-.108.059-.228.104-.349.128-.002.007-.003.014-.005.022-.008.035-.016.07-.025.104-.002.007-.003.015-.005.022-.006.023-.011.046-.017.069q-.003.011-.005.022c-.01.038-.018.066-.047.094-.021.01-.039.009-.062.009-.005,0-.01,0-.015,0-.016,0-.032,0-.048,0q-.008,0-.017,0c-.029,0-.058,0-.087,0-.03,0-.06,0-.09,0-.023,0-.046,0-.069,0-.011,0-.022,0-.033,0-.016,0-.031,0-.047,0q-.013,0-.027,0c-.028-.004-.04-.013-.06-.033-.025-.051-.036-.109-.049-.164-.004-.016-.008-.033-.012-.049q-.02-.08-.02-.106c-.007,0-.014-.001-.021-.002-.04-.006-.077-.019-.115-.032-.008-.003-.016-.005-.024-.008-.087-.03-.172-.066-.249-.117q-.013-.006-.027.001c-.015.009-.025.017-.038.03-.004.004-.008.008-.013.013-.004.005-.009.009-.014.014-.005.005-.01.01-.015.015-.01.01-.021.021-.031.032-.016.017-.033.033-.049.05-.047.047-.094.095-.141.142-.029.029-.057.058-.086.087-.011.011-.022.022-.033.033-.101.103-.194.182-.345.183-.102-.001-.186-.032-.263-.102-.08-.083-.111-.176-.11-.29.003-.154.1-.247.203-.348.012-.011.023-.023.035-.035.03-.03.06-.06.091-.09.031-.031.062-.061.093-.092.06-.06.121-.12.182-.18-.011-.035-.026-.067-.043-.1-.04-.079-.074-.158-.101-.242q-.003-.009-.006-.018c-.002-.006-.004-.011-.005-.017-.002-.005-.003-.01-.005-.015q-.003-.015-.003-.044s-.009-.002-.014-.002c-.058-.01-.116-.023-.173-.037q-.014-.003-.028-.007-.101-.025-.133-.072-.002-.022-.002-.048,0-.007,0-.015c0-.016,0-.032,0-.048,0-.011,0-.022,0-.034,0-.023,0-.047,0-.07,0-.03,0-.06,0-.09,0-.023,0-.046,0-.069,0-.011,0-.022,0-.033,0-.015,0-.031,0-.046,0-.009,0-.018,0-.027.004-.028.013-.04.033-.06.051-.025.109-.036.164-.049.016-.004.033-.008.049-.012q.08-.02.097-.02c.002-.007.003-.014.005-.021.029-.125.074-.262.145-.37q.01-.015.021-.038c-.008-.035-.025-.064-.044-.094-.003-.005-.006-.009-.008-.014-.009-.014-.018-.028-.026-.043-.009-.014-.018-.029-.026-.043-.005-.009-.011-.018-.016-.027-.025-.04-.035-.066-.027-.114q.009-.014.022-.028c.005-.005.009-.01.014-.015.005-.005.01-.011.016-.016.005-.005.01-.011.016-.016.017-.018.035-.035.052-.052.006-.006.013-.013.019-.019.013-.013.026-.026.04-.04.02-.02.041-.041.061-.061.013-.013.026-.026.039-.039.006-.006.012-.012.018-.018.006-.006.011-.011.017-.017.005-.005.01-.01.015-.015.022-.02.043-.023.073-.023.048.009.089.04.13.066.014.009.029.018.043.026.009.005.018.011.027.016q.039.024.081.044c.02-.008.035-.016.053-.028.093-.057.223-.127.334-.136.022-.003.033-.007.05-.021.018-.043.027-.087.036-.132.004-.018.008-.037.012-.055.003-.011.005-.023.007-.034.014-.066.041-.106.112-.107ZM14.01,18.129q-.021.086-.041.171c-.003.011-.005.022-.008.032q-.002.008-.004.017c-.009.035-.02.061-.043.09q-.02.01-.043.015c-.009.002-.017.005-.026.007-.009.002-.018.005-.028.007-.136.04-.27.089-.388.17-.03.019-.058.027-.093.023-.039-.017-.074-.039-.11-.062-.01-.006-.02-.012-.03-.018-.033-.02-.065-.04-.097-.061-.023.002-.036.011-.052.027-.004.004-.008.008-.013.012-.004.004-.009.009-.013.013-.005.005-.009.009-.014.014-.01.01-.019.019-.029.029-.015.015-.03.029-.045.044-.009.009-.019.019-.028.028-.004.004-.009.009-.014.013q-.023.023-.031.054c.01.023.023.045.036.067.003.005.006.009.008.014.009.014.018.029.027.043.009.014.018.029.027.043.006.009.011.018.017.027.023.037.034.063.027.106-.01.024-.024.045-.037.067-.068.111-.117.231-.148.358-.001.005-.002.01-.004.015-.003.014-.006.027-.009.041-.011.029-.022.041-.046.06-.022.009-.044.014-.067.02-.006.001-.011.003-.017.004-.021.005-.042.01-.063.015-.047.011-.094.023-.142.035v.326q.093.023.187.046c.012.003.024.006.035.009.006.001.012.003.018.004.035.009.06.018.085.044q.008.018.013.038c.002.007.004.015.006.022.002.008.004.016.006.024.004.016.009.032.013.048.002.008.004.016.007.024.026.091.066.175.11.259.03-.012.051-.034.073-.057q.006-.006.012-.012c.013-.013.026-.026.039-.039.009-.009.018-.018.026-.027.021-.022.043-.043.064-.065-.011-.032-.021-.065-.033-.097-.088-.245-.093-.516-.004-.762.002-.005.004-.01.006-.015.101-.275.305-.484.565-.614q.097-.043.138-.032c.02.012.029.018.039.039q.005.041,0,.059c-.029.036-.063.051-.104.069-.232.106-.412.302-.502.54-.078.22-.078.46.006.679.057,0,.122-.084.161-.122.055-.057.09-.102.089-.184-.003-.038-.006-.076-.011-.114-.012-.125.07-.265.146-.358.004-.005.007-.009.011-.014.088-.11.248-.194.386-.213.202-.02.384.016.543.146.007.006.014.011.022.017.115.096.186.252.208.397.013.205-.023.373-.156.533-.005.006-.009.012-.014.018-.094.11-.251.186-.393.204-.016-.002-.031-.004-.047-.007-.076-.01-.15-.019-.215.029-.071.059-.131.13-.19.2q.006.016.02.02c.006.002.011.003.017.005.006.002.013.004.019.006q.01.003.02.006t.019.006c.166.049.353.05.519.002.005-.002.011-.003.016-.005.257-.076.456-.255.583-.488.029-.056.051-.112.068-.174.001-.005.003-.01.004-.016.067-.247.024-.509-.101-.729-.119-.202-.296-.328-.505-.425q-.013-.008-.028-.03c-.003-.034-.005-.051.012-.081.019-.017.029-.02.054-.023.154.02.306.15.415.252q.009.008.018.017c.115.109.196.249.248.398.002.005.003.009.005.014.067.19.083.419.032.615-.002.009-.004.018-.007.027-.037.141-.1.271-.186.388q-.007.009-.014.019c-.073.096-.16.175-.26.241-.006.005-.013.009-.019.014-.22.152-.526.198-.787.156-.078-.015-.154-.041-.229-.068-.02-.007-.041-.014-.061-.021-.029.028-.057.056-.085.085-.01.01-.019.019-.029.029-.014.014-.028.028-.042.041q-.007.006-.013.013c-.01.01-.021.021-.03.032v.015c.114.058.229.109.355.138.007.002.014.003.022.005l.02.004c.025.011.033.022.048.045.008.022.014.044.019.067.001.006.003.011.004.017.005.021.01.042.015.063.012.047.023.094.035.142h.326q.023-.093.045-.187c.003-.012.006-.024.009-.035.001-.006.003-.012.004-.018.01-.038.02-.061.053-.085q.019-.008.04-.013c.008-.002.015-.004.023-.006.008-.002.016-.004.025-.006.141-.037.272-.092.395-.173.027-.012.051-.013.08-.009.019.008.035.016.052.027.005.003.009.006.014.008.015.009.029.018.044.027.01.006.02.012.03.018.033.02.066.04.098.061.023-.002.036-.011.052-.027.004-.004.008-.008.013-.012.004-.004.009-.009.013-.013q.007-.007.014-.014c.01-.01.019-.019.029-.029.015-.015.03-.029.045-.044.009-.009.019-.019.028-.028.004-.004.009-.009.014-.013q.023-.023.031-.054c-.01-.023-.023-.045-.036-.067-.003-.005-.006-.009-.008-.014-.009-.014-.018-.029-.027-.043-.009-.014-.018-.029-.027-.043-.006-.009-.011-.018-.017-.027-.026-.043-.031-.065-.02-.114.01-.023.024-.045.037-.066.066-.109.118-.225.148-.349.001-.005.002-.01.004-.015.003-.014.006-.028.01-.042.011-.029.021-.042.046-.061.089-.034.189-.051.281-.074v-.326q-.086-.021-.172-.042c-.011-.003-.022-.005-.033-.008-.006-.001-.011-.003-.017-.004-.031-.008-.057-.016-.082-.035-.009-.02-.016-.038-.022-.059-.002-.006-.003-.012-.005-.018-.005-.019-.011-.038-.016-.057-.038-.134-.092-.262-.17-.378-.013-.032-.017-.055-.009-.088.02-.04.043-.076.067-.113.01-.015.019-.03.029-.045.006-.009.012-.019.018-.028q.016-.023.018-.05c-.006-.016-.013-.025-.025-.037-.004-.004-.008-.008-.012-.013-.004-.004-.009-.009-.013-.013q-.007-.007-.014-.014c-.01-.01-.019-.019-.029-.029-.015-.015-.029-.03-.044-.045-.009-.009-.019-.019-.028-.028-.004-.004-.009-.009-.013-.014q-.023-.024-.054-.031c-.023.01-.044.023-.065.036-.009.006-.018.011-.027.017-.014.009-.028.018-.042.027q-.096.063-.144.057c-.026-.007-.048-.019-.071-.034-.01-.006-.021-.012-.031-.018-.005-.003-.01-.006-.016-.009-.123-.072-.258-.116-.396-.15-.024-.009-.034-.017-.049-.037-.007-.02-.013-.039-.018-.059-.001-.005-.003-.01-.004-.015-.018-.069-.035-.138-.052-.207h-.326ZM13.795,19.485s-.01.009-.015.014c-.068.069-.116.181-.119.278,0,.008,0,.017,0,.026,0,.009,0,.017,0,.026,0,.006,0,.013,0,.02.033-.011.066-.021.099-.032.012-.004.024-.008.036-.012.075-.024.149-.049.223-.074.021-.007.042-.014.063-.021.014-.005.027-.009.041-.014.019-.007.038-.013.057-.02q.008-.003.017-.006c.048-.016.097-.022.145-.006.026.079-.009.155-.035.23-.004.013-.009.026-.013.038-.011.034-.023.067-.034.101-.012.034-.023.069-.035.103-.013.038-.026.077-.039.115q-.003.009-.006.018c-.004.011-.007.022-.011.033q-.009.022-.012.044c.126.005.245-.028.341-.112.018-.017.035-.034.052-.051.005-.005.01-.009.015-.014.087-.088.12-.214.121-.334-.001-.14-.046-.26-.146-.359-.006-.006-.013-.012-.02-.019-.005-.005-.009-.01-.014-.015-.088-.087-.214-.12-.334-.121-.153.001-.272.056-.378.166ZM14.101,19.861c-.009.003-.018.006-.027.009-.01.003-.019.006-.029.01q-.007.002-.015.005c-.026.008-.052.017-.077.026-.027.009-.053.018-.08.026-.021.007-.041.013-.061.02-.01.003-.02.006-.03.01-.014.004-.027.009-.041.014q-.012.004-.024.008c-.006.003-.012.005-.018.008-.01.031,0,.042.014.07.057.112.144.192.258.243q.018.007.039-.003.009-.018.016-.041c.003-.009.006-.018.009-.027.003-.01.006-.019.009-.029.003-.01.007-.02.01-.03.007-.021.014-.042.021-.062.009-.027.018-.053.026-.08.008-.025.017-.051.025-.076.002-.005.003-.01.005-.015.005-.014.009-.028.014-.041.003-.008.005-.016.008-.024q.006-.018.005-.033c-.021,0-.037.007-.057.013ZM13.54,20.154s-.007.007-.011.011c-.004.004-.008.008-.012.012-.013.013-.026.026-.04.04-.009.009-.019.019-.028.028-.026.026-.051.051-.077.077-.027.027-.054.054-.08.08-.051.051-.101.101-.152.152-.058.058-.115.116-.173.173-.119.119-.237.238-.356.357.024.028.047.056.073.082q.008.008.016.016c.005.005.011.011.016.016.006.006.011.011.017.017.018.018.036.036.054.054.012.012.025.025.037.037.03.03.06.06.09.09.05-.041.096-.087.141-.133.009-.009.018-.018.027-.027.024-.024.049-.049.073-.073.025-.025.051-.051.076-.076.048-.048.096-.096.144-.144.055-.055.109-.11.164-.164.112-.113.225-.225.337-.338-.017-.018-.033-.029-.055-.041-.107-.064-.18-.149-.241-.257-.003-.004-.005-.008-.008-.013-.015,0-.023.015-.033.025ZM12.464,21.227c-.049.051-.078.105-.081.176.003.064.027.122.075.167q.013.01.027.019s.01.006.014.009c.049.027.101.028.156.02.062-.02.106-.055.148-.104-.011-.024-.024-.04-.042-.059-.006-.006-.011-.011-.017-.017-.006-.006-.012-.012-.018-.018-.006-.006-.012-.012-.019-.019-.013-.013-.026-.026-.039-.039-.02-.02-.04-.04-.06-.06-.013-.013-.025-.025-.038-.038-.006-.006-.012-.012-.018-.018-.006-.006-.011-.011-.017-.017-.005-.005-.01-.01-.015-.015-.024-.021-.035-.005-.055.014Z" fill="#6232d7"/><path d="M14.21,18.722q.023.014.037.037c.007.037.006.064-.014.097-.033.02-.06.021-.097.014q-.023-.014-.037-.037c-.007-.037-.006-.064.014-.097.033-.02.06-.021.097-.014Z" fill="#6232d7"/></svg>