<?xml version="1.0" encoding="UTF-8"?>
<svg id="Layer_1" data-name="Layer 1" xmlns="http://www.w3.org/2000/svg" width="32.92" height="32.92" viewBox="0 0 32.92 32.92">
  <defs>
    <style>
      .cls-1 {
        fill: #eae5ff;
      }

      .cls-2 {
        fill: #5c49e6;
      }
    </style>
  </defs>
  <path class="cls-1" d="M16.46,0h0c9.09,0,16.46,7.37,16.46,16.46h0c0,9.09-7.37,16.46-16.46,16.46h0C7.37,32.92,0,25.55,0,16.46H0C0,7.37,7.37,0,16.46,0Z"/>
  <g>
    <path class="cls-2" d="M7.42,7.56s.06,0,.1,0c.11,0,.21,0,.32,0,.08,0,.15,0,.23,0,.21,0,.42,0,.64,0,.23,0,.46,0,.69,0,.45,0,.9,0,1.34,0,.36,0,.73,0,1.09,0,1.03,0,2.06,0,3.1,0,.06,0,.11,0,.17,0,.06,0,.11,0,.17,0,.9,0,1.81,0,2.71,0,.93,0,1.85,0,2.78,0,.52,0,1.04,0,1.56,0,.44,0,.89,0,1.33,0,.23,0,.45,0,.68,0,.21,0,.41,0,.62,0,.07,0,.15,0,.22,0,.58,0,.98,.06,1.41,.48,.26,.28,.4,.57,.4,.96,0,.05,0,.1,0,.16q0,.08,0,.17c0,.06,0,.12,0,.18,0,.17,0,.33,0,.5,0,.18,0,.36,0,.54,0,.35,0,.7,0,1.05,0,.29,0,.57,0,.86,0,.81,0,1.62,0,2.43,0,.04,0,.09,0,.13,0,.04,0,.09,0,.13,0,.71,0,1.42,0,2.12,0,.73,0,1.45,0,2.18,0,.41,0,.82,0,1.22,0,.35,0,.7,0,1.04,0,.18,0,.35,0,.53,0,.16,0,.32,0,.49,0,.09,0,.17,0,.26,0,.5-.13,.84-.48,1.2-.49,.46-1.1,.45-1.73,.45-.07,0-.15,0-.22,0-.19,0-.39,0-.58,0-.2,0-.4,0-.59,0-.39,0-.77,0-1.16,0-.01,.03-.03,.07-.04,.1-.04,.1-.09,.17-.15,.26-.02,.03-.04,.05-.07,.08-.02,.03-.05,.06-.07,.09-.02,.03-.05,.06-.07,.09-1.16,1.38-2.78,2.33-4.59,2.5-.11,0-.23,0-.34,0-.03,0-.06,0-.1,0-.1,0-.2,0-.3,0q-.05,0-.1,0c-.5,0-.97-.02-1.46-.14-.03,0-.06-.01-.09-.02-1.69-.39-3.18-1.45-4.14-2.88v-.09q-.06,0-.12,0c-.38,0-.77,0-1.15,0-.2,0-.4,0-.59,0-.19,0-.38,0-.57,0-.07,0-.15,0-.22,0-.63,0-1.18-.03-1.66-.49-.38-.4-.44-.79-.44-1.33,0-.06,0-.12,0-.18,0-.17,0-.33,0-.5,0-.18,0-.36,0-.54,0-.35,0-.7,0-1.05,0-.29,0-.57,0-.86,0-.04,0-.08,0-.12,0-.08,0-.17,0-.25,0-.77,0-1.55,0-2.32,0-.66,0-1.33,0-1.99,0-.77,0-1.54,0-2.31,0-.08,0-.16,0-.25,0-.04,0-.08,0-.12,0-.28,0-.57,0-.85,0-.35,0-.69,0-1.04,0-.18,0-.35,0-.53,0-.16,0-.32,0-.49,0-.09,0-.17,0-.26,0-.5,.13-.83,.48-1.2,.3-.28,.61-.41,1.02-.4Zm-.65,.85c-.66,.73-.31,2.09-.31,2.88H26.46q.15-1.32-.26-2.82c-.32-.32-.63-.39-1.08-.39-.03,0-.06,0-.09,0-.1,0-.2,0-.31,0-.07,0-.15,0-.22,0-.2,0-.41,0-.61,0-.22,0-.44,0-.66,0-.43,0-.86,0-1.29,0-.35,0-.7,0-1.05,0-.99,0-1.98,0-2.97,0q-.08,0-.16,0c-.05,0-.11,0-.16,0-.87,0-1.73,0-2.6,0-.89,0-1.78,0-2.67,0-.5,0-1,0-1.5,0-.43,0-.85,0-1.28,0-.22,0-.43,0-.65,0-.2,0-.4,0-.6,0-.07,0-.14,0-.22,0q-.72-.02-1.33,.34Zm-.31,3.43c0,1.84,0,3.68,0,5.57,0,.58,0,1.16,0,1.76q0,.52,0,1.04c0,.23,0,.46,0,.7,0,.3,0,.59,0,.89,0,.11,0,.22,0,.33,0,.15,0,.29,0,.44,0,.04,0,.08,0,.13,0,.42,.06,.79,.35,1.11,.28,.21,.54,.26,.89,.26,.03,0,.06,0,.09,0,.09,0,.19,0,.28,0,.06,0,.13,0,.19,0,.17,0,.34,0,.51,0,.17,0,.35,0,.52,0,.34,0,.68,0,1.02,0q-.1-.29-.21-.58s-.02-.05-.04-.1c-.01-.03-.03-.06-.04-.1t-.04-.1c-.03-.08-.07-.16-.1-.24-.05,0-.11,0-.16,0q-.87-.03-1.16-.29c-.33-.35-.36-.66-.36-1.13q0-.08,0-.17c0-.12,0-.23,0-.35,0-.15,0-.29,0-.44,0-.14,0-.28,0-.42,0-.05,0-.1,0-.16,0-.35,.06-.65,.3-.92,.31-.28,.64-.32,1.04-.34,.03,0,.07,0,.1,0,.08,0,.17,0,.25-.01,0-.02,.02-.05,.03-.07,.79-1.89,1.99-3.38,3.92-4.19,1.71-.69,3.66-.67,5.35,.04,1.72,.75,3.01,2.11,3.73,3.85,.05,.12,.09,.25,.14,.37q.07,0,.14,0,.93,.04,1.24,.34c.28,.33,.32,.67,.31,1.09,0,.05,0,.11,0,.16,0,.11,0,.23,0,.34,0,.15,0,.29,0,.44,0,.14,0,.28,0,.42,0,.05,0,.1,0,.16,0,.36-.07,.66-.32,.93-.28,.27-.62,.32-.99,.33-.04,0-.07,0-.11,0-.09,0-.18,0-.27,0-.07,.17-.14,.34-.21,.51-.02,.05-.04,.1-.06,.15-.02,.05-.04,.09-.06,.14l-.05,.13q-.04,.1-.04,.19c.37,0,.74,0,1.12,0,.17,0,.35,0,.52,0,.17,0,.33,0,.5,0,.06,0,.13,0,.19,0,.44,0,.84-.01,1.2-.29,.3-.31,.33-.67,.33-1.08,0-.04,0-.09,0-.13,0-.05,0-.09,0-.14,0-.15,0-.31,0-.46,0-.11,0-.22,0-.34,0-.27,0-.54,0-.81,0-.31,0-.62,0-.94,0-.82,0-1.65,0-2.47,0-1.84,0-3.68,0-5.58H6.46Zm8.58,3.32c-.39,.4-1.06,1.25-1.06,1.85,.17,.03,.34,.06,.5,.08,.05,0,.09,.02,.14,.02,.53,.09,1.03,.11,1.57,.11v-2.69c-.45,0-.85,.33-1.16,.63Zm1.67-.63v2.69c.43,0,.82,0,1.23-.06,.04,0,.09-.01,.13-.02,.29-.04,.57-.08,.86-.14-.27-.93-.85-1.82-1.68-2.33-.18-.1-.33-.14-.54-.14Zm-4.46,1.54s-.04,.03-.07,.06c-.06,.05-.11,.1-.17,.16v.13q.53,.2,1.06,.38s.04,.01,.09,.03c.12,.02,.19,.02,.3-.03,.06-.11,.1-.2,.14-.31,.03-.06,.05-.13,.08-.19,.01-.03,.03-.06,.04-.1,.17-.41,.41-.76,.68-1.12,.04-.06,.09-.12,.13-.18,.03-.04,.06-.08,.09-.12-.83,0-1.76,.78-2.37,1.28Zm6.04-1.28s.07,.09,.1,.13c.39,.53,.7,1.06,.97,1.66,.04,.09,.08,.18,.13,.26,.29-.03,.55-.12,.82-.21,.05-.02,.09-.03,.14-.05,.04-.01,.09-.03,.13-.04,.04-.01,.08-.03,.12-.04,.1-.05,.16-.09,.23-.17-.7-.67-1.66-1.41-2.65-1.54Zm-6.79,2.05c-.08,.08-.14,.16-.2,.25-.02,.03-.04,.05-.06,.08q-.52,.72-.77,1.55h2.48q.14-.66,.26-1.32c-.3-.12-.6-.22-.91-.32-.17-.06-.33-.11-.5-.18q-.13-.07-.3-.05Zm9.55,.07q-.06,.02-.11,.04s-.08,.03-.12,.05c-.35,.14-.7,.26-1.07,.35-.04,.16-.04,.26,0,.42,0,.04,.02,.08,.03,.12,.01,.04,.02,.08,.03,.12,.02,.08,.04,.16,.06,.24,0,.03,.02,.07,.03,.11,.03,.12,.05,.24,.07,.36h2.48c-.08-.25-.16-.48-.28-.71-.01-.03-.03-.06-.04-.09-.17-.32-.36-.62-.57-.91-.02-.03-.04-.07-.07-.1-.02-.02-.04-.04-.06-.07-.16,0-.22,.01-.36,.07Zm-7.29,.61c-.04,.17-.09,.33-.13,.5-.01,.05-.02,.09-.04,.14q-.02,.07-.04,.14s-.02,.08-.03,.13q-.03,.12-.02,.28h2.69v-.94q-.15-.01-.3-.02c-.71-.06-1.42-.12-2.13-.23Zm5.04,.03c-.7,.12-1.39,.18-2.09,.22v.94h2.69q-.03-.31-.09-.6s-.02-.07-.03-.11c0-.04-.02-.07-.03-.11,0-.04-.02-.07-.03-.11-.02-.09-.05-.18-.07-.27-.12,0-.22,.01-.34,.03Zm-9.97,1.96c-.1,.15-.12,.23-.12,.4,0,.04,0,.09,0,.13,0,.05,0,.1,0,.15,0,.05,0,.1,0,.15,0,.11,0,.21,0,.32,0,.16,0,.32,0,.48,0,.1,0,.2,0,.31,0,.05,0,.1,0,.15q0,.34,.14,.63c.25,.18,.46,.2,.77,.19q.07,0,.14,0c.16,0,.31,0,.47,0,.11,0,.22,0,.34,0,.24,0,.48,0,.73,0,.35,0,.7,0,1.05,0,.57,0,1.14,0,1.7,0,.55,0,1.1,0,1.65,0,.03,0,.07,0,.1,0,.17,0,.34,0,.51,0,1.41,0,2.83,0,4.24,0v-3.12c-1.44,0-2.88,0-4.31,0-.17,0-.34,0-.51,0-.03,0-.07,0-.1,0-.55,0-1.09,0-1.64,0-.56,0-1.12,0-1.68,0-.35,0-.69,0-1.04,0-.27,0-.53,0-.8,0-.11,0-.22,0-.33,0-.15,0-.3,0-.45,0q-.06,0-.13,0c-.3,0-.52,.03-.74,.25Zm12.28-.24v3.12c.43,0,.86,0,1.31,.01,.14,0,.27,0,.41,0,.11,0,.22,0,.32,0,.06,0,.11,0,.17,0q.4,0,.74-.19c.17-.23,.15-.49,.15-.77,0-.05,0-.1,0-.15,0-.1,0-.21,0-.31,0-.16,0-.32,0-.48,0-.1,0-.2,0-.3,0-.05,0-.09,0-.14,0-.26-.02-.42-.19-.62-.18-.17-.35-.18-.6-.18-.05,0-.1,0-.16,0-.05,0-.11,0-.17,0q-.08,0-.15,0c-.19,0-.38,0-.56,0-.42,0-.84,0-1.27,0Zm-10.64,3.67c.02,.07,.04,.13,.06,.2,.01,.04,.02,.07,.03,.11,.06,.18,.14,.34,.23,.51,.02,.03,.04,.07,.06,.11q.29,.56,.73,1,.1-.02,.22-.07s.09-.03,.13-.05c.05-.02,.09-.04,.14-.06,.38-.15,.75-.28,1.14-.38-.03-.29-.09-.57-.15-.85,0-.04-.02-.09-.03-.14,0-.04-.02-.09-.03-.13,0-.04-.02-.08-.03-.12q-.02-.09-.07-.13c-.08,0-.15,0-.23,0q-.07,0-.15,0t-.16,0c-.05,0-.11,0-.16,0-.14,0-.29,0-.43,0-.15,0-.29,0-.44,0-.29,0-.58,0-.86,0Zm3.03,0q.03,.31,.09,.6,.01,.05,.03,.11s.02,.07,.03,.11c0,.04,.02,.07,.03,.11,.02,.09,.05,.18,.07,.27,.3-.02,.6-.06,.91-.1,.51-.07,1.02-.11,1.53-.15v-.94h-2.69Zm3.2,0v.94c.09,0,.18,.02,.28,.02,.6,.05,1.2,.1,1.79,.21,.12,.02,.24,.03,.36,.02,.04-.13,.07-.25,.1-.38,0-.04,.02-.07,.03-.11,0-.04,.02-.07,.03-.11,0-.03,.02-.06,.03-.1,.03-.17,.05-.33,.07-.5h-2.69Zm3.29,0c-.08,.24-.14,.47-.2,.71,0,.04-.02,.08-.03,.12,0,.04-.02,.08-.03,.12,0,.03-.02,.07-.03,.11-.02,.11-.02,.21-.02,.32q.08,.02,.16,.05c.5,.14,.98,.31,1.46,.51,.33-.32,.57-.69,.78-1.09,.02-.03,.04-.07,.05-.1,.02-.03,.03-.07,.05-.1t.05-.09c.07-.18,.12-.36,.18-.54h-2.44Zm-3.29,1.5v2.73c.91-.27,1.43-.86,1.88-1.67q.24-.38,.34-.8c-.39-.1-.78-.16-1.18-.2-.05,0-.11-.01-.16-.02-.3-.03-.58-.04-.88-.04Zm-1.55,.06q-.08,0-.16,.02c-.35,.04-.68,.1-1.02,.19,.08,.26,.18,.5,.3,.74,.02,.03,.03,.06,.05,.09,.16,.28,.34,.54,.54,.79,.02,.03,.04,.06,.06,.09,.3,.38,.72,.62,1.17,.77h.09v-2.73c-.35,0-.69,.02-1.04,.06Zm4.33,.33s-.02,.05-.03,.07c-.28,.66-.58,1.26-1.05,1.8q-.08,.1-.16,.22c.91-.11,2.01-.82,2.6-1.5q.04-.06,.09-.12c-.33-.14-.67-.27-1.01-.38-.03,0-.06-.02-.09-.03-.12-.04-.22-.06-.35-.06Zm-6.55,.11s-.08,.02-.12,.03c-.29,.09-.57,.19-.85,.32,.61,.76,1.71,1.5,2.69,1.62-.04-.05-.07-.1-.11-.15-.02-.03-.05-.06-.07-.1-.05-.06-.1-.12-.15-.18-.41-.49-.67-1.08-.91-1.67-.17,0-.33,.07-.49,.11Z"/>
    <path class="cls-2" d="M19.75,8.85s.09,0,.14,0c.05,0,.1,0,.15,0,.05,0,.1,0,.16,0,.17,0,.34,0,.51,0,.06,0,.12,0,.18,0,.28,0,.55,0,.83,0,.32,0,.64,0,.96,0,.25,0,.49,0,.74,0,.15,0,.3,0,.44,0,.16,0,.33,0,.49,0q.07,0,.15,0c.31,0,.56,.04,.79,.25,.19,.22,.26,.41,.25,.69-.04,.29-.19,.47-.41,.65-.14,.09-.26,.1-.42,.1-.04,0-.09,0-.14,0-.05,0-.1,0-.15,0-.05,0-.1,0-.16,0-.17,0-.34,0-.52,0-.06,0-.12,0-.18,0-.28,0-.56,0-.84,0-.32,0-.64,0-.97,0-.25,0-.5,0-.75,0-.15,0-.3,0-.45,0-.17,0-.33,0-.5,0q-.07,0-.15,0c-.35,0-.58-.06-.85-.3-.15-.23-.21-.48-.15-.75,.1-.28,.22-.44,.49-.59,.13-.04,.21-.05,.34-.05Zm-.26,.69q-.05,.08-.04,.17t.21,.26c.07,0,.14,0,.2,0,.04,0,.09,0,.13,0q.07,0,.14,0,.07,0,.15,0c.17,0,.33,0,.5,0,.06,0,.11,0,.17,0,.27,0,.53,0,.8,0,.31,0,.62,0,.93,0,.24,0,.48,0,.71,0,.14,0,.28,0,.43,0,.16,0,.32,0,.48,0q.07,0,.14,0s.09,0,.13,0q.06,0,.11,0c.13-.03,.19-.09,.27-.19q.03-.11,0-.21c-.09-.11-.14-.16-.27-.19-.04,0-.07,0-.11,0-.04,0-.09,0-.13,0-.05,0-.09,0-.14,0-.05,0-.1,0-.15,0-.16,0-.33,0-.49,0-.11,0-.23,0-.34,0-.24,0-.48,0-.72,0-.28,0-.55,0-.83,0-.27,0-.53,0-.8,0-.11,0-.23,0-.34,0-.16,0-.32,0-.48,0-.05,0-.09,0-.14,0-.04,0-.09,0-.13,0-.04,0-.07,0-.11,0-.12,.02-.18,.06-.27,.14Z"/>
    <path class="cls-2" d="M22.98,19.74c.24,.15,.43,.35,.53,.61,.05,.25,.05,.45-.02,.69q-.03,.1-.02,.21c.09,.12,.18,.2,.3,.29q.09,.09,.1,.23t-.08,.23-.24,.08c-.2-.07-.28-.17-.41-.33q-.09-.08-.21-.06-.07,.02-.14,.03-.67,.05-.94-.17c-.27-.26-.38-.47-.4-.85,0-.29,.07-.52,.27-.74,.34-.32,.83-.43,1.27-.23Zm-.92,.7c-.07,.14-.07,.28-.04,.43,.07,.13,.16,.23,.3,.3,.18,.01,.3,.02,.46-.05,.13-.12,.17-.21,.22-.38-.02-.18-.07-.28-.17-.42-.15-.1-.24-.12-.42-.11-.16,.04-.24,.12-.35,.24Z"/>
    <path class="cls-2" d="M11.09,8.93c.2,.11,.31,.26,.43,.46,.07,.28,.05,.51-.09,.76-.13,.18-.3,.32-.52,.38-.29,.03-.53,0-.77-.17-.22-.24-.27-.45-.27-.78,.02-.22,.09-.38,.26-.53,.29-.21,.63-.27,.97-.12Zm-.58,.55q-.08,.1-.07,.26t.17,.23,.21,0,.17-.21c0-.13-.03-.19-.1-.29-.14-.1-.25-.08-.39,.02Z"/>
    <path class="cls-2" d="M13.65,8.98c.1,.07,.17,.16,.24,.27t.05,.08c.1,.26,.09,.47,0,.73-.09,.2-.2,.31-.39,.43-.27,.08-.52,.1-.77-.02-.21-.12-.33-.27-.43-.5-.06-.33,0-.57,.19-.84,.32-.31,.74-.36,1.12-.14Zm-.69,.53q-.1,.11-.09,.23t.17,.23,.3-.04,.13-.21c-.04-.16-.07-.2-.21-.3q-.17-.02-.29,.09Z"/>
    <path class="cls-2" d="M8.73,8.98c.19,.16,.32,.32,.36,.58,.01,.27-.02,.49-.18,.7-.24,.22-.46,.27-.78,.27-.23-.02-.38-.14-.54-.31-.17-.24-.22-.44-.18-.73,.09-.29,.26-.46,.53-.61,.29-.07,.54-.05,.8,.1Zm-.7,.5q-.08,.09-.09,.21t.09,.21,.26,.07,.23-.17-.04-.3c-.17-.11-.27-.14-.44-.01Z"/>
  </g>
  <g>
    <path class="cls-2" d="M10.18,19.63h1.85v.38h-1.21v.62h1.14v.37h-1.14v1.04h-.64v-2.4Z"/>
    <path class="cls-2" d="M13.08,21.01v1.02h-.64v-2.4h1.1c.65,0,1.03,.23,1.03,.65,0,.35-.28,.5-.47,.55,.28,.09,.41,.24,.41,.6v.1c0,.27,.02,.37,.05,.5h-.62c-.05-.11-.06-.3-.06-.51v-.09c0-.32-.11-.43-.52-.43h-.28Zm0-.35h.3c.39,0,.54-.11,.54-.35,0-.21-.15-.33-.48-.33h-.37v.68Z"/>
    <path class="cls-2" d="M16.85,20.96h-1.16v.7h1.3l-.08,.37h-1.86v-2.4h1.85v.38h-1.21v.58h1.16v.37Z"/>
    <path class="cls-2" d="M19.17,20.96h-1.16v.7h1.3l-.08,.37h-1.86v-2.4h1.85v.38h-1.21v.58h1.16v.37Z"/>
  </g>
</svg>