<?xml version="1.0" encoding="UTF-8"?><svg id="a" xmlns="http://www.w3.org/2000/svg" width="72" height="72" viewBox="0 0 72 72"><rect width="72" height="72" rx="2.065" ry="2.065" fill="#eae5ff"/><path d="M34.969,16.046c.073,0,.145-.002.22-.003,2.248-.021,4.383.121,6.544.795.067.021.134.041.204.063,2.239.7,4.312,1.814,6.141,3.281.085.068.171.136.259.206,1.225.995,2.322,2.124,3.257,3.395.06.079.12.158.183.239,1.868,2.482,3.016,5.456,3.504,8.507.01.06.02.12.031.182.732,4.467-.396,9.049-2.603,12.936q.111.014.225.027c1.255.252,2.408,1.346,3.12,2.36,1.029,1.626,1.389,3.378,1.058,5.282-.26,1.076-.77,2.036-1.487,2.877-.055.071-.109.142-.166.215-.921,1.11-2.387,1.768-3.778,2.014-2.051.138-3.806-.182-5.402-1.543-.069-.052-.138-.104-.209-.158-.981-.828-1.637-2.129-1.934-3.358-.26,0-.388.04-.625.135-.073.029-.146.058-.221.087-.078.031-.156.062-.237.094-4.874,1.888-10.249,1.712-15.057-.33-1.913-.855-3.645-2.035-5.166-3.471-.176-.166-.355-.322-.542-.476-.258-.22-.478-.46-.697-.719-.134-.157-.269-.312-.407-.465-2.41-2.699-3.891-6.142-4.485-9.69-.011-.067-.023-.134-.034-.203-.758-4.803.488-10.044,3.308-13.993q1.429-1.96,1.87-2.181c.304-.033.46-.036.718.134.192.287.171.468.139.809q-.139.226-.332.439-.106.122-.214.247c-.074.085-.149.17-.225.257-2.065,2.511-3.297,5.476-3.858,8.66-.011.062-.023.124-.034.188-.668,3.793.194,7.863,2.007,11.215.027.051.055.103.083.156,1.853,3.45,4.813,6.066,8.333,7.722.09.043.18.085.273.129.219.104.438.207.657.31-.007-.873-.015-1.746-.025-2.618-.004-.405-.008-.811-.012-1.216-.003-.391-.007-.783-.012-1.174-.002-.149-.003-.298-.004-.447-.001-.209-.004-.419-.007-.628,0-.061,0-.122,0-.185-.011-.671-.168-1.131-.616-1.625-.085-.097-.171-.194-.256-.292-.044-.05-.089-.099-.134-.151-.223-.252-.442-.508-.66-.763-.043-.051-.087-.101-.132-.153-.255-.297-.506-.598-.753-.903-.442-.544-.904-1.071-1.364-1.6-.592-.681-1.176-1.369-1.758-2.058-.292-.345-.586-.688-.881-1.031-.307-.357-.609-.717-.906-1.082-.244-.301-.495-.592-.756-.879q-1.828-2.011-1.782-3.519c.083-.872.444-1.485,1.08-2.075.665-.541,1.445-.735,2.288-.665,1.442.245,2.173,1.235,3.048,2.316.237.289.48.573.724.856.303.352.603.705.895,1.066.355.438.724.863,1.095,1.287.271.312.537.626.797.947.317.39.639.775.965,1.158.047.056.093.111.141.168.339.394.645.667,1.166.775.125.008.25.012.375.012.075,0,.149,0,.226.001q.122,0,.246,0c.086,0,.172,0,.26.001.284.001.569.002.853.002.198,0,.396,0,.593.001.415,0,.83.001,1.245.002.531,0,1.062.003,1.593.005.409.002.817.002,1.226.002.196,0,.391,0,.587.002.274.001.548.001.822,0q.121.001.244.002c.613-.004,1.104-.088,1.58-.507.073-.084.145-.168.22-.255q.06-.068.121-.138c.316-.364.622-.738.924-1.113.231-.283.468-.561.707-.839.453-.527.903-1.056,1.351-1.587.119-.141.239-.282.359-.423.363-.427.724-.856,1.077-1.291.132-.161.264-.322.397-.482.042-.052.084-.104.128-.158.73-.896,1.401-1.679,2.616-1.814.913-.089,1.694.195,2.401.772.545.506.904,1.197.961,1.943.015.957-.167,1.616-.789,2.344q-.102.123-.207.248c-.243.291-.489.579-.736.866-.042.049-.085.099-.128.15-.172.201-.344.402-.516.602-.326.38-.649.761-.972,1.143-.292.345-.586.688-.881,1.031-.307.357-.609.717-.906,1.082-.305.376-.624.735-.95,1.092-.259.291-.502.594-.748.897-.253.306-.512.606-.773.905-.388.445-.77.895-1.14,1.355-.138.168-.277.333-.421.496-.039.045-.078.09-.118.137-.109.126-.22.251-.33.376-.335.473-.374.975-.376,1.541,0,.066-.002.132-.003.2-.003.217-.004.433-.006.65-.002.151-.003.302-.005.453-.004.396-.008.792-.011,1.188-.003.405-.008.809-.012,1.214-.008.793-.016,1.586-.022,2.379.212-.091.422-.184.633-.278.06-.026.12-.051.182-.078q.346-.155.595-.43c.049-.189.059-.354.059-.549.011-.137.023-.274.037-.411.005-.067.011-.135.016-.204.169-1.461,1.197-2.878,2.289-3.804,1.441-1.072,3.138-1.611,4.936-1.364.021-.059.042-.117.064-.178.101-.237.221-.451.353-.672,1.205-2.029,1.955-4.357,2.241-6.696.008-.062.016-.124.024-.188.076-.656.082-1.312.083-1.972,0-.06,0-.12,0-.183-.006-3.687-1.123-7.34-3.28-10.348q-.054-.075-.109-.152c-.513-.708-1.086-1.361-1.691-1.991-.046-.049-.093-.098-.141-.148-.677-.708-1.373-1.345-2.174-1.91q-.074-.052-.149-.106c-1.9-1.337-4.016-2.354-6.282-2.895-.065-.016-.13-.031-.198-.047-3.024-.701-6.292-.64-9.255.311-.405.128-.749.208-1.18.166q-.214-.177-.343-.429,0-.512.212-.731c.322-.188.662-.279,1.02-.378.079-.022.157-.044.239-.067,1.366-.373,2.78-.631,4.198-.645ZM21.242,31.055c-.41.447-.655.826-.633,1.455.118.725.605,1.239,1.093,1.752.217.231.417.469.615.716.247.307.501.604.766.895.259.285.508.574.75.874.357.441.726.869,1.098,1.297.342.393.68.789,1.015,1.187.29.344.583.686.877,1.027.307.357.609.717.906,1.082.244.301.495.592.756.879q2.106,2.319,2.118,4.001c0,.073.002.146.003.221.003.239.005.479.007.718.002.167.004.333.005.5.005.437.009.874.013,1.312.004.447.009.893.014,1.34.009.876.018,1.751.026,2.627q1.622.418,3.274.675c.091.01.183.019.277.029,2.404.234,4.763-.037,7.081-.704q.001-.138.002-.278c.007-.867.014-1.733.023-2.6.004-.445.008-.891.012-1.336.003-.43.007-.861.012-1.291.002-.164.003-.328.004-.491.001-.23.004-.46.007-.691q0-.1,0-.203c.019-1.28.576-2.075,1.438-2.991.213-.231.412-.468.609-.713.247-.307.501-.604.766-.895.328-.36.636-.732.942-1.11.299-.363.609-.717.918-1.071.279-.321.552-.645.819-.975.303-.374.621-.731.945-1.087.192-.215.375-.436.556-.66.311-.384.63-.758.954-1.131.095-.11.191-.219.286-.329.139-.16.278-.32.417-.48q.987-1.056,1.346-2.401c-.06-.48-.304-.841-.656-1.163-.479-.372-.872-.416-1.463-.369-.928.246-1.578,1.32-2.151,2.029-.251.305-.51.604-.77.902-.386.442-.762.89-1.132,1.346-.316.384-.641.76-.965,1.137-.208.242-.415.485-.621.728-.078.092-.156.184-.234.275-.2.234-.394.471-.582.714-.61.778-1.237,1.284-2.254,1.415-.294.013-.587.013-.88.012q-.131,0-.265,0c-.289,0-.577,0-.866.001-.201,0-.402,0-.604,0-.422,0-.843,0-1.265,0-.539,0-1.078.001-1.617.003-.416,0-.831.001-1.247.001-.199,0-.397,0-.596.001-.278,0-.557,0-.835,0-.081,0-.163,0-.247.001-.92-.004-1.756-.166-2.428-.84-.295-.319-.572-.652-.847-.988-.165-.201-.333-.399-.502-.597-.116-.137-.232-.274-.347-.411-.194-.23-.389-.46-.583-.69-.118-.139-.236-.278-.353-.418-.159-.188-.319-.376-.478-.564-.363-.427-.724-.855-1.076-1.291-.45-.553-.919-1.089-1.388-1.626-.105-.122-.209-.245-.313-.368-.377-.447-.657-.705-1.252-.793-.523-.035-.907.042-1.301.402ZM46.753,48.152c-1.043,1.139-1.56,2.517-1.505,4.06.139,1.421.761,2.66,1.801,3.639,1.15.937,2.447,1.418,3.935,1.358,1.504-.161,2.808-.828,3.782-1.988,1.009-1.341,1.321-2.788,1.089-4.439-.244-1.292-1.065-2.52-2.136-3.282-2.257-1.447-5.058-1.276-6.965.652Z" fill="#6232d7"/><path d="M39.578,25.953c1.193,1.037,1.893,2.428,2.016,4.004.044,1.48-.371,2.846-1.356,3.975-.129.134-.259.266-.391.397-.051.053-.101.107-.153.162-.973.951-2.376,1.375-3.705,1.413-1.57-.045-2.942-.611-4.03-1.747-.053-.051-.106-.101-.161-.153-.986-1.003-1.429-2.488-1.418-3.863.058-1.577.729-2.972,1.863-4.062,2.122-1.812,5.15-1.832,7.337-.126ZM32.644,27.556c-.782.938-1.016,2.064-.943,3.258.171,1.158.745,2.197,1.678,2.913,1.035.695,2.145,1.007,3.386.82,1.165-.258,2.145-.881,2.808-1.879.606-1.014.888-2.083.64-3.262-.369-1.269-1.043-2.246-2.192-2.931-1.899-.982-3.955-.413-5.377,1.08Z" fill="#6232d7"/><path d="M54.165,49.334q.252.177.429.429c.01.307-.018.514-.211.76-.169.169-.343.327-.523.484-.059.054-.119.107-.18.162-.18.162-.361.322-.544.481-.404.353-.806.708-1.2,1.072-.335.308-.673.612-1.017.909-.291.257-.575.521-.859.786q-.519.48-.901.527c-.386-.044-.471-.138-.717-.432-.073-.086-.146-.172-.221-.261-.077-.095-.153-.19-.229-.286q-.058-.073-.118-.147c-.201-.251-.398-.504-.594-.759-.148-.192-.301-.376-.462-.556q-.589-.666-.616-1.062.075-.305.257-.525.247-.123.504-.129c.559.198.927.802,1.291,1.249.052.064.105.128.159.194.262.32.522.64.779.964.26-.117.447-.251.652-.448.058-.055.115-.11.175-.166.059-.057.119-.114.18-.173.404-.386.811-.765,1.233-1.13.229-.2.451-.405.674-.611q1.536-1.414,2.058-1.329Z" fill="#6232d7"/><path d="M20.929,53.579q.158,0,.32,0c.11.002.22.003.334.005.11,0,.22-.001.334-.002q.918.006,1.21.297c.102.314.114.454-.027.756q-.145.188-.316.273c-.38.026-.761.024-1.141.027-.106.002-.212.005-.321.008-.102,0-.205.001-.31.002-.094.001-.187.003-.284.004-.321-.05-.462-.153-.687-.383q-.048-.3,0-.6c.263-.352.46-.386.89-.386Z" fill="#6232d7"/><path d="M19.354,50.106c.354.352.293.738.297,1.21q0,.165-.002.334c.002.11.003.22.005.334,0,.106,0,.211,0,.32,0,.097,0,.193,0,.293-.053.31-.137.41-.386.597q-.3.048-.6,0c-.228-.224-.333-.367-.386-.684,0-.093,0-.185,0-.28,0-.102,0-.203,0-.308.002-.105.003-.211.005-.319,0-.106-.001-.211-.002-.32q.006-.881.297-1.175c.306-.102.462-.084.772,0Z" fill="#6232d7"/><path d="M27.698,19.555c.106-.002.212-.005.321-.008.102,0,.205-.001.31-.002q.14-.002.284-.004c.321.05.462.153.687.383q.048.3,0,.6c-.186.249-.287.333-.597.386-.097,0-.193,0-.293,0q-.158,0-.32,0c-.11-.002-.22-.003-.334-.005-.11,0-.22.001-.334.002q-.918-.006-1.21-.297c-.102-.314-.114-.454.027-.756.338-.438.95-.296,1.458-.3Z" fill="#6232d7"/><path d="M19.268,55.336c.249.186.333.287.386.597,0,.097,0,.193,0,.293,0,.106,0,.211,0,.32-.002.11-.003.22-.005.334,0,.11.001.22.002.334q-.005.804-.149,1.07c-.202.192-.389.181-.659.186-.255-.067-.353-.184-.517-.389q-.044-.254-.046-.547c0-.106,0-.211-.001-.32.001-.11.003-.22.004-.334-.001-.11-.003-.22-.004-.334,0-.106,0-.211.001-.32,0-.097,0-.193.001-.293.099-.567.459-.672.988-.597Z" fill="#6232d7"/><path d="M16.353,53.584c.11-.002.22-.003.334-.005.106,0,.211,0,.32,0,.097,0,.193,0,.293,0,.31.052.411.137.597.386.047.332.064.514-.14.788-.263.202-.42.2-.75.201-.106,0-.211,0-.32.001-.11-.001-.22-.003-.334-.004q-.165.002-.334.004c-.106,0-.211,0-.32-.001q-.145,0-.293-.001c-.307-.054-.408-.145-.597-.387-.066-.254-.034-.417,0-.686.399-.421,1.008-.298,1.543-.295Z" fill="#6232d7"/><path d="M22.478,19.539c.105-.002.211-.005.319-.007q.861-.002,1.131.248.142.231.142.542-.113.381-.343.547c-.394.058-.792.044-1.19.043q-.165.004-.333.007-.899.002-1.168-.248-.139-.231-.144-.542c.233-.74.934-.591,1.586-.589Z" fill="#6232d7"/><path d="M25.141,21.248q.3.048.488.233c.18.282.197.43.195.761,0,.098,0,.195-.001.296-.002.101-.004.202-.006.307,0,.102,0,.203,0,.308q-.009.862-.203,1.145-.284.123-.6.171c-.209-.096-.353-.181-.514-.343-.023-.35-.023-.7-.025-1.05-.001-.176-.005-.351-.009-.527,0-.111-.001-.221-.002-.335-.001-.102-.003-.204-.004-.309.067-.439.254-.588.683-.657Z" fill="#6232d7"/><path d="M25.267,16.015c.273.08.362.248.517.48q.044.247.046.514c0,.097,0,.195.001.295-.001.101-.003.202-.004.305.001.101.003.202.004.305,0,.097,0,.195-.001.295,0,.088,0,.177-.001.268-.056.31-.165.455-.387.675q-.3.048-.6,0c-.255-.189-.334-.29-.386-.606,0-.101,0-.201,0-.305,0-.11,0-.22,0-.333q.001-.085.003-.173c.002-.174.002-.348,0-.523q.005-.84.149-1.05c.208-.136.416-.136.659-.147Z" fill="#6232d7"/><polygon points="29.729 44.704 20.004 33.215 20.607 30.645 23.555 30.293 30.378 38.359 40.875 38.445 48.506 30.301 51.679 30.645 51.679 33.129 42.247 45.476 42.076 53.229 37.96 54.263 31.444 53.722 29.729 53.229 29.729 44.704" fill="#6232d7"/><circle cx="35.996" cy="30.301" r="4.723" fill="#6232d7"/></svg>