<?xml version="1.0" encoding="UTF-8"?><svg id="a" xmlns="http://www.w3.org/2000/svg" width="34.098" height="34.098" viewBox="0 0 34.098 34.098"><circle cx="17.049" cy="17.049" r="17.049" fill="#eae5ff"/><path d="M17.028,8.07h.094c.459.002.905.017,1.355.116.033.007.066.014.1.021.503.108.973.262,1.443.47q.038.016.077.033c.856.368,1.582.924,2.236,1.58.023.022.046.043.07.065,1.285,1.215,1.98,3.081,2.041,4.822.033,1.445-.579,2.783-1.34,3.982-.019.029-.037.059-.056.089-.35.551-.719,1.087-1.122,1.601-.055.071-.11.143-.165.214-.226.294-.457.581-.7.86-.086.099-.169.201-.251.304-.142.175-.293.34-.448.504-.096.102-.19.205-.282.311-.399.457-.827.885-1.257,1.312-.052.052-.104.103-.156.155-.094.094-.189.188-.283.282-.139.138-.278.277-.415.416q-.431.435-.629.6c-.055.048-.101.099-.149.153q-.081.07-.163.067c-.12-.041-.175-.102-.262-.194-.103-.108-.206-.212-.32-.309-.186-.159-.356-.336-.528-.511-.134-.134-.268-.268-.403-.402-.124-.123-.248-.247-.371-.37-.065-.065-.13-.13-.195-.195-.095-.094-.189-.188-.283-.283-.029-.029-.058-.057-.087-.087-.149-.149-.292-.3-.429-.46-.091-.105-.186-.206-.281-.307-.261-.28-.511-.569-.758-.862-.065-.077-.131-.154-.197-.231-.214-.248-.414-.505-.609-.769-.091-.122-.183-.243-.277-.362-1.396-1.811-2.628-3.89-2.328-6.251.231-1.661,1.008-3.108,2.188-4.286.022-.023.043-.046.065-.07.545-.577,1.254-.999,1.968-1.332.023-.011.047-.022.071-.033.454-.21.913-.368,1.4-.482q.045-.011.091-.022c.515-.115,1.022-.143,1.548-.141ZM13.522,11.666c-.718.733-1.229,1.767-1.321,2.794-.002.025-.005.05-.007.076-.107,1.24.21,2.428.954,3.43.022.03.044.06.066.09.784,1.024,1.928,1.641,3.194,1.838,1.333.158,2.644-.194,3.703-1.025,1.021-.874,1.705-2.042,1.818-3.399.09-1.319-.298-2.615-1.172-3.619-.893-.998-2.095-1.604-3.435-1.693-1.447-.074-2.783.496-3.8,1.509Z" fill="#6232d7"/><path d="M18.19,12.209c.102,0,.204-.001.305-.003.738-.004,1.454.089,2.021.607.37.382.499.86.497,1.377-.014.502-.167.976-.512,1.351-.569.52-1.322.675-2.071.677-.137-.007-.273-.025-.409-.04v2.174h-1.402v-6.03c.532-.076,1.037-.113,1.571-.114ZM18.02,13.304v1.788c.431.062.864.056,1.235-.193.177-.139.29-.288.342-.508.03-.277.039-.545-.14-.771-.193-.213-.422-.305-.701-.351-.074-.003-.148-.005-.221-.004-.037,0-.075,0-.114,0-.134.005-.268.023-.401.04Z" fill="#6232d7"/><path d="M14.059,12.252h1.402v6.1h-1.402v-6.1Z" fill="#6232d7"/></svg>