<?xml version="1.0" encoding="UTF-8"?><svg id="a" xmlns="http://www.w3.org/2000/svg" width="72" height="72" viewBox="0 0 72 72"><rect width="72" height="72" rx="2.065" ry="2.065" fill="#eae5ff"/><path d="M56.555,44.1c.779.685,1.314,1.467,1.487,2.51.014.223.024.446.03.669q.003.098.006.199c.006.217.012.434.017.65.002.075.004.15.006.227.032,1.229.046,2.458.048,3.688,0,.077,0,.154,0,.233q.01,3.739-1.069,4.865c-.622.58-1.165.906-2.004,1.039q0-.079,0-.159c-.008-1.278-.017-2.555-.027-3.833-.005-.618-.009-1.236-.013-1.853-.004-.596-.008-1.192-.013-1.787-.002-.228-.003-.456-.004-.683-.002-.318-.004-.636-.007-.954,0-.095,0-.19,0-.288-.001-.086-.002-.173-.003-.262,0-.075-.001-.151-.002-.228q-.009-.206-.216-.375-.239-.032-.478,0c-.231.231-.216.286-.218.603-.001.086-.002.173-.003.262q0,.142,0,.288c0,.1-.002.2-.003.302-.003.331-.005.662-.006.993-.002.229-.004.458-.006.687-.005.604-.009,1.208-.012,1.812-.004.724-.01,1.448-.016,2.172-.008,1.101-.015,2.202-.022,3.303h-9.084c-.005-.728-.009-1.457-.014-2.207-.003-.461-.007-.921-.01-1.382-.006-.732-.011-1.463-.016-2.195-.004-.59-.008-1.179-.013-1.769-.002-.225-.003-.451-.004-.676-.002-.315-.004-.63-.007-.944,0-.094,0-.187,0-.284-.001-.086-.002-.171-.003-.26,0-.074-.001-.149-.002-.226q-.014-.223-.216-.48h-.669c-.032,3.439-.063,6.879-.096,10.422-.963-.138-1.638-.672-2.248-1.424-1.023-1.446-.949-3.099-.935-4.795.003-.357.004-.713.004-1.07.003-1.131.019-2.262.054-3.392.002-.095.004-.19.006-.289.041-1.119.353-1.965,1.11-2.8,3.419-3.107,11.055-3.216,14.672-.31Z" fill="#6232d7"/><path d="M30.123,44.22c.057.047.115.095.174.144.877.786,1.204,1.864,1.272,3.011.019.517.018,1.034.017,1.551,0,.167,0,.334.001.501,0,.348,0,.696,0,1.044,0,.443.001.885.003,1.328.001.344.001.688.001,1.032,0,.163,0,.326.002.489.008,1.498-.099,2.778-1.154,3.921-.531.511-1.127.803-1.847.938,0-.125-.002-.25-.002-.379-.007-1.176-.016-2.352-.025-3.529-.005-.605-.009-1.209-.013-1.814-.004-.583-.008-1.167-.013-1.75-.002-.223-.003-.446-.004-.668-.002-.312-.004-.623-.007-.935,0-.093,0-.185,0-.28-.001-.085-.002-.17-.003-.258,0-.074-.001-.147-.002-.223-.028-.23-.102-.387-.216-.586h-.574c-.161.282-.216.486-.218.81-.001.085-.002.17-.003.258q0,.139,0,.28c0,.098-.002.196-.003.297-.003.324-.005.648-.006.972-.002.225-.004.449-.006.674-.005.591-.009,1.182-.012,1.773-.004.709-.01,1.418-.016,2.127-.008,1.077-.015,2.155-.022,3.232h-9.084q-.047-5.159-.096-10.422h-.669c-.199.299-.215.367-.218.706-.001.086-.002.171-.003.26,0,.094,0,.187,0,.284q-.001.148-.003.3c-.003.327-.005.655-.006.982-.002.227-.004.454-.006.68-.005.597-.009,1.195-.012,1.792-.004.61-.009,1.219-.014,1.828-.009,1.196-.017,2.393-.025,3.589-.605-.089-.947-.314-1.434-.669-.083-.055-.166-.11-.251-.167-1.242-1.176-1.431-2.722-1.479-4.347-.004-.308-.004-.616-.003-.924,0-.115,0-.23.001-.349.002-.398.006-.795.011-1.193,0-.078.002-.156.002-.236.006-.508.013-1.016.023-1.524.003-.167.006-.334.008-.501.023-1.664.208-2.893,1.443-4.109,1.413-1.205,3.315-1.65,5.121-1.853.091-.011.181-.021.275-.032,3.007-.29,6.708-.174,9.096,1.944Z" fill="#6232d7"/><path d="M40.813,17.963c1.714,1.363,2.804,3.152,3.124,5.339.209,2.086-.399,3.74-1.4,5.531-1.068,1.921-1.445,3.711-1.705,5.92h-9.37q-.142-1.089-.287-2.199c-.38-1.773-1.103-3.272-2.009-4.83-.907-1.588-1.062-3.695-.621-5.461.356-1.189.926-2.276,1.769-3.191.074-.081.148-.163.224-.247,2.661-2.804,7.18-3.135,10.275-.863ZM36.746,19.808q-.381.407-.496.926c.015.656-.138,1.056-.582,1.535-.15.154-.302.305-.457.453-.159.152-.312.31-.465.468q-.719.72-1.169.821-.253-.004-.475-.039c-.376-.04-.674.147-.973.36-.38.39-.554.744-.604,1.285.055.622.334.988.795,1.392.297.183.465.191.807.161.482.038.692.247.999.591.215.257.422.519.628.783.134.168.274.325.422.48q.576.624.608,1.01-.033.248-.083.484c-.07.451.188.786.42,1.151.356.356.72.481,1.213.544.538-.066.93-.267,1.333-.627.254-.45.389-.923.317-1.443-.161-.519-.489-.822-.927-1.127q-.185-.111-.389-.092c-.401.004-.665-.023-.983-.281-.224-.25-.431-.508-.636-.774-.153-.185-.307-.371-.46-.556-.134-.165-.267-.33-.4-.496-.066-.071-.132-.142-.201-.215-.288-.417-.241-.752-.19-1.243.18-.623.589-1.008,1.055-1.44.162-.151.318-.306.474-.463.102-.099.204-.197.306-.295.046-.046.093-.092.141-.139.27-.246.409-.315.778-.341q.156.013.314.026c.565-.11.98-.301,1.339-.765.306-.53.346-.949.191-1.53-.234-.46-.496-.722-.956-.956-.638-.17-1.199-.132-1.695.353Z" fill="#6232d7"/><path d="M25.949,33.145c.78.863.883,2.143.854,3.266-.122,1.565-.484,3.161-1.672,4.278-.765.622-1.561.948-2.562.854-1.045-.199-1.876-.757-2.486-1.625-.945-1.57-1.231-3.609-.836-5.403.237-.791.603-1.419,1.314-1.863,1.605-.754,4.054-.804,5.388.495Z" fill="#6232d7"/><path d="M52.294,32.901c.701.665.964,1.65,1,2.588.027,1.89-.137,3.663-1.514,5.104-.773.713-1.524.986-2.576.944-.952-.099-1.6-.495-2.25-1.188-1.264-1.56-1.355-3.485-1.246-5.403.103-.926.538-1.602,1.243-2.199,1.322-.971,4.089-.796,5.343.155Z" fill="#6232d7"/><path d="M31.461,36.092h9.37q0,.903-.287,1.339c-.498.472-.873.49-1.543.493q-.102,0-.206.001c-.224.001-.449.002-.673.003-.156,0-.313.001-.469.002-.328.001-.656.002-.984.002-.419,0-.838.003-1.258.006-.323.002-.647.002-.97.002-.155,0-.309.001-.464.002-.217.002-.433.001-.65,0q-.185,0-.373.001c-.508-.052-.883-.182-1.243-.561-.307-.472-.251-.668-.251-1.291Z" fill="#6232d7"/><path d="M32.704,39.248h6.884q-.112,1.004-.574,1.434c-.331.16-.596.216-.962.217-.094,0-.188.002-.284.003-.1,0-.201,0-.304,0-.104,0-.208,0-.315.001-.22,0-.44,0-.659,0-.336,0-.671.002-1.007.004-.214,0-.428,0-.641,0q-.15.001-.303.003c-.647-.004-1.083-.074-1.576-.527q-.161-.275-.257-1.135Z" fill="#6232d7"/><path d="M24.959,18.116c.296.128.568.286.843.454.072.041.143.082.217.125.39.233.674.419.853.855-.011.327-.033.566-.203.849-.278.167-.529.223-.849.203-.348-.127-.66-.305-.98-.49-.086-.047-.172-.093-.26-.141q-.787-.443-.959-.899c0-.401.036-.597.293-.908.371-.189.655-.148,1.046-.048Z" fill="#6232d7"/><path d="M48.29,18.116q.239.203.382.478c0,.357-.017.575-.249.853-.291.252-.599.449-.928.647-.061.039-.122.077-.185.117-.404.244-.737.368-1.219.391-.279-.118-.428-.22-.61-.46-.085-.296-.05-.488.036-.783.309-.37.695-.59,1.106-.831.064-.039.129-.077.195-.117.542-.321.848-.449,1.473-.296Z" fill="#6232d7"/><path d="M43.592,13.353c.179.288.138.508.108.843-.122.31-.281.591-.448.878q-.062.114-.126.23c-.235.415-.446.735-.86.995-.357.059-.525.024-.849-.137-.258-.311-.249-.477-.239-.869.063-.417.271-.735.496-1.085.043-.071.086-.142.131-.216q.473-.768.825-.926c.364-.031.658.094.962.287Z" fill="#6232d7"/><path d="M29.931,13.24c.225.267.396.561.574.861.054.079.108.158.164.239.306.46.503.831.46,1.394q-.05.183-.253.428c-.324.162-.492.197-.849.137-.491-.308-.716-.736-.986-1.231-.043-.076-.087-.151-.132-.229-.23-.416-.392-.729-.317-1.217.162-.261.285-.429.562-.568.321-.009.487.035.777.185Z" fill="#6232d7"/><path d="M36.347,11.29c.281.058.401.192.564.42.14.421.117.832.12,1.273.002.09.004.179.006.272.003.514-.024.881-.317,1.324-.241.191-.36.192-.669.179-.338-.098-.452-.192-.669-.466q-.049-.274-.051-.589c0-.114,0-.227-.001-.344.001-.118.003-.236.004-.358-.001-.118-.003-.236-.004-.358,0-.114,0-.227.001-.344,0-.104,0-.207.001-.314.106-.588.477-.722,1.015-.695Z" fill="#6232d7"/><path d="M34.043,42.116h4.207q-.111.78-.574,1.147c-.504.239-.964.226-1.512.227-.092.002-.184.005-.278.007-.591.002-1.073-.065-1.557-.425-.238-.357-.287-.524-.287-.956Z" fill="#6232d7"/></svg>