<?xml version="1.0" encoding="UTF-8"?>
<svg id="a" xmlns="http://www.w3.org/2000/svg" width="83.06" height="83.06" viewBox="0 0 83.06 83.06">
  <defs>
    <style>
      .cls-1 {
        fill: #eae5ff;
      }

      .cls-2 {
        fill: #6232d7;
      }
    </style>
  </defs>
  <circle class="cls-1" cx="41.53" cy="41.53" r="41.53"/>
  <g>
    <path class="cls-2" d="M50.048,22.067c.149,.14,.297,.282,.443,.426,.06,.057,.119,.115,.181,.174,1.189,1.24,1.452,2.848,1.434,4.498,0,.141,0,.281-.001,.422-.001,.366-.004,.733-.007,1.099-.003,.376-.004,.751-.006,1.127-.003,.734-.008,1.468-.014,2.202,.064,0,.128-.001,.193-.002,.607-.006,1.214-.01,1.82-.013,.312-.001,.624-.004,.935-.007,.36-.003,.72-.005,1.08-.006,.11-.001,.219-.003,.332-.004,1.052,0,2.098,.152,3.036,.65,.062,.032,.125,.065,.189,.098,.567,.305,1.023,.686,1.468,1.151,.064,.061,.127,.122,.193,.184,1.99,2.021,2.283,5.25,2.267,7.926-.049,2.653-.547,5.497-2.503,7.438-.078,.075-.156,.15-.237,.228q-.078,.082-.158,.167c-.349,.341-.773,.56-1.202,.784q-.087,.047-.175,.094c-1.079,.539-2.249,.582-3.431,.573-.146,0-.293,0-.439,0-.393,0-.786-.002-1.18-.004-.413-.002-.825-.002-1.238-.002-.779,0-1.558-.003-2.338-.006-.888-.003-1.776-.005-2.664-.006-1.825-.003-3.649-.008-5.474-.014v.84h9.522q.009,1.328,.018,2.684c.003,.277,.005,.555,.008,.84,0,.223,.002,.446,.002,.669q.002,.17,.004,.343c0,1.739-.624,3.123-1.831,4.364-2.535,2.403-6.186,2.769-9.515,2.702-2.992-.088-6.142-.777-8.289-3.013-1.171-1.403-1.541-2.775-1.521-4.579,0-.141,0-.281,.001-.422,.001-.366,.004-.733,.007-1.099,.003-.376,.004-.751,.006-1.127,.003-.734,.008-1.468,.014-2.202-.064,0-.128,.001-.193,.002-.607,.006-1.214,.01-1.82,.013-.312,.001-.624,.004-.935,.007-.36,.003-.72,.005-1.08,.006-.11,.001-.219,.003-.332,.004-1.052,0-2.098-.152-3.036-.65-.062-.032-.125-.065-.189-.098-.567-.305-1.023-.686-1.468-1.151-.064-.061-.127-.122-.193-.184-1.99-2.021-2.283-5.25-2.267-7.926,.049-2.653,.547-5.497,2.503-7.438,.078-.075,.156-.15,.237-.228,.052-.055,.104-.11,.158-.167,.349-.341,.773-.56,1.202-.784,.058-.031,.115-.062,.175-.094,1.079-.539,2.249-.582,3.431-.573,.146,0,.293,0,.439,0,.393,0,.786,.002,1.18,.004,.413,.002,.825,.002,1.238,.002,.779,0,1.558,.003,2.338,.006,.888,.003,1.776,.005,2.664,.006,1.825,.003,3.649,.008,5.474,.014v-.84h-9.522c-.006-.886-.012-1.771-.018-2.684q-.004-.416-.008-.84c0-.223-.002-.446-.002-.669q-.002-.17-.004-.343c0-1.739,.624-3.123,1.831-4.364,4.036-3.827,13.096-3.858,17.267-.207Zm-15.939,1.762c-1.483,1.522-1.167,3.173-1.167,5.292h9.615v4.948c-.512-.002-1.024-.004-1.552-.006-1.692-.006-3.385-.01-5.077-.013-1.026-.002-2.052-.005-3.078-.009-.895-.004-1.789-.006-2.684-.007-.473,0-.947-.002-1.42-.004-.446-.003-.892-.003-1.338-.003-.163,0-.326,0-.49-.002-1.313-.011-2.316,.153-3.311,1.071-.063,.058-.127,.116-.192,.176-1.663,1.695-1.964,4.348-1.958,6.605,.043,2.163,.451,4.57,2.004,6.188,1.003,.939,1.943,1.17,3.3,1.153,.121,0,.242,0,.367-.001,.319-.001,.638-.004,.957-.007,.327-.003,.653-.004,.98-.006,.639-.003,1.278-.008,1.917-.014,0-.053,0-.107,.001-.162,.004-.562,.01-1.124,.018-1.686,.003-.209,.005-.418,.006-.627,.012-1.846,.178-3.365,1.496-4.766,1.187-1.067,2.593-1.298,4.149-1.288,.185,0,.371-.001,.556-.002,.196,0,.393,0,.589,0,.412,.001,.823,0,1.235-.002,1.022-.003,2.043-.004,3.065-.004,.796,0,1.593,0,2.389-.004,.409-.002,.817-.001,1.226,0,.314,0,.628-.001,.943-.002,.112,0,.224,.002,.339,.003,.946-.008,1.611-.25,2.304-.897,.78-.836,.848-1.739,.846-2.838,0-.115,0-.23,.001-.348,.001-.314,.001-.627,.001-.941,0-.263,0-.526,0-.788,.001-.621,.001-1.241,0-1.862,0-.638,0-1.276,.003-1.914,.002-.55,.002-1.099,.002-1.649,0-.327,0-.655,.001-.982,.001-.366,0-.731,0-1.097,0-.107,.001-.214,.002-.324-.008-1.291-.371-2.321-1.256-3.27-3.457-3.245-11.355-3.09-14.79,.087Zm17.97,10.24c0,.053,0,.106-.001,.161-.004,.56-.01,1.121-.018,1.681-.003,.208-.005,.417-.006,.625-.012,1.797-.122,3.317-1.404,4.703-1.196,1.113-2.602,1.338-4.167,1.338-.185,0-.371,0-.556,.002-.198,0-.397,0-.595,0-.414,0-.829,.002-1.243,.004-.142,0-.284,.001-.427,.002-.071,0-.142,0-.216,0-.964,.004-1.928,.007-2.892,.008-.651,0-1.303,.003-1.954,.006-.344,.002-.688,.003-1.032,.003-.384,0-.768,.002-1.152,.004-.113,0-.226-.001-.342-.002-.949,.01-1.616,.25-2.311,.899-.779,.835-.848,1.737-.848,2.835,0,.115-.001,.229-.002,.348-.001,.313-.002,.626-.002,.939,0,.196,0,.392-.001,.588-.002,.686-.002,1.372-.002,2.058,0,.636-.002,1.273-.005,1.909-.002,.549-.003,1.098-.003,1.646,0,.327,0,.653-.002,.98-.002,.365-.001,.73,0,1.096-.001,.106-.002,.212-.003,.322,.01,1.287,.407,2.35,1.28,3.293,2.043,1.932,5.221,2.234,7.893,2.175,2.446-.086,5.186-.525,6.979-2.346,1.353-1.512,1.073-3.188,1.073-5.208h-9.615v-4.948c.512,.002,1.024,.004,1.552,.006,1.692,.006,3.385,.01,5.077,.013,1.026,.002,2.052,.005,3.078,.009,.895,.004,1.789,.006,2.684,.007,.473,0,.947,.002,1.42,.004,.446,.003,.892,.003,1.338,.003,.163,0,.326,0,.49,.002,1.313,.011,2.316-.153,3.311-1.071q.095-.087,.192-.176c1.709-1.742,1.947-4.45,1.956-6.76-.028-2.101-.505-4.474-2.002-6.033-1.003-.939-1.943-1.17-3.3-1.153-.121,0-.242,0-.367,.001-.319,.001-.638,.004-.957,.007-.327,.003-.653,.004-.98,.006-.639,.003-1.278,.008-1.917,.014Z"/>
    <path class="cls-2" d="M47.254,55.119c.485,.278,.823,.735,.998,1.26,.066,.667,.036,1.225-.373,1.774-.46,.5-.889,.715-1.569,.782-.532-.017-.999-.209-1.402-.556-.412-.445-.55-.877-.605-1.48,.064-.731,.297-1.125,.857-1.598,.619-.42,1.406-.481,2.095-.182Z"/>
    <path class="cls-2" d="M37.983,24.733c.528,.454,.713,.936,.776,1.628-.064,.731-.297,1.125-.857,1.598-.538,.365-1.06,.391-1.693,.322-.625-.169-.983-.575-1.307-1.12-.183-.549-.188-1.176,.053-1.709,.277-.477,.659-.8,1.155-1.033,.715-.146,1.253-.075,1.873,.315Z"/>
  </g>
</svg>