<?xml version="1.0" encoding="UTF-8"?>
<svg id="Layer_1" data-name="Layer 1" xmlns="http://www.w3.org/2000/svg" width="32.92" height="32.92" viewBox="0 0 32.92 32.92">
  <defs>
    <style>
      .cls-1 {
        fill: #eae5ff;
      }

      .cls-2 {
        fill: #5c49e6;
      }
    </style>
  </defs>
  <path class="cls-1" d="M16.46,0h0c9.09,0,16.46,7.37,16.46,16.46h0c0,9.09-7.37,16.46-16.46,16.46h0C7.37,32.92,0,25.55,0,16.46H0C0,7.37,7.37,0,16.46,0Z"/>
  <g>
    <path class="cls-2" d="M11.87,8.06c.06,0,.12,0,.18,0,.17,0,.33,0,.5,0,.18,0,.36,0,.54,0,.35,0,.71,0,1.06,0,.29,0,.57,0,.86,0,.08,0,.17,0,.25,0,.04,0,.08,0,.13,0,.78,0,1.56,0,2.34,0,.71,0,1.43,0,2.14,0,.73,0,1.46,0,2.2,0,.41,0,.82,0,1.23,0,.35,0,.7,0,1.05,0,.18,0,.36,0,.53,0,.19,0,.39,0,.58,0q.08,0,.17,0c.44,0,.8,.12,1.12,.44,.25,.33,.29,.68,.25,1.08-.04,.26-.13,.5-.21,.75q-.03,.08-.06,.17c-.06,.18-.12,.36-.19,.55-.04,.13-.09,.26-.13,.38-.02,.06-.04,.13-.07,.19-.01,.03-.02,.06-.03,.1-.03,.1-.07,.19-.1,.29-.18,.54-.36,1.09-.54,1.63-.19,.58-.38,1.16-.57,1.74-.02,.06-.04,.12-.06,.18-.1,.29-.19,.57-.29,.86-.03,.1-.07,.21-.1,.31q-.02,.07-.05,.14s-.03,.09-.04,.13c-.01,.04-.03,.08-.04,.12q-.03,.11-.03,.25t.17,.16c1.42,1.2,2.18,2.95,2.34,4.78,.07,.99-.02,2.14-.48,3.04-.15,.16-.26,.21-.48,.22-.09,0-.19,0-.28,0q-.08,0-.16,0c-.17,0-.35,0-.52,0-.13,0-.25,0-.38,0-.3,0-.61,0-.91,0-.25,0-.5,0-.74,0q-.05,0-.11,0c-.07,0-.14,0-.21,0-.67,0-1.34,0-2.01,0-.58,0-1.15,0-1.73,0-.67,0-1.34,0-2.01,0-.07,0-.14,0-.21,0q-.05,0-.11,0c-.25,0-.49,0-.74,0-.33,0-.67,0-1,0-.12,0-.24,0-.37,0-.17,0-.33,0-.5,0q-.07,0-.15,0c-.28,0-.45-.03-.67-.22q-.08-.16-.13-.34s-.02-.06-.03-.1c-.12-.41-.24-.82-.23-1.25-.03,0-.07,0-.1,0-.8,0-1.6,0-2.4,0-.39,0-.77,0-1.16,0-.34,0-.67,0-1.01,0-.18,0-.36,0-.54,0-.2,0-.4,0-.6,0-.06,0-.12,0-.18,0-.39,0-.65-.06-.96-.31-.24-.28-.38-.55-.39-.92,.03-.4,.14-.75,.27-1.13,.02-.07,.04-.13,.07-.2,.06-.17,.12-.34,.17-.51,.05-.14,.09-.28,.14-.42,.1-.29,.2-.58,.29-.87,.02-.05,.03-.1,.05-.15q.04-.12,.09-.22s-.09,0-.14,0q-.09,0-.19,0c-.06,0-.12,0-.19,0-.21-.02-.28-.07-.42-.22-.1-.21-.11-.31-.05-.53,.11-.18,.15-.23,.34-.31,.17-.02,.34-.02,.51-.02,.05,0,.1,0,.15,0,.17,0,.34,0,.5,0,.12,0,.23,0,.35,0,.24,0,.49,0,.73,0,.31,0,.63,0,.94,0,.24,0,.48,0,.72,0,.12,0,.23,0,.35,0,.16,0,.32,0,.49,0,.05,0,.1,0,.15,0,.24,0,.41,0,.61,.17,.13,.17,.12,.34,.1,.55-.08,.18-.13,.24-.3,.35q-.15,.01-.34,.02-.05,0-.1,0c-.11,0-.23,0-.34,0-.08,0-.16,0-.24,0-.21,0-.41,0-.62,0-.21,0-.42,0-.63,0-.41,0-.83,0-1.24,.01-.02,.06-.04,.12-.06,.18-.09,.27-.18,.54-.26,.81-.02,.05-.03,.1-.05,.15-.2,.62-.4,1.23-.61,1.85q-.02,.06-.04,.13s-.02,.07-.04,.11c-.03,.12-.06,.23-.08,.35,2.05,.02,4.09,.03,6.2,.05v-.5c.02-.15,.03-.3,.06-.45,0-.04,.01-.08,.02-.12,.22-1.29,.8-2.46,1.66-3.44,.03-.04,.06-.07,.09-.11,.2-.24,.41-.44,.65-.63q.07-.06,.14-.12c1.47-1.19,3.35-1.71,5.22-1.53,1.03,.11,2.02,.42,2.92,.95,.03-.15,.07-.29,.1-.45,.43-1.29,.85-2.59,1.29-3.92-4.96-.02-9.92-.03-15.02-.05-.03,.15-.07,.29-.1,.45q-.05,.13-.09,.22s-.03,.06-.05,.1c-.07,.1-.14,.14-.26,.18-.25,.02-.4,0-.6-.15-.13-.2-.13-.36-.1-.6,.06-.23,.13-.46,.21-.69,.02-.07,.04-.13,.06-.2,.05-.14,.09-.28,.14-.41,.06-.17,.12-.35,.17-.53,.04-.14,.09-.27,.13-.41,.02-.06,.04-.13,.06-.19,.24-.73,.48-1.32,1.16-1.72,.4-.19,.75-.24,1.2-.23Zm-.91,1.34c-.22,.31-.33,.64-.44,1q-.03,.09-.06,.18-.11,.3-.14,.62h15.02q.45-1.01,.55-2.03c-.08-.08-.17-.06-.28-.06q-.07,0-.15,0c-.06,0-.11,0-.17,0-.06,0-.12,0-.18,0-.16,0-.33,0-.49,0-.18,0-.35,0-.53,0-.42,0-.85,0-1.27,0-.2,0-.4,0-.6,0-.66,0-1.33,0-1.99,0-.17,0-.34,0-.52,0-.04,0-.09,0-.13,0-.69,0-1.39,0-2.08,0-.71,0-1.43,0-2.14,0-.4,0-.8,0-1.2,0-.34,0-.68,0-1.02,0-.17,0-.35,0-.52,0-.19,0-.38,0-.57,0-.05,0-.11,0-.17,0-.37,0-.63,.06-.92,.31Zm5.05,8.74s.08,.08,.12,.12c.16,.19,.18,.33,.18,.57-.08,.18-.13,.24-.3,.35q-.33,.04-.49-.06-.08-.07-.21-.19c-.22,.08-.31,.24-.43,.42-.02,.03-.04,.07-.07,.1-.5,.79-.99,1.84-.94,2.8,.03,0,.06,0,.09,0,.19,.01,.33,.03,.51,.12,.13,.16,.16,.31,.15,.52-.03,.1-.07,.2-.1,.3q-.32,.05-.64,.1-.01,.44,.2,1.19h11.6c.09-.31,.17-.56,.21-.87,0-.06,.02-.12,.02-.18,0-.04,.01-.09,.02-.13-.03,0-.07,0-.1,0-.22-.01-.36-.03-.55-.15-.13-.2-.14-.36-.09-.6,.11-.15,.22-.24,.4-.26,.04,0,.08,0,.12-.01,.04,0,.08,0,.12-.01,.03,0,.06,0,.09,0-.15-1.24-.57-2.36-1.39-3.32t-.07,.05c-.25,.17-.41,.24-.72,.19-.15-.1-.23-.17-.27-.35-.02-.3,.08-.46,.27-.69-.91-.8-2.11-1.3-3.32-1.39,0,.03,0,.06,0,.09-.02,.26-.05,.42-.24,.61-.16,.08-.32,.08-.5,.05-.16-.11-.23-.19-.28-.37-.03-.12-.05-.24-.06-.37-1.21,0-2.4,.66-3.32,1.39Z"/>
    <path class="cls-2" d="M6.4,14.11s.08,0,.12,0c.13,0,.26,0,.39,0,.09,0,.19,0,.28,0,.25,0,.51,0,.76,0,.27,0,.53,0,.8,0,.45,0,.89,0,1.34,0,.52,0,1.03,0,1.55,0,.44,0,.89,0,1.33,0,.26,0,.53,0,.79,0,.25,0,.5,0,.75,0,.09,0,.18,0,.27,0,.12,0,.25,0,.37,0,.04,0,.07,0,.11,0,.25,0,.42,.05,.64,.17,.11,.12,.15,.19,.15,.36-.01,.19-.03,.31-.15,.46-.17,.12-.32,.13-.53,.13-.06,0-.11,0-.17,0-.06,0-.12,0-.19,0-.07,0-.13,0-.2,0-.18,0-.36,0-.54,0-.19,0-.37,0-.56,0-.35,0-.71,0-1.06,0-.4,0-.81,0-1.21,0-.83,0-1.66,.01-2.49,.02-.01,.04-.03,.09-.04,.13-.05,.16-.1,.32-.16,.47-.02,.07-.05,.14-.07,.21-.03,.1-.06,.2-.1,.3-.02,.06-.04,.12-.06,.18-.08,.17-.16,.25-.32,.35-.15,.04-.29,.03-.45,0-.14-.09-.22-.15-.3-.3-.02-.33,.04-.58,.15-.89q.02-.06,.04-.13c.03-.11,.07-.21,.11-.32-.06,0-.11,0-.17,0-.21,0-.41,0-.62,0-.09,0-.18,0-.27,0-.13,0-.26,0-.39,0-.04,0-.08,0-.12,0-.26,0-.41-.06-.62-.23-.12-.2-.11-.37-.05-.59,.2-.31,.51-.33,.85-.33Z"/>
    <path class="cls-2" d="M23.69,19.99c.19,.07,.25,.16,.35,.33,.04,.25,0,.39-.15,.6-.12,.09-.23,.17-.36,.24-.04,.02-.07,.05-.11,.07-.13,.08-.25,.16-.38,.23-.1,.06-.2,.13-.3,.19-.25,.16-.5,.31-.75,.47-.19,.12-.39,.25-.58,.37q-.11,.06-.21,.06t0,.11c.01,.45-.05,.77-.36,1.1-.28,.25-.58,.36-.94,.39-.46-.03-.77-.17-1.08-.51-.26-.33-.34-.68-.3-1.09,.07-.41,.31-.72,.64-.96,.33-.18,.72-.17,1.09-.13,.07,.03,.14,.06,.22,.09,.14,.05,.21,.06,.35,.01,.13-.08,.26-.16,.38-.25,.1-.06,.19-.13,.29-.19q.07-.05,.15-.1c.26-.18,.53-.34,.8-.51,.05-.03,.1-.06,.15-.09,.13-.08,.27-.16,.4-.25,.03-.02,.07-.04,.1-.07,.21-.13,.34-.16,.59-.12Zm-3.97,2.57q-.1,.09-.11,.24s.01,.1,.02,.15c.16,.11,.21,.13,.4,.1q.1-.08,.15-.2c0-.13-.04-.18-.12-.29-.12-.1-.2-.08-.34,0Z"/>
    <path class="cls-2" d="M12.7,26.37h.13c.14,0,.28,0,.42,0,.1,0,.19,0,.29,0,.2,0,.41,0,.61,0,.26,0,.52,0,.78,0,.2,0,.4,0,.6,0,.1,0,.19,0,.29,0,.13,0,.27,0,.4,0,.04,0,.08,0,.12,0,.23,0,.37,.03,.55,.17,.14,.16,.15,.23,.15,.45-.01,.15-.06,.21-.15,.33-.2,.16-.34,.15-.59,.15-.04,0-.09,0-.13,0-.14,0-.29,0-.43,0-.1,0-.2,0-.3,0-.21,0-.42,0-.63,0-.27,0-.54,0-.81,0-.21,0-.41,0-.62,0-.1,0-.2,0-.3,0-.14,0-.28,0-.42,0-.04,0-.08,0-.12,0-.2,0-.29-.01-.46-.12-.17-.17-.17-.31-.17-.54,.03-.18,.13-.25,.27-.36,.16-.08,.33-.06,.51-.06Z"/>
    <path class="cls-2" d="M7.3,24.48s.08,0,.13,0c.14,0,.28,0,.42,0q.07,0,.14,0c.25,0,.51,0,.76,0,.26,0,.52,0,.78,0,.2,0,.4,0,.6,0,.1,0,.19,0,.29,0,.13,0,.27,0,.4,0q.06,0,.12,0c.19,0,.3,.02,.45,.12,.13,.14,.15,.23,.16,.42-.01,.19-.04,.28-.16,.43-.19,.13-.39,.11-.61,.11-.04,0-.08,0-.12,0-.14,0-.27,0-.41,0-.09,0-.19,0-.28,0-.2,0-.4,0-.59,0-.25,0-.51,0-.76,0-.2,0-.39,0-.59,0-.09,0-.19,0-.28,0-.13,0-.26,0-.39,0q-.06,0-.12,0c-.28,0-.41-.08-.6-.28-.08-.15-.06-.28-.05-.45,.19-.35,.33-.35,.71-.36Z"/>
    <path class="cls-2" d="M18.69,26.36s.1,0,.15,0q.45,0,.65,.17c.12,.17,.15,.27,.15,.47-.06,.22-.11,.28-.3,.42-.22,.04-.43,.03-.64,.03q-.09,0-.18,0-.47,0-.63-.15c-.1-.15-.14-.24-.14-.43,.06-.18,.1-.31,.24-.43,.23-.1,.45-.09,.7-.08Z"/>
    <path class="cls-2" d="M24.79,9.66q.13,.08,.2,.2c.04,.21,.01,.35-.1,.53-.14,.17-.27,.25-.49,.31-.15,0-.24,0-.4-.05q-.1-.11-.15-.25c0-.26,.06-.41,.25-.6,.21-.17,.43-.19,.69-.15Z"/>
    <path class="cls-2" d="M21.44,9.65q.06,0,.12,0t.19,.08c.1,.14,.09,.25,.08,.42-.03,.19-.13,.28-.27,.41-.2,.13-.36,.18-.6,.15q-.14-.07-.25-.2c-.04-.22-.05-.32,.07-.51,.2-.23,.33-.34,.65-.35Z"/>
    <path class="cls-2" d="M23.2,9.66q.13,.05,.2,.15c.03,.23,.02,.35-.07,.56-.15,.17-.3,.27-.52,.33-.18,0-.29-.02-.44-.1-.09-.16-.08-.32-.05-.49,.16-.4,.5-.51,.89-.45Z"/>
  </g>
</svg>