<?xml version="1.0" encoding="UTF-8"?>
<svg id="a" xmlns="http://www.w3.org/2000/svg" width="83.06" height="83.06" viewBox="0 0 83.06 83.06">
  <defs>
    <style>
      .cls-1 {
        fill: #eae5ff;
      }

      .cls-2 {
        fill: #6232d7;
      }
    </style>
  </defs>
  <circle class="cls-1" cx="41.53" cy="41.53" r="41.53"/>
  <g>
    <path class="cls-2" d="M49.049,22.728q.208,.124,.409,.283c.075,.058,.149,.116,.226,.176,.077,.062,.155,.123,.235,.187,.16,.125,.32,.251,.48,.376,.076,.06,.153,.12,.232,.182,.321,.247,.653,.473,.992,.695,.223,.212,.285,.359,.33,.664-.102,.231-.197,.396-.342,.598-.043,.062-.087,.123-.131,.187-.148,.206-.299,.41-.45,.614-.05,.068-.101,.137-.153,.207q-.418,.564-.635,.826c-.055,.067-.111,.134-.168,.204-.051,.06-.102,.12-.154,.182q-.12,.166-.082,.357c.084,.198,.18,.274,.355,.397,.052,.038,.103,.075,.157,.114q.167,.101,.409-.012c.135-.17,.257-.339,.379-.518,.076-.109,.151-.217,.227-.325q.06-.086,.121-.173c.219-.309,.444-.613,.671-.916,.043-.058,.085-.115,.129-.174,.115-.154,.232-.305,.351-.455,.054-.069,.108-.139,.163-.21,.269-.199,.45-.177,.776-.131q.244,.145,.491,.352c.097,.079,.194,.158,.291,.236,.052,.043,.105,.086,.158,.13,.314,.251,.641,.486,.966,.723,.537,.394,1.073,.791,1.607,1.19,.058,.044,.116,.087,.176,.132q.4,.301,.496,.397c.05,.5-.045,.731-.347,1.126-.037,.049-.074,.098-.112,.149-.083,.11-.167,.22-.251,.33-.164,.214-.325,.43-.486,.646-.312,.418-.625,.835-.939,1.251q.052,.06,.105,.121c.046,.053,.091,.106,.139,.161,.045,.052,.09,.105,.137,.158,.395,.473,.511,.823,.519,1.444-.118,.652-.54,1.17-.931,1.687-.107,.143-.214,.287-.322,.43q-.082,.109-.166,.221c-.26,.347-.516,.697-.772,1.046-.405,.551-.814,1.099-1.225,1.645-.481,.641-.956,1.287-1.431,1.933-.25,.34-.5,.679-.75,1.018-.1,.135-.199,.27-.299,.406q-1.495,2.028-2.989,4.057c-.049,.067-.099,.134-.149,.203-.099,.135-.199,.27-.298,.405-.251,.341-.503,.682-.754,1.024-.506,.688-1.015,1.375-1.528,2.058-.481,.641-.956,1.287-1.431,1.933-.25,.34-.5,.679-.75,1.018-.1,.135-.199,.27-.299,.406l-1.793,2.434c-.049,.067-.099,.134-.15,.203-.099,.135-.198,.269-.298,.404-.257,.348-.512,.696-.766,1.046q-1.472,2.023-2.13,2.185c-.949,.127-1.516-.298-2.252-.85-.183-.14-.366-.281-.547-.424-.406-.318-.821-.625-1.234-.933q-.428-.32-.522-.414-.041-.532,.123-.795c.226-.389,.263-.824,.187-1.267-.175-.546-.532-1.017-1.031-1.302-.542-.234-1.008-.31-1.58-.132-.357,.141-.593,.374-.855,.65q-.175,.113-.419,.11c-.312-.096-.541-.245-.797-.44-.05-.037-.1-.074-.151-.112-.111-.082-.221-.164-.332-.247-.201-.15-.404-.298-.608-.445-.145-.106-.29-.211-.436-.317-.069-.05-.138-.1-.209-.152q-1.113-.817-1.323-1.444c-.12-1.143,.348-1.714,1.029-2.578,.351-.448,.685-.908,1.021-1.367,.096-.13,.192-.26,.288-.39,.094-.129,.185-.259,.274-.392,.043-.063,.086-.125,.131-.19q.056-.084,.113-.171,.134-.122,.362-.14c.065,.006,.131,.012,.198,.018q.107,.133,.171,.342c-.202,.397-.438,.739-.715,1.089-.376,.48-.742,.967-1.105,1.457-.05,.067-.1,.135-.152,.204q-.631,.758-.894,1.664c0,.06,0,.12,0,.182,.146,.561,.714,.871,1.159,1.189,.146,.106,.291,.211,.437,.317,.071,.051,.142,.103,.215,.155,.274,.199,.546,.402,.816,.606q.121,.091,.244,.183c.055,.042,.11,.083,.167,.126,.234-.112,.443-.238,.657-.384,.648-.404,1.336-.467,2.076-.299,.847,.306,1.42,.759,1.826,1.564,.275,.693,.28,1.317,.027,2.015q-.072,.188-.059,.435,.141,.139,.331,.269c.07,.051,.14,.102,.213,.154,.074,.053,.149,.105,.225,.159,.144,.104,.288,.207,.432,.311q.106,.075,.214,.152c.253,.183,.497,.376,.74,.572q.166,.118,.465,.096c.617-.198,.872-.53,1.228-1.046,.099-.14,.198-.28,.297-.42,.05-.07,.099-.141,.15-.213,.212-.298,.432-.59,.652-.882,.526-.697,1.044-1.401,1.561-2.104,.25-.34,.5-.679,.75-1.018,.1-.135,.199-.27,.299-.406l1.793-2.434c.049-.067,.099-.134,.149-.203,.099-.135,.199-.27,.298-.405,.251-.341,.503-.682,.754-1.024,.506-.688,1.015-1.375,1.528-2.058,.481-.641,.956-1.287,1.431-1.933,.25-.34,.5-.679,.75-1.018,.1-.135,.199-.27,.299-.406,.996-1.352,1.993-2.704,2.989-4.057,.049-.067,.099-.134,.149-.203,.099-.135,.199-.27,.298-.405,.251-.341,.503-.682,.754-1.024,.101-.138,.202-.275,.304-.413,.049-.067,.099-.134,.15-.204,.28-.38,.562-.758,.846-1.135,.167-.221,.333-.444,.498-.666,.078-.104,.156-.208,.235-.311q.545-.708,.787-1.554c-.134-.456-.642-.73-1.016-.987-.443-.311-.881-.629-1.313-.955-.705-.531-1.415-1.055-2.126-1.577-.34-.25-.679-.5-1.018-.75-.135-.1-.27-.199-.406-.299q-.811-.598-1.014-.748c-.134-.099-.269-.198-.403-.297-.353-.26-.705-.52-1.056-.782-.073-.054-.146-.109-.221-.165-.139-.104-.278-.208-.417-.312q-.633-.51-1.399-.643c-.054,.005-.108,.011-.163,.016-.428,.172-.708,.62-.979,.977q-.054,.071-.109,.143c-.476,.628-.941,1.263-1.407,1.898-.25,.341-.502,.682-.753,1.022-.1,.135-.199,.27-.299,.406l-1.793,2.434q-.074,.1-.149,.203c-.099,.135-.199,.27-.298,.405-.251,.341-.503,.682-.754,1.024-.506,.688-1.015,1.375-1.528,2.058-.481,.641-.956,1.287-1.431,1.933-.25,.34-.5,.679-.75,1.018-.1,.135-.199,.27-.299,.406l-1.793,2.434c-.049,.067-.099,.134-.15,.203-.099,.134-.198,.268-.297,.402-.261,.355-.522,.71-.782,1.065-.054,.074-.109,.148-.165,.225-.104,.142-.208,.285-.312,.427-.047,.064-.094,.128-.142,.194q-.062,.084-.125,.171c-.118,.15-.231,.284-.376,.409q-.23,.016-.427,0-.078-.207-.085-.512c.153-.287,.357-.532,.56-.785,.119-.153,.239-.306,.358-.46,.061-.077,.122-.155,.184-.235,.268-.343,.525-.694,.782-1.046,.099-.134,.198-.269,.297-.403q.073-.1,.148-.201c.248-.338,.497-.675,.746-1.013,.1-.135,.199-.27,.299-.406,.996-1.352,1.993-2.704,2.989-4.057,.049-.067,.099-.134,.149-.203,.099-.135,.199-.27,.298-.405,.251-.341,.503-.682,.754-1.024,.506-.688,1.015-1.375,1.528-2.058,.481-.641,.956-1.287,1.431-1.933,.299-.407,.599-.814,.899-1.221,.251-.341,.503-.682,.754-1.024,.248-.338,.497-.675,.747-1.012,.143-.194,.284-.388,.426-.583,.089-.122,.179-.243,.268-.365,.039-.055,.079-.109,.119-.166,.382-.517,.815-.996,1.466-1.132,.432-.04,.737,.031,1.128,.2q.166,.071,.41,.056,.134-.134,.257-.316c.049-.068,.098-.135,.148-.205q.077-.109,.156-.221c.107-.149,.215-.298,.323-.447q.079-.111,.16-.223c.207-.287,.418-.57,.633-.851,.065-.085,.129-.171,.195-.259,.349-.413,.494-.513,1.032-.382Zm-.598,2.05c-.281,.292-.52,.619-.769,.939-.055,.067-.11,.134-.167,.202-.047,.058-.094,.116-.142,.176-.042,.051-.083,.102-.126,.154q-.096,.151-.047,.34c.018,.05,.037,.1,.055,.152h.342c.159-.172,.292-.334,.427-.523,.036-.049,.073-.097,.11-.147,.108-.145,.213-.292,.317-.44q.051-.071,.104-.144,.195-.259,.217-.571c-.021-.046-.042-.092-.064-.139h-.256Zm1.11,.854q-.841,.839-1.281,1.879,.169,.085,.342,.171,.718-.801,1.281-1.708-.023-.188-.085-.342h-.256Zm3.416,2.477c-.497,.507-.904,1.108-1.281,1.708l.171,.342c.431-.184,.645-.517,.923-.881,.052-.065,.104-.13,.158-.197,.049-.063,.098-.127,.148-.192,.045-.058,.09-.115,.136-.174,.113-.233,.073-.363,.001-.606h-.256Zm1.281,.939c-.196,.249-.392,.498-.587,.747-.056,.07-.111,.141-.168,.214-.053,.068-.107,.137-.162,.207l-.149,.19c-.121,.169-.213,.333-.3,.522q.24,.194,.512,.171,.138-.137,.265-.321c.049-.067,.098-.135,.148-.204,.05-.071,.101-.143,.153-.216q.077-.105,.155-.211c.244-.341,.414-.589,.475-1.011-.113-.028-.225-.056-.342-.085Zm1.281,.939q-.164,.169-.324,.392c-.061,.081-.122,.162-.184,.245-.063,.086-.126,.171-.191,.259-.064,.086-.128,.171-.194,.259-.158,.212-.316,.424-.473,.638q.211,.169,.427,.342c.251-.324,.501-.649,.75-.975,.085-.11,.172-.219,.259-.327,.184-.235,.276-.352,.256-.657-.023-.058-.046-.116-.069-.176h-.256Z"/>
    <path class="cls-2" d="M45.144,28.218c.483,.127,.866,.477,1.253,.78,.248,.192,.502,.377,.755,.562,.207,.151,.413,.304,.62,.456,.352,.26,.705,.52,1.059,.779,.268,.197,.534,.395,.801,.592,.177,.13,.355,.259,.534,.387,.103,.075,.205,.15,.308,.225,.088,.064,.177,.127,.268,.192q.186,.186,.22,.418-.034,.195-.119,.281c-.556-.014-.845-.231-1.265-.576-.128-.102-.257-.204-.386-.305-.066-.052-.132-.104-.199-.158-.318-.248-.645-.482-.974-.716-.612-.439-1.217-.886-1.818-1.339q-.076-.057-.154-.115c-.113-.086-.224-.174-.334-.264-.059-.047-.118-.094-.178-.142-.053-.043-.106-.087-.16-.131-.218-.123-.349-.133-.596-.095q-.143,.117-.249,.288-.065,.093-.132,.189c-.045,.068-.091,.136-.138,.206-.099,.143-.198,.285-.297,.427-.05,.072-.099,.144-.15,.218-.21,.301-.43,.594-.652,.886-.526,.697-1.044,1.401-1.561,2.104-.25,.34-.5,.679-.75,1.018-.1,.135-.199,.27-.299,.406-.996,1.352-1.993,2.704-2.989,4.057-.049,.067-.099,.134-.149,.203-.099,.135-.199,.27-.298,.405-.251,.341-.503,.682-.754,1.024-.465,.632-.931,1.264-1.403,1.891-.523,.696-1.04,1.395-1.555,2.097-.158,.214-.317,.428-.476,.641-.102,.139-.205,.277-.307,.416-.048,.064-.097,.128-.146,.194-.044,.06-.088,.12-.133,.182-.039,.052-.078,.105-.118,.158q-.11,.175-.083,.496c.119-.012,.238-.025,.358-.037,.066-.007,.133-.014,.201-.021q.209-.024,.406-.071c1.392-.247,2.709,.089,3.903,.813,.309,.235,.584,.49,.854,.769,.055,.054,.11,.109,.167,.165,.993,1.042,1.225,2.378,1.285,3.764,.249-.028,.39-.05,.574-.226,.044-.061,.088-.122,.133-.184,.05-.068,.101-.137,.152-.207,.053-.074,.106-.149,.16-.226,.056-.077,.112-.154,.17-.233,.117-.16,.233-.321,.349-.481,.207-.286,.416-.57,.626-.854,.148-.2,.296-.401,.444-.602,.298-.405,.596-.81,.894-1.214,.1-.135,.199-.27,.299-.406l1.793-2.434c.049-.067,.099-.134,.149-.203,.099-.135,.199-.27,.298-.405,.251-.341,.503-.682,.754-1.024,.506-.688,1.015-1.375,1.528-2.058,.481-.641,.956-1.287,1.431-1.933,.25-.34,.5-.679,.75-1.018,.304-.413,.608-.825,.912-1.238,.052-.07,.103-.14,.156-.212,.102-.138,.203-.276,.304-.414,.219-.298,.438-.594,.667-.884,.036-.047,.073-.093,.11-.142,.095-.121,.19-.24,.286-.36,.146-.241,.182-.36,.126-.636q-.148-.147-.342-.256t-.342-.256q-.027-.224,0-.427c.028-.028,.056-.056,.085-.085,.524,0,.766,.189,1.144,.539,.258,.273,.257,.516,.252,.878-.051,.358-.243,.594-.462,.874q-.069,.092-.138,.186c-.15,.201-.302,.399-.454,.598-.104,.139-.208,.278-.311,.417-.214,.288-.43,.574-.646,.861-.312,.414-.62,.83-.927,1.247-.049,.067-.098,.133-.148,.202-.099,.134-.197,.268-.296,.403-.248,.338-.497,.675-.746,1.013-.1,.135-.199,.27-.299,.406l-2.989,4.057c-.049,.067-.099,.134-.149,.203-.099,.135-.199,.27-.298,.405-.251,.341-.503,.682-.754,1.024-.506,.688-1.015,1.375-1.528,2.058-.327,.436-.651,.873-.974,1.312-.049,.067-.099,.134-.15,.203-.264,.358-.525,.717-.782,1.079-.053,.074-.106,.148-.161,.224-.101,.142-.202,.284-.302,.427-.267,.371-.474,.619-.922,.773-.368,0-.601-.063-.886-.288-.331-.331-.319-.581-.336-1.03-.084-1.247-.593-2.355-1.511-3.208-.899-.682-1.81-1.04-2.936-1.041-.062-.001-.125-.002-.189-.003-.412-.001-.75,.066-1.146,.19-.328,.05-.632,.077-.928-.09-.308-.251-.424-.412-.481-.802,.02-.882,.932-1.72,1.45-2.389,.304-.393,.599-.792,.893-1.192,.05-.068,.099-.135,.15-.205,.101-.137,.201-.274,.302-.412,.249-.339,.499-.678,.749-1.017,.1-.135,.199-.27,.299-.406,.996-1.352,1.993-2.704,2.989-4.057,.049-.067,.099-.134,.149-.203,.099-.135,.199-.27,.298-.405,.251-.341,.503-.682,.754-1.024,.506-.688,1.015-1.375,1.528-2.058,.641-.854,1.272-1.715,1.903-2.576q.079-.108,.16-.217c.1-.136,.199-.271,.298-.407,.138-.188,.277-.375,.417-.562,.051-.069,.103-.138,.156-.209,.052-.068,.103-.136,.157-.207,.046-.062,.093-.123,.141-.186,.297-.342,.553-.503,1.022-.484Z"/>
    <path class="cls-2" d="M43.853,35.158c.363,.058,.584,.261,.866,.487,.121,.094,.241,.188,.362,.282,.062,.049,.124,.097,.188,.147,.191,.147,.386,.288,.582,.428,.062,.045,.125,.09,.189,.137,.12,.087,.241,.172,.363,.257q.402,.293,.515,.583-.006,.194-.176,.365c-.352,.045-.525-.034-.805-.243-.068-.05-.136-.1-.206-.152-.07-.053-.139-.106-.211-.16q-.107-.079-.216-.16c-.176-.131-.351-.262-.526-.395,.049,.1,.099,.2,.149,.303,.064,.132,.128,.264,.192,.397q.049,.099,.099,.199,.305,.635,.243,.981-.171,.171-.403,.172c-.094-.009-.188-.018-.285-.028-.093-.008-.185-.017-.281-.026-.36-.038-.72-.078-1.081-.118,.043,.033,.086,.065,.131,.099,.195,.148,.39,.297,.585,.445,.068,.052,.136,.103,.206,.156,.065,.05,.13,.099,.197,.15,.06,.046,.12,.091,.182,.138q.153,.121,.323,.292-.047,.389-.171,.512c-.287,.042-.407,.013-.655-.145-.083-.068-.167-.137-.253-.208-.097-.078-.193-.156-.29-.234q-.08-.064-.161-.129c-.199-.155-.403-.301-.609-.446-.074-.052-.147-.105-.223-.159-.146-.104-.293-.207-.441-.309-.067-.048-.135-.097-.204-.146-.06-.042-.121-.085-.183-.129-.18-.185-.206-.317-.226-.572q.096-.155,.256-.256,.192-.015,.427,.011c.089,.01,.179,.02,.271,.03,.652,.09,1.301,.193,1.95,.301-.09-.21-.181-.42-.272-.63-.027-.062-.054-.125-.082-.189-.182-.417-.378-.823-.598-1.221-.087-.218-.097-.375-.072-.607q.171-.171,.356-.21Z"/>
    <path class="cls-2" d="M38.793,42.111c.497,.08,.86,.44,1.241,.746,.155,.121,.309,.243,.464,.364q.111,.088,.224,.178c.251,.197,.506,.388,.763,.577q.134,.104,.305,.275-.047,.389-.171,.512c-.412,.072-.817,.1-1.235,.112-.058,.002-.116,.004-.176,.005-.183,.006-.365,.011-.548,.016-.125,.004-.25,.007-.374,.011-.304,.009-.608,.018-.912,.026,.045,.032,.09,.064,.136,.096,.204,.145,.408,.291,.612,.437,.07,.05,.141,.1,.214,.152q.102,.073,.207,.148l.19,.136c.192,.15,.361,.299,.522,.482q-.026,.367-.171,.512c-.347,.035-.513-.025-.788-.235-.067-.05-.133-.1-.202-.152-.07-.054-.139-.108-.211-.164-.072-.054-.144-.109-.217-.165-.144-.109-.288-.218-.431-.328-.175-.134-.351-.266-.528-.398-.047-.035-.094-.07-.143-.106-.043-.032-.087-.064-.132-.098-.211-.157-.406-.305-.592-.491q-.027-.214,0-.427c.325-.217,.595-.201,.972-.206,.07-.002,.14-.003,.211-.005,.223-.005,.446-.009,.668-.013,.151-.003,.302-.007,.453-.01,.37-.008,.74-.015,1.111-.022-.048-.035-.096-.07-.145-.106-.217-.158-.434-.317-.65-.476-.075-.055-.15-.11-.228-.166-.072-.053-.145-.106-.219-.161q-.1-.073-.202-.148c-.16-.125-.305-.239-.434-.395q.049-.511,.419-.516Z"/>
    <path class="cls-2" d="M41.304,38.559q.23,.053,.422,.334c.28,.469,.537,.951,.795,1.433,.096,.179,.192,.358,.289,.537,.045,.084,.09,.167,.136,.254,.106,.194,.217,.382,.331,.571,.172,.325,.148,.504,.05,.854-.615,.307-1.752-.115-2.408-.252-.199-.041-.398-.082-.597-.122-.127-.026-.254-.053-.382-.079-.059-.012-.118-.024-.18-.036-.282-.06-.461-.117-.704-.279q-.027-.214,0-.427,.171-.171,.444-.188c.312,.017,.595,.06,.9,.127,.105,.023,.21,.045,.319,.069,.108,.024,.217,.048,.328,.073,.11,.024,.22,.047,.333,.072q.81,.177,1.007,.275c-.179-.324-.358-.647-.538-.971-.061-.11-.122-.22-.183-.33-.088-.158-.175-.317-.263-.475-.053-.095-.106-.191-.16-.289-.096-.169-.2-.335-.308-.497q-.021-.219,0-.427,.171-.171,.368-.224Z"/>
    <path class="cls-2" d="M47.275,33.736c.167,.084,.331,.171,.492,.265,.049,.324-.003,.431-.187,.712-.079,.1-.159,.199-.24,.297-.041,.051-.081,.102-.123,.155-.1,.125-.202,.25-.304,.374q.159,.094,.342,.171,.232-.053,.427-.256c.095-.22,.171-.439,.24-.668q.101-.186,.32-.26c.069-.004,.137-.007,.208-.011,.13,.13,.112,.246,.123,.427-.007,.501-.212,.835-.55,1.196-.338,.27-.647,.369-1.078,.342-.485-.084-.775-.321-1.126-.657-.235-.355-.297-.629-.272-1.052,.134-.448,.328-.723,.683-1.025,.363-.121,.682-.154,1.045-.009Zm-.858,.655q-.211,.195-.219,.475,.018,.24,.117,.416c.38-.127,.576-.434,.769-.769v-.171c-.293-.1-.391-.106-.667,.048Z"/>
    <path class="cls-2" d="M41.533,35.795q.109,.376,.004,.599c-.043,.055-.086,.111-.13,.168q-.072,.095-.146,.192t-.161,.205c-.111,.146-.222,.292-.333,.437-.057,.074-.115,.149-.174,.225-.214,.28-.423,.563-.631,.848-.148,.202-.296,.402-.445,.603-.196,.265-.388,.532-.578,.801-.046,.064-.092,.128-.139,.194-.087,.121-.172,.242-.257,.364q-.117,.161-.341,.403-.243,.036-.427,0-.107-.133-.171-.342c.202-.397,.438-.739,.715-1.089,.364-.465,.718-.938,1.068-1.414,.102-.138,.203-.276,.305-.415,.05-.068,.1-.137,.152-.207,.242-.329,.484-.657,.728-.985,.043-.058,.086-.116,.13-.176q.402-.54,.831-.411Z"/>
    <path class="cls-2" d="M47.17,40.065c.053,.359-.004,.554-.213,.838-.095,.12-.192,.239-.289,.358-.103,.13-.206,.259-.309,.389-.051,.064-.102,.128-.155,.194-.201,.257-.39,.521-.577,.788-.314,.444-.635,.883-.961,1.318-.042,.056-.084,.113-.127,.17-.253,.336-.514,.662-.785,.982-.141-.028-.282-.056-.427-.085q-.11-.375-.002-.603c.044-.057,.088-.114,.133-.173,.049-.065,.098-.13,.148-.196,.054-.069,.108-.137,.163-.208,.055-.072,.109-.144,.166-.218,.112-.148,.226-.295,.339-.442,.23-.297,.455-.598,.68-.899,.041-.054,.081-.108,.123-.163,.233-.31,.462-.623,.688-.938,.051-.071,.101-.142,.154-.214,.098-.138,.197-.276,.294-.415,.044-.062,.088-.124,.134-.188,.039-.055,.078-.111,.118-.167,.22-.27,.39-.203,.703-.129Z"/>
    <path class="cls-2" d="M33.42,50.569c.315,.221,.412,.345,.48,.726-.068,.378-.17,.503-.48,.726-.324,.061-.464,.027-.753-.133-.243-.27-.266-.447-.272-.806,.165-.509,.532-.572,1.025-.512Z"/>
    <path class="cls-2" d="M37.69,53.729c.292,.169,.403,.272,.512,.592,0,.311-.071,.442-.256,.689q-.171,.171-.454,.203-.315-.032-.566-.155c-.224-.278-.238-.456-.218-.806q.041-.182,.223-.401c.289-.144,.439-.176,.758-.123Z"/>
    <path class="cls-2" d="M31.37,49.032q.203,.139,.342,.342c.051,.347,.032,.535-.128,.849-.244,.202-.412,.239-.728,.218-.297-.073-.425-.223-.595-.468-.063-.336-.031-.465,.155-.753,.312-.312,.546-.295,.955-.187Z"/>
    <path class="cls-2" d="M35.64,52.192q.214,.128,.342,.342c.068,.343,.053,.595-.128,.897-.301,.18-.554,.198-.897,.128-.235-.163-.318-.281-.422-.544-.007-.304,.094-.481,.251-.737,.274-.137,.557-.126,.854-.085Z"/>
    <path class="cls-2" d="M35.1,56.513c.353,.149,.615,.354,.909,.595q.081,.065,.164,.131,.381,.307,.493,.419,.011,.214,0,.427-.085,.085-.283,.104c-.262-.022-.359-.078-.564-.237q-.089-.068-.18-.138c-.061-.048-.122-.096-.184-.146-.062-.047-.124-.095-.187-.144-.228-.176-.447-.347-.651-.55q.021-.219,.085-.427,.171-.085,.399-.035Z"/>
    <path class="cls-2" d="M27.271,50.996c.413,.102,.75,.379,1.089,.625,.058,.04,.117,.081,.177,.123q.418,.303,.534,.596-.007,.194-.177,.365c-.51-.003-.839-.281-1.228-.576-.063-.045-.126-.09-.19-.136q-.445-.334-.517-.634,.057-.191,.313-.362Z"/>
    <path class="cls-2" d="M45.462,30.073q.203,.139,.342,.342c.052,.314,.042,.452-.139,.715q-.203,.139-.459,.187-.256-.048-.464-.23-.133-.246-.128-.512c.154-.474,.35-.573,.849-.502Z"/>
    <path class="cls-2" d="M51.355,34.428q.171,.171,.193,.331c0,.06,0,.12-.001,.181,0,.06,0,.12,.001,.181q-.023,.16-.193,.331-.61,.058-.859-.139c-.109-.277-.085-.433,.005-.715,.267-.306,.478-.277,.854-.171Z"/>
  </g>
</svg>