<?xml version="1.0" encoding="UTF-8"?><svg id="a" xmlns="http://www.w3.org/2000/svg" width="34.098" height="34.098" viewBox="0 0 34.098 34.098"><circle cx="17.049" cy="17.049" r="17.049" fill="#eae5ff"/><path d="M23.619,11.173c-2.088.167-4.174.987-5.971,2.342-.415.312-.663.531-1.154,1.013l-.433.427-.346.017c-1.714.087-3.554.889-4.811,2.097-.239.231-.251.248-.251.363,0,.092.02.144.081.211l.078.09,1.235.179,1.232.179-.17.193c-.193.219-.231.32-.164.462.064.13,4.018,4.079,4.125,4.119.133.049.234.009.444-.173l.193-.17.173,1.203c.124.859.188,1.229.222,1.281.069.104.225.153.355.109.179-.058.695-.66,1.116-1.298.724-1.093,1.188-2.486,1.252-3.735l.017-.346.427-.433c.64-.652.995-1.085,1.465-1.794,1.194-1.791,1.91-3.981,1.91-5.829,0-.312-.052-.444-.19-.496-.066-.026-.56-.032-.833-.009ZM20.729,13.879c.597.127,1.062.591,1.188,1.188.023.107.043.248.043.312,0,.545-.361,1.128-.842,1.364-.205.101-.511.179-.701.179-.542,0-1.128-.363-1.364-.842-.101-.205-.179-.511-.179-.701,0-.381.179-.799.462-1.081.378-.378.88-.528,1.393-.418Z" fill="#6232d7"/><path d="M12.63,21.02c-.352.052-.684.202-.981.447-.389.317-.859,1.333-1.474,3.176-.329.987-.34,1.047-.205,1.183s.199.124,1.177-.202c1.846-.614,2.864-1.088,3.182-1.477.643-.784.617-1.84-.064-2.558-.291-.309-.681-.508-1.119-.571-.228-.032-.277-.032-.516.003h0Z" fill="#6232d7"/><path d="M13.638,9.651c.034,0,.069,0,.104,0q.092.004.19.037v.49c.065.011.129.022.196.033q.074-.052.133-.129.108-.128.209-.15c.113.023.16.072.241.154.026.025.052.051.078.077q.059.08.075.163c-.022.107-.068.142-.15.213q-.075.061-.129.129.005.072.033.131c.027.002.054.004.082.006.035.003.071.005.108.008.035.003.07.005.107.008q.095.01.193.043v.588h-.49l-.033.196q.052.074.129.133.128.108.15.209c-.023.113-.072.16-.154.241-.025.026-.051.052-.077.078q-.08.059-.164.075c-.132-.028-.187-.124-.271-.224q-.035-.027-.071-.054-.097.016-.196.033v.49h-.588c-.034-.103-.043-.192-.051-.3-.003-.035-.005-.071-.008-.108-.002-.027-.004-.054-.006-.082q-.058-.028-.131-.033c-.073.061-.13.131-.193.203q-.069.058-.149.075c-.113-.023-.16-.072-.24-.154-.026-.025-.052-.051-.078-.077q-.059-.08-.075-.164c.028-.132.124-.187.224-.271q.027-.035.054-.071l-.033-.196h-.49c-.035-.105-.037-.183-.037-.294,0-.034,0-.069,0-.104q.004-.092.037-.19c.103-.034.192-.043.3-.051.035-.003.071-.005.108-.008.027-.002.054-.004.082-.006q.028-.058.033-.131c-.061-.073-.131-.13-.203-.193q-.058-.069-.075-.149c.023-.113.072-.16.154-.24.025-.026.051-.052.077-.078q.08-.059.163-.075c.107.022.142.068.213.15q.061.075.129.129.072-.005.131-.033.003-.041.006-.082c.003-.035.005-.071.008-.108.003-.035.005-.07.008-.107q.01-.095.043-.193c.105-.035.183-.037.294-.037ZM13.246,10.929c-.061.123-.054.259-.033.392.065.112.145.203.261.261.141.02.272.032.398-.041.101-.086.181-.154.2-.29.008-.162.004-.263-.104-.39-.103-.105-.173-.135-.321-.143-.186,0-.284.071-.402.21Z" fill="#6232d7"/><path d="M15.565,8.904c.022.018.045.035.068.053.485.392.853,1.082.938,1.699.08.805-.068,1.418-.417,2.134.031.03.061.061.093.092.04.04.08.079.119.119.02.02.041.04.061.061.019.019.038.038.058.058.018.018.036.035.054.053q.039.043.039.075h-1.339v-1.307c.131.066.201.129.302.233.029.03.058.059.088.09.022.023.044.046.067.069.314-.548.39-1.184.243-1.797-.209-.664-.619-1.183-1.236-1.512-.269-.135-.576-.224-.878-.224-.032,0-.065,0-.098,0-.033,0-.067,0-.101,0-.033,0-.066,0-.101,0-.032,0-.065,0-.098,0q-.044,0-.089,0c-.108.005-.214.022-.321.037-.043-.183-.086-.367-.131-.555.943-.232,1.946-.03,2.679.621Z" fill="#6232d7"/><path d="M10.665,9.034h1.339v1.339c-.151-.129-.288-.252-.425-.392-.313.557-.393,1.176-.243,1.799.21.663.62,1.181,1.236,1.51.269.135.576.224.878.224q.049,0,.098,0c.033,0,.067,0,.101,0,.033,0,.066,0,.101,0,.032,0,.065,0,.098,0q.044,0,.089,0c.108-.005.214-.022.321-.037.043.183.086.367.131.555-.723.191-1.53.085-2.189-.261-.729-.443-1.245-1.101-1.464-1.931-.161-.833.011-1.574.386-2.315-.014-.014-.028-.027-.042-.041-.062-.062-.124-.123-.187-.185-.022-.022-.044-.043-.066-.065-.021-.021-.041-.041-.063-.062-.019-.019-.038-.038-.058-.058q-.042-.046-.042-.078Z" fill="#6232d7"/></svg>