<?xml version="1.0" encoding="UTF-8"?><svg id="a" xmlns="http://www.w3.org/2000/svg" width="72.906" height="72.906" viewBox="0 0 72.906 72.906"><circle cx="36.453" cy="36.453" r="36.453" fill="#eae5ff"/><path d="M47.613,29.779q.085.064.171.13c.277.218.489.396.61.733-.527.707-1.059,1.411-1.596,2.11-.246.32-.49.641-.728.967-.042.057-.084.113-.127.172-.113.153-.225.307-.336.46-.065.069-.131.138-.198.21-.431,0-.467-.048-.776-.321-2.53-2.097-5.996-3.107-9.254-2.832-2.771.276-5.541,1.334-7.604,3.246-.293-.126-.452-.254-.642-.509-.049-.065-.097-.129-.148-.196-.051-.069-.102-.139-.155-.21-.108-.145-.217-.289-.325-.434-.053-.072-.107-.144-.162-.218-.213-.285-.431-.566-.65-.847-.405-.525-.797-1.059-1.184-1.598.147-.404.455-.628.781-.886.061-.049.123-.097.186-.147,6.537-5.046,15.669-4.799,22.136.171Z" fill="#6232d7"/><path d="M23.764,31.109c.409.387.748.813,1.09,1.26.057.074.114.148.173.225.116.15.231.3.346.45.146.19.292.379.439.569.155.2.31.402.464.603.118.154.236.307.357.459q.305.395.294.62c-.123.287-.315.462-.534.684-.877.925-1.586,1.968-2.187,3.09-.034.063-.068.125-.103.19-.429.834-.737,1.704-1.087,2.58h-5.131c.091-.729.264-1.356.496-2.047.02-.061.041-.122.062-.185.796-2.368,1.949-4.61,3.548-6.538.046-.055.092-.111.139-.168.52-.623,1.046-1.231,1.634-1.792Z" fill="#6232d7"/><path d="M49.048,31.109c1.72,1.376,2.99,3.296,4.012,5.225.039.074.079.147.119.223.545,1.035.962,2.104,1.333,3.211.02.06.041.121.062.183.215.643.361,1.207.446,1.887h-5.131c-.277-.677-.554-1.355-.84-2.053-.729-1.479-1.675-3.177-2.974-4.25q-.105-.135-.105-.348c.127-.343.339-.591.572-.866.541-.655,1.053-1.329,1.559-2.011.305-.411.616-.812.948-1.202Z" fill="#6232d7"/><path d="M50.167,42.771h5.038c.4,1.401.373,2.727.373,4.198h-4.945c-.031-.585-.062-1.17-.093-1.773-.123-.8-.246-1.601-.373-2.426Z" fill="#6232d7"/><path d="M17.902,42.76c.089,0,.179,0,.271,0,.101,0,.202,0,.306,0q.165,0,.332.001c.112,0,.223,0,.338,0,.358,0,.717.002,1.075.003.242,0,.485,0,.727.001.595.001,1.191.003,1.786.005-.011.064-.022.128-.033.195-.05.302-.099.605-.148.908-.017.101-.034.202-.052.306-.15.942-.183,1.821-.234,2.791h-4.945q0-2.262.134-3.149c.013-.093.025-.185.038-.281q.107-.763.403-.78Z" fill="#6232d7"/><path d="M42.89,35.214c.331.277.453.439.5.869-.04.41-.155.603-.388.94-.038.056-.075.111-.114.168-.081.119-.162.238-.244.357-.128.185-.253.371-.378.558-.264.395-.531.789-.799,1.183-.095.14-.19.28-.285.42-.141.207-.282.415-.423.622-.264.389-.527.779-.788,1.17q-.084.125-.17.253c-.1.148-.199.297-.297.446q-.315.467-.627.571c-.023-.048-.045-.097-.069-.147-.455-.946-1.058-1.429-2.042-1.801-.104-.035-.208-.069-.315-.105.142-.35.347-.535.63-.781.693-.615,1.34-1.276,1.99-1.935.425-.429.853-.843,1.311-1.235.302-.266.581-.554.862-.842.113-.116.227-.231.34-.346.049-.05.098-.1.148-.152.323-.301.74-.288,1.156-.213Z" fill="#6232d7"/><path d="M37.281,41.886c.47.329.813.786.945,1.351.075.713.085,1.377-.373,1.959-.549.578-1.041.858-1.835.929-.647.011-1.218-.236-1.71-.649-.423-.481-.616-1.044-.653-1.679.055-.759.313-1.28.875-1.796.808-.649,1.873-.617,2.752-.115Z" fill="#6232d7"/></svg>