<?xml version="1.0" encoding="UTF-8"?>
<svg id="a" xmlns="http://www.w3.org/2000/svg" width="83.06" height="83.06" viewBox="0 0 83.06 83.06">
  <defs>
    <style>
      .cls-1 {
        fill: #eae5ff;
      }

      .cls-2 {
        fill: #6232d7;
      }
    </style>
  </defs>
  <circle class="cls-1" cx="41.53" cy="41.53" r="41.53"/>
  <g>
    <path class="cls-2" d="M31.042,22.718q.173,.115,.316,.316c.043,.241,.037,.478,.031,.722,0,.062,0,.124,0,.187-.002,.23-.006,.46-.01,.691-.007,.515-.013,1.03-.02,1.561h3.477q-.012-1.026-.028-2.052c0-.129-.002-.258-.002-.387-.002-.067-.003-.133-.005-.202q0-.469,.178-.721c.252-.167,.432-.153,.727-.115,.207,.145,.235,.23,.316,.474,.007,.227,.009,.453,.008,.68,0,.059,0,.118,0,.178,0,.219-.002,.439-.003,.658-.002,.491-.003,.981-.005,1.487h3.398q-.012-.996-.028-1.993c0-.125-.002-.251-.002-.376-.002-.065-.003-.129-.005-.196,0-.316,.013-.479,.178-.757q.173-.156,.45-.2,.277,.044,.45,.16c.213,.299,.182,.564,.174,.923,0,.062,0,.124,0,.187-.002,.23-.006,.46-.01,.691-.007,.515-.013,1.03-.02,1.561h3.477q-.012-1.026-.028-2.052c0-.129-.002-.258-.002-.387-.002-.067-.003-.133-.005-.202q0-.47,.178-.721c.257-.171,.425-.164,.727-.116,.185,.166,.299,.3,.343,.55,.009,.187,.008,.371,.004,.558,0,.06,0,.12,0,.182-.002,.224-.006,.447-.01,.67-.007,.5-.013,1.001-.02,1.516h3.398q-.012-.996-.028-1.993c0-.125-.002-.251-.002-.376-.002-.065-.003-.129-.005-.196,0-.316,.013-.479,.178-.757q.173-.156,.45-.2,.277,.044,.45,.16c.213,.299,.182,.564,.174,.923,0,.062,0,.124,0,.187-.002,.23-.006,.46-.01,.691-.007,.515-.013,1.03-.02,1.561h3.477q-.012-1.026-.028-2.052c0-.129-.002-.258-.002-.387-.002-.067-.003-.133-.005-.202q0-.47,.178-.721c.257-.171,.425-.164,.727-.116,.185,.166,.299,.3,.343,.55,.009,.187,.008,.371,.004,.558,0,.068,0,.136-.001,.206-.002,.216-.006,.432-.01,.647-.002,.147-.003,.293-.004,.44-.003,.359-.009,.717-.015,1.076q.155-.002,.314-.005c.137-.001,.274-.002,.411-.004,.068-.001,.136-.002,.206-.003,.49-.003,.871,.038,1.281,.327,.051,.034,.101,.069,.153,.104,.431,.329,.626,.733,.795,1.239,.006,.117,.009,.234,.008,.352q0,.1,0,.203c0,.07-.001,.139-.002,.211,0,.071,0,.141-.001,.214,0,.174-.002,.348-.004,.522q.137-.002,.277-.005c.339-.006,.679-.009,1.018-.012,.147-.002,.294-.004,.44-.006,.211-.004,.422-.006,.634-.007,.065-.002,.131-.003,.198-.005,.315,0,.478,.014,.754,.178q.156,.173,.2,.45-.044,.277-.16,.45c-.299,.213-.564,.182-.923,.174-.062,0-.124,0-.187,0-.23-.002-.46-.006-.691-.01-.515-.007-1.03-.013-1.561-.02v3.477q1.026-.012,2.052-.028c.129,0,.258-.002,.387-.002,.067-.002,.133-.003,.202-.005q.469,0,.721,.178c.167,.252,.153,.432,.115,.727-.145,.207-.23,.235-.474,.316-.227,.007-.453,.009-.68,.008-.059,0-.118,0-.178,0-.219,0-.439-.002-.658-.003-.491-.002-.981-.003-1.487-.005v3.398q.996-.012,1.993-.028c.125,0,.251-.002,.376-.002,.065-.002,.129-.003,.196-.005,.316,0,.479,.013,.757,.178q.156,.173,.2,.45-.044,.277-.16,.45c-.299,.213-.564,.182-.923,.174-.062,0-.124,0-.187,0-.23-.002-.46-.006-.691-.01q-.773-.01-1.561-.02v3.477q1.026-.012,2.052-.028c.129,0,.258-.002,.387-.002,.067-.002,.133-.003,.202-.005q.47,0,.721,.178c.171,.257,.164,.425,.116,.727-.166,.185-.3,.299-.55,.343-.187,.009-.371,.008-.558,.004-.06,0-.12,0-.182,0-.224-.002-.447-.006-.67-.01-.5-.007-1.001-.013-1.516-.02v3.398q.97-.009,1.941-.021c.122,0,.244-.001,.366-.002,.063-.001,.126-.002,.19-.004,.368,0,.597,.031,.9,.264q.079,.079,.104,.341-.025,.291-.139,.466c-.3,.211-.565,.181-.924,.173-.062,0-.124,0-.187,0-.23-.002-.46-.006-.691-.01-.515-.007-1.03-.013-1.561-.02v3.477q1.026-.012,2.052-.028c.129,0,.258-.002,.387-.002,.067-.002,.133-.003,.202-.005q.47,0,.721,.178c.171,.257,.164,.425,.116,.727-.166,.185-.3,.299-.55,.343-.187,.009-.371,.008-.558,.004-.068,0-.136,0-.206-.001-.216-.002-.432-.006-.647-.01-.147-.002-.293-.003-.44-.004-.359-.003-.717-.009-1.076-.015q.002,.155,.005,.314c.001,.137,.002,.274,.004,.411,.001,.068,.002,.136,.003,.206,.003,.49-.038,.871-.327,1.281-.034,.051-.069,.101-.104,.153-.329,.431-.733,.626-1.239,.795-.117,.006-.234,.009-.352,.008-.067,0-.134,0-.203,0-.07,0-.139-.001-.211-.002-.071,0-.141,0-.214-.001-.174,0-.348-.002-.522-.004q.002,.137,.005,.277c.006,.339,.009,.679,.012,1.018,.002,.147,.004,.294,.006,.44,.004,.211,.006,.422,.007,.634,.002,.065,.003,.131,.005,.198,0,.315-.014,.478-.178,.754q-.173,.156-.45,.2-.277-.044-.45-.16c-.213-.299-.182-.564-.174-.923,0-.062,0-.124,0-.187,.002-.23,.006-.46,.01-.691,.007-.515,.013-1.03,.02-1.561h-3.477q.012,1.026,.028,2.052c0,.129,.002,.258,.002,.387,.002,.067,.003,.133,.005,.202q0,.47-.178,.721c-.257,.171-.425,.164-.727,.116-.185-.166-.299-.3-.343-.55-.009-.187-.008-.371-.004-.558,0-.06,0-.12,0-.182,.002-.224,.006-.447,.01-.67,.007-.5,.013-1.001,.02-1.516h-3.398q.012,.996,.028,1.993c0,.125,.002,.251,.002,.376,.002,.065,.003,.129,.005,.196,0,.316-.013,.479-.178,.757q-.173,.156-.45,.2-.277-.044-.45-.16c-.213-.299-.182-.564-.174-.923,0-.062,0-.124,0-.187,.002-.23,.006-.46,.01-.691,.007-.515,.013-1.03,.02-1.561h-3.477q.012,1.026,.028,2.052c0,.129,.002,.258,.002,.387,.002,.067,.003,.133,.005,.202q0,.47-.178,.721c-.257,.171-.425,.164-.727,.116-.185-.166-.299-.3-.343-.55-.009-.187-.008-.371-.004-.558,0-.06,0-.12,0-.182,.002-.224,.006-.447,.01-.67,.007-.5,.013-1.001,.02-1.516h-3.398q.009,.97,.021,1.941c0,.122,.001,.244,.002,.366,.001,.063,.002,.126,.004,.19,0,.368-.031,.597-.264,.9q-.079,.079-.341,.104-.291-.025-.466-.139c-.211-.3-.181-.565-.173-.924,0-.062,0-.124,0-.187,.002-.23,.006-.46,.01-.691,.007-.515,.013-1.03,.02-1.561h-3.477q.012,1.026,.028,2.052c0,.129,.002,.258,.002,.387,.002,.067,.003,.133,.005,.202q0,.47-.178,.721c-.257,.171-.425,.164-.727,.116-.185-.166-.299-.3-.343-.55-.009-.187-.008-.371-.004-.558q0-.102,.001-.206c.002-.216,.006-.432,.01-.647,.002-.147,.003-.293,.004-.44,.003-.359,.009-.717,.015-1.076q-.155,.002-.314,.005c-.137,.001-.274,.002-.411,.004-.068,.001-.136,.002-.206,.003-.49,.003-.871-.038-1.281-.327-.051-.034-.101-.069-.153-.104-.431-.329-.626-.733-.795-1.239-.006-.117-.009-.234-.008-.352,0-.067,0-.134,0-.203,0-.07,.001-.139,.002-.211,0-.071,0-.141,.001-.214,0-.174,.002-.348,.004-.522-.091,.002-.183,.003-.277,.005-.339,.006-.679,.009-1.018,.012-.147,.002-.294,.004-.44,.006-.211,.004-.422,.006-.634,.007-.065,.002-.131,.003-.198,.005-.315,0-.478-.014-.754-.178q-.156-.173-.2-.45,.044-.277,.16-.45c.299-.213,.564-.182,.923-.174,.062,0,.124,0,.187,0,.23,.002,.46,.006,.691,.01q.773,.01,1.561,.02v-3.477q-1.026,.012-2.052,.028c-.129,0-.258,.002-.387,.002-.067,.002-.133,.003-.202,.005q-.469,0-.721-.178c-.167-.252-.153-.432-.115-.727,.145-.207,.23-.235,.474-.316,.227-.007,.453-.009,.68-.008,.059,0,.118,0,.178,0,.219,0,.439,.002,.658,.003q.736,.002,1.487,.005v-3.398q-.996,.012-1.993,.028c-.125,0-.251,.002-.376,.002-.065,.002-.129,.003-.196,.005-.316,0-.479-.013-.757-.178q-.156-.173-.2-.45,.044-.277,.16-.45c.299-.213,.564-.182,.923-.174,.062,0,.124,0,.187,0,.23,.002,.46,.006,.691,.01q.773,.01,1.561,.02v-3.477q-1.026,.012-2.052,.028c-.129,0-.258,.002-.387,.002-.067,.002-.133,.003-.202,.005q-.47,0-.721-.178c-.171-.257-.164-.425-.116-.727,.166-.185,.3-.299,.55-.343,.187-.009,.371-.008,.558-.004,.06,0,.12,0,.182,0,.224,.002,.447,.006,.67,.01,.5,.007,1.001,.013,1.516,.02v-3.398q-.97,.009-1.941,.021c-.122,0-.244,.001-.366,.002-.063,.001-.126,.002-.19,.004-.368,0-.597-.031-.9-.264q-.079-.079-.104-.341,.025-.291,.139-.466c.3-.211,.565-.181,.924-.173,.062,0,.124,0,.187,0,.23,.002,.46,.006,.691,.01q.773,.01,1.561,.02v-3.477q-1.026,.012-2.052,.028c-.129,0-.258,.002-.387,.002-.067,.002-.133,.003-.202,.005q-.47,0-.721-.178c-.171-.257-.164-.425-.116-.727,.166-.185,.3-.299,.55-.343,.187-.009,.371-.008,.558-.004q.102,0,.206,.001c.216,.002,.432,.006,.647,.01,.147,.002,.293,.003,.44,.004,.359,.003,.717,.009,1.076,.015-.001-.104-.003-.207-.005-.314-.001-.137-.002-.274-.004-.411-.001-.068-.002-.136-.003-.206-.003-.49,.038-.871,.327-1.281,.034-.051,.069-.101,.104-.153,.329-.431,.733-.626,1.239-.795,.117-.006,.234-.009,.352-.008,.067,0,.134,0,.203,0,.07,0,.139,.001,.211,.002,.071,0,.141,0,.214,.001,.174,0,.348,.002,.522,.004q-.002-.141-.005-.285c-.006-.349-.009-.699-.012-1.048-.002-.151-.004-.302-.006-.453-.004-.217-.006-.435-.007-.652-.002-.068-.003-.135-.005-.205q0-.467,.178-.718c.255-.17,.428-.158,.727-.115Zm-2.766,5.136c-.083,.249-.089,.423-.089,.685,0,.094,0,.188,0,.284,0,.104,0,.207,0,.314,0,.111,0,.221,0,.332,0,.305,0,.61,0,.915,0,.329,0,.657-.001,.986-.001,.719-.002,1.438-.002,2.157,0,.449,0,.897,0,1.346,0,1.242-.002,2.484-.002,3.726,0,.08,0,.159,0,.241,0,.08,0,.159,0,.242,0,.162,0,.323,0,.485,0,.08,0,.16,0,.243,0,1.299-.002,2.597-.004,3.896-.002,1.333-.003,2.665-.003,3.998,0,.748,0,1.497-.002,2.245-.001,.637-.002,1.274,0,1.912,0,.325,0,.651,0,.976-.001,.298,0,.595,0,.893,0,.159,0,.318-.002,.477,0,.094,.001,.188,.002,.286,0,.081,0,.163,0,.246,.047,.354,.231,.626,.504,.853,.249,.083,.423,.089,.685,.089,.094,0,.188,0,.284,0q.155,0,.314,0c.111,0,.221,0,.332,0,.305,0,.61,0,.915,0,.329,0,.657,0,.986,.001,.719,.001,1.438,.002,2.157,.002,.449,0,.897,0,1.346,0,1.242,0,2.484,.002,3.726,.002,.08,0,.159,0,.241,0q.12,0,.242,0c.162,0,.323,0,.485,0q.12,0,.243,0c1.299,0,2.597,.002,3.896,.004,1.333,.002,2.665,.003,3.998,.003,.748,0,1.497,0,2.245,.002,.637,.001,1.274,.002,1.912,0,.325,0,.651,0,.976,0,.298,.001,.595,0,.893,0,.159,0,.318,0,.477,.002q.141,0,.286-.002c.081,0,.163,0,.246,0,.354-.047,.626-.231,.853-.504,.083-.249,.089-.423,.089-.685,0-.094,0-.188,0-.284q0-.155,0-.314c0-.111,0-.221,0-.332,0-.305,0-.61,0-.915,0-.329,0-.657,.001-.986,.001-.719,.002-1.438,.002-2.157,0-.449,0-.897,0-1.346,0-1.242,.002-2.484,.002-3.726,0-.08,0-.159,0-.241,0-.08,0-.159,0-.242,0-.162,0-.323,0-.485,0-.08,0-.16,0-.243,0-1.299,.002-2.597,.004-3.896,.002-1.333,.003-2.665,.003-3.998,0-.748,0-1.497,.002-2.245,.001-.637,.002-1.274,0-1.912,0-.325,0-.651,0-.976,.001-.298,0-.595,0-.893,0-.159,0-.318,.002-.477q0-.141-.002-.286c0-.081,0-.163,0-.246-.047-.354-.231-.626-.504-.853-.249-.083-.423-.089-.685-.089-.094,0-.188,0-.284,0q-.155,0-.314,0c-.111,0-.221,0-.332,0-.305,0-.61,0-.915,0-.329,0-.657,0-.986-.001-.719-.001-1.438-.002-2.157-.002-.449,0-.897,0-1.346,0-1.242,0-2.484-.002-3.726-.002-.08,0-.159,0-.241,0q-.12,0-.242,0c-.162,0-.323,0-.485,0q-.12,0-.243,0c-1.299,0-2.597-.002-3.896-.004-1.333-.002-2.665-.003-3.998-.003-.748,0-1.497,0-2.245-.002-.637-.001-1.274-.002-1.912,0-.325,0-.651,0-.976,0-.298-.001-.595,0-.893,0-.159,0-.318,0-.477-.002-.094,0-.188,.001-.286,.002q-.122,0-.246,0c-.354,.047-.626,.231-.853,.504Z"/>
    <path class="cls-2" d="M31.507,29.306c.096,0,.192-.001,.292-.002,.267-.001,.534,0,.801,0,.288,0,.576,0,.864-.002,.564-.002,1.128-.001,1.691,0,.458,0,.916,.001,1.375,0,.065,0,.13,0,.198,0,.132,0,.265,0,.397,0,1.242-.001,2.484,0,3.726,.002,1.066,.002,2.132,.001,3.198,0,1.238-.002,2.475-.003,3.713-.002,.132,0,.264,0,.396,0q.097,0,.197,0c.458,0,.915,0,1.373-.001,.558-.001,1.115,0,1.673,.001,.285,.001,.569,.001,.854,0,.308-.001,.617,0,.925,.002,.09,0,.18-.002,.273-.003,.362,.005,.6,.016,.919,.195,.219,.39,.196,.752,.192,1.192,0,.096,.001,.192,.002,.292,.001,.267,0,.534,0,.801,0,.288,0,.576,.002,.864,.002,.564,.001,1.128,0,1.691,0,.458-.001,.916,0,1.375,0,.065,0,.13,0,.198,0,.132,0,.265,0,.397,.001,1.242,0,2.484-.002,3.726-.002,1.066-.001,2.132,0,3.198,.002,1.238,.003,2.475,.002,3.713,0,.132,0,.264,0,.396,0,.065,0,.13,0,.197,0,.458,0,.915,.001,1.373,.001,.558,0,1.115-.001,1.673-.001,.285-.001,.569,0,.854,.001,.308,0,.617-.002,.925,0,.09,.002,.18,.003,.273-.005,.362-.016,.6-.195,.919-.39,.219-.752,.196-1.192,.192-.096,0-.192,.001-.292,.002-.267,.001-.534,0-.801,0-.288,0-.576,0-.864,.002-.564,.002-1.128,.001-1.691,0-.458,0-.916-.001-1.375,0-.065,0-.13,0-.198,0-.132,0-.265,0-.397,0-1.242,.001-2.484,0-3.726-.002-1.066-.002-2.132-.001-3.198,0-1.238,.002-2.475,.003-3.713,.002-.132,0-.264,0-.396,0-.065,0-.13,0-.197,0-.458,0-.915,0-1.373,.001-.558,.001-1.115,0-1.673-.001-.285-.001-.569-.001-.854,0-.308,.001-.617,0-.925-.002-.09,0-.18,.002-.273,.003-.362-.005-.6-.016-.919-.195-.219-.39-.196-.752-.192-1.192,0-.096-.001-.192-.002-.292-.001-.267,0-.534,0-.801,0-.288,0-.576-.002-.864-.002-.564-.001-1.128,0-1.691,0-.458,.001-.916,0-1.375,0-.065,0-.13,0-.198,0-.132,0-.265,0-.397-.001-1.242,0-2.484,.002-3.726,.002-1.066,.001-2.132,0-3.198-.002-1.238-.003-2.475-.002-3.713,0-.132,0-.264,0-.396,0-.065,0-.13,0-.197,0-.458,0-.915-.001-1.373-.001-.558,0-1.115,.001-1.673,.001-.285,.001-.569,0-.854-.001-.308,0-.617,.002-.925,0-.09-.002-.18-.003-.273,.005-.362,.016-.6,.195-.919,.39-.219,.752-.196,1.192-.192Zm-.149,1.235v21.968h21.968V30.541H31.358Z"/>
    <path class="cls-2" d="M41.507,33.37h.198c.138-.002,.277-.003,.415-.003,.211,0,.422-.003,.633-.006,.134,0,.269,0,.403-.001,.063,0,.126-.002,.191-.003,.362,.001,.597,.032,.892,.266,.095,.19,.088,.308,.087,.519,0,.071,0,.142,0,.215,0,.074-.001,.148-.002,.224,0,.075,0,.149-.001,.226,0,.185-.002,.369-.004,.554,.058,.01,.116,.021,.176,.032,.197,.043,.372,.098,.56,.171,.096,.037,.192,.075,.291,.114,.067-.068,.133-.135,.202-.205,.087-.088,.175-.176,.262-.265,.044-.045,.088-.089,.133-.135q.4-.402,.716-.463c.672,.1,1.263,.945,1.724,1.408,.072,.072,.144,.143,.218,.217,.068,.068,.136,.137,.207,.207,.062,.062,.124,.124,.187,.187,.169,.181,.216,.276,.263,.52-.06,.406-.315,.61-.593,.899-.091,.105-.182,.21-.272,.316-.067,.078-.134,.156-.202,.237q.034,.073,.069,.147c.029,.064,.059,.128,.089,.194,.029,.063,.059,.127,.089,.192q.069,.179,.069,.416c.046-.001,.092-.002,.14-.004,.21-.005,.42-.008,.63-.011,.073-.002,.145-.004,.22-.006q.105-.001,.213-.002c.065-.001,.129-.002,.196-.004,.227,.034,.332,.108,.497,.264,.101,.302,.093,.588,.095,.903,0,.065,0,.131,.001,.198,0,.138,.001,.277,.002,.415,0,.211,.003,.422,.006,.633,0,.134,0,.269,.001,.403,0,.063,.002,.126,.003,.191-.001,.362-.032,.597-.266,.892-.19,.095-.308,.088-.519,.087-.071,0-.142,0-.215,0-.074,0-.148-.001-.224-.002-.075,0-.149,0-.226-.001-.185,0-.369-.002-.554-.004-.01,.058-.021,.116-.032,.176-.064,.299-.173,.567-.284,.851,.068,.067,.135,.133,.205,.202,.088,.087,.176,.175,.265,.262,.045,.044,.089,.088,.135,.133q.402,.4,.463,.716c-.1,.672-.945,1.263-1.408,1.724-.072,.072-.143,.144-.217,.218-.068,.068-.137,.136-.207,.207-.062,.062-.124,.124-.187,.187-.181,.169-.276,.216-.52,.263-.406-.06-.61-.315-.899-.593-.105-.091-.21-.182-.316-.272-.078-.067-.156-.134-.237-.202-.049,.023-.097,.046-.147,.069-.064,.029-.128,.059-.194,.089-.063,.029-.127,.059-.192,.089q-.179,.069-.416,.069c.001,.046,.002,.092,.004,.14,.005,.21,.008,.42,.011,.63,.002,.073,.004,.145,.006,.22q.001,.105,.002,.213t.004,.196c-.034,.227-.108,.332-.264,.497-.302,.101-.588,.093-.903,.095q-.098,0-.198,.001c-.138,0-.277,.001-.415,.002-.211,0-.422,.003-.633,.006-.134,0-.269,0-.403,.001-.063,0-.126,.002-.191,.003-.362-.001-.597-.032-.892-.266-.095-.19-.088-.308-.087-.519q0-.106,0-.215,0-.111,.002-.224c0-.075,0-.149,.001-.226,0-.185,.002-.369,.004-.554-.058-.01-.116-.021-.176-.032-.299-.064-.567-.173-.851-.284-.067,.068-.133,.135-.202,.205-.087,.088-.175,.176-.262,.265-.044,.045-.088,.089-.133,.135q-.4,.402-.716,.463c-.672-.1-1.263-.945-1.724-1.408-.072-.072-.144-.143-.218-.217-.068-.068-.136-.137-.207-.207-.062-.062-.124-.124-.187-.187-.169-.181-.216-.276-.263-.52,.06-.406,.315-.61,.593-.899,.091-.105,.182-.21,.272-.316,.067-.078,.134-.156,.202-.237-.023-.049-.046-.097-.069-.147-.029-.064-.059-.128-.089-.194q-.044-.095-.089-.192-.069-.179-.069-.416-.069,.002-.14,.004c-.21,.005-.42,.008-.63,.011-.073,.002-.145,.004-.22,.006-.07,0-.141,.002-.213,.002q-.097,.002-.196,.004c-.227-.034-.332-.108-.497-.264-.101-.302-.093-.588-.095-.903,0-.065,0-.131-.001-.198,0-.138-.001-.277-.002-.415,0-.211-.003-.422-.006-.633,0-.134,0-.269-.001-.403,0-.063-.002-.126-.003-.191,.001-.362,.032-.597,.266-.892,.19-.095,.308-.088,.519-.087,.071,0,.142,0,.215,0q.111,0,.224,.002c.075,0,.149,0,.226,.001,.185,0,.369,.002,.554,.004,.01-.058,.021-.116,.032-.176,.064-.299,.173-.567,.284-.851-.068-.067-.135-.133-.205-.202-.088-.087-.176-.175-.265-.262-.045-.044-.089-.088-.135-.133q-.402-.4-.463-.716c.1-.672,.945-1.263,1.408-1.724,.072-.072,.143-.144,.217-.218,.068-.068,.137-.136,.207-.207,.062-.062,.124-.124,.187-.187,.181-.169,.276-.216,.52-.263,.406,.06,.61,.315,.899,.593,.105,.091,.21,.182,.316,.272,.078,.067,.156,.134,.237,.202,.049-.023,.097-.046,.147-.069,.064-.029,.128-.059,.194-.089q.095-.044,.192-.089,.179-.069,.416-.069c-.001-.046-.002-.092-.004-.14-.005-.21-.008-.42-.011-.63-.002-.073-.004-.145-.006-.22,0-.07-.002-.141-.002-.213-.001-.065-.002-.129-.004-.196,.034-.227,.108-.332,.264-.497,.302-.101,.588-.093,.903-.095Zm.045,1.201q-.013,.454-.024,.908c-.012,.285-.023,.466-.184,.706-.232,.154-.456,.236-.721,.322-.325,.108-.626,.216-.924,.385-.339,.155-.477,.14-.835,.049q-.227-.181-.43-.4c-.068-.073-.137-.145-.207-.22-.051-.056-.101-.112-.153-.17-.308,.125-.501,.327-.731,.563q-.106,.108-.214,.218c-.053,.055-.107,.11-.162,.167,.144,.339,.377,.528,.65,.767,.194,.25,.215,.419,.219,.734-.077,.211-.153,.387-.257,.583-.052,.104-.104,.207-.156,.311-.025,.05-.05,.099-.075,.151-.085,.182-.147,.368-.204,.56q-.099,.291-.336,.449-.157,.025-.334,.033-.086,.004-.173,.009c-.072,.003-.144,.005-.218,.008q-.345,.015-.696,.03v1.58q.483,.013,.967,.024,.492,.02,.689,.184c.105,.237,.193,.475,.275,.721,.111,.324,.221,.626,.39,.924,.155,.339,.14,.477,.049,.835q-.181,.227-.4,.43c-.073,.068-.145,.137-.22,.207-.056,.051-.112,.101-.17,.153,.125,.308,.327,.501,.563,.731,.072,.07,.144,.141,.218,.214q.083,.08,.167,.162c.339-.144,.528-.377,.767-.65,.25-.194,.419-.215,.734-.219,.211,.077,.387,.153,.583,.257,.104,.052,.207,.104,.311,.156,.05,.025,.099,.05,.151,.075,.182,.085,.368,.147,.56,.204q.291,.099,.449,.336,.025,.157,.033,.334,.004,.086,.009,.173c.003,.072,.005,.144,.008,.218,.01,.23,.02,.46,.03,.696h1.58q.013-.483,.024-.967,.02-.492,.184-.689c.237-.105,.475-.193,.721-.275,.324-.111,.626-.221,.924-.39,.339-.155,.477-.14,.835-.049q.227,.181,.43,.4,.103,.109,.207,.22c.051,.056,.101,.112,.153,.17,.308-.125,.501-.327,.731-.563,.07-.072,.141-.144,.214-.218,.053-.055,.107-.11,.162-.167-.144-.339-.377-.528-.65-.767-.194-.25-.215-.419-.219-.734,.077-.211,.153-.387,.257-.583,.052-.104,.104-.207,.156-.311,.025-.05,.05-.099,.075-.151,.085-.182,.147-.368,.204-.56q.099-.291,.336-.449,.157-.025,.334-.033,.086-.004,.173-.009c.072-.003,.144-.005,.218-.008q.345-.015,.696-.03v-1.58q-.454-.013-.908-.024c-.285-.012-.466-.023-.706-.184-.154-.232-.236-.456-.322-.721-.108-.325-.216-.626-.385-.924-.155-.339-.14-.477-.049-.835q.181-.227,.4-.43,.109-.103,.22-.207,.084-.076,.17-.153c-.125-.308-.327-.501-.563-.731-.072-.07-.144-.141-.218-.214-.055-.053-.11-.107-.167-.162-.339,.144-.528,.377-.767,.65-.25,.194-.419,.215-.734,.219-.211-.077-.387-.153-.583-.257-.104-.052-.207-.104-.311-.156-.05-.025-.099-.05-.151-.075-.182-.085-.368-.147-.56-.204q-.291-.099-.449-.336-.025-.157-.033-.334-.004-.086-.009-.173c-.003-.072-.005-.144-.008-.218-.01-.23-.02-.46-.03-.696h-1.58Z"/>
    <path class="cls-2" d="M44.679,38.599c.743,.628,1.283,1.464,1.378,2.452,.07,1.152-.2,2.099-.921,3.011-.651,.7-1.577,1.132-2.525,1.19-1.116,.033-2.105-.293-2.939-1.055-.744-.815-1.098-1.812-1.065-2.908,.104-1.102,.561-1.936,1.366-2.688,1.424-1.049,3.293-1.089,4.707-.002Zm-4.391,1.425c-.382,.592-.548,1.194-.474,1.897,.15,.692,.493,1.199,1.027,1.659,.669,.426,1.329,.594,2.114,.428,.666-.208,1.2-.601,1.577-1.192,.36-.699,.465-1.357,.226-2.12-.295-.731-.813-1.231-1.525-1.554-1.125-.418-2.182,0-2.944,.882Z"/>
  </g>
</svg>