<?xml version="1.0" encoding="UTF-8"?><svg id="a" xmlns="http://www.w3.org/2000/svg" width="83.06" height="83.06" viewBox="0 0 83.06 83.06"><circle cx="41.53" cy="41.53" r="41.53" fill="#eae5ff"/><path d="M20.508,22.592c.074,0,.148,0,.224-.001.248,0,.496,0,.744,0,.179,0,.359,0,.538-.001.493-.001.987-.001,1.48,0,.532,0,1.064-.001,1.596-.002,1.043-.002,2.085-.002,3.128-.002.847,0,1.695,0,2.542-.001,2.402-.002,4.803-.003,7.205-.002q.097,0,.196,0c.131,0,.262,0,.393,0,2.037,0,4.073-.001,6.11-.004,2.288-.003,4.576-.005,6.865-.005,1.211,0,2.423,0,3.634-.003,1.031-.002,2.063-.002,3.094,0,.526,0,1.053,0,1.579-.001.482-.002.964-.001,1.446,0,.174,0,.348,0,.523-.001q1.841-.011,2.611.635c.052.064.103.128.157.193q.08.095.162.193c.276.41.359.765.36,1.255,0,.112.001.224.002.34q0,.184,0,.372c0,.132,0,.264.001.396.001.363.001.726,0,1.089,0,.392.001.783.002,1.175.002.767.002,1.534.002,2.301,0,.624,0,1.247.001,1.871.002,1.768.003,3.536.002,5.303,0,.095,0,.191,0,.289,0,.095,0,.191,0,.289,0,1.547.002,3.093.005,4.64.003,1.588.004,3.176.004,4.764,0,.892,0,1.783.003,2.675.002.759.002,1.518,0,2.277,0,.387,0,.774.001,1.162.002.355.001.709,0,1.064,0,.189.001.377.003.566-.006.79-.101,1.332-.637,1.943-.974.806-1.944.781-3.171.784-.222,0-.444.004-.666.007-.142,0-.285.001-.427.002-.128,0-.256.002-.388.003-.381-.038-.618-.129-.941-.329-.153-.307-.166-.648-.098-.981q.149-.206.392-.392c.277-.039.517-.055.793-.053q.115-.002.232-.004c.245-.003.489-.004.734-.005.244-.002.488-.004.732-.007.152-.002.303-.003.455-.003.397-.004.731-.013,1.074-.223.271-.47.224-.984.223-1.51q0-.156.002-.314c.002-.348.002-.696.002-1.044,0-.249.002-.499.003-.748.002-.537.004-1.074.005-1.611.001-.777.004-1.553.007-2.33.004-1.26.008-2.52.011-3.78.003-1.224.006-2.448.01-3.672,0-.075,0-.151,0-.229.001-.379.002-.757.004-1.136.01-3.14.019-6.28.027-9.42-.066,0-.133,0-.201.001-1.614.009-3.228.015-4.842.019-.781.002-1.561.005-2.342.009-.68.004-1.361.006-2.041.007-.36,0-.721.002-1.081.005-.402.003-.804.003-1.206.003-.12.001-.239.003-.363.004q-.164,0-.332-.002c-.095,0-.19,0-.288.001-.323-.062-.439-.188-.643-.441-.071-.269-.056-.513,0-.785.216-.291.342-.375.687-.49.172-.009.344-.012.516-.012.107,0,.214,0,.324,0q.176,0,.355.001t.374,0c.339,0,.677,0,1.016.001.354,0,.708,0,1.061,0,.67,0,1.34.001,2.01.002.763.001,1.526.002,2.288.002,1.569.001,3.138.003,4.707.005-.009-.506-.02-1.012-.031-1.518-.004-.172-.007-.344-.01-.516-.005-.248-.01-.496-.016-.744q-.002-.115-.003-.231c-.012-.435-.056-.803-.233-1.208-.228-.114-.37-.115-.624-.122-.09-.003-.181-.006-.274-.008-.1-.003-.2-.005-.303-.008-.106-.003-.211-.006-.32-.009-.357-.01-.714-.019-1.071-.029-.125-.003-.249-.007-.378-.01-2.395-.064-4.79-.105-7.186-.135-.393-.005-.787-.01-1.18-.015-.078-.001-.157-.002-.237-.003-1.258-.017-2.515-.05-3.773-.088-1.297-.039-2.593-.062-3.89-.07-.726-.005-1.451-.017-2.177-.048q-3.691-.155-6.841,1.556c-1.015.941-1.908,2.006-2.738,3.11.078,0,.157,0,.238,0,1.907.006,3.814.013,5.721.022.922.004,1.845.008,2.767.011.804.002,1.608.006,2.411.01.426.002.851.004,1.277.005.401,0,.801.003,1.202.006.147,0,.294.001.441.001.201,0,.402.002.602.004.112,0,.225,0,.341.001.43.054.684.226.986.528.042.372.036.612-.128.951-.42.36-.848.292-1.383.285q-.174,0-.351.001c-.321,0-.642,0-.963-.003-.346-.002-.693-.001-1.039-.001-.6,0-1.2-.001-1.8-.004-.868-.004-1.735-.005-2.603-.006-1.407-.001-2.815-.004-4.222-.009-1.367-.005-2.735-.008-4.102-.01-.084,0-.169,0-.255,0-.423,0-.845-.001-1.268-.002-3.508-.005-7.015-.014-10.523-.025.008,3.215.017,6.43.027,9.645.001.379.002.759.004,1.138q0,.113,0,.229c.004,1.224.007,2.447.01,3.671.003,1.255.007,2.511.011,3.766.003.775.005,1.55.006,2.324.001.594.003,1.188.006,1.781,0,.244.001.488.002.731,0,.332.002.664.004.997,0,.097,0,.194,0,.294q0,.632.224,1.216c.403.247.838.224,1.297.223.158.002.315.004.473.006.247.002.494.004.741.004.239,0,.478.004.718.008.074,0,.147,0,.223-.001.346.007.535.027.813.242.208.284.206.462.189.803-.06.288-.197.412-.431.579-.525.175-1.095.116-1.645.116-.221,0-.442.002-.663.004q-2.056.008-2.791-.61c-.523-.528-.809-.972-.81-1.736,0-.112-.001-.224-.002-.34,0-.123,0-.246,0-.372,0-.132,0-.264-.001-.396-.001-.363-.001-.726,0-1.089,0-.392-.001-.783-.002-1.175-.002-.767-.002-1.534-.002-2.301,0-.624,0-1.247-.001-1.871-.002-1.768-.003-3.536-.002-5.303,0-.095,0-.191,0-.289,0-.095,0-.191,0-.289,0-1.547-.002-3.093-.005-4.64-.003-1.588-.004-3.176-.004-4.764,0-.892,0-1.783-.003-2.675-.002-.759-.002-1.518,0-2.277,0-.387,0-.774-.001-1.162-.002-.355-.001-.709,0-1.064,0-.189-.001-.377-.003-.566.006-.791.103-1.327.633-1.943.063-.053.126-.106.191-.16.062-.054.125-.109.189-.165.488-.322.983-.367,1.554-.363ZM19.818,24.459c-.324.444-.27.911-.267,1.442,0,.08,0,.16,0,.242,0,.255.002.51.003.764,0,.173,0,.346.001.519.001.424.003.847.005,1.271,1.053.315,2.21.474,3.236,0,.886-.595,1.629-1.381,2.36-2.152.049-.051.098-.103.148-.156q1.114-.995,1.807-2.106c-.914-.009-1.828-.016-2.742-.02-.424-.002-.849-.005-1.273-.009-.41-.004-.819-.007-1.229-.008-.156,0-.313-.002-.469-.004-.219-.003-.438-.003-.656-.003-.125,0-.249-.002-.377-.003q-.321.023-.549.222ZM27.021,26.436c-.048.051-.095.103-.144.156q-1.08.986-1.725,2.106c1.549.299,3.506.65,4.932-.19.793-.553,1.468-1.254,2.123-1.961.048-.051.095-.103.144-.156q1.08-.986,1.725-2.106c-3.091-.597-4.946-.128-7.055,2.152Z" fill="#6232d7"/><path d="M35.686,48.07c.126,0,.253-.001.383-.002.266-.001.532-.001.799,0,.34,0,.681-.002,1.021-.006.326-.003.652-.003.979-.003.122-.002.244-.003.369-.005q.939.008,1.241.29c.217.338.255.626.249,1.018,0,.069,0,.139-.001.21-.029.601-.244.943-.672,1.369-.282.32-.379.633-.398,1.057.067.671.235,1.065.735,1.539.505.337.917.408,1.509.323.568-.136.982-.443,1.299-.936.254-.521.223-1.015.098-1.569-.182-.339-.379-.575-.647-.85-.287-.345-.309-.681-.297-1.118-.002-.068-.004-.136-.006-.206.003-.338.054-.552.236-.836.427-.396,1.056-.296,1.6-.291q.188,0,.38-.001c.265,0,.531,0,.796.003.338.003.675.001,1.013-.002.325-.002.649,0,.974,0,.12,0,.24-.002.364-.003.85.012,1.535.162,2.172.754.69.726.814,1.38.799,2.351,0,.101,0,.203-.001.307-.002.322-.005.643-.009.965-.001.219-.003.438-.004.657-.003.535-.008,1.07-.014,1.605.384-.122.674-.238.993-.484.788-.544,1.76-.716,2.696-.549,1.155.269,1.989.937,2.625,1.932.414.845.375,1.924.198,2.831-.326.948-1.119,1.711-2.002,2.155-.969.462-1.943.35-2.933.028-.357-.149-.626-.333-.913-.59-.216-.154-.406-.177-.665-.223.001.056.002.111.003.168.011.582.018,1.165.024,1.747.002.217.006.434.01.651.006.313.009.626.011.939.003.096.005.192.008.29,0,.78-.204,1.425-.741,2.006-.806.763-1.542.815-2.616.816-.129,0-.257.001-.39.002-.271.001-.543.001-.814,0-.347,0-.694.002-1.042.006-.332.003-.665.003-.997.003-.125.002-.249.003-.377.005-.116,0-.231-.002-.35-.003-.102,0-.203,0-.308,0q-.266-.061-.494-.288c-.21-.337-.24-.63-.238-1.018q0-.104,0-.21c.025-.603.238-.942.668-1.369.273-.311.378-.62.398-1.032-.074-.654-.253-1.094-.729-1.57-.499-.313-.965-.412-1.54-.316-.552.15-.963.453-1.273.936-.254.521-.223,1.015-.098,1.569.183.339.379.575.648.85.287.345.305.681.29,1.118.001.068.002.136.003.206-.007.485-.11.725-.451,1.063q-.264.062-.569.063c-.115.002-.229.003-.347.005-.124,0-.247-.002-.375-.003-.128,0-.255,0-.387.001-.271,0-.541,0-.812-.003-.344-.003-.688-.001-1.033.002-.331.002-.662,0-.993,0-.122,0-.245.002-.371.003-.858-.011-1.546-.157-2.189-.754-.69-.725-.814-1.381-.799-2.351,0-.101,0-.203.001-.307.002-.322.005-.643.009-.965.001-.219.003-.438.004-.657.003-.535.008-1.07.014-1.605-.385.123-.678.24-.999.484-.87.598-1.853.711-2.875.527-.948-.239-1.759-.819-2.263-1.662-.496-.976-.581-2.005-.377-3.082.331-.941,1.096-1.669,1.956-2.14,1.004-.453,2.068-.391,3.087-.011.269.164.514.34.76.537.243.164.426.198.711.247-.001-.056-.002-.111-.003-.168-.011-.582-.018-1.165-.024-1.747-.002-.217-.006-.434-.01-.651-.006-.313-.009-.626-.011-.939-.003-.096-.005-.192-.008-.29,0-.78.204-1.425.741-2.006.799-.756,1.527-.815,2.591-.816ZM34.174,50.274l-.098.098c-.012.166-.016.333-.019.5-.002.107-.003.213-.005.323-.001.116-.003.233-.004.352-.002.119-.004.237-.005.36-.006.381-.011.762-.016,1.143-.007.5-.014,1-.021,1.501-.001.116-.003.231-.004.35-.002.108-.003.215-.005.326q-.002.142-.004.287c-.014.233-.027.426-.113.644-.847.282-2.195.314-3.001-.07q-.248-.212-.439-.426c-.288-.29-.6-.378-1.004-.398-.656.075-1.109.249-1.57.747-.403.597-.452,1.099-.362,1.814.239.611.658,1.019,1.244,1.306.58.12,1.1.08,1.624-.202q.275-.215.506-.477c.448-.373.994-.29,1.547-.27.107.001.214.003.325.004q.779.014,1.128.131c.119.301.111.604.112.924q.001.16.002.322c0,.114,0,.229.001.347.002.242.005.485.007.727.003.382.006.764.008,1.146.002.369.005.737.01,1.106,0,.114,0,.228,0,.346q.004.622.244,1.183c.404.346.791.286,1.3.283q.133,0,.27,0c.285,0,.57-.002.854-.003.193,0,.386,0,.578-.001.473-.001.947-.003,1.42-.005-.034-.066-.068-.132-.103-.201-.044-.087-.089-.175-.134-.265-.044-.086-.088-.173-.133-.262-.421-.89-.43-1.876-.12-2.803.244-.544.529-.977.981-1.373.071-.067.142-.134.215-.202.82-.565,1.756-.775,2.742-.637,1.047.231,1.82.715,2.407,1.624.498.833.672,1.726.444,2.677-.156.525-.321.976-.609,1.442.564.01,1.127.017,1.691.022.192.002.383.005.575.008.276.005.552.007.827.009.085.002.171.004.259.006.406,0,.614-.01.966-.231.295-.314.305-.492.31-.913.002-.107.003-.213.005-.323.001-.116.003-.231.004-.351q.003-.178.005-.359c.006-.38.011-.76.016-1.14.007-.499.014-.999.021-1.498.001-.115.003-.231.004-.35.002-.107.003-.215.005-.325.001-.094.002-.189.004-.286.014-.233.028-.426.113-.643.847-.282,2.195-.314,3.001.07q.248.212.439.426c.288.29.6.378,1.004.398.656-.075,1.109-.249,1.57-.747.403-.597.452-1.099.362-1.814-.196-.502-.521-.893-.981-1.177-.539-.218-1.01-.239-1.569-.098-.336.184-.566.368-.825.649-.448.373-.994.29-1.547.27-.107-.001-.214-.003-.325-.004q-.779-.014-1.128-.131c-.119-.301-.11-.604-.11-.924,0-.106,0-.213-.001-.322,0-.114,0-.229,0-.347-.002-.242-.004-.485-.006-.727-.003-.382-.005-.764-.005-1.146,0-.369-.004-.737-.008-1.106q.001-.171.002-.346.01-.648-.305-1.183c-.446-.309-.798-.286-1.327-.283-.087,0-.174,0-.263,0-.278,0-.556.002-.833.003-.188,0-.376,0-.564.001-.462.001-.923.003-1.385.005.041.086.083.173.125.262.054.114.107.228.163.345.053.113.107.225.162.341.349.826.324,1.738.04,2.582-.143.309-.308.596-.49.883-.055.087-.109.174-.166.264-.721.721-1.657,1.078-2.66,1.128-.831-.016-1.479-.262-2.176-.705-.087-.055-.174-.109-.264-.166-.71-.71-1.109-1.681-1.146-2.679.023-.681.229-1.276.534-1.879q.053-.106.108-.214c.027-.054.054-.107.082-.163-.564-.012-1.127-.021-1.691-.027-.192-.002-.383-.006-.575-.01-.276-.006-.552-.009-.827-.011l-.259-.008c-.559,0-.799.083-1.159.546Z" fill="#6232d7"/><path d="M30.865,33.184c.092,0,.183,0,.278-.001.307-.001.615,0,.922,0,.22,0,.441,0,.661-.002.599-.001,1.198-.001,1.796-.001.5,0,.999,0,1.499,0,1.246-.001,2.492-.001,3.738,0,1.082,0,2.164,0,3.246-.002,1.111-.002,2.222-.003,3.333-.002.624,0,1.247,0,1.871-.001.586-.001,1.173-.001,1.759,0,.215,0,.431,0,.646,0,.294-.001.587,0,.881.001.085,0,.171-.001.259-.002.488.004.828.06,1.25.333.143.286.114.541.117.86q.001.102.002.207c.002.226.004.453.005.679,0,.077.001.154.002.234.003.409.005.817.006,1.226.002.422.006.845.011,1.267.003.325.004.649.005.974,0,.156.002.311.005.467.003.218.003.436.002.654,0,.124.002.248.002.376q-.06.314-.251.527c-.416.249-.751.234-1.227.229-.094,0-.188.001-.284.002-.315.002-.629,0-.944,0-.226,0-.451.001-.677.002-.613.002-1.225.001-1.838,0-.641,0-1.281,0-1.922,0-1.145,0-2.29,0-3.434-.002-1.038-.002-2.076-.001-3.114,0-1.206.002-2.411.003-3.617.002-.638,0-1.276,0-1.914,0-.6.001-1.2,0-1.799-.002-.22,0-.441,0-.661,0-.3.001-.6,0-.901-.002q-.132.001-.266.003-.59-.007-.896-.239c-.256-.362-.256-.585-.259-1.028,0-.064,0-.129-.001-.195-.001-.213-.002-.426-.003-.639,0-.148-.001-.296-.002-.444-.001-.311-.002-.621-.002-.932,0-.398-.003-.795-.006-1.193-.002-.306-.002-.612-.002-.918,0-.147-.001-.293-.002-.44-.002-.205-.001-.411,0-.616,0-.117,0-.234-.001-.354.041-.35.108-.528.33-.801.451-.249.898-.224,1.398-.222ZM30.84,34.876v4.609h20.596v-4.609h-20.596Z" fill="#6232d7"/><path d="M31.914,43.003c.082,0,.163,0,.247,0,.275,0,.549-.001.824-.001.196,0,.393,0,.589-.001.535-.001,1.069-.002,1.604-.002.334,0,.667,0,1.001-.001,1.043-.001,2.087-.002,3.13-.003,1.206,0,2.412-.002,3.617-.005.931-.002,1.862-.003,2.794-.003.557,0,1.113,0,1.67-.002.523-.002,1.047-.002,1.57,0,.192,0,.385,0,.577-.001.262-.001.524,0,.787,0q.114-.001.231-.002c.44.004.731.052,1.076.333q.147.331.196.687c-.13.292-.266.462-.49.687-.267.02-.524.028-.791.027-.083,0-.165.001-.251.002-.279.001-.558.002-.836.002-.199,0-.398.002-.598.002-.542.002-1.085.003-1.627.004-.339,0-.677,0-1.016.002-1.181.002-2.362.004-3.542.004-1.102,0-2.203.003-3.305.007-.945.003-1.89.005-2.835.005-.565,0-1.13,0-1.694.004-.531.003-1.062.003-1.594.001-.195,0-.39,0-.585.002-.266.002-.532,0-.798,0-.077.001-.155.003-.235.004-.394-.006-.574-.049-.887-.295q-.197-.26-.252-.554c.067-.359.195-.525.447-.785.308-.154.638-.112.976-.112Z" fill="#6232d7"/><path d="M55.499,25.621q.124-.004.252-.007c.404-.002.63.011.984.221.267.298.291.505.291.901-.132.289-.205.446-.49.588-.336.031-.674.032-1.011.037-.093.004-.186.007-.283.011-.465.006-.691.008-1.074-.277-.221-.318-.239-.47-.182-.85.085-.256.141-.359.373-.499.37-.154.745-.126,1.141-.126Z" fill="#6232d7"/><path d="M59.324,25.621q.124-.002.252-.003c.47.002.797.025,1.177.334.154.308.133.543.098.883-.202.293-.36.464-.717.536-.271.017-.537.017-.809.01q-.139.002-.281.003-.672-.007-.997-.243c-.163-.246-.221-.403-.236-.698.072-.274.151-.442.342-.65.38-.208.746-.177,1.172-.172Z" fill="#6232d7"/><path d="M51.619,25.633c.079-.002.158-.004.239-.006.463-.003.771.022,1.147.325.154.307.182.65.098.981-.211.248-.382.374-.707.429-.256.016-.508.016-.764.012-.087.002-.174.003-.264.005-.412-.002-.658-.02-1.02-.228-.253-.295-.247-.444-.223-.816.049-.258.138-.401.33-.579.392-.131.754-.12,1.165-.123Z" fill="#6232d7"/></svg>