<?xml version="1.0" encoding="UTF-8"?><svg id="a" xmlns="http://www.w3.org/2000/svg" width="72" height="72" viewBox="0 0 72 72"><rect width="72" height="72" rx="2.065" ry="2.065" fill="#eae5ff"/><path d="M26.636,33.106c.564.068,1.067.25,1.598.444.094.034.187.067.284.102.297.107.594.214.892.322.202.073.404.146.606.218.494.178.988.356,1.482.535q0,.304-.184.515-.126.119-.255.241c-.091.088-.182.175-.276.266-.193.184-.387.367-.582.55-.091.088-.182.176-.276.267-.084.08-.169.159-.256.242-.234.296-.269.486-.299.858-.007.073-.014.146-.021.221-.061,1.122-.097,2.245-.112,3.368-.003.117-.006.234-.009.354-.004.637-.004,1.053.446,1.526.454.316.991.268,1.519.203,1.086-.323,1.75-.831,2.347-1.785.14-.259.253-.5.36-.772q.549-1.37,1.331-1.734c.238-.095.479-.184.722-.266.094-.036.188-.071.284-.108.992-.345,1.715-.222,2.653.209.379.201.746.419,1.114.639.215.127.43.255.646.382.11.065.221.131.335.198.549.324,1.101.641,1.653.958.949.547,1.897,1.095,2.842,1.649.526.308,1.054.613,1.584.915.111.064.222.127.337.193.213.122.426.243.64.363.56.322.986.592,1.283,1.185.055.499.055.898-.165,1.355-.308.341-.575.625-1.046.705-.677.025-1.115-.192-1.688-.534-.087-.05-.175-.1-.265-.151-.417-.24-.83-.488-1.241-.74-.069-.042-.138-.084-.209-.127-.128-.079-.256-.159-.382-.24-.333-.208-.471-.268-.878-.268-.033.167-.067.334-.101.506.072.027.143.053.217.081.305.128.582.279.869.445q.166.096.335.193c.117.068.235.136.352.205.119.069.239.139.358.208q2.64,1.535,2.832,2.109c.078.664-.015,1.078-.405,1.62-.353.321-.714.455-1.197.446-.997-.184-1.961-.946-2.823-1.465-.345-.207-.691-.414-1.038-.619-.196-.116-.39-.234-.583-.355-.08-.048-.16-.096-.242-.146q-.102-.063-.205-.128-.199-.088-.419.027c-.059.037-.117.075-.178.113.133.399.285.438.648.641.113.064.227.129.344.195.121.067.242.135.363.202q1.363.767,2.004,1.157c.087.053.175.106.265.16.323.254.5.524.573.929,0,.577-.04,1.042-.449,1.476-.398.305-.683.41-1.19.392-.483-.074-.857-.284-1.273-.531-.077-.044-.155-.088-.234-.134-.429-.246-.854-.499-1.279-.751-.087-.051-.173-.102-.263-.155-.168-.099-.335-.199-.502-.3q-.114-.068-.231-.137c-.067-.04-.134-.08-.203-.122q-.22-.114-.599-.086.003.241.101.506.27.212.616.386c.062.034.124.068.187.103.198.109.396.215.596.321.198.106.395.213.592.321.179.098.36.195.54.291.374.243.612.509.811.907.077.693.017,1.162-.405,1.722-.352.278-.666.388-1.114.405-.77-.167-1.418-.575-2.083-.981q-.153-.092-.31-.186c-.25-.15-.499-.301-.748-.453.034-.123.067-.246.102-.373.156-.626.132-1.243-.159-1.83-.492-.748-1.227-1.044-2.07-1.241q.19-.582.304-.81c.073-.714.049-1.344-.405-1.924-.633-.604-1.266-.808-2.127-.912-.01-.081-.02-.161-.03-.244-.112-.793-.265-1.313-.875-1.857-.487-.358-.919-.501-1.526-.532-.526.117-.962.323-1.418.608-.034-.067-.069-.134-.104-.204-.407-.742-.811-1.148-1.617-1.417-.686-.074-1.269-.029-1.823.405-.3.317-.557.658-.81,1.013-.069.096-.138.192-.208.291-.169.239-.336.48-.5.722-.427-.156-.642-.472-.905-.823-.098-.128-.197-.256-.295-.385-.052-.067-.103-.135-.156-.204-.33-.424-.673-.839-1.014-1.254-.104-.127-.206-.254-.309-.382-.11-.137-.223-.271-.338-.405q-.086-.105-.174-.211t-.161-.189q-.091-.2-.022-.447c.127-.246.254-.491.391-.732.051-.091.103-.182.156-.275.056-.097.111-.195.169-.295.058-.103.117-.206.177-.311.471-.827.949-1.65,1.43-2.471.449-.767.894-1.537,1.337-2.307.537-.932,1.08-1.86,1.639-2.779Z" fill="#6232d7"/><path d="M39.263,33.416c2.088.373,4.442.417,6.484-.226.353-.09.501-.103.841.017q.182.23.351.538c.064.114.127.228.193.346.068.125.136.251.204.376.072.129.143.258.215.387.148.266.295.532.442.799.319.578.651,1.148.982,1.719.124.215.249.431.373.646.161.278.321.556.482.834.173.3.347.6.52.9.13.225.26.45.39.675.17.294.339.588.507.882.051.089.103.179.156.271.047.082.093.164.141.248.041.071.081.143.123.216q.086.177.086.379c-.072.036-.144.072-.218.108-.326.162-.652.324-.978.487-.113.056-.227.113-.344.171-.109.054-.217.108-.329.164-.1.05-.2.1-.304.151q-.271.136-.561.337c-.526-.023-.906-.248-1.342-.519-.154-.093-.307-.186-.461-.278-.084-.051-.168-.102-.254-.154-.507-.303-1.02-.597-1.532-.891-.227-.131-.455-.262-.682-.393-.23-.133-.461-.265-.691-.398-.333-.192-.667-.384-1-.576-.219-.126-.437-.252-.656-.378-.551-.317-1.1-.637-1.647-.962-.109-.064-.217-.128-.329-.194-.204-.121-.408-.242-.612-.365-1.094-.646-2.032-1.1-3.312-.775-.393.118-.771.266-1.154.413-.109.031-.219.062-.332.094-.711.25-.976.615-1.294,1.271-.124.277-.239.556-.355.836-.37.866-.964,1.649-1.843,2.027-.434.15-.888.218-1.342.127-.223-.169-.297-.257-.34-.537,0-.091.002-.182.003-.276,0-.102,0-.205.001-.31.002-.11.004-.22.007-.333.001-.113.003-.225.004-.341.005-.346.013-.693.022-1.039.003-.105.005-.21.008-.318.008-.289.018-.577.03-.866.003-.086.006-.173.009-.262.039-.799.182-1.27.776-1.84.05-.048.1-.097.151-.147.342-.329.695-.643,1.057-.95.219-.196.418-.406.621-.619,2.036-2.054,4.06-1.965,6.734-1.475Z" fill="#6232d7"/><path d="M22.179,28.346c.496.214.951.486,1.412.766.122.072.245.144.368.216.355.209.706.423,1.057.638.108.065.215.13.326.197.099.061.198.122.301.185.087.053.174.107.264.162.362.267.504.495.635.924.088.941-.803,2.017-1.266,2.798-.126.214-.251.427-.377.641-.064.109-.128.218-.195.331-.319.544-.633,1.09-.948,1.636-.063.109-.126.218-.191.331-.192.333-.384.666-.575.999-.128.222-.256.444-.384.666-.063.11-.126.219-.192.333-.189.327-.378.654-.567.981-.258.446-.513.893-.766,1.341-.126.22-.251.44-.377.66q-.085.152-.172.308-.559.975-1.088,1.281c-.756.179-1.332-.165-1.969-.538-.096-.055-.192-.109-.291-.165-.295-.169-.587-.34-.88-.512-.091-.052-.182-.105-.276-.159-.253-.146-.505-.294-.756-.443q-.114-.066-.229-.134c-.399-.242-.698-.432-.866-.885-.143-.777.158-1.318.544-1.975.056-.098.111-.196.168-.297.165-.29.334-.579.503-.868.044-.075.087-.151.132-.228.199-.343.4-.684.603-1.024.34-.573.673-1.151,1.006-1.729.064-.112.129-.223.195-.338.33-.573.659-1.145.989-1.718.374-.651.75-1.301,1.127-1.95.058-.101.116-.202.176-.305.164-.283.329-.565.495-.847.048-.083.096-.166.145-.252.484-.816.929-1.233,1.919-1.027Z" fill="#6232d7"/><path d="M51.956,28.346c.679.422.986,1.108,1.361,1.791.071.127.142.255.214.382.147.262.293.524.439.786.321.574.651,1.143.98,1.713.126.218.251.435.377.653.062.107.124.215.188.325.379.655.757,1.311,1.135,1.967.297.515.594,1.029.891,1.543.141.243.281.486.422.729.099.172.199.343.298.515q.09.156.182.315.079.137.16.277.371.66.379,1.094c.003.074.006.148.009.224-.09.469-.293.742-.677,1.009-.284.169-.572.327-.863.482-.211.115-.422.23-.632.345-.103.056-.207.112-.314.17-.263.145-.52.295-.777.451-.071.043-.143.085-.216.129-.129.078-.257.156-.384.237-.478.282-.909.363-1.45.257-.66-.373-.953-1.044-1.31-1.69-.066-.118-.133-.235-.199-.353-.138-.244-.276-.488-.413-.733-.316-.563-.641-1.121-.964-1.68-.127-.219-.253-.439-.38-.658-.063-.109-.125-.217-.19-.329l-.57-.987c-.063-.109-.126-.218-.19-.33-.126-.218-.251-.436-.377-.654-.295-.511-.59-1.022-.886-1.532-.105-.18-.209-.361-.314-.541-.131-.226-.262-.452-.394-.678q-1.002-1.732-.802-2.494c.275-.404.554-.625.978-.863.112-.064.224-.127.339-.193.117-.065.233-.13.354-.197.229-.129.458-.259.687-.389.113-.063.226-.126.342-.191.433-.246.859-.505,1.283-.766.417-.208.836-.275,1.284-.135Z" fill="#6232d7"/><path d="M31.902,45.867c.406.203.674.423.912.81.164.492.213.883-.014,1.354-.188.299-.388.586-.593.874-.089.128-.179.255-.268.383-.202.289-.406.576-.61.862-.239.336-.474.675-.706,1.016-.062.09-.124.181-.188.274-.12.175-.239.35-.357.526-.434.63-.875,1.257-1.663,1.408-.499.022-.88-.11-1.272-.418-.305-.333-.432-.693-.475-1.139.036-.64.412-1.094.779-1.595.098-.136.196-.272.294-.409.165-.229.33-.457.496-.685.301-.413.595-.829.879-1.253.058-.086.115-.172.174-.261.109-.164.218-.329.326-.495.611-.916,1.131-1.458,2.287-1.253Z" fill="#6232d7"/><path d="M34.637,48.602c.414.27.753.538.912,1.013.101.553.02.943-.279,1.418-.141.204-.285.406-.43.608-.094.135-.188.269-.282.404-.258.369-.518.735-.78,1.101-.148.208-.294.418-.439.628-.045.064-.09.128-.136.195-.083.12-.166.239-.249.36-.289.411-.584.766-1.07.933-.596.07-1.016-.015-1.501-.38-.361-.416-.497-.766-.506-1.317.232-.687.653-1.242,1.07-1.829.073-.103.145-.206.22-.312.145-.205.29-.41.435-.615.172-.243.341-.487.51-.732.086-.124.173-.249.259-.373.072-.105.145-.209.219-.317.568-.705,1.142-1.049,2.047-.784Z" fill="#6232d7"/><path d="M28.054,44.753c.441.224.754.489,1.013.912.175.607.098.961-.204,1.508-.422.66-.886,1.29-1.354,1.917-.111.149-.221.299-.331.45-.053.072-.106.145-.16.219-.047.065-.094.129-.142.196-.308.368-.638.458-1.101.507-.548-.059-.847-.234-1.247-.608-.24-.314-.305-.61-.358-.996.099-.722.613-1.346,1.029-1.922.054-.075.107-.15.163-.228q1.509-2.102,2.692-1.956Z" fill="#6232d7"/><path d="M36.672,52.322c.396.207.632.427.8.838.171.63.084.98-.23,1.547q-1.077,1.699-1.872,1.884c-.463.042-.839-.059-1.241-.291-.415-.415-.6-.787-.62-1.374.1-.643.552-1.151.924-1.665.049-.074.098-.148.148-.225.511-.771,1.197-1.024,2.09-.715Z" fill="#6232d7"/><path d="M50.842,21.762q.203.222.304.506c-.082.31-.155.468-.407.67-.084.047-.168.094-.255.143-.096.055-.191.109-.29.166-.104.057-.208.115-.315.174-.22.124-.44.249-.66.373-.115.065-.23.129-.349.196-.365.206-.726.419-1.087.633-.178.105-.356.21-.534.315-.171.101-.342.203-.512.305q-.157.092-.318.186c-.092.055-.184.109-.279.166-.283.127-.461.15-.767.117q-.184-.12-.304-.304-.027-.247,0-.506c.527-.632,1.471-1,2.184-1.399.254-.143.507-.286.761-.429.061-.035.123-.069.186-.105.343-.195.682-.394,1.017-.603.069-.043.138-.086.209-.13.173-.109.344-.22.516-.33.331-.161.536-.19.9-.142Z" fill="#6232d7"/><path d="M22.565,21.732c.351.033.53.109.828.29.095.057.191.114.289.172.101.062.203.124.307.188.216.13.433.259.649.389q.167.101.338.204c.342.205.687.405,1.032.604.11.064.221.127.335.193.213.122.426.245.639.367.096.056.193.112.292.169.085.049.17.098.257.148.207.134.366.257.523.446.043.288.037.442-.108.696-.243.141-.406.127-.679.081-.522-.158-.983-.473-1.448-.752-.175-.103-.35-.207-.525-.31-.119-.07-.238-.141-.357-.212-.394-.235-.792-.464-1.191-.69-.202-.115-.403-.231-.605-.346-.094-.053-.189-.105-.286-.159-.086-.05-.173-.1-.262-.152-.076-.043-.151-.086-.229-.13-.238-.197-.308-.365-.388-.661.131-.368.19-.494.589-.537Z" fill="#6232d7"/><path d="M44.632,15.825q.335.063.538.266c.057.497-.058.783-.308,1.209-.066.115-.133.229-.201.348-.073.123-.146.245-.219.368-.074.126-.148.252-.222.378-.113.192-.226.384-.339.576-.243.411-.477.825-.707,1.244-.058.103-.115.206-.174.312-.108.193-.214.386-.318.581q-.352.618-.643.738-.197.029-.514.021-.158-.171-.304-.405c.034-.492.286-.88.525-1.298.044-.078.088-.155.133-.235.563-.993,1.135-1.981,1.717-2.962.101-.171.201-.342.299-.515q.065-.111.13-.223c.037-.064.073-.128.111-.194q.123-.143.497-.206Z" fill="#6232d7"/><path d="M28.497,15.838q.367.05.582.29c.063.117.125.234.19.355.077.139.153.277.23.415.043.079.085.158.129.24.233.426.479.844.724,1.263.257.441.512.883.765,1.327.119.209.24.417.363.623.057.097.113.195.171.295.051.086.102.172.154.26.118.301.098.451-.004.754q-.203.203-.529.231c-.599-.202-.755-.647-1.041-1.186-.123-.221-.245-.442-.368-.663-.063-.116-.127-.232-.192-.351-.202-.366-.415-.726-.629-1.085-.071-.119-.141-.238-.212-.357-.136-.228-.272-.456-.409-.684q-.092-.157-.186-.317c-.055-.092-.109-.183-.166-.278-.136-.317-.154-.538-.117-.88q.203-.203.544-.252Z" fill="#6232d7"/><path d="M36.675,13.692q.291.07.392.171c.011.198.014.396.015.594q0,.191.002.385c0,.14,0,.28,0,.419,0,.142,0,.285.001.427,0,.299,0,.598,0,.897,0,.384.001.767.003,1.151.001.294.001.589.001.883,0,.141,0,.283.001.424,0,.198,0,.395,0,.593,0,.113,0,.225,0,.341q-.025.266-.228.468-.304.025-.608,0c-.275-.275-.229-.423-.23-.808,0-.127-.002-.254-.003-.385,0-.139,0-.279,0-.418,0-.142,0-.285-.001-.427,0-.298,0-.597,0-.895,0-.383-.001-.766-.003-1.148-.001-.294-.002-.588-.001-.882,0-.141,0-.282-.002-.424-.001-.197,0-.394,0-.591v-.34c.012-.088.025-.175.038-.265q.304-.203.62-.171Z" fill="#6232d7"/></svg>