<?xml version="1.0" encoding="UTF-8"?>
<svg id="a" xmlns="http://www.w3.org/2000/svg" width="83.06" height="83.06" viewBox="0 0 83.06 83.06">
  <defs>
    <style>
      .cls-1 {
        fill: #eae5ff;
      }

      .cls-2 {
        fill: #6232d7;
      }
    </style>
  </defs>
  <circle class="cls-1" cx="41.53" cy="41.53" r="41.53"/>
  <g>
    <path class="cls-2" d="M27.324,25.649c.05,0,.1,0,.151,0,.168,0,.336,0,.504,0,.121,0,.242,0,.363,0,.334,0,.667,0,1.001,0,.36,0,.719,0,1.079-.001,.787,0,1.573-.001,2.36-.001,.491,0,.982,0,1.473,0,1.358,0,2.717-.001,4.075-.002,.088,0,.176,0,.264,0,.088,0,.176,0,.264,0,.177,0,.353,0,.53,0,.044,0,.088,0,.133,0,1.421,0,2.841-.001,4.262-.003,1.502-.002,3.004-.002,4.505-.002,.819,0,1.638,0,2.456-.002,.697,0,1.394-.001,2.091,0,.356,0,.712,0,1.067,0,.326,0,.651,0,.977,0,.118,0,.236,0,.354,0,.16,0,.32,0,.48,0,.046,0,.092,0,.139-.001,.504,.005,.832,.201,1.195,.535,.283,.29,.362,.572,.365,.966,0,.06,.001,.12,.002,.182q0,.098,0,.198c0,.069,.001,.138,.002,.21,.002,.229,.003,.458,.003,.688q0,.118,.001,.237c.001,.329,.003,.659,.003,.988,.001,.471,.003,.942,.007,1.412,.003,.372,.004,.744,.004,1.115,0,.158,.001,.315,.003,.473,.002,.221,.002,.442,.002,.663,.001,.065,.002,.129,.003,.196-.004,.489-.123,.9-.456,1.27-.522,.5-1.141,.463-1.815,.451-.09,0-.181-.002-.271-.003-.22-.002-.439-.006-.659-.009v1.55q.204-.005,.412-.011c.134-.002,.268-.004,.401-.006,.092-.002,.184-.004,.276-.006,.617-.018,1.154,0,1.632,.442,.416,.437,.468,.879,.466,1.459,0,.069,.001,.138,.002,.21,.001,.228,.002,.456,.001,.684,0,.159,0,.318,.001,.477,0,.333,0,.667,0,1,0,.384,.001,.768,.003,1.152,.002,.371,.003,.742,.002,1.113,0,.157,0,.314,.002,.471,.001,.22,0,.44,0,.661q.001,.097,.002,.195c-.006,.487-.124,.902-.459,1.268-.365,.343-.74,.463-1.236,.457-.043,0-.087,0-.132,0-.137-.001-.274-.003-.411-.006-.094,0-.187-.002-.281-.003-.228-.002-.456-.006-.684-.009v1.55c.132-.003,.265-.006,.401-.009,.13-.002,.26-.003,.39-.005,.089-.001,.179-.003,.268-.005,.633-.015,1.084,.046,1.623,.398,.429,.449,.526,.918,.519,1.522,0,.07,0,.139,.001,.211,0,.228,0,.456-.002,.684,0,.159,0,.319,0,.478,0,.333-.001,.666-.003,.999-.002,.384-.003,.768-.002,1.153,0,.371,0,.742-.001,1.113,0,.157,0,.315,0,.472,0,.22-.001,.439-.003,.659,0,.065,0,.129,0,.196-.007,.622-.202,.999-.647,1.434-.339,.244-.638,.257-1.046,.256q-.075,0-.151,0c-.168,0-.336,0-.504,0-.121,0-.242,0-.363,0-.334,0-.667,0-1.001,0-.36,0-.719,0-1.079,.001-.787,0-1.573,.001-2.36,.001-.491,0-.982,0-1.473,0-1.358,0-2.717,.001-4.075,.002-.088,0-.176,0-.264,0-.088,0-.176,0-.264,0-.177,0-.353,0-.53,0-.044,0-.088,0-.133,0-1.421,0-2.841,.001-4.262,.003-1.502,.002-3.004,.002-4.505,.002-.819,0-1.638,0-2.456,.002-.697,0-1.394,.001-2.091,0-.356,0-.712,0-1.067,0-.326,0-.651,0-.977,0-.118,0-.236,0-.354,0-.16,0-.32,0-.48,0-.046,0-.092,0-.139,.001-.504-.005-.832-.201-1.195-.535-.283-.29-.362-.572-.365-.966,0-.06-.001-.12-.002-.182,0-.065,0-.131,0-.198,0-.069-.001-.138-.002-.21-.002-.229-.003-.458-.003-.688,0-.078,0-.157-.001-.237-.001-.329-.003-.659-.003-.988-.001-.471-.003-.942-.007-1.412-.003-.372-.004-.744-.004-1.115,0-.158-.001-.315-.003-.473-.002-.221-.002-.442-.002-.663q-.002-.097-.003-.196c.004-.489,.123-.9,.456-1.27,.522-.5,1.141-.463,1.815-.451,.09,0,.181,.002,.271,.003,.22,.002,.439,.006,.659,.009v-1.55c-.136,.004-.272,.007-.412,.011-.134,.002-.268,.004-.401,.006-.092,.002-.184,.004-.276,.006-.617,.018-1.154,0-1.632-.442-.416-.437-.468-.879-.466-1.459,0-.069-.001-.138-.002-.21-.001-.228-.002-.456-.001-.684,0-.159,0-.318-.001-.477,0-.333,0-.667,0-1,0-.384-.001-.768-.003-1.152-.002-.371-.003-.742-.002-1.113,0-.157,0-.314-.002-.471-.001-.22,0-.44,0-.661,0-.064-.002-.129-.002-.195,.006-.487,.124-.902,.459-1.268,.365-.343,.74-.463,1.236-.457,.043,0,.087,0,.132,0,.137,.001,.274,.003,.411,.006,.094,0,.187,.002,.281,.003,.228,.002,.456,.006,.684,.009v-1.55c-.132,.003-.265,.006-.401,.009-.13,.002-.26,.003-.39,.005-.089,.001-.179,.003-.268,.005-.633,.015-1.084-.046-1.623-.398-.429-.449-.526-.918-.519-1.522q0-.104-.001-.211c0-.228,0-.456,.002-.684,0-.159,0-.319,0-.478,0-.333,.001-.666,.003-.999,.002-.384,.003-.768,.002-1.153,0-.371,0-.742,.001-1.113,0-.157,0-.315,0-.472,0-.22,.001-.439,.003-.659,0-.065,0-.129,0-.196,.007-.622,.202-.999,.647-1.434,.339-.244,.638-.257,1.046-.256Zm-.455,1.242c-.112,.152-.127,.227-.128,.415,0,.057-.002,.114-.002,.172,0,.062,0,.124,.001,.187,0,.065-.001,.131-.002,.198-.001,.217,0,.433,0,.65,0,.15,0,.301-.001,.451,0,.315,0,.631,0,.946,.001,.404,0,.809-.003,1.213-.001,.311-.001,.621,0,.932,0,.149,0,.298-.001,.447-.001,.208,0,.417,.001,.625,0,.062-.001,.123-.002,.187,0,.057,.002,.114,.002,.173,0,.049,0,.098,0,.149,.06,.22,.173,.31,.349,.453,.175,.031,.313,.042,.489,.039,.049,0,.098,0,.149,.001,.165,.001,.33,0,.495-.001,.119,0,.238,0,.358,.001,.328,.001,.656,0,.984,0,.354,0,.707,0,1.061,.001,.693,.001,1.386,.001,2.079,0,.563,0,1.126,0,1.689,0,.08,0,.16,0,.243,0,.163,0,.325,0,.488,0,1.482,0,2.965,0,4.447-.002,1.354-.001,2.707-.001,4.061,0,1.52,.002,3.041,.002,4.561,.001,.162,0,.324,0,.486,0q.12,0,.242,0c.563,0,1.125,0,1.688,0,.685,0,1.371,0,2.056-.001,.35,0,.7-.001,1.05,0,.32,0,.64,0,.96-.001,.116,0,.232,0,.348,0,.157,0,.314,0,.472-.001q.068,.001,.138,.002c.242-.004,.343-.035,.534-.19,.135-.172,.166-.239,.166-.454,0-.057,.002-.114,.002-.173,0-.062-.001-.123-.002-.187,0-.066,0-.131,.001-.199,.001-.217,0-.433-.001-.65,0-.15,0-.301,0-.451,0-.315,0-.631-.002-.946-.002-.404-.002-.809,0-1.213,0-.311,0-.621,0-.932,0-.149,0-.298,0-.447,0-.208,0-.416-.003-.625,0-.062,0-.124,.001-.187,0-.057-.002-.114-.002-.172,0-.049,0-.098,0-.149-.045-.196-.121-.261-.279-.383-.169-.024-.314-.033-.483-.031q-.074,0-.149-.001c-.166,0-.332,0-.498,0-.12,0-.239,0-.359-.001-.33-.001-.66,0-.989,0-.355,0-.711,0-1.066,0-.696-.001-1.393,0-2.089,0-.566,0-1.132,0-1.698,0q-.121,0-.244,0c-.163,0-.327,0-.49,0-1.489,0-2.979,0-4.468,.001-1.36,.001-2.721,.001-4.081,0-1.528-.001-3.055-.002-4.583-.001-.163,0-.326,0-.488,0-.08,0-.16,0-.243,0-.565,0-1.131,0-1.696,0-.689,0-1.377,0-2.066,0-.352,0-.703,0-1.055,0-.322,0-.643,0-.965,0-.117,0-.233,0-.35,0-.158,0-.316,0-.474,.001-.046,0-.092-.001-.139-.002-.214,.003-.325,.018-.496,.15Zm3.066,8.315v1.55h.992v-1.55h-.992Zm2.108,0v1.55h18.972v-1.55h-18.972Zm20.089,0v1.55h.992v-1.55h-.992Zm-25.359,2.914q-.046,.137-.039,.287c0,.057-.002,.115-.003,.174,0,.062,.001,.125,.002,.189,0,.066-.001,.132-.002,.2-.001,.219,0,.438,0,.657,0,.152,0,.304,0,.456,0,.319,0,.637,.002,.956,.002,.409,0,.817-.001,1.226-.001,.314,0,.628,0,.941,0,.151,0,.301,0,.452,0,.211,0,.421,.002,.631,0,.062-.001,.125-.002,.189,0,.057,.002,.115,.003,.174,0,.05,0,.099,0,.151,.06,.209,.168,.269,.349,.384,.171,.024,.318,.033,.489,.031q.074,0,.149,.001c.165,0,.33,0,.495,0,.119,0,.238,0,.358,.001,.328,.001,.656,0,.984,0,.354,0,.707,0,1.061,0,.693,.001,1.386,0,2.079,0,.563,0,1.126,0,1.689,0,.08,0,.16,0,.243,0,.163,0,.325,0,.488,0,1.482,0,2.965,0,4.447-.001,1.354-.001,2.707-.001,4.061,0,1.52,.001,3.041,.002,4.561,.001,.162,0,.324,0,.486,0,.08,0,.159,0,.242,0,.563,0,1.125,0,1.688,0,.685,0,1.371,0,2.056,0,.35,0,.7,0,1.05,0,.32,0,.64,0,.96,0,.116,0,.232,0,.348,0,.157,0,.314,0,.472-.001q.068,0,.138,.002c.298-.004,.453-.067,.661-.281q.046-.137,.039-.287c0-.057,.002-.115,.003-.174,0-.062-.001-.125-.002-.189,0-.066,.001-.132,.002-.2,.001-.219,0-.438,0-.657,0-.152,0-.304,0-.456,0-.319,0-.637-.002-.956-.002-.409,0-.817,.001-1.226,.001-.314,0-.628,0-.941,0-.151,0-.301,0-.452,0-.211,0-.421-.002-.631q0-.094,.002-.189c0-.057-.002-.115-.003-.174q0-.075,0-.151c-.06-.209-.168-.269-.349-.384-.171-.024-.318-.033-.489-.031-.049,0-.098,0-.149-.001-.165,0-.33,0-.495,0-.119,0-.238,0-.358-.001-.328-.001-.656,0-.984,0-.354,0-.707,0-1.061,0-.693-.001-1.386,0-2.079,0-.563,0-1.126,0-1.689,0-.08,0-.16,0-.243,0-.163,0-.325,0-.488,0-1.482,0-2.965,0-4.447,.001-1.354,.001-2.707,.001-4.061,0-1.52-.001-3.041-.002-4.561-.001-.162,0-.324,0-.486,0-.08,0-.159,0-.242,0-.563,0-1.125,0-1.688,0-.685,0-1.371,0-2.056,0-.35,0-.7,0-1.05,0-.32,0-.64,0-.96,0-.116,0-.232,0-.348,0-.157,0-.314,0-.472,.001-.045,0-.091-.001-.138-.002-.298,.004-.453,.067-.661,.281Zm3.162,8.184v1.55h.992v-1.55h-.992Zm2.108,0v1.55h18.972v-1.55h-18.972Zm20.089,0v1.55h.992v-1.55h-.992Zm-25.359,2.976q-.045,.142-.039,.292c0,.057-.002,.114-.002,.173,0,.062,.001,.123,.002,.187,0,.066,0,.131-.001,.199-.001,.217,0,.433,.001,.65,0,.15,0,.301,0,.451,0,.315,0,.631,.002,.946,.002,.404,.002,.809,0,1.213,0,.311,0,.621,0,.932,0,.149,0,.298,0,.447,0,.208,0,.416,.003,.625,0,.062,0,.124-.001,.187,0,.057,.002,.114,.002,.172,0,.049,0,.098,0,.149,.045,.196,.121,.261,.279,.383,.169,.024,.314,.033,.483,.031q.074,0,.149,.001c.166,0,.332,0,.498,0,.12,0,.239,0,.359,.001,.33,.001,.66,0,.989,0,.355,0,.711,0,1.066,0,.696,.001,1.393,0,2.089,0,.566,0,1.132,0,1.698,0q.121,0,.244,0c.163,0,.327,0,.49,0,1.489,0,2.979,0,4.468-.001,1.36-.001,2.721-.001,4.081,0,1.528,.001,3.055,.002,4.583,.001,.163,0,.326,0,.488,0,.08,0,.16,0,.243,0,.565,0,1.131,0,1.696,0,.689,0,1.377,0,2.066,0,.352,0,.703,0,1.055,0,.322,0,.643,0,.965,0,.117,0,.233,0,.35,0,.158,0,.316,0,.474-.001,.046,0,.092,.001,.139,.002,.214-.003,.325-.018,.496-.15,.112-.152,.127-.227,.128-.415q.001-.085,.002-.172t-.001-.187c0-.065,.001-.131,.002-.198,.001-.217,0-.433,0-.65,0-.15,0-.301,.001-.451,0-.315,0-.631,0-.946-.001-.404,0-.809,.003-1.213,.001-.311,.001-.621,0-.932,0-.149,0-.298,.001-.447,.001-.208,0-.417-.001-.625,0-.062,.001-.123,.002-.187q-.001-.085-.002-.173c0-.049,0-.098,0-.149-.06-.22-.173-.31-.349-.453-.175-.031-.313-.042-.489-.039-.049,0-.098,0-.149-.001-.165-.001-.33,0-.495,.001-.119,0-.238,0-.358-.001-.328-.001-.656,0-.984,0-.354,0-.707,0-1.061-.001-.693-.001-1.386-.001-2.079,0-.563,0-1.126,0-1.689,0-.08,0-.16,0-.243,0-.163,0-.325,0-.488,0-1.482,0-2.965,0-4.447,.002-1.354,.001-2.707,.001-4.061,0-1.52-.002-3.041-.002-4.561-.001-.162,0-.324,0-.486,0-.08,0-.159,0-.242,0-.563,0-1.125,0-1.688,0-.685,0-1.371,0-2.056,.001-.35,0-.7,.001-1.05,0-.32,0-.64,0-.96,.001-.116,0-.232,0-.348,0-.157,0-.314,0-.472,.001-.045,0-.091-.001-.138-.002-.325,.006-.462,.099-.661,.351Z"/>
    <path class="cls-2" d="M31.362,40.166c.263,.237,.481,.455,.558,.806,.056,0,.111,0,.169,0,1.354-.003,2.708-.005,4.062-.006,.655,0,1.31-.002,1.965-.003,.571-.001,1.141-.002,1.712-.002,.302,0,.605,0,.907-.001,.284,0,.569-.001,.853,0,.104,0,.209,0,.313,0,.142,0,.285,0,.427,0q.12,0,.242,0c.189,.014,.292,.035,.448,.139,.143,.2,.144,.379,.124,.62-.052,.155-.089,.225-.225,.316-.201,.077-.373,.071-.589,.071q-.067,0-.135,0c-.149,0-.298,0-.448-.001-.107,0-.214,0-.321,0-.29,0-.581,0-.871-.002-.303,0-.607,0-.91,0-.575,0-1.149-.001-1.724-.003-.654-.001-1.308-.002-1.963-.003-1.346-.001-2.692-.003-4.037-.006-.019,.059-.037,.118-.057,.178-.116,.333-.341,.535-.644,.71-.427,.192-.86,.254-1.314,.12-.479-.197-.811-.476-1.029-.95-.145-.464-.13-.948,.071-1.391,.23-.393,.538-.667,.974-.808,.506-.107,.997-.057,1.44,.219Zm-1.426,1.178q-.052,.186,0,.372,.119,.191,.31,.31c.221,0,.365-.016,.55-.14,.094-.146,.123-.245,.132-.419-.101-.216-.171-.3-.372-.434-.31-.057-.436,.069-.62,.31Z"/>
    <path class="cls-2" d="M31.238,51.202c.33,.228,.507,.445,.682,.806,.055,0,.111,0,.168,0,1.345,.004,2.691,.008,4.036,.014,.651,.003,1.301,.005,1.952,.007,.567,.001,1.134,.003,1.701,.006,.3,.001,.601,.003,.901,.003,.283,0,.565,.002,.848,.004,.104,0,.208,0,.311,0,.142,0,.283,0,.425,.002q.119,0,.24,0c.224,.026,.339,.074,.517,.21,.155,.233,.157,.345,.124,.62-.162,.21-.254,.3-.519,.348q-.12,0-.243,0-.067,0-.136,0c-.15,0-.3-.001-.45-.003-.108,0-.215,0-.323,0-.292,0-.584-.002-.875-.004-.305-.002-.61-.002-.915-.002-.578,0-1.155-.004-1.732-.007-.657-.003-1.315-.005-1.972-.007-1.352-.003-2.705-.009-4.057-.016-.019,.059-.037,.118-.057,.178-.128,.367-.418,.602-.757,.779-.413,.162-.861,.174-1.285,.042-.441-.201-.798-.524-.972-.986-.101-.471-.108-.983,.149-1.402,.023-.033,.046-.066,.07-.099q.052-.082,.105-.167c.559-.559,1.361-.684,2.065-.329Zm-1.178,1.054c-.145,.218-.16,.301-.124,.558,.154,.209,.243,.298,.5,.345,.225-.043,.296-.099,.43-.283,.078-.202,.076-.277-.012-.477-.116-.148-.185-.207-.36-.267-.196,0-.27,.024-.434,.124Z"/>
    <path class="cls-2" d="M31.362,29.068c.305,.241,.44,.434,.558,.806,.056,0,.112,0,.17,0,1.361-.007,2.722-.012,4.083-.015,.658-.002,1.316-.004,1.974-.007,.574-.003,1.147-.005,1.721-.006,.304,0,.607-.001,.911-.004,.286-.002,.572-.003,.858-.002,.105,0,.21,0,.315-.002,.143-.002,.286-.001,.43,0,.08,0,.16,0,.243,0,.264,.048,.356,.138,.519,.348,.043,.265,.031,.385-.112,.612-.232,.225-.442,.201-.752,.201q-.066,0-.133,0c-.148,0-.296,0-.444-.001-.106,0-.212,0-.318,0-.228,0-.457,0-.685,0-.361,0-.722,0-1.082,0-.061,0-.122,0-.184,0-.124,0-.249,0-.373,0-.84,.001-1.68,.002-2.52,0-.567-.001-1.133-.001-1.7,0-.3,0-.6,.001-.9,0-.282-.002-.564-.001-.846,0-.104,0-.207,0-.311-.001-.141-.001-.282,0-.424,.002-.079,0-.158,0-.24,0q-.197,.033-.277,.15c-.062,.109-.116,.224-.169,.338-.296,.348-.671,.514-1.118,.575-.46,.022-.901-.14-1.264-.419-.359-.348-.477-.73-.493-1.218,.005-.467,.125-.807,.433-1.161,.583-.545,1.458-.636,2.132-.196Zm-1.426,1.178q-.047,.189,0,.372c.12,.165,.209,.233,.399,.306,.211,.005,.304-.053,.469-.182,.108-.148,.125-.22,.116-.403-.068-.195-.135-.281-.302-.403-.337-.065-.483,.04-.682,.31Z"/>
    <path class="cls-2" d="M53.124,54.178h1.116v1.116h-1.116v-1.116Z"/>
    <path class="cls-2" d="M51.016,54.178h1.116v1.116h-1.116v-1.116Z"/>
    <path class="cls-2" d="M48.908,54.178h1.116v1.116h-1.116v-1.116Z"/>
    <path class="cls-2" d="M46.8,54.178h1.116v1.116h-1.116v-1.116Z"/>
    <path class="cls-2" d="M44.692,54.178h1.116v1.116h-1.116v-1.116Z"/>
    <path class="cls-2" d="M53.124,52.07h1.116v1.116h-1.116v-1.116Z"/>
    <path class="cls-2" d="M51.016,52.07h1.116v1.116h-1.116v-1.116Z"/>
    <path class="cls-2" d="M48.908,52.07h1.116v1.116h-1.116v-1.116Z"/>
    <path class="cls-2" d="M46.8,52.07h1.116v1.116h-1.116v-1.116Z"/>
    <path class="cls-2" d="M44.692,52.07h1.116v1.116h-1.116v-1.116Z"/>
    <path class="cls-2" d="M53.124,49.962h1.116v1.116h-1.116v-1.116Z"/>
    <path class="cls-2" d="M51.016,49.962h1.116v1.116h-1.116v-1.116Z"/>
    <path class="cls-2" d="M48.908,49.962h1.116v1.116h-1.116v-1.116Z"/>
    <path class="cls-2" d="M46.8,49.962h1.116v1.116h-1.116v-1.116Z"/>
    <path class="cls-2" d="M44.692,49.962h1.116v1.116h-1.116v-1.116Z"/>
    <path class="cls-2" d="M53.124,43.08h1.116v1.116h-1.116v-1.116Z"/>
    <path class="cls-2" d="M51.016,43.08h1.116v1.116h-1.116v-1.116Z"/>
    <path class="cls-2" d="M48.908,43.08h1.116v1.116h-1.116v-1.116Z"/>
    <path class="cls-2" d="M46.8,43.08h1.116v1.116h-1.116v-1.116Z"/>
    <path class="cls-2" d="M44.692,43.08h1.116v1.116h-1.116v-1.116Z"/>
    <path class="cls-2" d="M53.124,40.972h1.116v1.116h-1.116v-1.116Z"/>
    <path class="cls-2" d="M51.016,40.972h1.116v1.116h-1.116v-1.116Z"/>
    <path class="cls-2" d="M48.908,40.972h1.116v1.116h-1.116v-1.116Z"/>
    <path class="cls-2" d="M46.8,40.972h1.116v1.116h-1.116v-1.116Z"/>
    <path class="cls-2" d="M44.692,40.972h1.116v1.116h-1.116v-1.116Z"/>
    <path class="cls-2" d="M53.124,38.864h1.116v1.116h-1.116v-1.116Z"/>
    <path class="cls-2" d="M51.016,38.864h1.116v1.116h-1.116v-1.116Z"/>
    <path class="cls-2" d="M48.908,38.864h1.116v1.116h-1.116v-1.116Z"/>
    <path class="cls-2" d="M46.8,38.864h1.116v1.116h-1.116v-1.116Z"/>
    <path class="cls-2" d="M44.692,38.864h1.116v1.116h-1.116v-1.116Z"/>
    <path class="cls-2" d="M53.124,31.982h1.116v1.116h-1.116v-1.116Z"/>
    <path class="cls-2" d="M51.016,31.982h1.116v1.116h-1.116v-1.116Z"/>
    <path class="cls-2" d="M48.908,31.982h1.116v1.116h-1.116v-1.116Z"/>
    <path class="cls-2" d="M46.8,31.982h1.116v1.116h-1.116v-1.116Z"/>
    <path class="cls-2" d="M44.692,31.982h1.116v1.116h-1.116v-1.116Z"/>
    <path class="cls-2" d="M53.124,29.874h1.116v1.116h-1.116v-1.116Z"/>
    <path class="cls-2" d="M51.016,29.874h1.116v1.116h-1.116v-1.116Z"/>
    <path class="cls-2" d="M48.908,29.874h1.116v1.116h-1.116v-1.116Z"/>
    <path class="cls-2" d="M46.8,29.874h1.116v1.116h-1.116v-1.116Z"/>
    <path class="cls-2" d="M44.692,29.874h1.116v1.116h-1.116v-1.116Z"/>
    <path class="cls-2" d="M53.124,27.766h1.116v1.116h-1.116v-1.116Z"/>
    <path class="cls-2" d="M51.016,27.766h1.116v1.116h-1.116v-1.116Z"/>
    <path class="cls-2" d="M48.908,27.766h1.116v1.116h-1.116v-1.116Z"/>
    <path class="cls-2" d="M46.8,27.766h1.116v1.116h-1.116v-1.116Z"/>
    <path class="cls-2" d="M44.692,27.766h1.116v1.116h-1.116v-1.116Z"/>
  </g>
</svg>