<?xml version="1.0" encoding="UTF-8"?>
<svg id="a" xmlns="http://www.w3.org/2000/svg" width="83.06" height="83.06" viewBox="0 0 83.06 83.06">
  <defs>
    <style>
      .cls-1 {
        fill: #eae5ff;
      }

      .cls-2 {
        fill: #6232d7;
      }
    </style>
  </defs>
  <circle class="cls-1" cx="41.53" cy="41.53" r="41.53"/>
  <g>
    <path class="cls-2" d="M51.22,28.994c.036,.032,.072,.064,.109,.097,2.639,2.35,4.396,5.729,4.704,9.266,0,.089,0,.179-.002,.268-.003,.237-.001,.428,.067,.655,.181,.174,.365,.287,.584,.41,.724,.41,1.11,1.137,1.34,1.911,.102,.468,.092,.937,.09,1.415,0,.111,0,.221,0,.332,0,.23,0,.461-.001,.691-.002,.293,0,.586,0,.878,0,.228,0,.456,0,.684,0,.108,0,.216,0,.324,.005,1.115-.228,2.034-1.013,2.872-.196,.19-.369,.284-.619,.389q-.181,.096-.316,.25c-.09,.36-.075,.711-.062,1.08,.004,.194,.005,.388,.006,.583q0,.072,.001,.146c-.005,1.375-.531,2.573-1.479,3.555-.955,.891-2.107,1.326-3.403,1.303-.135,0-.269,0-.404,0-.21,0-.419-.002-.629-.006-.204-.003-.408-.003-.612-.002-.063-.002-.125-.004-.19-.006-.179,.003-.315,.01-.483,.074-.153,.182-.238,.376-.33,.593-.477,.62-1.094,.871-1.846,.989-.21,.017-.419,.019-.63,.018-.057,0-.115,0-.174,0-.12,0-.241,0-.361,0-.182,0-.364,0-.546,0-1.023,0-1.879-.047-2.67-.766-.444-.47-.636-1.053-.655-1.691,.022-.704,.258-1.264,.74-1.779,.471-.441,1.007-.666,1.652-.672q.094,0,.189-.002c.067,0,.134,0,.203,0q.105,0,.211-.001c.147,0,.295-.001,.442-.001,.224,0,.448-.003,.672-.005,.144,0,.287,0,.431-.001,.066,0,.132-.002,.201-.002,.761,.002,1.4,.209,1.947,.751q.458,.509,.458,.855c.408-.003,.816-.008,1.224-.014,.139-.002,.277-.003,.416-.004,1.162-.008,2.084-.1,2.993-.905,.795-.822,.922-1.817,.948-2.906,.003-.089,.005-.179,.008-.268,.006-.217,.012-.434,.017-.651-.039-.003-.079-.006-.119-.009-.593-.055-1.015-.277-1.426-.714-.434-.56-.509-1.101-.51-1.785,0-.067,0-.133,0-.202,0-.22-.001-.44-.002-.659,0-.153,0-.306-.001-.46,0-.321-.001-.642-.001-.964,0-.411-.002-.821-.004-1.232-.001-.317-.002-.633-.002-.95,0-.151,0-.303-.002-.454-.001-.212,0-.424,0-.637,0-.062-.001-.124-.002-.187,.005-.743,.216-1.278,.724-1.816,.354-.334,.79-.548,1.28-.548-.283-2.415-.929-4.671-2.374-6.66-.026-.037-.053-.074-.08-.111-1.217-1.673-2.763-2.967-4.601-3.911-.04-.021-.081-.042-.123-.064-1.821-.946-4.023-1.437-6.076-1.32-.049,.003-.097,.005-.148,.008-2.316,.14-4.578,.795-6.512,2.102-.038,.025-.076,.051-.114,.077-.468,.318-.907,.652-1.321,1.039-.132,.123-.268,.239-.406,.355-2.422,2.131-3.651,5.347-3.96,8.485q.12,.011,.243,.023c.581,.074,1,.447,1.364,.885,.359,.495,.381,1.011,.382,1.601q0,.1,0,.202c0,.22,.001,.44,.002,.659,0,.153,0,.306,.001,.46,0,.321,.001,.642,.001,.964,0,.411,.002,.821,.004,1.232,.001,.317,.002,.633,.002,.95,0,.151,0,.303,.002,.454,.001,.212,.001,.424,0,.637,0,.062,.001,.124,.002,.187-.005,.751-.219,1.3-.746,1.833-.508,.471-1.026,.62-1.713,.611-.989-.067-1.77-.487-2.446-1.201-.533-.641-.797-1.307-.803-2.138,0-.048,0-.096-.001-.146-.001-.159-.002-.318-.003-.477,0-.055,0-.109,0-.166-.001-.29-.002-.579-.003-.869,0-.297-.003-.594-.006-.891-.002-.23-.002-.46-.003-.69,0-.109-.001-.219-.002-.328-.012-1.12,.213-2.041,1.002-2.884,.153-.152,.272-.244,.47-.331,.231-.104,.369-.185,.535-.378,.099-.336,.093-.692,.108-1.04,.073-1.628,.647-3.239,1.343-4.697,.036-.079,.073-.158,.11-.239,.579-1.214,1.381-2.301,2.299-3.278,.129-.139,.252-.28,.373-.426,.214-.252,.46-.46,.713-.672,.057-.05,.114-.099,.173-.15,.838-.719,1.75-1.317,2.729-1.828,.046-.024,.092-.049,.14-.074,1.294-.673,2.707-1.141,4.146-1.377,.084-.014,.168-.028,.255-.042,4.29-.634,8.648,.651,11.878,3.537Zm-24.184,12.282c-.452,.557-.451,1.144-.448,1.833,0,.103,0,.205-.001,.308,0,.214,0,.428,0,.642,.001,.273,0,.545-.003,.818-.001,.212-.001,.423,0,.635,0,.1,0,.201-.001,.301-.006,.734,.095,1.264,.579,1.833,.334,.309,.759,.441,1.203,.499,.21-.035,.334-.096,.503-.227,.113-.186,.148-.325,.149-.542q0-.082,.001-.166c0-.06,0-.119,0-.181,0-.063,0-.127,0-.192,0-.209,0-.418,0-.628,0-.145,0-.291,0-.436,0-.305,0-.609,0-.914,0-.391,0-.781,0-1.172,0-.3,0-.6,0-.9,0-.144,0-.288,0-.432,0-.201,0-.403,0-.604,0-.06,0-.119,0-.181,0-.055,0-.11-.001-.166,0-.048,0-.095,0-.144-.02-.158-.066-.262-.148-.397-.624-.473-1.33-.033-1.831,.413Zm27.152-.413c-.113,.186-.148,.325-.149,.541,0,.055,0,.11-.001,.166,0,.06,0,.119,0,.181,0,.063,0,.126-.001,.191,0,.209,0,.418,0,.627,0,.145,0,.29,0,.436,0,.304,0,.609,0,.913,0,.39,0,.78-.002,1.17,0,.3-.001,.6,0,.9,0,.144,0,.288-.001,.431,0,.201,0,.402,0,.603,0,.059-.001,.119-.002,.18,.003,.315,.018,.527,.224,.782,.249,.174,.463,.138,.752,.101,.477-.098,.875-.366,1.16-.76,.323-.517,.304-1.063,.301-1.652,0-.103,0-.205,.001-.308,0-.214,0-.428,0-.642-.001-.273,0-.545,.003-.818,.001-.212,.001-.423,0-.635,0-.1,0-.201,.001-.301,.006-.688-.072-1.203-.511-1.751-.488-.426-1.184-.801-1.773-.355Zm-10.748,14.045c-.095,.298-.094,.531,.033,.816,.26,.273,.538,.378,.908,.397,.103,.001,.207,.001,.31,0,.055,0,.111,0,.168,0,.116,0,.233,0,.349-.001,.177-.001,.354,0,.531,.001,.114,0,.227,0,.341,0,.052,0,.105,0,.159,.001,.389-.005,.719-.067,1.018-.337,.108-.222,.156-.435,.14-.68-.146-.297-.295-.457-.593-.593-.214-.029-.425-.028-.641-.026-.062,0-.123,0-.187,0-.13,0-.26,0-.39,.001-.199,.001-.398,0-.596-.001-.127,0-.253,0-.38,0-.059,0-.119,0-.18-.001-.413,.005-.721,.083-.989,.423Z"/>
    <path class="cls-2" d="M36.382,33.007c.045,0,.091,0,.138,0,.152,0,.304,0,.456,0,.109,0,.218,0,.328,0,.296,0,.593-.001,.889-.002,.185,0,.371,0,.556,0,.581,0,1.162-.002,1.743-.002,.669,0,1.339-.001,2.008-.003,.518-.001,1.036-.002,1.555-.002,.309,0,.618,0,.927-.002,.291-.001,.582-.001,.873,0,.106,0,.213,0,.319,0,1.094-.006,2.053,.18,2.88,.949,.747,.801,.999,1.674,.997,2.746q0,.112,.001,.226c0,.246,0,.491,0,.737,0,.172,0,.343,0,.515,0,.359,0,.719,0,1.078,0,.414,0,.827,.002,1.241,.001,.4,.002,.8,.001,1.2,0,.169,0,.338,.001,.508,0,.237,0,.475,0,.712,0,.069,.001,.138,.002,.209-.007,1.028-.347,1.869-1.054,2.615-.629,.578-1.445,.883-2.291,.877-.098,0-.197,0-.295-.001-.052,0-.103,0-.157,0-.276-.001-.551,0-.827,0-.35,0-.7,0-1.05-.002-.283-.002-.567-.002-.85,0-.108,0-.215,0-.323-.002q-.589-.023-1.13,.171c-.133,.133-.245,.273-.359,.422-.087,.08-.175,.157-.266,.233-.266,.229-.51,.474-.754,.726-.092,.093-.183,.187-.275,.28-.142,.145-.284,.29-.425,.436-.138,.142-.277,.284-.416,.425q-.062,.065-.126,.131c-.334,.336-.691,.553-1.162,.639-.498-.006-.942-.083-1.328-.418-.389-.42-.555-.82-.542-1.391,0-.048,0-.095,0-.144,.001-.15,.004-.301,.006-.451,0-.103,.002-.205,.003-.308,.002-.25,.006-.501,.01-.751-.038,.001-.076,.003-.115,.004-.935,.018-1.755-.381-2.429-1.012-.686-.766-.917-1.673-.911-2.685,0-.075,0-.149-.001-.226,0-.245,0-.489,0-.734,0-.171,0-.343,0-.514,0-.358,0-.717,.001-1.075,.001-.412,0-.824,0-1.236-.001-.399,0-.798,0-1.197,0-.169,0-.337,0-.506,0-.236,0-.473,.001-.709,0-.069,0-.137-.001-.208,.008-.984,.321-1.837,.999-2.557,.664-.607,1.494-.935,2.389-.937Zm-1.383,2.317c-.203,.326-.337,.643-.339,1.03,0,.063,0,.125-.001,.19,0,.069,0,.137,0,.208,0,.072,0,.145-.001,.219-.001,.24-.002,.48-.003,.72,0,.082,0,.164,0,.249-.001,.389-.002,.779-.003,1.168,0,.449-.002,.897-.005,1.346-.002,.389-.003,.778-.003,1.168,0,.165-.001,.33-.002,.495-.002,.232-.002,.463-.001,.695,0,.068-.002,.136-.003,.206,.004,.598,.178,1.061,.584,1.505,.336,.308,.699,.433,1.149,.443,.06,.002,.12,.004,.181,.006,.125,.003,.25,.006,.375,.009,.345,.012,.621,.025,.91,.235,.223,.343,.229,.645,.232,1.04,.001,.061,.002,.122,.004,.185,.004,.193,.006,.387,.008,.58,.002,.132,.004,.263,.007,.395,.006,.322,.01,.643,.014,.965,.396-.327,.755-.684,1.115-1.05,.062-.063,.124-.125,.186-.188,.262-.264,.523-.528,.784-.793,.16-.163,.321-.325,.483-.487,.091-.091,.181-.183,.271-.275,.055-.055,.111-.111,.167-.168,.048-.049,.096-.098,.146-.148,.306-.257,.6-.272,.987-.271q.076,0,.153-.001c.11,0,.219-.001,.329-.001,.174,0,.348-.001,.522-.003,.494-.004,.988-.006,1.482-.007,.303-.001,.605-.003,.908-.006,.115,0,.23-.001,.345-.001,.161,0,.322-.001,.484-.003,.047,0,.094,0,.142,0,.537-.008,.945-.195,1.336-.557,.29-.325,.453-.726,.456-1.161,0-.063,0-.125,.001-.19,0-.069,0-.137,0-.208q0-.109,.001-.219c.001-.24,.002-.48,.003-.72,0-.082,0-.164,0-.249,.001-.389,.002-.779,.003-1.168,0-.449,.002-.897,.005-1.346,.002-.389,.003-.778,.003-1.168,0-.165,.001-.33,.002-.495,.002-.232,.002-.463,.001-.695,0-.068,.002-.136,.003-.206-.004-.594-.177-1.063-.58-1.505-.369-.323-.794-.437-1.274-.439q-.067,0-.135,0c-.149,0-.299,0-.448-.001-.107,0-.214,0-.321-.001-.351-.001-.703-.002-1.054-.003-.121,0-.242,0-.363,0-.569-.001-1.138-.002-1.707-.003-.656,0-1.312-.002-1.968-.005-.507-.002-1.015-.003-1.522-.003-.303,0-.606,0-.909-.002-.285-.002-.57-.002-.856-.001-.104,0-.209,0-.313-.001-.778-.006-1.432,.078-1.97,.692Z"/>
    <path class="cls-2" d="M38.172,38.802c.314,.164,.503,.391,.668,.698,.117,.418,.077,.737-.13,1.112-.176,.252-.384,.418-.678,.516-.435,.049-.784,.037-1.143-.229-.251-.231-.355-.42-.398-.752-.017-.434,.011-.724,.288-1.064,.394-.364,.882-.458,1.392-.281Z"/>
    <path class="cls-2" d="M45.903,38.811c.303,.174,.536,.391,.636,.734,.047,.362,.063,.723-.107,1.055-.213,.269-.425,.419-.75,.528-.454,.048-.752,.009-1.121-.264-.269-.284-.382-.522-.42-.911,.011-.354,.143-.651,.387-.908,.386-.335,.893-.412,1.376-.234Z"/>
    <path class="cls-2" d="M42.071,38.823c.291,.205,.529,.446,.643,.787,.035,.393,.036,.723-.198,1.055-.304,.306-.535,.47-.977,.478-.354-.006-.589-.066-.847-.323-.305-.341-.373-.59-.366-1.045,.029-.353,.188-.551,.442-.779,.376-.314,.848-.322,1.302-.173Z"/>
  </g>
</svg>