<?xml version="1.0" encoding="UTF-8"?>
<svg id="a" xmlns="http://www.w3.org/2000/svg" width="83.06" height="83.06" viewBox="0 0 83.06 83.06">
  <defs>
    <style>
      .cls-1 {
        fill: #eae5ff;
      }

      .cls-2 {
        fill: #6232d7;
      }
    </style>
  </defs>
  <circle class="cls-1" cx="41.53" cy="41.53" r="41.53"/>
  <g>
    <g>
      <path class="cls-2" d="M59.367,23.07v6.967h-7.72v-5.825q.512-.096,.766-.134c.029-.004,.058-.009,.088-.013,.096-.014,.191-.029,.287-.043,.069-.01,.138-.021,.208-.031,.167-.025,.335-.05,.502-.076,.136-.02,.272-.041,.408-.061,.386-.058,.773-.116,1.159-.174,.021-.003,.042-.006,.063-.009q.031-.005,.063-.009c.337-.051,.675-.102,1.012-.152,.347-.052,.695-.105,1.042-.157,.195-.029,.389-.059,.584-.088,.183-.028,.366-.055,.548-.082,.067-.01,.134-.02,.201-.03,.092-.014,.183-.028,.275-.041q.04-.006,.08-.012c.025-.004,.049-.007,.075-.011q.032-.005,.064-.01c.098-.009,.197-.007,.295-.007Zm-.668,.6c-.023,.003-.047,.007-.071,.01-.026,.004-.052,.008-.078,.012-.027,.004-.054,.008-.083,.012-.092,.013-.184,.027-.276,.04-.066,.01-.131,.019-.197,.029-.16,.023-.32,.047-.48,.07-.186,.027-.372,.055-.559,.082-.332,.049-.664,.097-.996,.146-.323,.047-.645,.095-.968,.142q-.03,.004-.061,.009c-.175,.026-.349,.051-.524,.077-.753,.11-1.505,.221-2.258,.331v4.877h6.717v-5.853c-.057,0-.11,.007-.167,.015Z"/>
      <path class="cls-2" d="M51.647,30.539h7.72v6.8q-.251,0-.366-.017-.039-.006-.079-.012t-.085-.013c-.03-.005-.061-.009-.092-.014-.102-.015-.203-.031-.305-.046-.073-.011-.146-.022-.219-.033-.177-.027-.355-.053-.532-.08-.206-.031-.413-.062-.619-.093-.368-.055-.737-.111-1.105-.167-.357-.054-.715-.108-1.072-.162q-.033-.005-.067-.01c-.022-.003-.044-.007-.067-.01-.407-.061-.814-.123-1.221-.184-.144-.022-.288-.043-.432-.065-.175-.026-.351-.053-.526-.079-.089-.014-.179-.027-.268-.04-.097-.015-.194-.029-.291-.044-.028-.004-.057-.009-.086-.013-.026-.004-.052-.008-.078-.012-.022-.003-.045-.007-.068-.01q-.058-.011-.141-.038v-5.658Zm.502,.53v4.71q1.188,.178,2.376,.357c.16,.024,.32,.048,.48,.072,.02,.003,.04,.006,.061,.009,.324,.049,.648,.097,.972,.146,.332,.05,.665,.1,.997,.15,.205,.031,.411,.062,.616,.092,.157,.024,.314,.047,.471,.071,.065,.01,.129,.019,.194,.029,.088,.013,.176,.026,.264,.04,.026,.004,.052,.008,.079,.012q.103,.018,.207,.026v-5.713h-6.717Z"/>
      <path class="cls-2" d="M51.201,24.268v5.825h-6.048v-4.961q1.46-.217,2.071-.307c.422-.062,.844-.125,1.266-.188,.307-.046,.615-.091,.922-.137,.163-.024,.326-.048,.488-.072,.153-.023,.306-.045,.46-.068,.056-.008,.112-.017,.169-.025,.077-.011,.154-.023,.23-.034q.033-.005,.067-.01c.021-.003,.042-.006,.063-.009,.018-.003,.035-.005,.054-.008,.085-.008,.171-.006,.257-.006Zm-.895,.612c-.019,.003-.039,.006-.058,.009-.064,.009-.128,.019-.193,.029-.046,.007-.092,.014-.139,.02-.125,.018-.25,.037-.376,.056-.131,.02-.262,.039-.393,.058-.22,.033-.44,.065-.66,.098-.283,.042-.565,.084-.848,.126-.243,.036-.486,.072-.729,.108-.078,.012-.156,.023-.234,.035-.123,.018-.245,.036-.368,.055-.045,.007-.09,.013-.135,.02-.061,.009-.123,.018-.184,.027-.034,.005-.069,.01-.104,.015-.077,.012-.153,.027-.23,.042v4.013h5.017v-4.738c-.129,0-.239,.008-.365,.026Z"/>
      <path class="cls-2" d="M45.154,30.539h6.048v5.602q-.448-.032-.652-.063c-.023-.003-.047-.007-.071-.01-.077-.011-.154-.023-.231-.034-.056-.008-.112-.016-.167-.025-.15-.022-.301-.045-.451-.067-.158-.023-.315-.047-.473-.07-.298-.044-.596-.088-.893-.133-.403-.06-.805-.12-1.208-.179-.634-.094-1.268-.188-1.901-.282v-4.738Zm.502,.53v3.762q1.078,.168,2.157,.33c.039,.006,.077,.011,.116,.017,.201,.03,.402,.059,.602,.089,.185,.027,.371,.055,.556,.082,.162,.024,.324,.048,.485,.072,.096,.014,.191,.028,.287,.042,.105,.016,.211,.031,.316,.047,.031,.005,.062,.009,.094,.014,.029,.004,.057,.008,.087,.013,.025,.004,.049,.007,.075,.011,.08,.008,.16,.008,.24,.008v-4.487h-5.017Z"/>
    </g>
    <g>
      <path class="cls-2" d="M38.267,26.065c.142,0,.283-.001,.425-.003,1.145-.006,2.305,.271,3.16,1.083,1.623,1.81,1.666,4.313,1.67,6.611,.006,2.241,.621,3.642,2.026,5.346,.402,.491,.764,1.008,1.121,1.531q.043,.063,.087,.127c1.907,2.787,3.056,5.315,2.448,8.731-.008,.043-.016,.085-.024,.129,.034,.022,.067,.043,.102,.066,.045,.031,.091,.063,.138,.095,.044,.03,.089,.06,.135,.091,.439,.412,.617,.879,.749,1.454,.203,.801,.466,1.391,.998,2.033,.37,.47,.511,.881,.483,1.483-.067,.495-.329,.708-.713,1.002-.289,.201-.598,.356-.912,.513-.135,.069-.27,.138-.404,.208-.065,.033-.129,.066-.196,.1-.922,.475-1.802,1.032-2.439,1.869-.451,.552-1.127,.921-1.772,1.198-.05,.022-.099,.045-.15,.068-.695,.263-1.724,.262-2.402-.043-.599-.347-1.102-.82-1.33-1.492-.13-.187-.333-.204-.545-.251-.194-.032-.389-.055-.584-.075-.055-.006-.111-.012-.168-.018-.179-.019-.358-.037-.536-.055-.061-.006-.122-.012-.185-.018-.939-.091-1.821-.114-2.756,.035-.14,.019-.28,.038-.42,.057-.142,.021-.284,.041-.426,.063-.064,.009-.129,.019-.195,.028-.566,.094-1.119,.27-1.478,.744-.455,.547-1.003,.778-1.71,.845-1.145,.033-2.213-.313-3.259-.746-1.027-.416-2.055-.597-3.148-.741-.848-.113-1.632-.232-2.222-.907-.249-.521-.116-1.198,.006-1.737,.144-.699,.108-1.397,.088-2.107q-.034-1.333,.273-1.711c.33-.331,.725-.494,1.156-.657,.457-.183,.826-.355,1.156-.731,.044-.047,.088-.094,.134-.142,.092-.1,.182-.202,.269-.306q.125-.146,.247-.258c.254-.258,.293-.472,.292-.832-.003-.108-.006-.216-.01-.323-.074-2.515,1.238-4.982,2.636-6.994,.049-.07,.097-.14,.147-.212,.312-.445,.64-.876,.976-1.303,.869-1.11,1.525-2.184,1.85-3.573,.015-.062,.03-.124,.045-.188,.199-1.02,.111-2.114,.045-3.145-.124-2.005-.006-4.054,1.343-5.653,.981-1.056,2.404-1.294,3.778-1.285Zm-.213,5.188c-.394,.487-.626,1.148-.57,1.78,.093,.169,.153,.246,.333,.319,.047,.009,.094,.018,.142,.028,.083,.016,.166,.033,.252,.05,.018-.069,.037-.139,.055-.21,.024-.091,.048-.182,.073-.273,.012-.046,.024-.091,.037-.138,.051-.191,.103-.38,.166-.568,.243-.132,.453-.172,.727-.132,.213,.174,.362,.339,.463,.595,.043,.479,.012,.929-.132,1.388q.368,.249,.793,.264c.215-.218,.26-.468,.31-.76,.008-.047,.016-.094,.025-.142,.123-.745,.132-1.421-.292-2.078-.294-.37-.62-.579-1.088-.654-.528-.03-.928,.156-1.293,.533Zm-3.789,.201c-.41,.63-.463,1.218-.339,1.95,.1,.404,.23,.781,.584,1.017,.087-.065,.174-.131,.264-.198-.019-.045-.038-.09-.058-.136-.184-.48-.262-.877-.14-1.384,.096-.164,.191-.264,.33-.396,.05,.031,.101,.063,.153,.095q.175,.11,.376,.169,.058,.175,.103,.392,.053,.298,.227,.533c.209-.101,.32-.155,.463-.33,.107-.515,.019-1.014-.264-1.454-.269-.368-.488-.613-.95-.686-.328,.047-.543,.175-.749,.428Zm.972,2.901c-.065,.053-.131,.105-.198,.16-.177,.144-.353,.289-.529,.435q-.065,.053-.131,.106-.195,.154-.331,.356c-.037,.385,.036,.553,.264,.859,.645,.689,1.68,1.565,2.66,1.623,.739-.038,1.437-.45,2.082-.785,.07-.035,.14-.07,.212-.106,.548-.284,1.188-.64,1.391-1.261,.037-.252,.013-.37-.099-.599-.401-.471-1.015-.682-1.569-.925-.076-.034-.152-.068-.231-.103-1.439-.637-2.258-.781-3.52,.24Zm5.187,2.703c-.519,.337-1.055,.638-1.602,.928-.068,.037-.136,.073-.206,.111-.732,.382-1.46,.62-2.276,.376-.437-.174-.8-.463-1.17-.748-.059-.045-.118-.09-.178-.137-.139-.108-.278-.216-.416-.326-.128,.193-.156,.272-.189,.491q-.014,.088-.029,.177c-.01,.063-.02,.126-.03,.19-.122,.708-.305,1.372-.545,2.049-.017,.05-.035,.1-.052,.152-.286,.821-.641,1.608-1.005,2.396-.773,1.674-1.434,3.3-1.627,5.15q-.025,.231-.091,.297c-.064-.121-.127-.242-.19-.363q-.053-.101-.107-.204c-.481-1.087-.307-2.444,.099-3.529,.212-.528,.449-1.047,.716-1.55,.025-.056,.051-.111,.077-.169l-.066-.132c-.96,1.536-1.875,3.395-1.516,5.254,.296,1.152,1.099,1.787,2.051,2.397,1.074,.692,2.17,1.512,2.546,2.801,.061,.333,.002,.564-.174,.849-.214,.17-.456,.287-.727,.33,.104,.603,.668,1.102,1.129,1.458,1.137,.756,2.662,.854,3.972,.6,.952-.211,2.342-.644,2.898-1.504,.093-.232,.121-.471,.155-.717,.008-.055,.016-.111,.025-.168,.026-.177,.051-.355,.077-.532,.034-.231,.067-.461,.101-.692,.008-.057,.017-.114,.025-.173,.059-.402,.119-.804,.181-1.205q.012-.076,.023-.154c.129-.824,.37-1.548,1.062-2.054,.335-.25,.478-.514,.638-.895,.098-.191,.166-.27,.354-.372,.937-.168,2.028,.225,2.792,.739,.248,.253,.405,.54,.578,.847,.044,.065,.087,.131,.132,.198q.09-.076,.087-.277c-.031-.384-.17-.543-.443-.794-.326-.276-.646-.514-1.033-.696-.191-.123-.279-.215-.395-.414-.037-.25-.036-.499-.037-.752-.034-1.43-.41-2.628-1.218-3.808-.044-.022-.087-.044-.132-.066,.086,.226,.186,.442,.295,.658,.606,1.231,.757,2.561,.432,3.902-.24-.044-.48-.087-.727-.132-.101-.296-.199-.592-.283-.893-.311-1.11-.773-2.131-1.265-3.171-.737-1.558-1.374-3.139-1.943-4.768-.134-.383-.271-.764-.408-1.146-.139,0-.251,.118-.364,.191Zm-8.755,4.897l.066,.132-.066-.132Zm-.066,.132l.066,.132-.066-.132Zm12.952,.132l.066,.132-.066-.132Zm.463,6.212c-.231,.42-.254,.768-.12,1.231,.117,.324,.298,.504,.57,.71,.3,.086,.557,.035,.828-.104,.313-.199,.569-.401,.77-.714q.055-.201,0-.396c-.374-.433-.989-.774-1.561-.863q-.272-.003-.487,.136Zm-17.484,2.26c-.474,.65-1.043,.945-1.784,1.205-.371,.169-.56,.39-.715,.765-.068,.223-.062,.445-.055,.675,0,.051,.001,.101,.002,.154,.002,.161,.005,.322,.009,.483q.025,1.248-.128,1.792c-.04,.315-.032,.531,.112,.818,.44,.499,1.103,.512,1.728,.593,1.145,.149,2.146,.389,3.203,.848,.954,.412,1.826,.523,2.832,.204,.33-.147,.533-.33,.7-.649q.04-.076,.082-.153c.183-.382,.204-.811,.09-1.22-.237-.56-.601-1.063-.969-1.543-.324-.426-.602-.874-.881-1.33-.157-.254-.318-.504-.478-.756-.211-.331-.418-.664-.617-1.002-.035-.059-.07-.118-.106-.179-.066-.113-.132-.226-.198-.339-.322-.547-.654-1.01-1.268-1.24-.745-.142-1.157,.312-1.558,.873Zm16.559-.873c-.523,.561-.686,1.243-.76,1.987-.016,.14-.032,.28-.049,.42-.008,.072-.016,.143-.025,.217-.131,1.113-.332,2.175-.654,3.249-.188,.632-.329,1.443-.043,2.066,.34,.544,.727,.847,1.333,1.049,.925,.093,1.648-.248,2.379-.793,.33-.283,.644-.583,.957-.885,.714-.668,1.538-1.107,2.407-1.538q.66-.313,1.069-.882c-.017-.539-.411-1.037-.752-1.431-.347-.472-.477-1.002-.617-1.562-.121-.456-.27-.814-.665-1.099-.389-.125-.77-.144-1.144,.037-.142,.08-.28,.167-.418,.253-.512,.317-1.074,.648-1.696,.564-.416-.129-.661-.347-.863-.726-.064-.14-.124-.28-.182-.422-.021-.049-.041-.097-.062-.147-.05-.119-.099-.237-.148-.356h-.066Z"/>
      <path class="cls-2" d="M35.171,38.121c.246,.069,.395,.184,.578,.355,.445,.397,.863,.556,1.463,.533,.525-.075,.965-.336,1.411-.608,.315-.191,.541-.274,.909-.281-.225,.24-.493,.392-.772,.562-.051,.032-.103,.064-.156,.097-.65,.398-1.319,.626-2.091,.493-.339-.091-.604-.28-.88-.491-.046-.035-.093-.069-.14-.105q-.24-.19-.322-.292v-.264Z"/>
    </g>
  </g>
</svg>