<?xml version="1.0" encoding="UTF-8"?><svg id="a" xmlns="http://www.w3.org/2000/svg" width="83.06" height="83.06" viewBox="0 0 83.06 83.06"><circle cx="41.53" cy="41.53" r="41.53" fill="#eae5ff"/><path d="M24.525,20.067c.147,0,.294,0,.441-.001.401,0,.802,0,1.203,0,.434,0,.867,0,1.301-.001.849-.001,1.697-.001,2.546-.001.69,0,1.38,0,2.07,0,.098,0,.197,0,.298,0,.2,0,.4,0,.599,0,1.872-.001,3.744,0,5.616,0,1.711,0,3.422,0,5.133-.002,1.759-.002,3.517-.003,5.276-.002.987,0,1.973,0,2.96-.001.84-.001,1.68-.001,2.52,0,.428,0,.856,0,1.284,0,.393-.001.785,0,1.178,0,.141,0,.283,0,.424,0,1.697-.009,3.139.283,4.424,1.459.388.413.67.836.929,1.339.031.06.061.12.093.181.464.985.452,2.047.449,3.114,0,.149,0,.297,0,.446,0,.406,0,.812,0,1.218,0,.439,0,.878,0,1.317,0,.859,0,1.717,0,2.576,0,.698,0,1.396,0,2.094,0,.099,0,.199,0,.301v.606c0,1.894,0,3.787,0,5.681,0,1.624,0,3.248,0,4.871.001,1.887.001,3.774,0,5.661,0,.201,0,.403,0,.604,0,.099,0,.198,0,.3,0,.697,0,1.394,0,2.091,0,.85,0,1.7,0,2.549,0,.433,0,.867,0,1.3,0,.397,0,.794,0,1.191,0,.143,0,.286,0,.43.005,1.691-.277,3.141-1.453,4.418-1.341,1.235-2.845,1.458-4.612,1.453-.147,0-.294,0-.441.001-.401,0-.802,0-1.203,0-.434,0-.867,0-1.301.001-.849.001-1.697.001-2.546.001-.69,0-1.38,0-2.07,0-.098,0-.197,0-.298,0-.2,0-.4,0-.599,0-1.872.001-3.744,0-5.616,0-1.711,0-3.422,0-5.133.002-1.759.002-3.517.003-5.276.002-.987,0-1.973,0-2.96.001-.84.001-1.68.001-2.52,0-.428,0-.856,0-1.284,0-.393.001-.785,0-1.178,0-.141,0-.283,0-.424,0-1.697.009-3.139-.283-4.424-1.459-.388-.413-.67-.836-.929-1.339q-.046-.09-.093-.181c-.464-.985-.452-2.047-.449-3.114,0-.149,0-.297,0-.446,0-.406,0-.812,0-1.218,0-.439,0-.878,0-1.317,0-.859,0-1.717,0-2.576,0-.698,0-1.396,0-2.094,0-.099,0-.199,0-.301,0-.202,0-.404,0-.606,0-1.894,0-3.787.001-5.681,0-1.624,0-3.248,0-4.871-.001-1.887-.001-3.774,0-5.661,0-.201,0-.403,0-.604,0-.099,0-.198,0-.3,0-.697,0-1.394,0-2.091,0-.85,0-1.7,0-2.549,0-.433,0-.867,0-1.3,0-.397,0-.794,0-1.191,0-.143,0-.286,0-.43-.005-1.691.277-3.141,1.453-4.418,1.341-1.235,2.845-1.458,4.612-1.453ZM20.454,22.502c-1.242,1.57-.923,3.297-.923,5.303h39.903q.158-3.105-1.205-5.598c-1.004-.931-2.146-1.097-3.458-1.094-.136,0-.273,0-.409-.001-.374-.001-.748-.001-1.122,0-.404,0-.807-.001-1.211-.002-.791-.002-1.581-.002-2.372-.002-.643,0-1.286,0-1.929-.001-1.824-.002-3.647-.003-5.471-.002-.098,0-.197,0-.298,0-.098,0-.197,0-.298,0-1.594,0-3.188-.002-4.782-.004-1.638-.003-3.276-.004-4.913-.004-.919,0-1.838,0-2.757-.003-.783-.002-1.565-.002-2.348,0-.399,0-.798,0-1.197-.001-.366-.002-.732-.001-1.098,0-.194,0-.387-.001-.581-.003-1.381.01-2.573.383-3.53,1.413ZM19.532,28.758c-.008,5.254-.016,10.508-.024,15.922-.003,1.659-.007,3.319-.011,5.028q-.001,1.487-.002,2.974c0,.662-.002,1.325-.004,1.987-.002.764-.004,1.529-.003,2.293,0,.391,0,.782-.002,1.173-.002.354-.002.708,0,1.062,0,.187-.001.375-.003.562.009,1.31.353,2.392,1.254,3.357,1.004.933,2.15,1.098,3.462,1.095.137,0,.274,0,.411.001.375.001.75.001,1.126,0,.405,0,.81.001,1.215.002.793.002,1.587.002,2.38.002.645,0,1.29,0,1.935.001,1.829.002,3.659.003,5.488.002q.148,0,.299,0t.299,0c1.599,0,3.199.002,4.798.004,1.643.003,3.286.004,4.929.004.922,0,1.844,0,2.766.003.785.002,1.57.002,2.356,0,.4,0,.801,0,1.201.001.367.002.734.001,1.101,0,.194,0,.389.001.583.003,1.293-.01,2.326-.368,3.279-1.255.922-.995,1.098-2.125,1.092-3.426,0-.133,0-.265,0-.398,0-.364,0-.729-.001-1.093,0-.399,0-.798,0-1.197,0-.774,0-1.548-.002-2.323-.001-.896-.002-1.791-.002-2.687-.001-2.364-.004-4.729-.006-7.093-.004-5.282-.008-10.563-.012-16.005H19.532Z" fill="#6232d7"/><path d="M31.975,31.87c1.339.529,2.264,1.516,2.89,2.792.116.282.212.562.286.857q.028.097.057.196c.035.257.024.426-.013.679-.093.75-.107,1.362.372,1.983.432.487.91.921,1.393,1.357.166.156.331.313.496.469.401.381.808.755,1.219,1.126.467-.391.906-.798,1.333-1.232.063-.063.126-.127.191-.192.136-.137.271-.273.407-.41.215-.217.43-.433.645-.65.612-.615,1.223-1.23,1.833-1.846.374-.378.749-.755,1.125-1.132.142-.143.284-.287.426-.43.199-.201.398-.402.598-.602.058-.059.115-.118.175-.178.784-.78,1.669-1.26,2.789-1.276.075,0,.15.002.227.003.079,0,.158.002.24.002,1.146.031,1.929.456,2.745,1.245.831.897,1.109,1.986,1.063,3.195-.208,1.633-1.272,2.58-2.389,3.675-.162.161-.323.321-.484.482-.422.42-.846.839-1.271,1.257-.434.428-.866.858-1.298,1.287-.847.841-1.695,1.679-2.545,2.517.564.659,1.134,1.308,1.731,1.938.124.132.245.266.365.402q.765.888,1.832,1.267c.406.01.802-.024,1.205-.069.446-.031.841.105,1.248.272.091.036.182.072.276.109,1.275.568,2.254,1.564,2.8,2.85.198.547.346,1.032.256,1.612-.176.341-.384.537-.75.673-.374-.007-.657-.081-.964-.292-.107-.137-.214-.274-.32-.411q-.193-.214-.442-.351c-.466,0-.876.14-1.315.286-.231.07-.461.139-.692.208q-.152.049-.307.099-.256.073-.542.073-.015.086-.031.175c-.08.429-.174.843-.312,1.257q-.323.867-.17,1.725c.223.213.453.379.704.557.205.325.237.569.19.952q-.301.531-.571.667c-1.143.082-2.243-.38-3.106-1.116-.868-.777-1.425-1.664-1.75-2.788-.02-.067-.04-.133-.061-.202-.032-.261-.015-.398.042-.648.124-.679.116-1.241-.275-1.832-.606-.762-1.34-1.421-2.053-2.081-.296-.277-.587-.559-.879-.841-.57-.55-1.146-1.094-1.726-1.633-.27.123-.466.252-.675.461q-.083.083-.169.167c-.06.06-.12.121-.182.183q-.096.096-.194.193c-.212.211-.423.423-.633.635-.147.147-.295.295-.442.442-.309.309-.618.619-.926.929-.394.396-.789.791-1.183,1.185-.305.305-.609.609-.913.914-.145.146-.291.291-.436.437-.204.204-.408.409-.612.614-.059.059-.119.119-.18.18-.602.606-1.156,1.243-1.668,1.926q-.685.91-1.329,1.03-1.342.176-1.841-.097c-.195-.168-.358-.335-.52-.534q-.103-.111-.208-.224c-.372-.544-.216-1.343-.101-1.967.126-.599.574-.931,1.048-1.274.497-.369.955-.767,1.404-1.193.066-.062.132-.124.2-.188.703-.666,1.388-1.349,2.072-2.035.132-.132.265-.265.397-.397.343-.343.685-.687,1.028-1.03.352-.353.704-.705,1.056-1.057.686-.687,1.372-1.375,2.058-2.063-.148-.344-.355-.58-.61-.853-.042-.046-.085-.091-.129-.138-.393-.42-.793-.834-1.194-1.247-.269-.276-.535-.554-.797-.837q-1.244-1.467-2.947-2.125c-.306.018-.599.061-.899.123-.434.067-.837-.095-1.233-.257q-.137-.054-.276-.109c-1.444-.643-2.327-1.747-2.889-3.202-.148-.431-.215-.8-.168-1.26.218-.346.363-.53.75-.673.374.007.657.081.964.292.106.137.212.274.317.411q.193.215.445.351c.481,0,.915-.141,1.369-.286.123-.036.247-.072.37-.107.225-.065.449-.132.673-.201q.254-.073.445-.073.036-.166.073-.335.024-.107.048-.217c.034-.157.068-.314.102-.471.098-.454.224-.878.378-1.317q.083-.262.065-.518c-.186-.272-.383-.458-.641-.663-.24-.215-.32-.362-.407-.67.013-.383.035-.593.28-.893.609-.48,1.298-.216,1.973.005ZM31.055,32.757c.039.043.078.085.118.129q.559.627.644,1.014c-.048.679-.227,1.323-.407,1.978-.051.189-.101.378-.15.567-.033.12-.065.24-.099.363-.029.109-.059.218-.089.33-.125.319-.219.461-.493.666-.237.091-.458.164-.701.228-.068.019-.135.037-.205.057-.143.039-.286.078-.429.115-.217.058-.434.118-.651.179-.139.038-.279.075-.418.113-.064.018-.128.036-.194.055-.434.112-.775.113-1.212.015q-.232-.155-.423-.339-.097-.092-.196-.185c-.047-.047-.095-.094-.143-.142q-.128.283.007.547c.051.098.101.197.154.298.049.098.099.196.15.297.497.86,1.261,1.425,2.165,1.81q.13.056.262.113c1.189.297,2.321.175,3.399-.423.818-.52,1.325-1.115,1.768-1.976.033-.063.065-.126.099-.191.404-.962.314-2.311-.063-3.262-.554-1.101-1.422-1.961-2.607-2.356h-.286ZM45.828,35.651c-.062.063-.123.126-.187.191-.068.068-.136.136-.206.206-.221.222-.442.445-.662.668-.154.155-.309.31-.464.465-.404.406-.808.813-1.211,1.22-.412.416-.826.831-1.239,1.247-.809.813-1.617,1.628-2.425,2.443.312.37.626.733.968,1.075.072.072.145.145.219.219.076.076.152.151.231.229q.119.119.241.241c.252.251.504.503.757.754.172.171.344.343.515.514.419.418.839.836,1.258,1.254.463-.387.902-.791,1.329-1.217.062-.062.125-.124.189-.187.205-.203.409-.406.613-.609.07-.07.14-.14.213-.212.371-.369.742-.739,1.113-1.109.382-.381.764-.76,1.147-1.139.296-.293.591-.587.885-.882.141-.14.282-.28.423-.42.198-.196.395-.393.591-.59.058-.057.116-.113.175-.171.664-.672,1.113-1.482,1.165-2.44-.02-.777-.347-1.608-.893-2.167-1.539-1.34-3.398-.923-4.75.417ZM34.769,39.043c-.095.153-.188.309-.28.464-.588.933-1.316,1.597-2.292,2.107.52.633,1.097,1.205,1.677,1.783.112.112.223.223.335.335.302.302.604.603.906.905.316.316.632.632.948.948.598.597,1.196,1.195,1.794,1.792.681.68,1.362,1.361,2.043,2.041,1.4,1.399,2.8,2.798,4.201,4.196.219-.213.376-.418.536-.679.557-.844,1.243-1.42,2.131-1.893-.52-.632-1.096-1.205-1.675-1.783-.112-.112-.223-.223-.335-.335-.301-.302-.603-.603-.905-.905-.316-.316-.632-.632-.947-.948-.53-.53-1.059-1.059-1.589-1.589-.613-.613-1.226-1.226-1.839-1.839-.526-.527-1.053-1.053-1.579-1.58-.315-.314-.629-.629-.943-.943-.295-.295-.59-.59-.885-.885-.109-.108-.217-.217-.326-.326-.147-.148-.295-.295-.443-.442q-.124-.124-.251-.251-.156-.186-.282-.175ZM36.537,47.919c-.054.054-.107.108-.162.164-.062.062-.123.124-.187.187-.068.069-.135.137-.205.208q-.107.108-.216.217c-.155.156-.311.313-.466.47-.246.249-.493.498-.74.746-.703.707-1.405,1.414-2.106,2.123-.429.433-.858.865-1.288,1.297-.163.164-.326.328-.488.493q-1.56,1.58-2.461,2.235c-.429.315-.598.591-.692,1.108-.024.27-.012.411.112.654.246.294.437.442.822.496.611-.028.844-.157,1.263-.608.136-.178.269-.359.4-.541.664-.887,1.465-1.645,2.25-2.422.163-.163.326-.325.489-.488.426-.424.852-.848,1.278-1.271.437-.434.872-.868,1.308-1.302.853-.85,1.706-1.698,2.56-2.546-.169-.362-.382-.598-.667-.881-.084-.085-.169-.17-.256-.257q-.267-.245-.548-.08ZM45.739,53.024c-.877,1.068-1.099,2.295-.97,3.637.271,1.275,1.127,2.248,2.19,2.952.224.123.422.204.667.286q.141-.047.286-.095c-.047-.048-.094-.097-.142-.147-.061-.066-.122-.131-.185-.199-.061-.064-.122-.128-.184-.194-.194-.279-.222-.455-.25-.794.048-.26.103-.501.175-.754.019-.07.038-.141.057-.213.06-.223.122-.446.184-.669.041-.151.082-.302.123-.453q.286-1.052.413-1.434.173-.078.404-.138c.086-.024.173-.047.261-.071.095-.025.19-.05.287-.076.204-.059.408-.118.611-.177.215-.06.43-.12.645-.18.108-.031.216-.063.328-.095q1.029-.284,1.559-.119.232.155.423.339.097.092.196.185.071.071.143.142c.104-.262.103-.361-.004-.627-.673-1.184-1.466-1.983-2.777-2.428-1.676-.403-3.258.061-4.439,1.324Z" fill="#6232d7"/><path d="M44.967,23.972q.154,0,.311-.002h.342c.119,0,.237,0,.359,0,.326,0,.652,0,.977,0,.341,0,.681,0,1.022,0,.572,0,1.144,0,1.716.001.662.001,1.324,0,1.985,0,.568,0,1.135,0,1.703,0,.339,0,.679,0,1.018,0,.378,0,.756,0,1.134.001.113,0,.226,0,.342-.001q.154,0,.311.002.134,0,.271,0,.213.024.404.214-.055.626-.19.762c-.157.01-.315.013-.473.013q-.154,0-.31.002c-.113,0-.227,0-.343,0-.119,0-.237,0-.359.001-.326.001-.652.002-.979.002-.204,0-.407,0-.611.001-.636.001-1.273.002-1.909.003-.736,0-1.472.002-2.207.005-.568.002-1.136.003-1.704.003-.34,0-.679,0-1.019.002-.379.002-.757.001-1.136,0q-.17.001-.343.003c-.103,0-.205-.001-.311-.002q-.134,0-.271,0c-.07-.012-.141-.023-.214-.035-.205-.307-.227-.406-.19-.762.244-.244.335-.214.675-.215Z" fill="#6232d7"/><path d="M47.911,36.091q.19.286.193.501c-.146.391-.411.627-.705.917-.063.064-.127.128-.192.194-.21.211-.421.421-.633.631-.146.146-.293.293-.439.439-.307.307-.614.613-.922.918-.395.392-.788.786-1.181,1.179-.302.302-.604.604-.907.906-.145.145-.29.29-.435.435-.202.203-.406.404-.609.606-.06.06-.12.121-.182.183-.056.055-.111.109-.169.166-.048.048-.096.096-.145.145-.177.134-.311.178-.53.208q-.214-.101-.381-.286c-.054-.286-.061-.48.105-.728.158-.178.324-.344.495-.51.064-.064.128-.128.193-.194.211-.211.424-.42.637-.629.147-.146.294-.292.441-.439.387-.385.775-.768,1.164-1.151.318-.313.634-.628.95-.943.376-.374.753-.748,1.13-1.122.072-.072.145-.143.219-.217.204-.202.408-.403.612-.605.061-.06.122-.12.184-.182q.588-.578,1.107-.423Z" fill="#6232d7"/><path d="M49.625,37.805q.19.286.193.501c-.145.391-.41.628-.702.919-.063.064-.126.128-.191.194-.209.212-.42.422-.63.632-.146.147-.292.293-.437.44-.306.307-.612.614-.919.92-.394.392-.785.787-1.176,1.182-.301.303-.602.605-.905.907-.145.145-.289.29-.433.436-.201.204-.404.405-.608.607q-.089.091-.18.184c-.276.269-.413.4-.802.461q-.256-.049-.446-.24c-.055-.287-.062-.48.105-.728.158-.178.324-.344.495-.51.064-.064.128-.128.193-.194.211-.211.424-.42.637-.629.147-.146.294-.292.441-.439.387-.385.775-.768,1.164-1.151.318-.313.634-.628.95-.943.376-.374.753-.748,1.13-1.122.072-.072.145-.143.219-.217.204-.202.408-.403.612-.605.061-.06.122-.12.184-.182q.588-.578,1.107-.423Z" fill="#6232d7"/><path d="M31.722,23.425c.306.221.45.495.571.851,0,.454-.142.804-.452,1.137-.302.151-.543.191-.881.202-.345-.133-.625-.279-.857-.571-.115-.345-.126-.59-.095-.952.161-.317.291-.513.589-.708.393-.079.74-.078,1.125.042Z" fill="#6232d7"/><path d="M24.317,23.502c.272.216.433.362.484.714.006.388,0,.664-.169,1.019-.345.269-.665.364-1.101.381-.362-.067-.605-.216-.851-.494-.132-.351-.166-.663-.101-1.03.166-.331.286-.516.607-.702.455-.108.714-.119,1.131.113Z" fill="#6232d7"/><path d="M28.025,23.478c.328.285.442.479.554.899-.019.415-.121.684-.399.994-.401.223-.743.293-1.19.179-.36-.205-.565-.396-.696-.792-.038-.401-.024-.62.161-.982.436-.507.972-.591,1.571-.298Z" fill="#6232d7"/><path d="M40.884,23.973c.211,0,.422-.004.633-.007.133,0,.267-.001.4-.001.122,0,.244-.002.37-.003.096.011.192.022.291.034q.19.286.167.53-.071.232-.262.423c-.392.038-.785.031-1.179.03-.195,0-.39.002-.586.004-.123,0-.246,0-.372,0-.113,0-.226,0-.342,0q-.283-.035-.466-.162-.102-.159-.078-.457c.16-.612.89-.39,1.425-.392Z" fill="#6232d7"/></svg>