<?xml version="1.0" encoding="UTF-8"?>
<svg id="a" xmlns="http://www.w3.org/2000/svg" width="83.06" height="83.06" viewBox="0 0 83.06 83.06">
  <defs>
    <style>
      .cls-1 {
        fill: #eae5ff;
      }

      .cls-2 {
        fill: #6232d7;
      }
    </style>
  </defs>
  <circle class="cls-1" cx="41.53" cy="41.53" r="41.53"/>
  <g>
    <path class="cls-2" d="M41.34,26.197c.178,0,.357-.001,.535-.003,1.16-.004,2.054,.223,2.918,1.04,.446,.459,.665,.972,.905,1.556,.182,.433,.387,.78,.693,1.14q.048,.064,.097,.128c.668,.845,1.754,1.28,2.777,1.493,.514,.044,1.013,.03,1.525-.031,1.09-.128,1.952,.043,2.85,.697,.415,.367,.703,.789,.978,1.267,.034,.058,.068,.117,.103,.177,.664,1.152,1.131,2.16,.839,3.517-.157,.531-.427,1.009-.782,1.431-.791,.949-1.103,2.126-1.037,3.349,.108,.932,.463,1.75,1.033,2.491,.724,.97,.978,1.907,.827,3.105-.294,1.247-1.238,2.778-2.27,3.518-.607,.372-1.196,.495-1.894,.492-.054,0-.107,0-.162,0-.28,0-.538-.02-.814-.069-1.306-.07-2.53,.235-3.531,1.113-.1,.094-.198,.189-.296,.285-.043,.041-.085,.082-.129,.125-.468,.486-.754,1.1-1.002,1.721-.362,.893-.983,1.479-1.844,1.885-.459,.192-.911,.237-1.404,.237-.057,0-.114,0-.172,0-.12,0-.239,0-.359,0-.181,0-.361,.001-.542,.003-1.135,.004-1.978-.174-2.841-.955-.413-.438-.676-.879-.91-1.432-.208-.489-.438-.916-.759-1.34-.029-.039-.058-.078-.089-.119-.676-.883-1.877-1.376-2.949-1.521-.172-.008-.344-.009-.516-.008q-.067,0-.135,0c-.256,0-.492,.027-.746,.069-.701,.048-1.348,.032-2.005-.243q-.066-.025-.132-.051c-.982-.428-1.475-1.353-1.983-2.235-.034-.058-.067-.116-.102-.176-.525-.932-.745-1.905-.514-2.965,.157-.531,.427-1.009,.782-1.431,.79-.948,1.104-2.126,1.037-3.349-.125-1.008-.479-1.78-1.081-2.576-.697-.933-.934-1.899-.771-3.049,.3-1.225,1.235-2.815,2.296-3.512,.866-.512,1.753-.581,2.728-.433,1.248,.173,2.416-.184,3.451-.879,.798-.611,1.297-1.446,1.637-2.381,.316-.812,.977-1.416,1.744-1.794,.067-.026,.134-.052,.203-.078q.062-.024,.125-.049c.549-.184,1.117-.162,1.689-.16Zm-1.875,2.153c-.276,.322-.444,.642-.592,1.037-.619,1.548-1.785,2.661-3.296,3.338-.806,.332-1.581,.445-2.449,.437-.075,0-.15,0-.227,0-.331-.002-.642-.012-.969-.072-.539-.054-1.053,.059-1.496,.383-.328,.311-.532,.745-.752,1.135-.051,.09-.103,.179-.154,.269-.375,.658-.576,1.198-.418,1.968,.13,.368,.36,.631,.611,.924,1.053,1.317,1.294,2.978,1.177,4.615-.131,1.101-.582,2.135-1.271,2.999-.386,.489-.631,.959-.62,1.591,.064,.474,.324,.891,.554,1.302,.026,.047,.052,.095,.08,.144,.364,.651,.684,1.212,1.409,1.493,.433,.121,.828,.066,1.268,.004,1.572-.219,3.233,.183,4.515,1.135,.108,.086,.216,.174,.323,.262q.055,.042,.111,.085c.844,.658,1.386,1.698,1.773,2.675,.205,.489,.47,.806,.953,1.033,.45,.184,.908,.169,1.386,.17,.131,0,.263,.002,.394,.004,.622,.005,1.202-.033,1.702-.444,.331-.327,.527-.658,.702-1.086,.047-.108,.093-.216,.14-.324,.022-.051,.044-.102,.067-.154,.629-1.396,1.89-2.445,3.29-3.011,1.129-.428,2.333-.491,3.516-.286,.516,.057,1.021-.076,1.439-.391,.264-.252,.439-.57,.618-.885,.076-.133,.153-.264,.231-.396,.055-.095,.11-.191,.165-.287q.039-.067,.079-.135c.278-.494,.401-.993,.263-1.551-.145-.379-.334-.705-.596-1.014-1.083-1.296-1.343-3-1.226-4.636,.095-.73,.315-1.42,.668-2.066,.032-.061,.065-.122,.098-.184,.183-.329,.386-.63,.615-.928,.347-.454,.55-.875,.486-1.459-.07-.38-.195-.678-.391-1.009-.027-.047-.054-.094-.082-.143q-.6-1.086-1.6-1.763c-.334-.063-.661-.071-.997-.012-1.385,.217-2.725-.012-3.962-.638-.064-.032-.129-.065-.195-.098-1.325-.724-2.171-1.881-2.739-3.254-.204-.478-.468-.915-.958-1.139-.048-.023-.097-.046-.146-.07-.424-.153-.873-.129-1.317-.131-.127,0-.253-.002-.379-.004-.685-.006-1.295,.061-1.799,.566Z"/>
    <path class="cls-2" d="M47.424,34.73c.056,.048,.112,.096,.17,.146,.394,.345,.728,.713,1.045,1.13q.037,.048,.075,.097c1.436,1.87,2.043,4.296,1.747,6.628-.332,2.335-1.535,4.499-3.415,5.944-1.968,1.472-4.401,2.117-6.838,1.772-2.377-.371-4.542-1.648-5.966-3.599-1.43-2.028-1.981-4.452-1.574-6.898,.416-2.322,1.738-4.427,3.67-5.787,3.372-2.302,7.992-2.156,11.087,.569Zm-11.3,1.762c-1.471,1.642-2.059,3.653-1.944,5.832,.185,1.864,1.164,3.684,2.608,4.874,1.642,1.306,3.616,1.878,5.706,1.67,1.455-.202,2.709-.824,3.836-1.745,.046-.036,.091-.072,.138-.11,.347-.287,.62-.629,.895-.984,.041-.052,.083-.104,.126-.157,1.153-1.5,1.569-3.44,1.375-5.299-.264-1.909-1.277-3.693-2.806-4.872-3.073-2.294-7.256-1.946-9.934,.79Z"/>
    <path class="cls-2" d="M46.008,38.109c.212,.134,.303,.267,.383,.509,.045,.35-.047,.568-.243,.851-.142,.168-.296,.322-.451,.477-.045,.046-.09,.091-.137,.138-.149,.15-.298,.3-.447,.449-.104,.105-.208,.21-.312,.314-.218,.219-.437,.438-.656,.657-.279,.279-.557,.56-.835,.841-.215,.217-.43,.433-.646,.648-.103,.103-.205,.206-.307,.31q-1.279,1.295-2.088,1.335c-.757-.036-1.245-.35-1.763-.878-.049-.049-.098-.098-.148-.148-.103-.103-.205-.206-.307-.31-.156-.159-.314-.316-.471-.474-.1-.1-.2-.201-.299-.302-.047-.047-.094-.094-.142-.143-.043-.044-.087-.088-.132-.134q-.057-.058-.116-.117c-.193-.226-.247-.414-.237-.715,.032-.222,.108-.388,.262-.552,.235-.159,.465-.204,.744-.155,.356,.088,.553,.311,.797,.573,.046,.047,.091,.094,.138,.143,.145,.15,.289,.301,.432,.452,.144,.152,.289,.304,.435,.454,.09,.094,.18,.188,.269,.283,.041,.042,.082,.084,.124,.128,.035,.038,.071,.075,.107,.114q.112,.088,.259,.058c.175-.051,.246-.104,.373-.233,.04-.04,.08-.08,.121-.121,.043-.044,.085-.088,.13-.133,.046-.046,.092-.092,.139-.139,.099-.1,.198-.2,.297-.301,.156-.159,.313-.317,.47-.476,.334-.336,.666-.673,.999-1.01,.385-.39,.771-.78,1.157-1.169,.155-.156,.309-.313,.463-.469,.095-.096,.19-.191,.284-.287,.043-.044,.085-.088,.13-.133,.361-.362,.723-.593,1.227-.338Z"/>
  </g>
</svg>