<?xml version="1.0" encoding="UTF-8"?><svg id="a" xmlns="http://www.w3.org/2000/svg" width="67.36" height="67.36" viewBox="0 0 67.36 67.36"><rect width="67.36" height="67.36" rx="12.09" ry="12.09" fill="#5138cc"/><path d="M46.552,23.513c.353.169.585.524.825.823.054.066.109.132.164.199.112.136.222.272.333.408.195.238.393.473.592.708.252.297.501.595.747.897.26.319.525.632.794.944.325.377.643.758.956,1.144.192.235.388.466.585.697.252.297.501.595.747.897.302.372.613.736.926,1.099.107.124.213.248.319.372.036.041.071.082.108.125q.343.402.343.702-.072.16-.225.301c-.225.027-.422.035-.647.029q-.095,0-.191-.001c-.201-.002-.403-.005-.604-.009-.137-.002-.273-.003-.41-.004-.335-.003-.669-.009-1.004-.015,0,.06.001.12.002.181.025,4.077-.976,8.484-3.837,11.532q-.153.163-.302.355c-.221.273-.478.486-.749.708-.071.058-.141.117-.214.177-1.856,1.499-4.172,2.339-6.56,2.327-.088,0-.176,0-.267-.001-1.766-.024-3.459-.47-4.985-1.375.173-.173.283-.204.515-.275q.112-.035.225-.071c.08-.025.16-.05.242-.076,1.5-.488,3.067-1.172,4.177-2.338q.102-.096.252-.096c.019-.044.039-.089.058-.134.1-.182.206-.286.36-.425.403-.394.708-.848,1.01-1.32.051-.08.103-.159.155-.241,1.422-2.343,1.761-5.177,1.841-7.862.003-.104.007-.208.01-.313.008-.251.016-.503.023-.754q-.139.001-.28.002c-.343.003-.685.004-1.028.006-.148,0-.297.002-.445.003-.213.002-.426.003-.639.003-.067,0-.133.002-.202.002-.162,0-.325-.008-.487-.017q-.15-.15-.188-.344c.057-.381.264-.611.499-.91.097-.128.195-.256.292-.384.05-.065.1-.13.152-.197.229-.3.452-.604.675-.908.088-.119.175-.238.263-.357.043-.059.087-.118.131-.178.132-.18.265-.359.398-.538.428-.579.854-1.16,1.275-1.745.42-.583.845-1.162,1.272-1.74.188-.254.373-.508.558-.764.047-.065.095-.13.144-.198.091-.125.181-.25.272-.376.041-.056.082-.113.124-.171.036-.05.072-.099.109-.15.228-.268.425-.429.792-.356Z" fill="#fff"/><path d="M34.751,19.15q.102.021.205.043c2.407.524,4.616,1.646,6.409,3.339.1.085.2.169.301.254.741.65,1.312,1.428,1.879,2.227-.1.211-.212.397-.35.586-.039.054-.079.109-.119.165-.042.058-.084.115-.127.174-.043.059-.086.119-.131.18-.133.183-.267.366-.4.548-.042.057-.084.114-.127.173-.233.318-.466.636-.7.954-.258-.236-.435-.498-.615-.794-1.469-2.332-3.806-3.982-6.49-4.612-.815-.179-1.597-.249-2.43-.25-.052,0-.104,0-.158,0-.8.001-1.553.044-2.331.244q-.076.019-.154.038c-1.736.433-3.451,1.278-4.707,2.575q-.175.168-.325.168c-.018.042-.036.084-.054.128-.118.212-.265.36-.435.535-1.396,1.5-2.262,3.552-2.518,5.576-.008.063-.016.126-.025.191-.297,2.685.431,5.543,2.09,7.694.252.314.518.613.791.909.057.062.114.125.173.189,1.903,1.99,4.664,3.079,7.39,3.144.853.007,1.675-.07,2.508-.252.056-.012.111-.024.169-.037,1.679-.382,3.187-1.176,4.491-2.293.062-.053.125-.107.189-.161.682-.597,1.238-1.229,1.717-1.998q.061-.085.122-.171h.15c-.501,2.254-1.97,4.285-3.904,5.527-1.076.664-2.244,1.107-3.452,1.467-.387.127-.549.248-.761.597-.042.092-.083.185-.122.278-.034.082-.068.164-.104.248-2.111.059-4.211-.216-6.163-1.052-.051-.022-.103-.044-.156-.067-1.408-.61-2.683-1.44-3.808-2.486-.118-.107-.239-.209-.364-.307-.212-.171-.376-.358-.552-.565-.113-.133-.228-.264-.344-.395-2.403-2.718-3.523-6.364-3.314-9.961.273-3.76,1.997-7.195,4.828-9.683,1.951-1.658,4.218-2.645,6.717-3.143.053-.011.107-.022.162-.033,1.569-.305,3.391-.219,4.949.108Z" fill="#fff"/><path d="M32.271,27.944c.223.134.408.29.526.526.007.125.009.251.009.376,0,.078,0,.156,0,.237,0,.085,0,.169-.001.257,0,.087,0,.173,0,.262,0,.277-.001.554-.002.832,0,.188,0,.375-.001.563,0,.461-.002.921-.004,1.382.058.022.115.045.174.068.368.15.705.361,1.048.559.135.078.27.154.405.231.085.049.171.098.259.149.078.045.156.089.236.135.247.161.45.319.583.586q.044.533-.141.822c-.245.238-.438.27-.781.265-.433-.074-.794-.335-1.163-.561-.087-.052-.174-.104-.262-.156-.17-.102-.339-.204-.508-.307-.187-.114-.374-.226-.563-.336q-.684-.405-.866-.704-.029-.211-.029-.456c0-.092-.001-.184-.002-.279,0-.099,0-.198.001-.301,0-.103,0-.206,0-.309,0-.216,0-.432.001-.648.001-.276,0-.553,0-.829,0-.213,0-.426,0-.639,0-.151,0-.302-.001-.454,0-.092.001-.185.002-.28,0-.081,0-.162,0-.246.033-.251.107-.392.254-.596.258-.193.514-.188.827-.15Z" fill="#fff"/><path d="M38.434,25.99c.263.228.435.382.474.733-.056.585-.589.994-1.001,1.372-.261.13-.542.12-.827.075-.29-.229-.43-.397-.489-.761.054-.419.272-.603.564-.893.047-.05.093-.101.142-.152.363-.384.598-.528,1.136-.374Z" fill="#fff"/><path d="M27.085,37.564c.205.226.288.376.338.676-.096.575-.603.975-1.015,1.353-.261.13-.542.12-.827.075-.29-.229-.43-.397-.489-.761.054-.419.272-.603.564-.893.047-.05.093-.101.142-.152.406-.43.722-.552,1.286-.299Z" fill="#fff"/><path d="M37.757,37.489c.217.159.407.34.601.526.045.037.09.073.136.111.242.207.345.364.395.683.015.298-.032.476-.23.709-.265.177-.409.195-.721.189-.344-.073-.545-.32-.782-.565-.045-.037-.089-.074-.135-.112-.243-.206-.346-.364-.396-.682-.013-.301.021-.48.23-.709.323-.216.532-.283.902-.15Z" fill="#fff"/><path d="M26.258,25.99c.217.159.408.34.601.526.045.038.09.075.136.114.22.192.344.353.395.638.016.301-.057.501-.23.752-.213.174-.468.195-.74.189-.326-.078-.535-.331-.763-.565-.045-.042-.089-.084-.135-.127-.277-.263-.379-.419-.414-.803.028-.322.092-.428.324-.648.296-.172.503-.183.827-.075Z" fill="#fff"/><path d="M32.421,39.744c.22.169.288.262.376.526.019.222.017.444.019.667.002.06.003.121.005.183.002.357-.019.588-.249.879-.223.191-.389.245-.676.23-.243-.019-.318-.095-.504-.263-.244-.314-.227-.636-.219-1.019-.001-.066-.003-.132-.004-.2.002-.327.021-.558.228-.82.322-.297.615-.292,1.026-.183Z" fill="#fff"/><path d="M32.44,23.486c.222.166.339.354.38.632.01.185.012.367.01.552q.002.094.005.19c0,.423-.062.656-.338.98-.26.13-.543.112-.827.075-.216-.135-.338-.224-.451-.451-.02-.245-.017-.491-.019-.737-.002-.068-.003-.136-.005-.206-.002-.373.002-.634.249-.936.292-.219.657-.202.996-.099Z" fill="#fff"/><path d="M23.881,31.983l.172-.005c.348-.002.568.026.852.249.16.204.22.34.258.597-.042.291-.153.452-.334.681-.28.14-.612.099-.921.103-.071.003-.142.006-.215.009-.335.004-.592.005-.866-.203-.239-.281-.239-.427-.218-.782.061-.273.193-.394.416-.555.286-.095.557-.092.855-.094Z" fill="#fff"/></svg>