<?xml version="1.0" encoding="UTF-8"?><svg id="a" xmlns="http://www.w3.org/2000/svg" width="71" height="71" viewBox="0 0 71 71"><rect width="71" height="71" rx="6.855" ry="6.855" fill="#fff"/><path d="M34.145,17.492c-3.72.422-7.048,2.435-9.134,5.534-4.013,5.948-2.236,14.053,3.9,17.83,1.589.98,3.607,1.659,5.331,1.779l.655.053v4.931l-.316.09c-.429.128-.971.475-1.303.852-.264.286-.715,1.123-.715,1.319,0,.075-.61.098-2.786.098s-2.786-.023-2.786-.098c0-.196-.452-1.033-.715-1.319-.791-.875-2.041-1.214-3.14-.837-.858.286-1.416.799-1.822,1.651-.211.445-.233.558-.233,1.214,0,.679.015.746.286,1.289,1.129,2.292,4.307,2.262,5.406-.053.12-.249.218-.498.218-.55,0-.068.61-.09,2.786-.09,2.304,0,2.786.015,2.786.106,0,.053.12.339.264.633.324.641.768,1.071,1.468,1.402.444.211.557.234,1.212.234.678,0,.745-.015,1.288-.286.67-.332,1.099-.769,1.423-1.448.12-.249.218-.498.218-.55,0-.068.61-.09,2.786-.09,2.304,0,2.786.015,2.786.106,0,.053.12.339.264.633.602,1.206,1.943,1.862,3.238,1.598.979-.196,1.724-.792,2.176-1.734.211-.445.233-.558.233-1.206s-.023-.769-.233-1.206c-.407-.859-.964-1.365-1.845-1.659-.971-.332-2.161-.06-2.959.679-.324.302-.873,1.236-.873,1.478,0,.09-.482.106-2.786.106s-2.786-.015-2.786-.106c0-.241-.55-1.176-.873-1.47-.316-.302-1.152-.761-1.37-.761-.075,0-.09-.52-.075-2.473l.023-2.465.633-.06c5.045-.452,9.457-4.139,10.881-9.085.693-2.405.64-5.081-.151-7.479-.279-.852-1.167-2.586-1.739-3.393-.663-.92-1.973-2.239-2.884-2.88-1.325-.942-2.801-1.621-4.367-2.013-1.453-.354-2.952-.46-4.367-.302ZM37.714,18.842c1.544.309,3.065.957,4.345,1.847.889.618,2.334,2.096,2.922,2.978,1.325,2.005,1.928,4.011,1.928,6.408,0,1.877-.354,3.438-1.137,5.014-.324.656-1.22,2.073-1.31,2.073-.03,0-.098-.113-.166-.249-.211-.437-1.054-1.508-1.641-2.088-1.408-1.38-3.291-2.375-5.256-2.767-.911-.181-2.899-.181-3.795,0-1.83.369-3.441,1.169-4.932,2.45-.542.46-1.498,1.606-1.83,2.186-.143.256-.279.467-.309.467-.083,0-1.069-1.561-1.355-2.164-.399-.829-.768-1.983-.941-2.925-.188-1.01-.196-3.023-.008-3.996.565-2.94,2.108-5.413,4.495-7.207,1.581-1.191,3.321-1.87,5.685-2.209.542-.075,2.59.03,3.306.181ZM37.292,33.272c2.199.475,4.081,1.666,5.406,3.43.264.362.572.829.693,1.048l.203.4-.459.437c-1.416,1.342-3.524,2.375-5.64,2.767-1.039.196-2.952.196-3.991,0-2.071-.384-4.134-1.387-5.565-2.699-.61-.565-.61-.52.038-1.493,1.453-2.171,3.772-3.634,6.34-3.996.655-.09,2.319-.03,2.974.106ZM24.612,48.862c.648.196,1.25,1.025,1.25,1.719,0,.935-.873,1.809-1.807,1.809-.474,0-.858-.173-1.242-.565-.768-.761-.768-1.726,0-2.488.527-.535,1.092-.679,1.8-.475ZM36.057,48.862c.648.196,1.25,1.025,1.25,1.719,0,.935-.873,1.809-1.807,1.809s-1.807-.875-1.807-1.809c0-.475.173-.859.565-1.244.527-.535,1.092-.679,1.8-.475ZM47.502,48.862c.648.196,1.25,1.025,1.25,1.719,0,.935-.873,1.809-1.807,1.809s-1.807-.875-1.807-1.809c0-.475.173-.859.565-1.244.527-.535,1.092-.679,1.8-.475Z" fill="#6232d7"/><path d="M34.634,22.325c-.678.128-1.536.603-2.101,1.161-1.288,1.297-1.604,3.166-.806,4.81,1.257,2.601,4.736,3.174,6.754,1.123,1.634-1.666,1.626-4.275-.008-5.926-.994-1.01-2.41-1.44-3.84-1.169ZM36.735,23.727c.685.317,1.122.754,1.461,1.432.264.543.279.611.279,1.297s-.015.754-.279,1.297c-.339.686-.776,1.108-1.476,1.44-.459.219-.572.241-1.22.241s-.761-.023-1.22-.241c-.7-.332-1.137-.754-1.476-1.44-.264-.543-.279-.611-.279-1.289,0-.656.023-.769.241-1.229.301-.641.73-1.108,1.295-1.402.587-.317.919-.392,1.604-.362.459.023.693.083,1.069.256Z" fill="#6232d7"/></svg>