<?xml version="1.0" encoding="UTF-8"?><svg id="a" xmlns="http://www.w3.org/2000/svg" width="67.36" height="67.36" viewBox="0 0 67.36 67.36"><g id="b"><rect width="67.36" height="67.36" rx="12.09" ry="12.09" fill="#5138cc"/></g><path d="M32.709,18.205c-3.857.401-7.072,2.608-8.768,6.024-1.702,3.436-1.462,7.48.641,10.722,1.773,2.731,4.834,4.581,8.03,4.872l.518.045.019,2.116c.013,1.676,0,2.122-.065,2.122-.188,0-.906.395-1.178.654-.278.252-.751,1.055-.751,1.262,0,.078-.414.091-2.394.091s-2.394-.013-2.394-.091c0-.045-.104-.291-.226-.537-.278-.556-.666-.932-1.249-1.204-.395-.188-.492-.207-1.048-.207s-.654.019-1.048.207c-.602.285-.977.647-1.268,1.236-.226.466-.239.524-.239,1.113s.013.647.239,1.113c.291.589.666.951,1.268,1.236.395.188.492.207,1.048.207s.654-.019,1.048-.207c.582-.272.971-.647,1.249-1.204.123-.246.226-.492.226-.537,0-.078.414-.091,2.394-.091s2.394.013,2.394.091c0,.045.104.291.226.537.278.556.666.932,1.249,1.204.395.188.492.207,1.048.207s.654-.019,1.048-.207c.582-.272.971-.647,1.249-1.204.123-.246.226-.492.226-.537,0-.078.414-.091,2.394-.091s2.394.013,2.394.091c0,.045.104.291.226.537.278.556.666.932,1.249,1.204.395.188.492.207,1.048.207s.654-.019,1.048-.207c.602-.285.977-.647,1.268-1.236.226-.466.239-.524.239-1.113s-.013-.647-.239-1.113c-.291-.589-.666-.951-1.268-1.236-.395-.188-.492-.207-1.048-.207s-.654.019-1.048.207c-.582.272-.971.647-1.249,1.204-.123.246-.226.492-.226.537,0,.078-.414.091-2.394.091s-2.394-.013-2.394-.091c0-.207-.472-1.009-.751-1.262-.272-.259-.99-.654-1.178-.654-.065,0-.078-.446-.065-2.122l.019-2.116.55-.045c1.592-.129,3.378-.764,4.821-1.695,4.322-2.808,6.095-8.405,4.161-13.135-1.553-3.792-4.885-6.315-8.949-6.768-.55-.058-1.611-.071-2.103-.019ZM35.582,19.39c1.326.265,2.634.822,3.734,1.585.764.531,2.006,1.799,2.511,2.556,1.139,1.721,1.656,3.442,1.656,5.5,0,1.611-.304,2.951-.977,4.303-.278.563-1.048,1.779-1.126,1.779-.026,0-.084-.097-.142-.214-.181-.375-.906-1.294-1.411-1.792-1.21-1.184-2.828-2.038-4.517-2.375-.783-.155-2.491-.155-3.261,0-1.559.317-2.964,1.009-4.238,2.103-.466.395-1.288,1.378-1.572,1.876-.123.22-.239.401-.265.401-.071,0-.919-1.339-1.165-1.857-.343-.712-.66-1.702-.809-2.511-.162-.867-.168-2.595-.006-3.429.485-2.524,1.812-4.646,3.863-6.186,1.359-1.022,2.854-1.605,4.885-1.896.466-.065,2.226.026,2.841.155Z" fill="#fff"/><path d="M32.936,22.379c-.175.032-.556.175-.848.311-2.219,1.074-2.711,4.051-.951,5.791,1.766,1.747,4.704,1.255,5.785-.971,1.307-2.705-1.009-5.694-3.986-5.131Z" fill="#fff"/></svg>