<?xml version="1.0" encoding="UTF-8"?><svg id="a" xmlns="http://www.w3.org/2000/svg" width="67.36" height="67.36" viewBox="0 0 67.36 67.36"><g id="b"><rect width="67.36" height="67.36" rx="12.09" ry="12.09" fill="#5138cc"/></g><path d="M30.204,17.971c-4.217.268-7.769,1.342-9.194,2.786-.466.466-.639.85-.639,1.393s.141.85.62,1.355c1.776,1.878,7.169,3.092,12.593,2.83.811-.038,1.763-.109,2.115-.147l.639-.077.045-.863c.109-2.262.971-4.306,2.505-5.923.275-.294.492-.543.479-.556-.038-.038-1.438-.345-2.07-.447-2.153-.364-4.792-.498-7.092-.351Z" fill="#fff"/><path d="M44.643,18.348c-3.188.505-5.616,2.824-6.242,5.968-.179.92-.134,2.294.102,3.201.562,2.115,2,3.853,3.968,4.798.997.479,1.757.671,2.882.709,2.166.083,4.006-.633,5.52-2.153,2.882-2.882,2.882-7.501,0-10.402-.99-.997-2.147-1.642-3.61-2-.594-.147-2.025-.211-2.62-.121ZM46.746,21.287c1.655.422,2.894,1.668,3.303,3.316.179.703.147,1.802-.064,2.415l-.134.403.243.243c.288.288.364.556.262.926-.102.396-.339.562-1.374.965-.767.3-.99.364-1.201.339-.294-.038-.537-.204-.69-.466-.166-.288-.441-2.083-.358-2.37.134-.486.664-.786,1.156-.652.141.038.268.051.288.026.019-.019.051-.288.064-.601.026-.46,0-.645-.109-.971-.262-.786-.907-1.425-1.687-1.661-.971-.3-1.974-.045-2.658.677-.773.818-.952,1.898-.479,2.952.3.684.141,1.208-.434,1.45-.268.109-.332.115-.575.045-.39-.121-.645-.422-.869-1.048-.767-2.121.013-4.345,1.93-5.501.345-.211,1.137-.505,1.508-.569.466-.077,1.412-.038,1.878.083Z" fill="#fff"/><path d="M20.345,27.88c.019,2.728,0,2.607.652,3.297,2.319,2.46,10.395,3.604,16.81,2.377.767-.147,1.93-.428,2.051-.498.051-.032-.07-.173-.332-.396-1.156-.997-2.204-2.556-2.684-4.025-.096-.3-.192-.562-.211-.588-.019-.019-.371,0-.773.051-2.045.243-5.099.243-7.348-.006-3.29-.364-6.223-1.259-7.91-2.409l-.275-.192.019,2.39Z" fill="#fff"/><path d="M20.345,35.547l.019,2.383.179.364c.53,1.08,2.383,2.096,4.977,2.728,6.453,1.578,15.347.53,17.935-2.108.594-.613.613-.684.633-2.485l.019-1.572-.486-.109c-.268-.064-.703-.185-.965-.275l-.486-.166-1.163.383c-2.773.92-6.185,1.367-9.616,1.265-4.568-.141-8.344-1.029-10.613-2.492l-.454-.294.019,2.377Z" fill="#fff"/><path d="M20.345,43.272c.019,2.37.019,2.39.173,2.671,1.457,2.735,9.379,4.242,16.542,3.144,2.466-.377,4.734-1.169,5.916-2.064.486-.364.958-.952,1.061-1.316.038-.141.064-1.163.064-2.524v-2.287l-.364.249c-3.31,2.243-10.779,3.163-17.015,2.083-2.613-.447-4.837-1.246-6.249-2.243l-.147-.102.019,2.39Z" fill="#fff"/></svg>