<?xml version="1.0" encoding="UTF-8"?><svg id="a" xmlns="http://www.w3.org/2000/svg" width="67.36" height="67.36" viewBox="0 0 67.36 67.36"><rect width="67.36" height="67.36" rx="12.09" ry="12.09" fill="#5138cc"/><path d="M33.645,18.411h.178c.935.003,1.846.046,2.762.245.059.013.118.026.179.038,1.896.426,3.704,1.195,5.273,2.339.044.031.088.063.131.096,1.012.745,1.942,1.582,2.708,2.58.061.075.12.149.183.226,1.172,1.457,1.758,2.471,1.758,3.042.085-.006.17-.013.256-.019,1.398.006,2.661.652,3.653,1.596.858.889,1.47,2.086,1.483,3.334,0,.09.002.181.003.272,0,.097,0,.195.002.295v.151c0,.264.003.53.003.794,0,.271.003.541.006.81.002.21.003.421.003.631,0,.147.003.295.005.442-.003,1.537-.602,2.773-1.651,3.881-.986.954-2.315,1.486-3.693,1.481-.547-.017-.943-.066-1.19-.147-.017.051-.034.103-.051.155-.12.266-.285.479-.466.705-.037.045-.072.091-.11.138-.368.455-.759.884-1.164,1.307-.054.058-.109.115-.165.175-1.736,1.8-4.176,3.113-6.616,3.624-.456.079-.873.237-1.251.474-.073.138-.133.279-.181.423-.235.631-.865.97-1.444,1.243-.671.271-1.601.269-2.288.045-.858-.375-1.473-.959-1.862-1.806-.271-.762-.275-1.686.046-2.432.437-.85.996-1.396,1.894-1.749.869-.272,1.717-.16,2.541.207.57.306,1.058.773,1.335,1.361v.149c2.399-.647,4.378-1.564,6.199-3.27.048-.043.096-.085.144-.13.879-.82,1.555-1.853,2.096-2.916.024-.046.048-.094.074-.143,1.432-2.829,1.643-6.13.655-9.135-.234-.679-.53-1.313-.878-1.941-.043-.078-.086-.159-.13-.24-.474-.844-1.07-1.587-1.737-2.287-.067-.07-.133-.143-.202-.216-1.902-1.989-4.719-3.292-7.478-3.44-.306-.008-.612-.01-.919-.008-.054,0-.109,0-.163,0-1.416.006-2.671.239-4.01.692-.05.017-.101.034-.152.051-1.523.522-2.869,1.456-4.03,2.549-.072.066-.143.133-.216.202-1.643,1.555-2.713,3.633-3.219,5.817-.011.051-.024.102-.035.155-.618,2.781-.122,5.68,1.195,8.189.191.378.255.693.139,1.113-.183.37-.386.564-.775.721-.048.021-.094.04-.144.062-1.335.508-2.783.351-4.082-.168-.674-.307-1.163-.706-1.675-1.231-.051-.053-.102-.104-.155-.159-.778-.837-1.268-1.976-1.275-3.122,0-.091,0-.181-.002-.275v-.448c0-.266-.002-.532-.002-.797,0-.272-.002-.544-.005-.817,0-.211-.002-.423-.002-.634,0-.149-.002-.296-.003-.445.002-.825.141-1.566.527-2.301.026-.05.053-.101.078-.152.668-1.251,1.752-2.157,3.11-2.578.458-.139.902-.243,1.382-.237.054,0,.109.002.165.003.048,0,.094,0,.143.002.011-.04.024-.082.037-.123.138-.44.322-.823.557-1.22.035-.061.072-.122.109-.184.37-.615.788-1.185,1.241-1.742.037-.045.072-.09.11-.136,2.359-2.905,5.87-4.722,9.593-5.124.49-.043.982-.04,1.472-.037l-.008-.003Z" fill="#fff"/><path d="M35.914,23.561c.048.011.096.024.146.037,2.399.616,4.448,2.16,5.736,4.263,1.241,2.125,1.689,4.69,1.087,7.095-.709,2.56-2.283,4.682-4.613,6.008-.633.346-1.291.6-1.982.801-.054.016-.109.032-.165.048-.837.231-1.665.277-2.528.277h-.296c-.496-.006-.964-.037-1.449-.146-.464-.077-.764-.042-1.171.197-.085.049-.171.099-.258.149-.09.054-.181.107-.271.162-.093.054-.186.109-.28.163-.429.25-.855.504-1.279.759-.067.04-.135.082-.205.123-.123.075-.248.151-.371.226-.541.33-.953.482-1.585.344-.306-.122-.466-.298-.618-.589-.192-.551-.011-1.153.146-1.689.021-.072.04-.144.061-.219.064-.229.128-.458.194-.687.066-.231.13-.461.194-.692.04-.143.08-.285.122-.428.018-.064.035-.13.054-.195.016-.056.032-.114.048-.171.029-.178.011-.287-.05-.455-.094-.123-.195-.242-.299-.357-1.375-1.64-2.05-3.742-2.04-5.865v-.275c.01-.703.062-1.366.247-2.046.014-.053.029-.106.043-.159.355-1.276.967-2.466,1.824-3.481.053-.064.107-.128.162-.194,1.39-1.588,3.155-2.616,5.215-3.076.077-.018.154-.036.232-.054,1.271-.248,2.697-.183,3.95.13l.002-.002ZM29.014,32.073c-.163.343-.179.624-.122.998.163.365.383.538.741.697.253.075.428.046.679-.027.322-.173.538-.327.673-.669.04-.338.04-.636-.08-.956-.232-.253-.479-.423-.818-.482-.463-.019-.761.106-1.071.439l-.002.002ZM32.706,32.115c-.154.415-.147.804.032,1.207.235.247.456.394.785.492.407,0,.658-.117.97-.371.253-.285.263-.567.25-.934-.04-.274-.138-.426-.325-.626-.607-.412-1.233-.291-1.713.232h.002ZM36.441,32.115c-.154.415-.147.804.032,1.207.235.247.456.394.785.492.407,0,.658-.117.97-.371.255-.288.258-.57.245-.938-.029-.24-.08-.367-.245-.548-.322-.232-.57-.349-.972-.327-.338.066-.583.231-.817.484l.002.002Z" fill="#fff"/></svg>