<?xml version="1.0" encoding="UTF-8"?><svg id="a" xmlns="http://www.w3.org/2000/svg" width="67.36" height="67.36" viewBox="0 0 67.36 67.36"><rect width="67.36" height="67.36" rx="12.09" ry="12.09" fill="#5138cc"/><path d="M28.491,18.581h4.371c.612,0,1.223,0,1.834-.001.525,0,1.049-.001,1.575-.001h2.591c.042,0,.086,0,.129-.001.298.004.468.075.693.266.167.229.199.39.199.671,0,.076,0,.153.001.232v8.945c0,1.057,0,2.116.001,3.173.001,1.086.003,2.171.001,3.257v5.729c-.045.281-.181.468-.397.646-.212.088-.407.091-.633.087h-.141c-.153,0-.306-.001-.46-.003h-.319c-.279,0-.56-.003-.84-.004-.286-.001-.571-.003-.857-.004-.56-.001-1.12-.005-1.681-.009v1.943c.136.038.272.078.413.117.612.351,1.015.833,1.296,1.471v.117h3.709c.038-.116.078-.233.117-.353.335-.639.797-1.085,1.471-1.354.02-.622.038-1.243.059-1.884h1.766v1.884c.136.038.272.078.413.117.612.351,1.015.833,1.296,1.471v.117c.038,0,.076,0,.116-.001.399-.005.799-.009,1.197-.012.149,0,.298-.003.447-.005.215-.003.428-.004.643-.005.066,0,.133-.003.202-.004.368,0,.592.012.869.262.239.307.223.627.177,1-.129.272-.265.395-.53.53-.103.016-.21.024-.32.025-.062,0-.125.003-.19.004h-.202c-.068,0-.137,0-.208.003-.22.003-.439.005-.659.007-.149.001-.298.004-.447.007-.365.005-.73.009-1.094.012-.02.041-.04.082-.061.123-.026.053-.053.107-.079.161-.026.053-.051.105-.079.159-.294.563-.815.936-1.392,1.168-.7.214-1.559.196-2.214-.14-.637-.377-.967-.816-1.296-1.471h-3.709c-.098.194-.194.389-.294.589-.414.589-.999.981-1.707,1.119-.878.091-1.615-.024-2.326-.576-.374-.333-.568-.68-.794-1.131h-3.767c-.098.194-.194.389-.294.589-.414.589-.999.981-1.707,1.119-.878.091-1.615-.024-2.326-.576-.295-.264-.506-.551-.681-.904-.021-.042-.042-.084-.063-.128-.016-.033-.032-.065-.049-.098h-.116c-.399-.003-.799-.007-1.197-.012-.149-.001-.298-.003-.447-.004-.215,0-.428-.004-.643-.007h-.202c-.365-.007-.593-.024-.869-.272-.239-.307-.223-.627-.177-1,.129-.272.265-.395.53-.53.103-.014.21-.021.32-.02h.19c.067,0,.133.001.202.003h.208c.22,0,.439.003.659.005.149,0,.298.001.447.003.365.001.73.005,1.094.009.017-.065.034-.129.053-.195.181-.604.667-1.047,1.199-1.354.202-.105.354-.158.455-.158v-1.884h1.766c.02.622.038,1.243.059,1.884.194.098.389.194.589.294.459.351.768.765,1,1.296v.117h3.767c.038-.116.078-.233.117-.353.335-.639.797-1.085,1.471-1.354.02-.641.038-1.283.059-1.943-.142,0-.286.002-.432.004-.472.004-.944.007-1.414.008-.286,0-.572.003-.858.005-.275.003-.552.004-.828.004-.105,0-.211,0-.315.003-.148.001-.295.001-.443.001-.043,0-.087.001-.132.003-.301-.003-.472-.07-.7-.265-.167-.229-.199-.39-.199-.671,0-.076,0-.154-.001-.232v-8.945c0-1.057,0-2.116-.001-3.173-.001-1.086-.003-2.171-.001-3.257v-5.729c.045-.281.181-.468.398-.646.21-.088.401-.092.623-.091h-.004ZM30.031,22.547c-.161.264-.156.525-.117.824.129.264.264.407.53.53.286.079.573.067.867.067h1.967c.353,0,.708,0,1.061.001h1.919c.382-.001.703-.017,1.003-.277.232-.272.273-.42.265-.768-.028-.217-.108-.34-.254-.501-.357-.265-.734-.244-1.161-.244h-1.967c-.353,0-.708,0-1.061-.001h-1.919c-.442.003-.8.046-1.132.369ZM30.031,26.08c-.161.264-.156.525-.117.824.129.264.264.407.53.53.286.079.573.067.867.067h1.967c.353,0,.708,0,1.061.001h1.919c.382-.001.703-.017,1.003-.277.232-.272.273-.42.265-.768-.028-.217-.108-.34-.254-.501-.357-.265-.734-.244-1.161-.244h-1.967c-.353,0-.708,0-1.061-.001h-1.919c-.442.003-.8.046-1.132.369ZM30.031,29.611c-.161.264-.156.525-.117.824.129.264.264.407.53.53.283.078.569.067.862.067h1.948c.351,0,.7,0,1.051.001h1.899c.381-.001.7-.017.999-.277.232-.272.273-.42.265-.768-.028-.217-.108-.34-.254-.501-.356-.265-.732-.244-1.156-.244h-1.948c-.351,0-.7,0-1.051-.001h-1.899c-.44.003-.797.047-1.128.369ZM30.031,33.144c-.161.264-.156.525-.117.824.129.264.264.407.53.53.283.078.569.067.862.067h1.948c.351,0,.7,0,1.051.001h1.899c.381-.001.7-.017.999-.277.232-.272.273-.42.265-.768-.028-.217-.108-.34-.254-.501-.356-.265-.732-.244-1.156-.244h-1.948c-.351,0-.7,0-1.051-.001h-1.899c-.44.003-.797.047-1.128.369ZM32.974,36.676c-.162.261-.156.526-.117.824.128.26.258.423.53.53.297.041.519.034.791-.099.198-.178.31-.298.347-.568.016-.336-.021-.546-.254-.804-.224-.198-.447-.21-.736-.202-.233.04-.399.146-.56.319Z" fill="#fff"/><path d="M41.628,20.429c1.088-.006,1.863-.01,2.326-.012.475-.001.949-.003,1.424-.007.382-.003.765-.004,1.147-.004.146,0,.291,0,.438-.003.204-.001.409-.001.613-.001.061,0,.122,0,.183-.003.34.001.554.025.816.265.15.212.199.357.199.617,0,.065,0,.129.001.195v7.499c0,.886,0,1.773.001,2.659.001.91.003,1.82.001,2.73v4.225c0,.07,0,.141.001.212-.004.369-.016.598-.266.878-.27.241-.591.2-.933.196h-.195c-.212,0-.424-.001-.638-.003h-.442c-.348,0-.696-.003-1.044-.004-.505-.003-1.01-.004-1.515-.004-.707-.001-1.413-.005-2.121-.008v-3.533c1.062-.015,1.761-.024,2.094-.028.132-.003.264-.004.395-.007.067,0,.136-.001.206-.003.405-.002.78-.098,1.124-.287.204-.24.2-.402.196-.708-.017-.191-.062-.297-.19-.44-.289-.214-.568-.243-.919-.248-.065,0-.129-.003-.196-.004-.07,0-.138-.001-.21-.003-.071,0-.143-.002-.216-.004-.228-.004-.456-.008-.684-.011-.154-.003-.31-.005-.464-.008-.378-.007-.758-.012-1.136-.018v-1.766c.229-.003.457-.005.693-.009.223-.003.444-.007.667-.011.154-.003.308-.004.463-.007.221-.003.444-.007.666-.009.069,0,.137-.001.208-.003.404-.002.778-.098,1.122-.287.204-.24.2-.402.196-.708-.017-.191-.062-.297-.19-.44-.289-.214-.568-.243-.919-.248-.065,0-.129-.003-.196-.004-.07,0-.138-.001-.21-.003-.071,0-.143-.002-.216-.004-.228-.004-.456-.008-.684-.011-.154-.003-.31-.005-.464-.008-.378-.007-.758-.012-1.136-.018v-1.766c.229-.003.457-.005.693-.009.223-.003.444-.007.667-.011.154-.003.308-.004.463-.007.221-.003.444-.007.666-.009.069,0,.137-.001.208-.003.404-.002.778-.098,1.122-.287.204-.24.2-.402.196-.708-.017-.191-.062-.297-.19-.44-.289-.214-.568-.243-.919-.248-.065,0-.129-.003-.196-.004-.07,0-.138-.001-.21-.003-.071,0-.143-.002-.216-.004-.228-.004-.456-.008-.684-.011-.154-.003-.31-.005-.464-.008-.378-.007-.758-.012-1.136-.018v-1.766c.229-.003.457-.005.693-.009.223-.003.444-.007.667-.011.154-.003.308-.004.463-.007.221-.003.444-.007.666-.009.069,0,.137-.001.208-.003.404-.002.778-.098,1.122-.287.204-.24.2-.402.196-.708-.017-.191-.062-.297-.19-.44-.289-.214-.568-.243-.919-.248-.066,0-.132-.003-.199-.004-.069,0-.137-.001-.207-.003-.063,0-.127-.003-.192-.004-.236-.004-.472-.008-.708-.011-.529-.008-1.056-.017-1.6-.026v-3.533.011Z" fill="#fff"/><path d="M19.78,20.408h.195c.212,0,.424.001.638.003h.442c.348,0,.696.003,1.044.004.505.003,1.01.004,1.515.004.707.001,1.413.005,2.121.008v3.533c-1.062.015-1.761.024-2.094.028-.132.003-.264.004-.395.007-.067,0-.136.001-.206.003-.405.002-.78.098-1.124.287-.204.24-.2.402-.196.708.017.191.062.297.19.44.289.214.568.243.919.248.065,0,.13.002.196.004.07,0,.138.001.21.003.071,0,.143.002.216.004.228.004.456.008.684.011.154.003.31.005.464.008.378.007.758.012,1.136.018v1.766c-.229.003-.46.006-.693.009-.223.003-.444.007-.667.011-.154.003-.308.004-.463.007-.221.003-.444.007-.666.009-.069,0-.137.001-.208.003-.404.002-.778.098-1.122.287-.204.24-.2.402-.196.708.017.191.062.297.19.44.289.214.568.243.919.248.065,0,.129.003.196.004.07,0,.138.001.21.003.071,0,.143.002.216.004.228.004.456.008.684.011.154.003.31.005.464.008.378.007.758.012,1.136.018v1.766c-.229.003-.46.006-.693.009-.223.003-.444.007-.667.011-.154.003-.308.004-.463.007-.221.003-.444.007-.666.009-.069,0-.137.001-.208.003-.404.002-.778.098-1.122.287-.204.24-.2.402-.196.708.017.191.062.297.19.44.289.214.568.243.919.248.065,0,.129.003.196.004.07,0,.138.001.21.003.071,0,.143.002.216.004.228.004.456.008.684.011.154.003.31.005.464.008.378.007.758.012,1.136.018v1.766c-.229.003-.46.006-.693.009-.223.003-.444.007-.667.011-.154.003-.308.004-.463.007-.221.003-.444.007-.666.009-.069,0-.137.001-.208.003-.404.002-.778.098-1.122.287-.204.24-.2.402-.196.708.017.191.062.297.19.44.289.214.568.243.919.248.066,0,.132.002.199.004.069,0,.137.001.207.003.063,0,.127.003.192.004.236.004.472.008.708.011.528.009,1.062.018,1.6.026v3.533c-1.088.006-1.863.01-2.326.012-.475.001-.949.003-1.424.007-.382.003-.765.004-1.147.004-.146,0-.291,0-.438.003-.204.001-.409.001-.613.001-.061,0-.122,0-.183.003-.34-.001-.554-.025-.816-.265-.15-.212-.199-.357-.199-.617,0-.064,0-.129-.001-.195v-7.499c0-.886,0-1.773-.001-2.659-.001-.91-.003-1.82-.001-2.73v-4.225c0-.07,0-.141-.001-.212.004-.369.016-.598.266-.878.27-.241.591-.2.933-.196v-.011Z" fill="#fff"/></svg>