<?xml version="1.0" encoding="UTF-8"?><svg id="a" xmlns="http://www.w3.org/2000/svg" width="67.36" height="67.36" viewBox="0 0 67.36 67.36"><rect width="67.36" height="67.36" rx="12.09" ry="12.09" fill="#5138cc"/><path d="M20.165,14.92h2.315c.736,0,1.473,0,2.209,0h6.941c1.367,0,2.734,0,4.1-.002,1.537-.002,3.073-.002,4.61-.002h.614c.648,0,1.297,0,1.945,0h4.337c1.522-.007,2.797.311,3.934,1.387,1.106,1.138,1.249,2.486,1.247,4.002v11.427c0,1.362,0,2.724,0,4.086,0,1.532.002,3.064,0,4.595v6.873c.005,1.519-.292,2.776-1.372,3.898-.22.211-.448.386-.705.547-.048.031-.096.063-.145.095-.43.265-.862.403-1.352.513-.034.009-.069.016-.105.025-.295.065-.575.082-.875.081h-12.106c-1.366,0-2.732,0-4.097,0-1.535,0-3.07.002-4.605,0h-6.893c-1.39.004-2.645-.177-3.711-1.142-.038-.034-.076-.068-.115-.103-.314-.295-.546-.626-.772-.99-.039-.063-.08-.126-.121-.188-.136-.22-.213-.451-.286-.697-.01-.031-.019-.062-.029-.094-.198-.695-.186-1.384-.185-2.1v-27.004c-.002-1.11.082-1.863.252-2.258.014-.034.029-.07.043-.105.5-1.179,1.41-2.039,2.572-2.551.768-.31,1.535-.295,2.35-.293h.007ZM17.096,17.59c-.213.28-.371.573-.498.9-.016.039-.032.078-.049.117-.06.222-.058.431-.057.661v1.029c0,.302,0,.604,0,.906,0,.362,0,.723,0,1.085-.002.874-.002,1.749-.003,2.623v1.241c0,1.416-.002,2.832-.003,4.248v1.205c0,1.436-.002,2.874-.004,4.31-.002,1.519-.004,3.039-.004,4.558v.624c0,.66,0,1.321-.003,1.981,0,.664-.002,1.329,0,1.993,0,.394,0,.788,0,1.184v1.242c-.007,1.051.18,1.815.919,2.606.865.813,1.893.792,3.007.79h27.415c.876-.005,1.604-.272,2.248-.87.745-.808.847-1.642.84-2.696,0-.122,0-.245,0-.367v-.797c0-.395,0-.79,0-1.185,0-.705,0-1.412,0-2.117,0-.618,0-1.235,0-1.853v-.623c0-1.561,0-3.121-.003-4.681-.002-1.386-.002-2.771-.002-4.157v-7.025c0-.743,0-1.485-.002-2.228,0-.392,0-.785,0-1.178,0-.293,0-.586,0-.88v-.355c.003-1.027-.129-1.813-.873-2.577-.187-.178-.381-.324-.602-.455-.03-.018-.06-.036-.091-.054-.093-.051-.186-.092-.283-.133-.036-.016-.073-.032-.111-.049-.546-.203-1.114-.165-1.688-.162h-2.338c-.702,0-1.405,0-2.108,0h-11.267c-1.551,0-3.102,0-4.653,0h-6.962c-1.163-.004-2.032.221-2.812,1.137h-.008Z" fill="#fff"/><path d="M24.986,20.507c.192.133.354.302.459.512.004.105.005.211.005.316v.094c0,.099,0,.199-.002.298v.201c0,.165,0,.329-.002.494.032.004.066.009.099.014.293.047.535.115.796.255.032.017.064.033.097.051,1.038.55,1.705,1.367,2.1,2.47.302,1.08.076,2.2-.456,3.156-.575.949-1.472,1.56-2.542,1.824h-.094v.103c.004,2.022.008,4.045.01,6.067v.874c0,.783.002,1.565.004,2.348.002.803.003,1.606.003,2.409,0,.495,0,.992.003,1.487,0,.34,0,.68,0,1.019,0,.196,0,.392,0,.588,0,.179,0,.359,0,.539v.195c.003.365-.01.629-.211.939-.141.137-.276.232-.468.281-.273-.013-.522-.045-.719-.255-.219-.304-.203-.609-.199-.971v-.202c0-.185,0-.369.002-.555,0-.199,0-.399,0-.598,0-.346,0-.691.002-1.037.002-.5.003-.999.003-1.499,0-.81.002-1.622.004-2.432.002-.787.004-1.575.005-2.362v-.878c.003-2.021.007-4.041.011-6.061l-.279-.032c-.832-.123-1.666-.816-2.156-1.465-.266-.384-.463-.773-.609-1.217-.012-.032-.024-.065-.036-.098-.12-.349-.129-.684-.127-1.051v-.094c.003-.511.056-.954.257-1.424.012-.03.025-.058.037-.089.167-.388.381-.723.665-1.036.038-.042.076-.085.115-.128.56-.593,1.304-1.073,2.131-1.136-.001-.041-.002-.082-.003-.124-.003-.153-.006-.305-.008-.458,0-.066-.002-.132-.004-.198-.01-.418-.015-.713.277-1.036.268-.197.511-.205.823-.101h.004Z" fill="#fff"/><path d="M43.241,20.49c.237.11.388.243.507.481.005.072.006.142.006.214v1.321c0,.283,0,.566,0,.849,0,.322,0,.644,0,.966,0,.662,0,1.325-.002,1.987.052.012.103.025.157.038.069.017.136.033.205.051.034.009.068.016.103.025.925.228,1.703.921,2.204,1.712.021.033.042.066.064.1.461.774.645,1.784.462,2.672-.044.171-.095.337-.152.504-.013.045-.027.09-.041.136-.183.569-.53,1.031-.942,1.456-.027.03-.053.059-.081.09-.442.476-1.121.815-1.744.987-.078,0-.156.002-.234,0v.079c.005,1.547.01,3.095.011,4.642v.669c0,.599.003,1.198.005,1.797.002.615.004,1.229.004,1.844,0,.379,0,.759.003,1.138,0,.291.002.581,0,.872,0,.119,0,.239,0,.358,0,.163,0,.325,0,.489,0,.047,0,.094.002.143-.003.304-.063.514-.264.747-.199.168-.388.219-.649.205-.24-.043-.416-.212-.565-.396-.102-.185-.08-.392-.077-.598v-.156c0-.172,0-.344.002-.515v-.369c0-.265,0-.531.002-.796.002-.384.003-.766.003-1.15,0-.622.002-1.245.004-1.866.002-.604.004-1.208.005-1.812v-.673c.003-1.55.007-3.1.011-4.651-.029-.003-.057-.006-.087-.009-.038-.004-.075-.008-.115-.012-.038-.004-.075-.008-.114-.011-.868-.116-1.665-.814-2.179-1.487-.139-.202-.254-.414-.363-.634-.017-.034-.035-.067-.052-.101-.304-.628-.352-1.226-.323-1.912l.005-.16c.04-.771.385-1.508.885-2.086.026-.031.051-.063.077-.095.531-.642,1.277-1.058,2.076-1.262h.187v-.082c-.002-.659-.004-1.316-.005-1.975,0-.319,0-.637-.002-.955,0-.307-.002-.615-.002-.921,0-.117,0-.235,0-.352v-.492c0-.049,0-.097,0-.147v-.253c.017-.17.065-.303.182-.429.029-.023.057-.046.086-.07s.057-.047.086-.071c.196-.146.421-.146.647-.071l.004-.002Z" fill="#fff"/><path d="M34.058,20.457c.24.122.391.277.514.514.011.084.017.172.017.264v.16c0,.058,0,.115,0,.176v1.255c0,.32,0,.64,0,.96,0,.463-.002.926-.002,1.389,0,.751,0,1.501-.003,2.253,0,.729-.002,1.459-.003,2.189v.813c-.002,1.872-.004,3.742-.007,5.614.031.007.064.012.096.019.042.008.084.017.127.025.042.009.083.016.126.025.93.198,1.734.901,2.272,1.664.556.904.778,2.007.55,3.058-.167.594-.437,1.147-.831,1.623-.031.037-.06.074-.092.113-.491.575-1.178,1.062-1.921,1.246-.109,0-.219,0-.327,0,0,.032,0,.066,0,.099.004.309.007.618.009.928,0,.159.002.318.005.477.003.183.003.366.004.549,0,.056.002.114.003.172,0,.315-.015.517-.208.771-.214.189-.422.245-.702.234-.275-.078-.404-.193-.562-.421-.052-.151-.052-.291-.052-.45v-.506c0-.154,0-.307,0-.461v-.471c0-.307,0-.615.002-.923-.041-.006-.083-.012-.126-.018-.054-.008-.109-.016-.165-.024-.054-.008-.108-.015-.164-.024-.198-.036-.358-.102-.534-.198-.031-.016-.063-.033-.095-.05-.745-.402-1.241-.942-1.678-1.653-.024-.038-.049-.076-.073-.115-.451-.786-.531-1.888-.325-2.758.328-1.13,1.074-2.013,2.083-2.604.315-.155.724-.327,1.077-.327v-.096c-.004-1.883-.008-3.766-.01-5.649v-.814c0-.729-.002-1.458-.004-2.187-.002-.748-.003-1.496-.003-2.244,0-.462,0-.923-.003-1.385,0-.316,0-.633,0-.949,0-.182,0-.366,0-.548,0-.167,0-.334,0-.501,0-.089,0-.178-.002-.267.003-.36.039-.528.285-.79.227-.175.441-.218.723-.156h.003Z" fill="#fff"/></svg>