<?xml version="1.0" encoding="UTF-8"?><svg id="a" xmlns="http://www.w3.org/2000/svg" width="67.36" height="67.36" viewBox="0 0 67.36 67.36"><g id="b"><rect width="67.36" height="67.36" rx="12.09" ry="12.09" fill="#5138cc"/></g><path d="M21.72,14.684c7.973-.014,15.945,0,23.918.042,4.205.708,6.82,3.125,7.845,7.252.702,5.339.73,10.683.085,16.03-.68,3.875-2.899,6.405-6.658,7.591-.42.107-.844.191-1.272.254-1.838.014-3.676.057-5.513.127.285,1.296.553,2.597.806,3.901.912.07,1.831.112,2.756.127.762.379,1.03.987.806,1.824-.155.382-.424.65-.806.806-6.672.057-13.344.057-20.016,0-.762-.379-1.03-.987-.806-1.824.155-.382.424-.65.806-.806.925-.015,1.844-.058,2.756-.127.252-1.305.521-2.605.806-3.901-1.837-.071-3.675-.113-5.513-.127-4.157-.712-6.772-3.101-7.845-7.167-.668-5.195-.724-10.397-.17-15.606.665-4.722,3.337-7.521,8.015-8.397ZM22.908,17.398c7.181-.014,14.362,0,21.543.042,3.04.186,5.09,1.699,6.149,4.538.315,1.767.513,3.548.594,5.343.154,3.49.012,6.968-.424,10.432-.774,3.346-2.88,5.141-6.319,5.386-7.181.057-14.362.057-21.543,0-3.176-.18-5.254-1.778-6.234-4.792-.759-5.232-.787-10.463-.085-15.691.516-2.297,1.859-3.894,4.029-4.792.757-.248,1.52-.404,2.29-.466Z" fill="#fff" fill-rule="evenodd" isolation="isolate" opacity=".982"/></svg>