<?xml version="1.0" encoding="UTF-8"?><svg id="a" xmlns="http://www.w3.org/2000/svg" width="67.36" height="67.36" viewBox="0 0 67.36 67.36"><rect width="67.36" height="67.36" rx="12.09" ry="12.09" fill="#5138cc"/><path d="M32.873,15.178h.199c.138-.001.277-.001.415-.001.209,0,.418-.001.627-.003q1.961-.006,2.455.45c.211.329.242.588.248.975.032.82.23,1.588.691,2.275.035.054.071.108.107.164.584.82,1.463,1.302,2.434,1.52,1.035.171,2.179-.064,3.056-.649.161-.124.316-.251.469-.385.093-.081.187-.163.28-.244.039-.035.077-.07.117-.106.195-.151.394-.171.633-.179.053-.003.105-.005.159-.008.491.082.849.443,1.195.776.046.044.093.088.14.134.146.14.292.281.437.422.047.045.095.091.144.138q1.736,1.668,1.757,2.372c-.008.447-.171.65-.46.985-.719.85-1.223,1.83-1.172,2.977.132,1.125.537,2.167,1.418,2.918.712.524,1.472.822,2.348.909q.943.098,1.31.463c.356.506.3,1.2.301,1.796,0,.066,0,.132,0,.2,0,.139,0,.277,0,.416,0,.21.001.419.003.629q.006,1.955-.45,2.448c-.336.205-.598.244-.989.253-.894.038-1.748.273-2.459.844q-.164.131-.309.131c-.019.042-.038.085-.057.128-.092.169-.193.281-.326.418-.663.745-.89,1.768-.864,2.744.084,1.035.501,1.86,1.229,2.591.247.28.411.56.412.94q.002.076.004.153c-.103.505-.471.866-.817,1.224-.047.05-.095.099-.144.151-.149.155-.298.309-.448.463q-.07.073-.142.148-1.575,1.639-2.369,1.732c-.435-.008-.665-.21-.969-.49-.883-.809-1.948-1.166-3.137-1.124-1.089.102-1.955.517-2.699,1.323-.591.756-.925,1.636-.962,2.591-.03.429-.064.688-.339,1.02-.555.413-1.198.372-1.865.373-.066,0-.132,0-.199,0-.138,0-.277,0-.415,0-.209,0-.418.001-.627.003q-1.962.006-2.455-.45c-.21-.338-.23-.62-.248-1.016-.041-.805-.238-1.559-.691-2.234-.035-.054-.071-.108-.107-.164-.584-.82-1.463-1.302-2.434-1.52-1.035-.171-2.179.064-3.056.649-.161.124-.316.251-.469.385-.093.081-.187.163-.28.244q-.058.052-.117.106c-.195.151-.394.171-.633.179-.053.003-.105.005-.159.008-.491-.082-.849-.443-1.195-.776-.046-.044-.093-.088-.14-.134-.146-.14-.292-.281-.437-.422q-.071-.068-.144-.138-1.736-1.668-1.757-2.372c.008-.447.171-.65.46-.985.719-.85,1.223-1.83,1.172-2.977-.132-1.122-.535-2.175-1.42-2.918-.711-.517-1.43-.84-2.308-.912q-.977-.082-1.347-.46c-.356-.506-.3-1.2-.301-1.796,0-.066,0-.132,0-.2,0-.139,0-.277,0-.416,0-.21-.001-.419-.003-.629q-.006-1.955.45-2.448c.313-.186.55-.243.912-.253,1.311-.074,2.399-.585,3.277-1.553.648-.85.858-1.839.794-2.889-.132-.948-.498-1.675-1.151-2.367-.325-.353-.469-.66-.476-1.143.111-.503.473-.862.819-1.221.047-.05.095-.099.144-.151.149-.155.298-.309.448-.463.047-.049.094-.098.142-.148q1.633-1.699,2.507-1.743c.378.06.62.318.9.561.974.826,2.05,1.114,3.312,1.041.59-.084,1.095-.243,1.589-.578.054-.036.108-.073.164-.11.942-.682,1.445-1.646,1.642-2.779.013-.164.023-.328.032-.492.026-.405.073-.635.33-.952.555-.413,1.198-.372,1.865-.373ZM27.613,24.941c-.041.03-.083.059-.125.09-1.028.75-1.893,1.627-2.609,2.678-.072.105-.146.209-.221.313-1.49,2.158-1.886,5.058-1.453,7.597.282,1.485.852,2.901,1.736,4.128.03.041.059.083.09.125.75,1.028,1.627,1.893,2.678,2.609.105.072.209.146.313.221,2.146,1.482,5.09,1.913,7.617,1.452,1.282-.259,2.581-.717,3.675-1.446-.119-.298-.334-.503-.555-.728-.042-.043-.084-.086-.127-.131-.139-.143-.278-.285-.417-.426q-.071-.073-.144-.147c-.252-.256-.505-.512-.758-.768-.209-.212-.418-.424-.625-.638-.25-.258-.503-.515-.756-.769-.096-.097-.192-.196-.287-.294-.133-.138-.268-.273-.404-.408-.039-.041-.077-.083-.117-.125q-.126-.13-.359-.258c-.231.009-.432.069-.65.144-1.863.492-3.705.322-5.387-.642-.351-.211-.665-.456-.969-.73-.049-.043-.099-.087-.15-.132-1.1-1.029-1.868-2.634-1.954-4.144q-.067-2.089.397-2.648c.208-.17.347-.217.617-.199.184.054.278.131.419.261.05.046.101.092.152.139.268.255.529.515.788.778.119.119.237.239.356.358.185.187.369.373.554.56.179.182.359.363.539.544.055.056.11.112.167.17.052.052.103.104.156.157.045.046.09.091.137.138.178.155.332.256.571.266.053-.005.105-.011.159-.016.059-.006.118-.012.179-.018.062-.007.125-.015.189-.022.064-.007.128-.014.194-.022q.81-.074,1.584-.29c.267-.428.268-1.074.337-1.566.021-.144.046-.287.072-.43q.065-.388-.064-.746c-.041-.043-.082-.087-.124-.132q-.069-.074-.14-.15c-.263-.267-.53-.529-.8-.788-.123-.12-.246-.24-.369-.361-.192-.187-.384-.374-.578-.56-.188-.181-.375-.363-.561-.546q-.087-.082-.176-.166c-.317-.315-.479-.534-.498-.987.019-.225.073-.338.229-.501,1.28-.585,3.044-.397,4.324.076,1.736.677,3.001,1.955,3.745,3.649.254.68.424,1.399.454,2.125.003.049.006.097.009.148.026.821-.114,1.634-.391,2.404-.055.208-.048.283.021.482.136.156.272.3.419.444.044.044.087.087.132.132.144.144.29.288.435.431.1.1.201.2.301.3.264.263.529.526.793.788.27.268.539.536.809.805.529.526,1.058,1.052,1.588,1.578,1.407-1.837,1.723-4.565,1.461-6.796-.231-1.684-.827-3.306-1.822-4.688-.03-.041-.059-.083-.09-.125-.75-1.028-1.627-1.893-2.678-2.609-.105-.072-.209-.146-.313-.221-3.406-2.351-8.425-2.094-11.726.283Z" fill="#fff"/></svg>