<?xml version="1.0" encoding="UTF-8"?><svg id="a" xmlns="http://www.w3.org/2000/svg" width="67.36" height="67.36" viewBox="0 0 67.36 67.36"><rect width="67.36" height="67.36" rx="12.09" ry="12.09" fill="#5138cc"/><path d="M36.349,18.164c.064.018.128.036.195.054,1.422.405,2.764,1.022,3.915,1.961q.065.051.13.104c2.207,1.763,3.671,4.323,4.041,7.136.036.488.031.974.019,1.463.105-.007.209-.013.317-.02,1.903.003,3.658,1.058,5.001,2.322.812.835,1.384,1.843,1.773,2.936.018.051.036.102.055.154.634,1.888.38,4.056-.465,5.831-.928,1.854-2.561,3.239-4.506,3.926-1.387.43-2.793.416-4.23.393-.146-.002-.293-.004-.439-.006-.38-.005-.761-.011-1.141-.016-.39-.006-.78-.011-1.17-.016-.762-.01-1.524-.021-2.286-.033v-.081c.066-.008.133-.016.201-.024,1.187-.159,2.039-.564,2.816-1.493.661-.916.786-1.898.69-2.995-.22-1.175-1.05-1.975-1.865-2.786-.095-.095-.19-.19-.284-.286-.198-.198-.396-.396-.594-.594-.253-.252-.504-.505-.755-.758-.195-.197-.391-.392-.587-.588-.093-.093-.186-.186-.278-.279-.945-.954-1.824-1.572-3.201-1.593-1.547.012-2.481.856-3.522,1.9-.095.095-.19.19-.286.284-.198.198-.396.396-.594.594-.252.253-.505.504-.758.755-.197.195-.392.391-.588.587-.093.093-.186.186-.279.278-.954.945-1.572,1.824-1.593,3.201.008,1.074.351,1.904,1.091,2.687.76.719,1.622,1.021,2.651,1.11v.081c-.89.014-1.781.028-2.671.04-.414.006-.827.012-1.241.018-.4.007-.8.012-1.201.017-.152.002-.303.004-.455.007-2.326.041-4.583-.297-6.358-1.936-.079-.071-.157-.142-.238-.216-1.591-1.487-2.369-3.537-2.446-5.692.048-1.881.693-3.724,1.959-5.132.035-.039.069-.077.105-.117,1.203-1.322,2.796-2.171,4.569-2.462.143-.005.285-.007.428-.005.071,0,.142.001.216.002q.08.001.162.003c.003-.09.006-.179.009-.272.113-2.827,1.161-5.287,3.053-7.383q.081-.089.163-.18c2.544-2.673,6.914-3.893,10.474-2.882Z" fill="#fff"/><path d="M34.408,35.468c.245.178.454.365.669.577.039.038.078.077.118.116.127.126.254.252.381.378.089.088.178.177.267.265.186.185.372.37.557.555.237.236.475.472.714.707.184.182.368.365.551.548.087.087.175.174.263.26q.98.963,1.005,1.614c-.027.398-.156.663-.409.964-.346.291-.675.42-1.128.403-.677-.157-1.063-.614-1.531-1.103-.078-.081-.157-.161-.236-.241-.191-.196-.381-.392-.57-.59,0,.045,0,.09,0,.136-.003,1.092-.008,2.183-.014,3.275-.003.528-.006,1.056-.007,1.584-.001.509-.004,1.019-.008,1.528-.001.194-.002.389-.002.583,0,.272-.002.544-.005.817q0,.121.001.244c-.007.462-.055.736-.368,1.101-.308.292-.555.347-.967.363-.412-.015-.659-.07-.967-.363-.372-.435-.369-.799-.366-1.345,0-.086-.002-.171-.003-.26-.002-.283-.002-.565-.003-.848-.001-.196-.003-.392-.004-.589-.004-.516-.005-1.032-.006-1.548-.002-.527-.005-1.053-.008-1.58-.006-1.033-.01-2.066-.013-3.099-.047.05-.095.1-.144.151-.179.187-.359.373-.539.558-.078.08-.155.16-.231.241q-.864.91-1.503.983c-.507-.033-.863-.177-1.209-.564-.195-.356-.274-.689-.212-1.093.228-.75,1.002-1.326,1.538-1.867.04-.04.079-.08.12-.121.209-.211.418-.422.628-.633.172-.173.344-.347.515-.521.208-.212.417-.423.627-.634.079-.08.158-.16.237-.24.641-.656,1.339-1.267,2.262-.712Z" fill="#fff"/></svg>