<?xml version="1.0" encoding="UTF-8"?><svg id="a" xmlns="http://www.w3.org/2000/svg" width="71" height="71" viewBox="0 0 71 71"><rect width="71" height="71" rx="6.855" ry="6.855" fill="#fff"/><path d="M42.551,18.762c-2.409.253-4.915,1.38-6.793,3.054-.286.253-.539.457-.58.457-.033,0-.318-.196-.629-.433-2.115-1.633-4.605-2.523-7.095-2.523-1.192-.008-2.033.114-3.062.441-3.715,1.176-6.548,4.499-7.112,8.312-.147,1.037-.049,2.939.204,3.968.433,1.747,1.339,3.56,2.433,4.875l.327.4-.204.416c-.612,1.225-.449,2.433.457,3.34.604.604,1.012.759,1.951.759.67,0,.792.016.759.122-.269.939.155,2.147.98,2.801.604.482,1.478.71,2.123.563l.327-.073v.784c0,.694.024.833.22,1.192.286.547.776,1.045,1.306,1.323.384.204.514.229,1.217.229h.776l-.065.392c-.245,1.339.833,2.825,2.254,3.086.866.155,1.894-.204,2.735-.955.359-.327.457-.376.563-.294,1.021.719,2.213.882,3.16.425.523-.253,1.217-1.037,1.396-1.568.139-.433.188-1.184.09-1.494-.049-.155-.016-.163.743-.163.702,0,.841-.024,1.208-.22.563-.294,1.2-1.012,1.421-1.6.147-.384.171-.58.139-1.086l-.041-.621.343.073c.759.171,1.6-.098,2.278-.743.686-.653.996-1.47.874-2.352l-.049-.335.58.041c.776.057,1.29-.114,1.837-.604.621-.563.849-1.053.849-1.862,0-.498-.041-.751-.18-1.045l-.171-.392.58-.67c1.388-1.6,2.245-3.217,2.776-5.201.327-1.217.408-3.095.196-4.328-.612-3.519-3.086-6.524-6.459-7.863-1.339-.531-3.193-.784-4.662-.629ZM45.278,19.701c3.593.686,6.491,3.405,7.422,6.965.286,1.102.343,2.694.147,3.862-.335,2.025-1.192,3.838-2.629,5.56-.294.351-.539.637-.547.637s-2.441-2.425-5.397-5.389c-4.181-4.181-5.43-5.389-5.585-5.389s-.694.482-2.205,1.992c-2.229,2.213-2.539,2.441-3.397,2.441-1.102,0-1.992-.98-1.894-2.074.073-.817.278-1.078,3.029-3.805,2.066-2.058,2.686-2.621,3.315-3.037,1.355-.89,2.833-1.502,4.213-1.755.882-.155,2.711-.163,3.527-.008ZM28.572,20.191c1.682.139,3.715.972,5.348,2.196l.661.498-1.804,1.837c-1.551,1.568-1.853,1.919-2.098,2.409-.261.523-.286.629-.286,1.306,0,.604.033.8.188,1.119.572,1.168,1.788,1.829,2.956,1.617.923-.171,1.217-.384,3.225-2.376l1.878-1.87,5.283,5.291c3.78,3.78,5.34,5.397,5.487,5.675.408.776.359,1.502-.131,2.066-.392.441-.825.629-1.364.588-.906-.065-.988-.131-4.907-4.042-2-1.984-3.691-3.617-3.748-3.617-.229,0-.416.171-.416.392,0,.18.653.874,3.666,3.895,4.017,4.034,3.927,3.919,3.927,4.915,0,1.012-.882,1.862-1.919,1.853-.923-.008-1.012-.082-4.981-4.042-1.984-1.968-3.642-3.584-3.707-3.584-.229,0-.416.171-.416.392,0,.18.629.849,3.544,3.772,3.756,3.772,3.927,3.968,4.025,4.801.024.212,0,.531-.049.719-.114.433-.645,1.029-1.119,1.257-.661.327-1.584.131-2.335-.49q-.302-.253-.302-.857c0-.482-.041-.702-.196-1.053-.457-.996-1.47-1.698-2.441-1.707-.286,0-.588.024-.678.049-.163.057-.171.024-.163-.694,0-.67-.024-.817-.229-1.217-.261-.547-.89-1.159-1.429-1.404-.31-.147-.531-.18-1.127-.18l-.743.008.082-.359c.155-.751-.196-1.731-.849-2.343-.645-.604-.972-.735-1.87-.735h-.776v-.776c0-.653-.033-.833-.188-1.135-.294-.539-.857-1.094-1.38-1.355-.4-.204-.572-.237-1.135-.245-.596,0-.71.024-1.298.318-.58.286-.825.498-2.311,1.96l-1.666,1.641-.245-.286c-1.127-1.331-2.082-3.413-2.401-5.226-.18-1.053-.122-2.948.122-3.862.457-1.731,1.192-3.013,2.458-4.311,1.666-1.698,3.601-2.645,5.822-2.841.735-.065.898-.065,2.033.033ZM26.906,33.778c.376.196.808.661.972,1.061.163.392.098,1.168-.139,1.641-.114.237-.849,1.037-2.033,2.229-2.09,2.107-2.425,2.343-3.291,2.343-.588,0-.972-.18-1.429-.678-.539-.58-.637-1.184-.343-1.992.163-.425.359-.661,2.066-2.376,1.037-1.045,2.009-1.984,2.156-2.074.67-.416,1.421-.474,2.041-.155ZM30.213,37.158c.719.302,1.225,1.037,1.225,1.78,0,.89-.253,1.249-2.368,3.348-1.911,1.894-2.196,2.107-2.931,2.229-.498.09-1.037-.082-1.462-.457-.506-.449-.719-.882-.719-1.478.008-.857.237-1.184,2.221-3.168,1.69-1.698,2.123-2.066,2.662-2.262.351-.122,1.061-.114,1.372.008ZM33.741,40.677c.759.351,1.241,1.143,1.168,1.911-.073.784-.294,1.078-2.303,3.086-2.025,2.025-2.311,2.237-3.119,2.303-.563.049-.963-.098-1.404-.506-.719-.661-.857-1.413-.416-2.335.212-.457.498-.776,2.058-2.335,1.723-1.723,2.131-2.049,2.752-2.245.384-.114.857-.073,1.266.122ZM37.497,44.303c.18.122.433.384.563.572.204.286.253.449.278.923.057.955-.098,1.184-2.262,3.356-2.066,2.074-2.384,2.294-3.274,2.294-1.021,0-1.911-.882-1.911-1.902,0-.882.229-1.208,2.303-3.274,1.184-1.184,1.984-1.919,2.213-2.033.735-.367,1.494-.343,2.09.065ZM39.064,47.61c.465.686.596,1.543.31,2.098-.196.392-.596.8-.972.996-.588.302-1.527.171-2.131-.286-.155-.122-.114-.18,1.11-1.421.702-.71,1.306-1.38,1.331-1.478.082-.245.139-.229.351.09Z" fill="#6232d7"/></svg>