<?xml version="1.0" encoding="UTF-8"?><svg id="a" xmlns="http://www.w3.org/2000/svg" width="67.36" height="67.36" viewBox="0 0 67.36 67.36"><g id="b"><rect width="67.36" height="67.36" rx="12.09" ry="12.09" fill="#5138cc"/></g><path d="M31.438,16.41c1.365-.282,2.55.04,3.557.967,1.197,1.401,2.086,2.986,2.668,4.755.52,1.565.894,3.163,1.121,4.794-4.201.026-8.403,0-12.604-.077.385-2.664,1.197-5.19,2.436-7.578.646-1.252,1.587-2.205,2.822-2.861Z" fill="#fff" fill-rule="evenodd" isolation="isolate" opacity=".981"/><path d="M28.654,16.797c.131-.012.26,0,.387.039-.82.879-1.478,1.872-1.972,2.977-1.067,2.26-1.75,4.631-2.049,7.114h-7.578c1.346-3.607,3.665-6.404,6.959-8.39,1.356-.756,2.773-1.336,4.253-1.74Z" fill="#fff" fill-rule="evenodd" isolation="isolate" opacity=".969"/><path d="M36,16.874c.032-.048.084-.074.155-.077,4.511,1.124,7.952,3.675,10.323,7.655.416.78.79,1.579,1.121,2.397-2.551.077-5.103.103-7.655.077-.356-3.323-1.425-6.39-3.209-9.201-.234-.298-.479-.582-.735-.851Z" fill="#fff" fill-rule="evenodd" isolation="isolate" opacity=".968"/><path d="M16.978,28.086h7.887c-.309,2.912-.309,5.825,0,8.737h-7.887c-.722-2.913-.722-5.825,0-8.737Z" fill="#fff" fill-rule="evenodd" isolation="isolate" opacity=".984"/><path d="M26.025,28.086c4.304-.013,8.609,0,12.913.039.311,2.322.376,4.654.193,6.998-.972.389-1.836.943-2.59,1.662-3.505.039-7.01.052-10.516.039-.309-2.913-.309-5.825,0-8.737Z" fill="#fff" fill-rule="evenodd" isolation="isolate" opacity=".988"/><path d="M40.175,28.086c2.604-.026,5.207,0,7.81.077.966,3.558.747,7.037-.657,10.439-1.488-2.748-3.795-3.985-6.92-3.712.038-2.27-.039-4.538-.232-6.804Z" fill="#fff" fill-rule="evenodd" isolation="isolate" opacity=".98"/><path d="M40.485,35.973c2.964-.214,4.987,1.049,6.07,3.789.526,1.849.229,3.55-.889,5.103.257.295.527.579.812.851.299-.39.672-.673,1.121-.851.158.057.312.121.464.193l2.358,2.358c.808,1.276.641,2.397-.503,3.364-.838.382-1.663.356-2.474-.077l-2.59-2.59c-.145-.255-.145-.513,0-.773.233-.22.452-.452.657-.696-.257-.295-.527-.579-.812-.851-1.792,1.284-3.712,1.503-5.761.657-2.783-1.619-3.698-3.977-2.745-7.075.853-1.872,2.284-3.006,4.291-3.402ZM40.562,37.287c2.134-.203,3.667.648,4.601,2.552.774,2.512-.012,4.355-2.358,5.529-2.524.678-4.341-.16-5.451-2.513-.608-2.831.461-4.686,3.209-5.567Z" fill="#fff" fill-rule="evenodd" isolation="isolate" opacity=".943"/><path d="M17.442,37.983h7.578c.355,2.995,1.27,5.804,2.745,8.428.36.603.785,1.157,1.276,1.662-2.677-.54-5.048-1.699-7.114-3.48-2.083-1.809-3.578-4.013-4.485-6.611Z" fill="#fff" fill-rule="evenodd" isolation="isolate" opacity=".968"/><path d="M26.18,37.983h9.356c-1.369,2.759-1.137,5.375.696,7.848-.613,1.175-1.515,2.051-2.706,2.629-.67.052-1.34.052-2.01,0-1.158-.514-2.047-1.326-2.668-2.436-1.391-2.511-2.28-5.192-2.668-8.042Z" fill="#fff" fill-rule="evenodd" isolation="isolate" opacity=".978"/><path d="M37.082,46.643c.401.284.813.554,1.237.812-.753.303-1.526.509-2.32.619.39-.458.751-.935,1.083-1.43Z" fill="#fff" fill-rule="evenodd" isolation="isolate" opacity=".827"/></svg>