<?xml version="1.0" encoding="UTF-8"?><svg id="a" xmlns="http://www.w3.org/2000/svg" width="67.36" height="67.36" viewBox="0 0 67.36 67.36"><rect width="67.36" height="67.36" rx="12.09" ry="12.09" fill="#5138cc"/><path d="M49.158,40.187c0,.628,0,1.255-.001,1.883,0,.321,0,.64,0,.961,0,.293,0,.587-.001.88,0,.106,0,.212,0,.319,0,.144,0,.288-.001.432v.243c-.046.322-.196.508-.429.725-.31.147-.589.135-.928.131-.073,0-.145,0-.22,0-.201,0-.402,0-.602-.002-.217,0-.433,0-.65,0-.376,0-.751,0-1.126-.002-.542-.002-1.084-.002-1.627-.003-.88,0-1.76-.002-2.641-.004-.854-.002-1.71-.004-2.565-.005h-.16c-.264,0-.528,0-.793-.001-2.193-.002-4.386-.007-6.58-.012-.621-7.255-.234-7.012,1.14-8.549l7.548-7.548c.002.405.005.81.008,1.215.002.281.005.563.006.844.001.272.003.543.006.815,0,.103.001.207.001.31q-.011.744.282,1.414c.235.22.467.267.787.262.288-.038.496-.18.673-.411.111-.251.138-.49.139-.763,0-.059,0-.118.001-.179v-.194c0-.068,0-.136.001-.206,0-.224.001-.449.001-.673,0-.157,0-.313.001-.469,0-.286.001-.571.001-.856,0-.419.001-.839.003-1.258.001-.364.002-.728.002-1.092,0-.155,0-.309.002-.464,0-.216,0-.432,0-.648,0-.064,0-.127.001-.193-.002-.431-.034-.815-.348-1.139-.395-.239-.761-.239-1.21-.238q-.102,0-.206-.001c-.224,0-.448,0-.672,0-.155,0-.311,0-.467,0-.327,0-.653,0-.98,0-.377,0-.753,0-1.13-.001-.363-.001-.727-.002-1.09-.001-.154,0-.308,0-.462-.001-.216,0-.432,0-.648,0-.063,0-.126-.001-.191-.002-.446.004-.886.032-1.214.361-.16.267-.192.519-.153.826.083.261.208.402.431.561.423.199.923.149,1.381.149.105,0,.209.002.314.003.275.002.549.004.824.005.281.001.562.004.843.006.481.004.963.007,1.444.009l-8.667,8.667c-.905.224-1.875.246-2.903.247-1.643-.007-3.285-.095-4.923-.227-.006-2.245-.01-4.491-.012-6.737,0-.265,0-.53-.001-.795v-.16c-.001-.854-.003-1.71-.006-2.564-.002-.877-.004-1.754-.004-2.63,0-.541-.001-1.083-.003-1.624-.001-.371-.002-.742-.001-1.113,0-.214,0-.428-.002-.642-.001-.232,0-.464,0-.697,0-.067-.001-.135-.002-.205.003-.363.018-.599.276-.877.282-.224.467-.275.825-.275q.068,0,.136-.001c.151-.001.302,0,.453,0,.109,0,.218,0,.328-.001.3,0,.601,0,.902,0,.324,0,.648,0,.972-.001.634-.001,1.269,0,1.903,0,.516,0,1.032,0,1.547,0h.669c1.398,0,2.796,0,4.194.001,1.2.001,2.4.001,3.6,0,1.393-.001,2.785-.002,4.178-.001h.445q.109,0,.221,0c.515,0,1.031,0,1.546-.001.628,0,1.255,0,1.883.001.321,0,.64,0,.961,0,.293,0,.587,0,.88.001.106,0,.212,0,.319,0,.144,0,.288,0,.432.001h.243c.335.048.51.19.725.445.121.235.132.391.132.654,0,.045.001.091.001.136.001.151,0,.302,0,.453,0,.109,0,.218.001.328,0,.3,0,.601,0,.902,0,.324,0,.648.001.972.001.634,0,1.269,0,1.903,0,.516,0,1.032,0,1.547v.669c0,1.398,0,2.796-.001,4.194-.001,1.2-.001,2.4,0,3.6.001,1.393.002,2.785.001,4.178v.445q0,.109,0,.221c0,.515,0,1.031.001,1.546Z" fill="#fff"/><path d="M29.39,48.421c-.031.257-.123.463-.3.653-.29.223-.417.275-.781.276q-.06,0-.122,0c-.135,0-.27,0-.404.001-.097,0-.193,0-.289.001-.262,0-.525.001-.788.002-.164,0-.328,0-.492.001-.513.001-1.026.002-1.538.002-.592,0-1.185.002-1.777.005-.458.002-.915.002-1.373.003-.273,0-.547,0-.82.002-.258.002-.514.002-.772.001-.094,0-.188,0-.283.001-.129.001-.258,0-.387,0h-.218c-.325-.05-.502-.198-.709-.448-.116-.222-.132-.36-.133-.609,0-.04,0-.081-.001-.122,0-.134,0-.268,0-.402,0-.096,0-.193-.001-.289-.001-.261,0-.523,0-.784,0-.274,0-.548,0-.821,0-.46,0-.92.001-1.38.001-.532,0-1.062,0-1.594-.001-.457-.001-.913,0-1.37,0-.272,0-.545,0-.817,0-.256,0-.513.001-.769,0-.094,0-.188,0-.282,0-.128,0-.257.001-.385,0-.072,0-.143,0-.217.048-.311.202-.5.432-.706.237-.164.416-.172.696-.172h.23c.084,0,.169,0,.253,0h.266c.241,0,.481,0,.722,0,.251,0,.503,0,.754,0,.476,0,.953,0,1.429.001.542,0,1.084,0,1.626.001.904,0,1.809.001,2.713.002l-6.899,6.899,1.812,1.812,7.128-7.128c.004,1.107.007,2.215.009,3.323,0,.541.002,1.083.004,1.624.002.472.003.944.003,1.416,0,.25.001.5.002.749.001.235.001.47.001.706,0,.086,0,.172.001.259,0,.118,0,.236,0,.354,0,.066,0,.132,0,.2Z" fill="#fff"/></svg>