<?xml version="1.0" encoding="UTF-8"?><svg id="a" xmlns="http://www.w3.org/2000/svg" width="67.36" height="67.36" viewBox="0 0 67.36 67.36"><g id="b"><rect width="67.36" height="67.36" rx="12.09" ry="12.09" fill="#5138cc"/></g><path d="M51.911,16.784c-.139-.343-.381-.584-.723-.723-11.671-.038-23.344-.051-35.015-.038-.328.164-.569.417-.723.761-.038,10.301-.051,20.603-.038,30.905,3.425.013,6.851,0,10.276-.038-.366-.352-.696-.733-.99-1.142-2.689-.038-5.379-.051-8.069-.038v-22.532h34.102v22.532c-2.689-.013-5.379,0-8.069.038-.33.381-.66.761-.99,1.142,3.425.038,6.851.051,10.276.038.013-10.301,0-20.603-.038-30.905ZM49.018,17.849c.129-.218.294-.395.495-.533.824-.052,1.191.329,1.104,1.142-.231.464-.599.63-1.104.495-.464-.231-.63-.599-.495-1.104ZM45.973,17.849c.129-.218.294-.395.495-.533.824-.052,1.191.329,1.104,1.142-.231.464-.599.63-1.104.495-.464-.231-.63-.599-.495-1.104ZM42.929,17.849c.129-.218.294-.395.495-.533.824-.052,1.191.329,1.104,1.142-.231.464-.599.63-1.104.495-.464-.231-.63-.599-.495-1.104ZM44.641,22.721h-28.012v-2.436h28.012v2.436ZM50.731,22.721h-4.872v-2.436h4.872v2.436Z" fill="#fff" fill-rule="evenodd" isolation="isolate" opacity=".996"/><path d="M47.077,27.593c-2.486.271-4.972.284-7.46.038-2.058-.212-3.986-.821-5.785-1.827-.098-.037-.2-.05-.304-.038-1.782,1.038-3.71,1.659-5.785,1.865-2.488.246-4.974.233-7.46-.038-.108,4.206.539,8.291,1.941,12.255,1.242,3.362,3.208,6.217,5.899,8.563,1.634,1.375,3.486,2.352,5.557,2.931,2.07-.579,3.923-1.555,5.557-2.931,2.691-2.347,4.657-5.201,5.899-8.563,1.402-3.964,2.049-8.05,1.941-12.255ZM28.275,41.561c-.872.08-1.735.029-2.588-.152-.842-.504-1.197-1.253-1.066-2.246h1.142c-.012.255,0,.508.038.761.027.179.115.318.266.419.837.051,1.675.051,2.512,0,.139-.038.228-.127.266-.266.051-.66.051-1.319,0-1.979-.084-.177-.224-.291-.419-.343-.919-.124-1.832-.276-2.74-.457-.902-.521-1.283-1.307-1.142-2.36-.113-1.392.496-2.217,1.827-2.474.61-.013,1.219,0,1.827.038.829.068,1.4.486,1.713,1.256.069.378.107.758.114,1.142h-1.218c.013-.331,0-.661-.038-.99l-.19-.19c-.862-.051-1.726-.051-2.588,0l-.19.19c-.051.685-.051,1.37,0,2.055.063.165.177.279.343.343.945.117,1.885.269,2.816.457.888.534,1.243,1.32,1.066,2.36.201,1.395-.383,2.207-1.751,2.436ZM34.974,41.561c-.872.08-1.735.029-2.588-.152-.842-.504-1.197-1.253-1.066-2.246h1.142c-.012.255,0,.508.038.761.027.179.115.318.266.419.837.051,1.675.051,2.512,0,.139-.038.228-.127.266-.266.051-.66.051-1.319,0-1.979-.084-.177-.224-.291-.419-.343-.919-.124-1.832-.276-2.74-.457-.902-.521-1.283-1.307-1.142-2.36-.113-1.392.496-2.217,1.827-2.474.61-.013,1.219,0,1.827.038.829.068,1.4.486,1.713,1.256.069.378.107.758.114,1.142h-1.218c.013-.331,0-.661-.038-.99l-.19-.19c-.862-.051-1.726-.051-2.588,0l-.19.19c-.051.685-.051,1.37,0,2.055.063.165.177.279.343.343.945.117,1.885.269,2.816.457.888.534,1.243,1.32,1.066,2.36.201,1.395-.383,2.207-1.751,2.436ZM42.205,41.599h-4.263v-9.134h1.218v7.916h3.045v1.218Z" fill="#fff" fill-rule="evenodd" isolation="isolate" opacity=".985"/></svg>