<?xml version="1.0" encoding="UTF-8"?><svg id="a" xmlns="http://www.w3.org/2000/svg" width="67.36" height="67.36" viewBox="0 0 67.36 67.36"><rect width="67.36" height="67.36" rx="12.09" ry="12.09" fill="#5138cc"/><path d="M35.613,33.311c.855.58,1.452,1.498,2.06,2.318.037.05.074.099.112.15,1.941,2.62,3.709,5.391,5.463,8.138.043.067.086.135.131.204.04.062.079.125.12.189.035.055.07.11.106.166.254.421.293.751.238,1.242-.154.352-.366.53-.713.679-.395.117-.671.045-1.036-.139-.295-.168-.579-.354-.864-.54-.11-.071-.219-.141-.329-.212-.351-.227-.7-.456-1.049-.686-.284-.187-.569-.374-.853-.56-.279-.183-.558-.366-.837-.55-.138-.091-.277-.182-.415-.272-.843-.553-1.677-1.116-2.5-1.698-.288-.203-.578-.401-.87-.598-.712-.481-1.399-.989-2.073-1.521-.04-.031-.079-.062-.12-.094-.231-.181-.456-.367-.678-.559-.058-.049-.116-.099-.176-.149-.683-.625-1.085-1.464-1.131-2.391-.007-.972.284-1.894.941-2.627,1.248-1.189,3.011-1.339,4.475-.49Z" fill="#fff"/><path d="M15.1,37.298h6.895q.145.726.208,1.055c.457,2.362,1.552,4.353,3.196,6.098.246.286.32.481.325.858.002.066.004.133.006.201-.067.416-.376.713-.664,1.003-.067.068-.134.136-.203.205-.073.073-.145.145-.218.218-.075.075-.15.151-.226.227-.157.158-.314.315-.472.472-.202.201-.402.403-.603.605-.155.156-.31.311-.466.467-.074.074-.148.149-.222.223-.103.104-.207.208-.312.311-.059.059-.118.118-.179.179-.337.284-.658.323-1.085.311-.801-.099-1.524-1.244-1.989-1.836-.057-.07-.113-.14-.172-.212-1.937-2.438-3.141-5.339-3.666-8.394-.016-.09-.031-.179-.047-.272-.014-.087-.028-.174-.043-.264-.012-.076-.025-.152-.038-.231-.038-.407-.026-.817-.026-1.225Z" fill="#fff"/><path d="M47.544,23.798q.481.396.656.625c.037.048.074.096.112.146.038.051.076.102.116.155.041.054.082.108.124.164,2.206,2.957,3.71,6.583,3.71,10.306h-6.895c-.096-.503-.192-1.006-.29-1.524-.061-.26-.121-.512-.195-.767-.018-.062-.036-.124-.055-.187-.438-1.44-1.164-2.768-2.146-3.909.122-.317.358-.523.595-.756.046-.046.092-.092.14-.14.152-.152.305-.303.457-.455.106-.105.211-.211.317-.316.278-.277.556-.554.834-.83.284-.282.567-.565.851-.848.556-.555,1.113-1.109,1.67-1.663Z" fill="#fff"/><path d="M19.745,23.798c.339.283.661.578.972.891q.065.065.131.131c.141.141.282.283.423.424.099.099.197.197.296.296.258.258.516.517.774.775.264.264.527.528.791.793.517.517,1.033,1.035,1.549,1.553-.107.225-.234.418-.383.618-1.33,1.792-1.918,3.735-2.303,5.914h-6.895c0-.642.017-1.217.118-1.842.013-.081.026-.162.039-.246.557-3.348,2.059-6.879,4.488-9.308Z" fill="#fff"/><path d="M32.209,17.627q.108,0,.217,0c.055,0,.109,0,.165,0,.002.898.003,1.796.004,2.693,0,.417,0,.834.002,1.25,0,.402.001.804.001,1.206,0,.154,0,.307,0,.461,0,.214,0,.429,0,.643,0,.064,0,.128,0,.195q0,.438-.082.519c-.143.023-.287.045-.43.065-2.05.287-3.945,1.05-5.559,2.355q-.181.12-.471.12c-.169-.142-.319-.283-.473-.44-.047-.047-.094-.093-.142-.142-.155-.155-.308-.311-.462-.467-.107-.107-.214-.215-.321-.322-.282-.283-.563-.567-.843-.851-.287-.289-.574-.578-.861-.867-.564-.567-1.126-1.135-1.689-1.703.217-.279.442-.505.721-.721q.065-.051.132-.103c2.802-2.139,6.482-3.908,10.087-3.895Z" fill="#fff"/><path d="M34.77,17.628q.84-.009,1.228.048.11.016.223.033c.077.012.153.024.232.037.082.013.163.026.247.039,3.271.54,6.36,1.889,8.884,4.053q.08.068.162.137c.116.099.231.198.346.298-.283.339-.578.661-.891.972q-.065.065-.131.131c-.141.141-.283.282-.424.423-.099.099-.197.197-.296.296-.258.258-.517.516-.775.774-.264.264-.528.527-.793.791-.517.517-1.035,1.033-1.553,1.549-.222-.106-.413-.231-.611-.379-1.628-1.214-3.509-1.969-5.53-2.202q-.246-.031-.319-.104c-.007-.214-.009-.427-.008-.641,0-.067,0-.135,0-.204,0-.223,0-.447.001-.67,0-.154,0-.309,0-.463,0-.407,0-.815.002-1.222,0-.415.001-.831.001-1.246,0-.816.002-1.632.004-2.448Z" fill="#fff"/><path d="M45.367,37.298h6.895q0,1.064-.062,1.448-.021.129-.042.26t-.047.269c-.008.047-.016.094-.024.142-.632,3.66-2.437,7.69-5.342,10.146-.219.135-.388.167-.644.168-.06.001-.119.002-.181.004-.543-.075-.869-.456-1.234-.829-.053-.053-.107-.106-.162-.161q-.392-.396-.392-.56.125-.092.295-.195c.759-.497,1.194-1.134,1.444-2.007.279-1.478-.511-2.586-1.303-3.75-.051-.069-.101-.138-.153-.209-.041-.055-.081-.111-.123-.168-.035-.044-.07-.089-.106-.135-.084-.224.003-.361.092-.578q.048-.116.097-.235c.035-.084.071-.168.107-.255.39-.958.618-1.937.77-2.958q.042-.254.115-.399Z" fill="#fff"/></svg>