<?xml version="1.0" encoding="UTF-8"?><svg id="a" xmlns="http://www.w3.org/2000/svg" width="67.36" height="67.36" viewBox="0 0 67.36 67.36"><g id="b"><rect width="67.36" height="67.36" rx="12.09" ry="12.09" fill="#5138cc"/></g><path d="M48.073,17.006c-4.731.379-9.455,2.235-13.526,5.306-.941.706-1.503,1.202-2.614,2.294l-.98.967-.784.039c-3.882.196-8.051,2.013-10.9,4.751-.542.523-.569.562-.569.823,0,.209.046.327.183.477l.176.203,2.797.405,2.79.405-.386.438c-.438.497-.523.725-.372,1.046.144.294,9.103,9.24,9.344,9.331.301.111.529.02,1.006-.392l.438-.386.392,2.725c.281,1.947.425,2.784.503,2.901.157.235.51.346.804.248.405-.131,1.575-1.496,2.529-2.941,1.64-2.477,2.692-5.633,2.836-8.462l.039-.784.967-.98c1.451-1.477,2.254-2.457,3.32-4.064,2.705-4.058,4.326-9.018,4.326-13.206,0-.706-.118-1.006-.431-1.124-.15-.059-1.268-.072-1.888-.02ZM41.526,23.136c1.353.288,2.405,1.34,2.692,2.692.052.242.098.562.098.706,0,1.235-.817,2.555-1.908,3.091-.464.229-1.157.405-1.588.405-1.228,0-2.555-.823-3.091-1.908-.229-.464-.405-1.157-.405-1.588,0-.863.405-1.81,1.046-2.45.856-.856,1.993-1.196,3.156-.948Z" fill="#fff"/><path d="M23.177,39.315c-.797.118-1.549.457-2.222,1.013-.882.719-1.947,3.019-3.339,7.195-.745,2.235-.771,2.372-.464,2.679s.451.281,2.666-.457c4.182-1.392,6.489-2.464,7.208-3.346,1.457-1.777,1.398-4.169-.144-5.796-.66-.699-1.542-1.15-2.535-1.294-.516-.072-.627-.072-1.17.007Z" fill="#fff"/></svg>