<?xml version="1.0" encoding="UTF-8"?><svg id="a" xmlns="http://www.w3.org/2000/svg" width="71" height="71" viewBox="0 0 71 71"><rect width="71" height="71" rx="6.855" ry="6.855" fill="#fff"/><path d="M35.147,18.025c-.241.241-.269.469-.241,1.849l.021,1.186.193.166c.248.214.538.214.786,0,.193-.166.193-.172.214-1.166l.028-1,.386.028c.945.083,1.683.179,2.324.317,3.069.628,5.877,2.124,8.132,4.325,1.414,1.386,2.469,2.842,3.318,4.594.793,1.614,1.269,3.159,1.531,4.925.145,1.007.166,3.483.028,4.387-.462,3.145-1.669,5.952-3.559,8.277-.669.828-2.049,2.159-2.862,2.766-2.297,1.717-4.863,2.773-7.829,3.207-.904.138-3.38.117-4.387-.028-1.766-.262-3.311-.738-4.925-1.531-1.752-.848-3.207-1.904-4.594-3.318-2.2-2.255-3.697-5.063-4.325-8.132-.138-.641-.235-1.379-.317-2.324l-.028-.386,1-.028c.993-.021,1-.021,1.166-.214.214-.248.214-.538,0-.786l-.166-.193-1.235-.021c-1.959-.041-1.993-.014-1.924,1.421.124,2.504.69,4.683,1.793,6.946,1.414,2.876,3.476,5.221,6.159,7.008,1.552,1.028,3.911,2.035,5.711,2.435,1.504.338,2.242.414,3.966.414s2.462-.076,3.966-.414c1.8-.4,4.159-1.407,5.711-2.435,2.683-1.786,4.745-4.132,6.159-7.008.862-1.759,1.352-3.338,1.662-5.345.166-1.11.166-3.718,0-4.828-.31-2.007-.8-3.587-1.662-5.345-.924-1.876-1.952-3.311-3.435-4.773-1.455-1.442-2.787-2.386-4.642-3.297-2.269-1.117-4.463-1.683-6.973-1.8l-.979-.048-.172.172Z" fill="#6232d7"/><path d="M32.291,18.219c-.359.145-.372.4-.09,1.931.228,1.255.324,1.448.724,1.448.338,0,.586-.228.586-.545,0-.29-.317-2.138-.421-2.469-.117-.372-.428-.517-.8-.366Z" fill="#6232d7"/><path d="M29.298,19.108c-.11.11-.2.276-.2.366,0,.159.724,2.214.89,2.524.269.497,1.042.31,1.042-.255,0-.386-.786-2.49-1.007-2.683-.235-.207-.483-.193-.724.048Z" fill="#6232d7"/><path d="M26.78,20.219c-.2.076-.372.338-.372.545,0,.214,1.2,2.311,1.428,2.49.097.076.255.138.345.138.221,0,.572-.352.572-.572,0-.166-1.159-2.255-1.366-2.476-.152-.145-.421-.207-.607-.124Z" fill="#6232d7"/><path d="M24.304,21.957c-.345.2-.407.593-.159.924.428.559,1.538,1.835,1.648,1.89.372.2.821-.083.821-.51,0-.214-.117-.386-.862-1.276-.917-1.104-1.097-1.228-1.448-1.028Z" fill="#6232d7"/><path d="M22.145,24.061c-.048.021-.131.124-.193.241-.2.393-.103.538,1.014,1.469.862.717,1.069.862,1.255.862.248-.007.4-.097.524-.331.172-.324.041-.524-.841-1.276-.462-.386-.931-.779-1.042-.862-.186-.145-.504-.193-.717-.103Z" fill="#6232d7"/><path d="M20.366,26.592c-.241.2-.269.593-.055.793.235.228,2.318,1.386,2.49,1.386.228,0,.572-.352.572-.579,0-.097-.083-.269-.186-.379-.262-.276-2.221-1.386-2.449-1.386-.103,0-.269.076-.372.166Z" fill="#6232d7"/><path d="M42.41,26.813c-.786.214-1.545.835-1.89,1.566-.8,1.704.2,3.731,2.042,4.125,1.276.276,2.642-.386,3.235-1.58.228-.441.235-.49.235-1.255,0-.752-.014-.821-.221-1.262-.607-1.283-2.042-1.959-3.4-1.593ZM43.693,27.978c.717.214,1.2.876,1.2,1.662,0,.724-.359,1.29-1,1.586-.648.303-1.352.193-1.897-.297-.786-.71-.779-1.924.021-2.607.476-.414,1.055-.531,1.676-.345Z" fill="#6232d7"/><path d="M35.326,28.434c-.152.028-.4.117-.552.193-.145.076-1.242,1.117-2.449,2.331-2.269,2.283-2.331,2.359-2.331,2.918,0,.538.366,1.097.862,1.317.359.166.89.166,1.242,0,.172-.083.869-.731,1.897-1.759l1.621-1.628,1.242,1.242c1.517,1.511,1.773,1.655,2.552,1.442.179-.048.393-.193.6-.407.421-.435.531-.876.359-1.448-.103-.359-.214-.483-1.883-2.145-.973-.973-1.869-1.821-1.993-1.89-.31-.152-.814-.228-1.166-.166ZM37.609,31.324c1.683,1.683,1.717,1.717,1.614,1.876-.062.09-.159.172-.228.179-.076.021-.614-.462-1.614-1.455-.828-.828-1.552-1.49-1.628-1.497s-.2-.014-.276-.007-.917.786-2,1.869c-1.214,1.207-1.917,1.862-2.007,1.862-.166,0-.303-.124-.303-.276,0-.138,4.049-4.18,4.276-4.269.097-.034.235-.048.31-.028.076.014.91.807,1.855,1.745Z" fill="#6232d7"/><path d="M19.09,29.316c-.241.241-.255.49-.041.724.166.193,2.262,1.007,2.614,1.021.552.021.828-.717.379-1.014-.241-.152-2.393-.931-2.587-.931-.09,0-.255.09-.366.2Z" fill="#6232d7"/><path d="M18.303,32.186c-.317.31-.138.855.324.959.545.131,2.152.386,2.38.386.352,0,.572-.221.572-.559,0-.428-.172-.517-1.448-.752-1.407-.255-1.607-.262-1.828-.034Z" fill="#6232d7"/><path d="M40.768,35.041c-.566.372-1.048.731-1.069.8-.028.062-.048.635-.048,1.262,0,1.069.014,1.179.166,1.497.193.407.524.738.904.91.248.11.545.124,2.711.145,2.869.028,3,.007,3.449-.51.731-.821.372-2.076-.683-2.373-.131-.041-1-.069-1.938-.069h-1.711v-1c0-.979-.007-1.014-.172-1.173-.29-.297-.476-.235-1.607.51ZM41.568,37.69c.152.152.2.152,2.269.186s2.111.034,2.207.186c.09.131.083.166-.048.297-.145.145-.179.145-2.49.124l-2.352-.021-.166-.193c-.152-.179-.166-.248-.166-1.014v-.821l.262-.179.255-.172.041.724c.028.628.055.745.186.883Z" fill="#6232d7"/><path d="M34.788,36.655c-.572.276-.862.717-.862,1.311,0,.559.235.869,1.924,2.566l1.586,1.58-1.228,1.248c-.966.979-1.248,1.311-1.352,1.573-.338.897.283,1.883,1.242,1.966.669.055.883-.103,2.8-2.035,1.062-1.069,1.738-1.814,1.821-1.986.221-.462.221-.993.007-1.462-.159-.345-.49-.704-2.304-2.511-1.166-1.166-2.221-2.166-2.352-2.235-.393-.2-.89-.207-1.283-.014ZM37.602,39.794c1.524,1.531,2.118,2.166,2.118,2.276,0,.297-.2.538-1.773,2.097-1.655,1.648-1.8,1.752-1.966,1.393-.076-.166-.028-.228,1.338-1.6.779-.786,1.455-1.497,1.497-1.58.172-.345.131-.407-1.821-2.366-1.214-1.214-1.897-1.952-1.897-2.042,0-.166.124-.303.276-.303.055,0,1.062.959,2.228,2.124Z" fill="#6232d7"/><path d="M29.781,42.408c-1.849,1.855-3.414,3.469-3.476,3.6-.062.124-.131.386-.152.586-.069.724.559,1.455,1.324,1.538.683.083.662.097,4.269-3.49,1.897-1.89,3.338-3.38,3.394-3.504.145-.338.028-.531-.793-1.366-.648-.648-.745-.724-.966-.724-.235,0-.421.179-3.6,3.359ZM30.857,43.884c-1.635,1.628-3.021,3-3.09,3.035-.166.097-.379.014-.435-.159-.034-.117.448-.635,3.014-3.2l3.062-3.062.207.207.207.207-2.966,2.973Z" fill="#6232d7"/></svg>