<?xml version="1.0" encoding="UTF-8"?><svg id="a" xmlns="http://www.w3.org/2000/svg" width="67.36" height="67.36" viewBox="0 0 67.36 67.36"><g id="b"><rect width="67.36" height="67.36" rx="12.09" ry="12.09" fill="#5138cc"/></g><path d="M20.664,18.005c-.252.117-.511.406-.585.659-.037.129-.062,2.777-.062,7.086v6.883h-.634c-.788,0-1.096.129-1.318.554l-.142.265v7.56c0,5.19.018,7.616.068,7.733.086.234.351.511.591.61.166.074,1.478.086,7.764.086h7.566l.265-.142c.425-.222.554-.529.554-1.318v-.634h6.883c4.457,0,6.957-.025,7.105-.062.277-.08.646-.474.696-.751.018-.111.025-6.44.018-14.062l-.018-13.852-.154-.228c-.086-.129-.265-.283-.406-.351-.246-.123-.406-.123-14.129-.123-11.457.006-13.908.018-14.062.086ZM47.353,32.633v12.621h-12.621v-11.802l-.142-.265c-.099-.185-.228-.314-.412-.412l-.265-.142h-11.802v-12.621h25.242v12.621ZM32.638,41.037v6.311h-12.621v-12.621h12.621v6.311Z" fill="#fff"/><path d="M38.58,22.198c-.825.296-.923,1.484-.148,1.878.215.111.363.123,1.73.123h1.496l-2.875,2.875c-2.444,2.456-2.881,2.918-2.943,3.14-.24.8.511,1.551,1.311,1.311.222-.062.683-.499,3.14-2.943l2.875-2.875v1.502c0,1.434.006,1.508.135,1.742.443.782,1.65.634,1.89-.228.043-.166.068-1.311.068-3.435v-3.183h-3.214c-2.61.006-3.269.025-3.466.092Z" fill="#fff"/></svg>