<?xml version="1.0" encoding="UTF-8"?><svg id="a" xmlns="http://www.w3.org/2000/svg" width="67.36" height="67.36" viewBox="0 0 67.36 67.36"><g id="b"><rect width="67.36" height="67.36" rx="12.09" ry="12.09" fill="#5138cc"/></g><path d="M28.399,25.056c3.467-.166,6.174,1.171,8.122,4.011,1.427,2.393,1.694,4.911.802,7.554-1.848.589-3.319,1.681-4.412,3.276-.373.613-.674,1.259-.902,1.939-1.771.585-3.554.618-5.348.1-.286-.073-.553-.184-.802-.334,1.047-1.047,2.095-2.095,3.142-3.142,3.004.358,5.177-.812,6.518-3.51.463-1.197.552-2.423.267-3.677-.191-.461-.514-.583-.969-.368l-2.507,2.507c-.739-.226-1.485-.427-2.239-.602-.175-.754-.375-1.501-.602-2.239l2.507-2.507c.216-.456.093-.779-.368-.969-2.868-.532-5.062.437-6.585,2.908-.604,1.234-.805,2.526-.602,3.877-1.047,1.047-2.095,2.095-3.142,3.142-1.157-2.934-.867-5.719.869-8.356,1.57-2.093,3.653-3.296,6.25-3.61Z" fill="#fff" fill-rule="evenodd" isolation="isolate" opacity=".965"/><path d="M29.469,28.198c.184-.021.362.001.535.067-.578.612-1.169,1.213-1.772,1.805l-.1.301c.283,1.139.606,2.264.969,3.376.095.064.195.12.301.167,1.035.284,2.071.562,3.109.836l.301-.1c.591-.603,1.193-1.193,1.805-1.772-.042,1.836-.888,3.162-2.54,3.978-1.045.434-2.115.512-3.209.234-.113.027-.225.06-.334.1-1.282,1.293-2.575,2.575-3.877,3.844-1.136-.735-2.072-1.671-2.808-2.808,1.269-1.303,2.551-2.595,3.844-3.877.04-.109.074-.221.1-.334-.53-2.539.361-4.377,2.674-5.515.339-.112.674-.213,1.003-.301Z" fill="#fff" fill-rule="evenodd" isolation="isolate" opacity=".965"/><path d="M26.661,16.633h5.081c.287,1.58.655,3.14,1.103,4.68.846.328,1.682.685,2.507,1.07,1.384-.794,2.744-1.629,4.078-2.507.045-.045.089-.045.134,0,1.171,1.16,2.33,2.33,3.476,3.51-.881,1.361-1.728,2.743-2.54,4.145.365.816.71,1.641,1.036,2.473.346.179.714.301,1.103.368,1.2.278,2.403.534,3.61.769.022,1.687,0,3.37-.067,5.047-1.326.301-2.652.602-3.978.902-1.125-.449-2.295-.672-3.51-.669.969-3.855.055-7.187-2.741-9.994-3.093-2.646-6.569-3.293-10.429-1.939-3.287,1.416-5.304,3.878-6.05,7.387-.605,4.393.921,7.813,4.579,10.261,2.434,1.418,5.019,1.786,7.755,1.103-.116,1.359.129,2.651.735,3.877-.31,1.194-.577,2.398-.802,3.61h-5.081c-.235-1.207-.491-2.41-.769-3.61-.066-.389-.189-.757-.368-1.103-.833-.326-1.657-.671-2.473-1.036-1.402.812-2.783,1.659-4.145,2.54-1.18-1.147-2.35-2.305-3.51-3.476.675-1.169,1.388-2.327,2.139-3.476.158-.226.28-.472.368-.735-.385-.825-.741-1.661-1.07-2.507-1.539-.427-3.088-.817-4.646-1.17-.045-1.649-.045-3.298,0-4.947,1.557-.356,3.106-.746,4.646-1.17.328-.846.685-1.682,1.07-2.507-.794-1.384-1.629-2.744-2.507-4.078-.045-.045-.045-.089,0-.134,1.16-1.171,2.33-2.33,3.51-3.476,1.361.881,2.743,1.728,4.145,2.54.816-.365,1.641-.71,2.473-1.036.156-.257.257-.535.301-.836.3-1.289.579-2.582.836-3.877Z" fill="#fff" fill-rule="evenodd" isolation="isolate" opacity=".982"/><path d="M55.205,43.172v1.357c-.45,2.338-1.836,3.787-4.157,4.348-1.5.247-2.857-.078-4.072-.976-.501-.458-.988-.932-1.463-1.421-1.591-1.647-3.181-3.294-4.772-4.942-1.465-1.156-2.922-1.141-4.369.042-1.06,1.192-1.223,2.5-.488,3.924.887,1.253,2.082,1.712,3.584,1.379.498-.157.936-.411,1.315-.764.423-.465.861-.918,1.315-1.357.471.429.938.881,1.4,1.357-.669.768-1.404,1.461-2.206,2.078-1.13.673-2.346.899-3.648.679-2.321-.56-3.707-2.01-4.157-4.348v-1.357c.45-2.338,1.836-3.787,4.157-4.348,1.5-.247,2.857.078,4.072.976.501.458.988.932,1.463,1.421,1.577,1.633,3.153,3.266,4.729,4.899,1.47,1.216,2.941,1.216,4.411,0,1.06-1.192,1.223-2.5.488-3.924-.881-1.269-2.075-1.729-3.584-1.379-.477.153-.901.394-1.273.721-.437.479-.889.946-1.357,1.4-.471-.429-.938-.881-1.4-1.357.669-.768,1.404-1.461,2.206-2.078,1.319-.778,2.719-.962,4.199-.551,2.02.712,3.222,2.119,3.605,4.22Z" fill="#fff" fill-rule="evenodd" isolation="isolate" opacity=".972"/></svg>