<?xml version="1.0" encoding="UTF-8"?><svg id="a" xmlns="http://www.w3.org/2000/svg" width="41" height="41" viewBox="0 0 41 41"><rect width="41" height="41" rx="1.078" ry="1.078" fill="#6232d7"/><path d="M19.069,19.681c.034,0,.068,0,.103,0,.112,0,.224,0,.335,0,.078,0,.157,0,.235,0,.164,0,.328,0,.493,0,.209,0,.418,0,.628-.001.162,0,.324,0,.486,0,.077,0,.154,0,.231,0,.933-.003,1.774.102,2.47.787.032.032.064.064.097.098.024.024.049.047.074.071.574.596.661,1.408.662,2.195,0,.055,0,.111,0,.166,0,.149,0,.299,0,.448,0,.093,0,.187,0,.28,0,.293,0,.585,0,.878,0,.337,0,.674.002,1.011,0,.261.001.522.001.784,0,.156,0,.312,0,.467,0,.146,0,.293,0,.439,0,.054,0,.107,0,.161q.004.629-.207.846c-.209.127-.397.143-.635.142-.032,0-.063,0-.096,0-.106,0-.211,0-.317,0-.076,0-.151,0-.227,0-.206,0-.411,0-.617,0-.172,0-.343,0-.515,0-.405,0-.81,0-1.215,0-.418,0-.836,0-1.253.001-.359,0-.718,0-1.076,0-.214,0-.428,0-.643,0-.201,0-.403,0-.604,0-.074,0-.148,0-.222,0-.101,0-.202,0-.303,0-.029,0-.058,0-.088,0-.233-.002-.445-.04-.617-.208-.11-.181-.141-.344-.141-.554,0-.047,0-.094,0-.143,0-.052,0-.104,0-.155,0-.055,0-.11,0-.165,0-.149,0-.298,0-.447,0-.156,0-.313,0-.469,0-.263,0-.525,0-.788,0-.303,0-.605,0-.908,0-.261,0-.521,0-.782,0-.155,0-.311,0-.466,0-.146,0-.293,0-.439,0-.053,0-.107,0-.16-.002-.862.169-1.63.788-2.259q.048-.048.098-.097c.024-.024.047-.049.071-.074.535-.516,1.284-.661,2-.661Z" fill="#fff"/><path d="M22.859,13.529c.669.69.909,1.565.897,2.505-.022.698-.304,1.387-.776,1.902-.018.022-.036.045-.054.068-.474.598-1.278.956-2.02,1.054-.841.089-1.69-.111-2.367-.63-.052-.042-.104-.085-.155-.128-.022-.017-.044-.034-.067-.052-.54-.433-.97-1.221-1.057-1.911-.084-.948.08-1.829.689-2.581.081-.093.165-.183.252-.271.028-.028.055-.056.084-.085,1.312-1.256,3.316-1.057,4.574.129Z" fill="#fff"/><path d="M25.679,21.109c.249-.004.498-.006.747-.008.084,0,.169-.002.253-.003.599-.009,1.163,0,1.706.287.024.012.048.025.072.037.605.328,1.039.864,1.271,1.511.009.026.019.053.029.08.118.394.097.8.096,1.208,0,.083,0,.165,0,.248,0,.173,0,.345,0,.518,0,.22,0,.441.001.661,0,.17,0,.341,0,.511,0,.081,0,.162,0,.244.003.617-.045,1.083-.477,1.557-.029.026-.059.053-.089.08q-.038.036-.078.073c-.464.323-.974.34-1.521.335-.054,0-.108,0-.163,0-.141,0-.282,0-.423-.002-.145,0-.289-.001-.434-.001-.282,0-.565-.002-.847-.004.006-.043.012-.085.018-.129.018-.143.023-.284.024-.428,0-.025,0-.05,0-.076,0-.083,0-.166,0-.249,0-.06,0-.12,0-.18,0-.162,0-.324,0-.486,0-.102,0-.203,0-.305,0-.318,0-.637,0-.955,0-.366,0-.732.002-1.099,0-.284.001-.568.001-.852,0-.169,0-.338,0-.508,0-.159,0-.319,0-.478,0-.058,0-.116,0-.174.002-.377-.036-.718-.123-1.085-.014-.066-.029-.132-.043-.198-.01-.043-.02-.086-.03-.13Z" fill="#fff"/><path d="M14.444,21.1c.085,0,.17.001.256.002.207.002.413.004.62.007q-.015.063-.031.127c-.013.056-.027.112-.04.167-.007.027-.013.055-.02.083q-.01.041-.02.082t-.018.075c-.041.202-.059.398-.059.604,0,.025,0,.05,0,.076,0,.084,0,.167,0,.251,0,.06,0,.121,0,.181,0,.163,0,.327,0,.49,0,.171,0,.342,0,.514,0,.287,0,.575,0,.862,0,.332,0,.664,0,.996,0,.285,0,.571,0,.856,0,.17,0,.341,0,.511,0,.16,0,.32,0,.48,0,.059,0,.117,0,.176,0,.08,0,.161,0,.241,0,.045,0,.09,0,.136.005.143.021.281.041.423-.311.002-.622.003-.933.004-.144,0-.289,0-.433.002-.14,0-.28.001-.419.001-.053,0-.106,0-.159,0-.421.003-.829-.003-1.208-.204q-.062-.032-.125-.065c-.363-.215-.601-.57-.717-.974-.017-.081-.022-.152-.022-.235,0-.031,0-.062,0-.094,0-.034,0-.067,0-.102,0-.036,0-.072,0-.108,0-.119-.001-.237-.002-.356,0-.041,0-.081,0-.123,0-.215-.001-.431-.002-.646,0-.221-.002-.443-.003-.664,0-.171-.001-.342-.001-.513,0-.082,0-.163-.001-.245-.007-.878.168-1.618.798-2.264.718-.682,1.557-.771,2.501-.756Z" fill="#fff"/><path d="M27.623,16c.537.411.859.948.996,1.605.093.739-.088,1.415-.542,2.006-.415.473-1.004.798-1.637.847-.667.035-1.306-.109-1.821-.554-.511-.47-.836-1.054-.882-1.755-.01-.709.217-1.363.71-1.882.868-.824,2.184-.937,3.176-.267Z" fill="#fff"/><path d="M14.686,15.559c.634-.019,1.24.182,1.727.593.494.466.802,1.04.848,1.722.019.747-.239,1.368-.745,1.91-.516.494-1.159.69-1.86.678-.626-.025-1.188-.305-1.634-.74-.472-.519-.687-1.149-.668-1.844.038-.716.378-1.295.897-1.77.411-.341.907-.518,1.435-.55Z" fill="#fff"/></svg>