<?xml version="1.0" encoding="UTF-8"?><svg id="a" xmlns="http://www.w3.org/2000/svg" width="41" height="41" viewBox="0 0 41 41"><rect width="41" height="41" rx="1.078" ry="1.078" fill="#6232d7"/><path d="M29.618,10.513c.077.067.153.135.228.204.022.02.044.04.067.061.905.829,1.494,1.998,1.57,3.231.055,1.363-.331,2.667-1.262,3.686-.883.931-2.068,1.52-3.361,1.572-1.303.03-2.443-.342-3.45-1.171q-.043-.034-.088-.068c-.343-.273-.599-.653-.856-1.005-.195.059-.372.138-.552.233-.028.014-.056.029-.085.044-.091.047-.182.095-.273.142-.063.033-.127.066-.19.099-.129.067-.258.134-.387.201-.172.089-.343.178-.515.267-.493.255-.985.511-1.474.774.006.024.013.049.019.074.029.112.057.224.086.336q.015.058.03.116c.246.973.146,1.953-.134,2.906.451.236.902.472,1.355.704.032.016.063.033.096.049.162.083.325.167.487.25.282.144.563.29.842.439.042.023.084.045.127.068.076.041.151.082.226.123.032.017.065.035.098.053q.041.023.083.046.082.038.202-.017c.057-.072.111-.147.164-.223.73-1.011,1.861-1.719,3.093-1.93,1.321-.191,2.658.088,3.741.879.085.066.169.133.252.201.039.032.079.063.119.096.879.75,1.435,1.857,1.597,2.993.039.706.05,1.425-.172,2.102q-.014.044-.028.088c-.384,1.194-1.218,2.212-2.331,2.798-.748.378-1.494.571-2.331.564-.029,0-.058,0-.087,0-.471-.003-.909-.043-1.358-.19q-.044-.014-.088-.028c-.61-.196-1.143-.495-1.628-.916-.036-.03-.071-.06-.108-.091-.889-.768-1.491-1.91-1.608-3.084-.006-.19-.006-.381-.005-.571,0-.05,0-.101,0-.152q0-.074,0-.15c0-.044,0-.089,0-.134.007-.194.027-.386.048-.579-.047-.024-.094-.048-.143-.073q-2.462-1.259-3.504-1.815c-.178.15-.349.303-.518.464-.965.877-2.248,1.267-3.538,1.216-1.392-.086-2.579-.734-3.495-1.766-.928-1.084-1.127-2.395-1.073-3.775.018-.222.065-.431.129-.644.014-.051.028-.103.043-.155.351-1.167,1.17-2.221,2.24-2.814,1.23-.649,2.593-.826,3.933-.424.887.286,1.601.788,2.236,1.463l.105-.052c.024-.012.049-.024.074-.037.058-.029.116-.058.174-.087.186-.093.372-.186.558-.278.596-.296,1.19-.594,1.777-.907.201-.106.402-.212.603-.317.077-.04.154-.081.231-.121.056-.029.112-.059.168-.088-.003-.024-.006-.049-.009-.074-.158-1.41.063-2.8.958-3.937.055-.065.11-.129.166-.193q.035-.044.072-.089c1.59-1.93,4.737-2.099,6.651-.587ZM25.523,11.651c-.245.299-.389.67-.37,1.059.059.391.228.744.534.998.34.242.694.368,1.112.312.427-.101.768-.311,1.006-.684.196-.359.251-.717.147-1.115-.136-.412-.379-.702-.762-.903-.583-.265-1.222-.118-1.667.334ZM24.571,14.784c-.287.311-.318.569-.321.982-.001.045-.003.089-.004.135-.002.351.072.639.312.904.251.241.573.322.913.355.034.003.068.007.102.01q1.585.164,3.032-.299c.28-.254.343-.523.376-.889.019-.391.021-.796-.249-1.105-.494-.486-1.328-.35-1.972-.349-.13,0-.26,0-.39,0q-.954-.065-1.798.255ZM13.239,17.814c-.268.36-.356.74-.297,1.183.093.38.317.726.646.941.362.202.718.252,1.121.168.398-.12.695-.378.906-.732.16-.336.179-.733.085-1.093-.04-.097-.086-.182-.142-.271-.018-.03-.035-.06-.054-.09-.21-.318-.528-.494-.89-.596-.544-.067-1.005.082-1.377.49ZM12.202,21.032c-.262.384-.239.901-.18,1.347.061.287.211.474.423.67.297.177.641.219.98.246.041.003.081.007.123.01q1.483.134,2.845-.329c.296-.317.334-.652.338-1.07.001-.044.002-.087.004-.132.003-.349-.066-.572-.291-.839-.385-.321-.846-.272-1.321-.273-.059,0-.118,0-.177,0-.123,0-.246,0-.37,0-.157,0-.313,0-.47-.001-.122,0-.243,0-.365,0-.085,0-.171,0-.256-.001q-.71,0-1.283.373ZM25.437,24.024c-.227.318-.308.633-.268,1.022.075.405.279.716.599.973.329.214.688.277,1.074.228.352-.076.627-.237.858-.515.234-.381.367-.747.276-1.194-.125-.443-.374-.747-.772-.978-.657-.296-1.325-.082-1.768.463ZM26.095,26.763c-.16.002-.32.005-.481.009q-.076,0-.153.002c-.336.01-.674.043-.933.277-.265.287-.276.568-.276.944-.001.045-.002.09-.003.136-.001.357.061.626.298.899.173.147.296.236.52.29.041.01.083.021.125.031.43.081.862.08,1.298.081.112,0,.223.002.335.003.374.002.739-.014,1.109-.071q.05-.008.102-.016c.338-.058.573-.189.777-.468.231-.416.219-.967.118-1.419-.077-.257-.244-.419-.459-.57-.264-.098-.522-.104-.802-.113-.048-.002-.095-.003-.144-.005-.478-.015-.954-.015-1.432-.01Z" fill="#fff"/></svg>