<?xml version="1.0" encoding="UTF-8"?><svg id="a" xmlns="http://www.w3.org/2000/svg" width="30" height="30" viewBox="0 0 30 30"><rect width="30" height="30" rx="2.897" ry="2.897" fill="#fff"/><path d="M17.645,14.326v.919l.153-.006c.401-.019.794-.064,1.15-.134.095-.017.173-.034.176-.036.009-.008-.128-.332-.217-.51-.264-.524-.565-.866-.927-1.047-.095-.048-.268-.105-.318-.105-.012,0-.017.259-.017.919Z" fill="#6232d7"/><path d="M18.614,13.638c.137.148.364.446.452.598.089.154.25.493.303.641.05.142.014.139.335.033.217-.073.671-.265.671-.286,0-.023-.312-.309-.457-.418-.385-.29-.872-.535-1.303-.655l-.114-.033.112.12Z" fill="#6232d7"/><path d="M20.477,14.892c-.189.1-.474.217-.718.296-.137.044-.251.081-.253.083-.003.002.023.111.056.243.129.518.22,1.173.22,1.601v.129h1.716l-.009-.129c-.058-.78-.317-1.477-.785-2.114-.064-.087-.122-.159-.126-.159-.005.002-.05.023-.101.05Z" fill="#6232d7"/><path d="M19.088,15.366c-.329.073-.807.134-1.236.156l-.207.009v1.713h1.861l-.011-.231c-.022-.434-.092-.936-.19-1.343-.059-.248-.084-.329-.105-.328-.011.002-.061.011-.112.023Z" fill="#6232d7"/><path d="M17.645,18.382c0,.766.003.857.025.866.014.005.089.009.167.009.278,0,.75.056,1.162.136.122.023.212.034.22.027.017-.019.115-.417.156-.633.062-.329.126-.914.126-1.172v-.089h-1.857v.857Z" fill="#6232d7"/><path d="M19.792,17.544c-.005.011-.011.123-.016.248-.02.501-.101,1.042-.228,1.526-.027.098-.045.181-.042.183.003.003.109.039.239.081.251.083.466.17.68.278.075.037.144.069.15.069.019,0,.214-.261.309-.413.351-.559.557-1.192.607-1.861l.009-.128h-.852c-.668,0-.852.005-.857.019Z" fill="#6232d7"/><path d="M17.645,20.457v.919l.098-.022c.426-.098.842-.499,1.155-1.109.09-.178.234-.52.222-.532-.014-.014-.293-.066-.562-.103-.298-.042-.632-.072-.807-.072h-.106v.919Z" fill="#6232d7"/><path d="M19.4,19.806c-.073.209-.101.279-.164.413-.154.329-.374.655-.604.894-.066.069-.115.128-.111.133.011.011.29-.078.473-.151.331-.131.735-.367,1.014-.593.158-.128.367-.323.367-.342,0-.031-.454-.223-.747-.317-.197-.062-.218-.066-.228-.037Z" fill="#6232d7"/><path d="M9.302,7.436h.078c.028,0,.057,0,.086,0,.03,0,.06,0,.092,0,.102,0,.203,0,.305,0,.073,0,.146,0,.218,0,.239,0,.479-.001.718-.002.082,0,.165,0,.247,0,.343,0,.685-.001,1.028-.002.089,0,.178,0,.267,0,.022,0,.044,0,.067,0,.358,0,.716-.001,1.073-.003.368-.001.735-.002,1.103-.002.206,0,.413,0,.619-.002.194,0,.388-.001.582,0,.071,0,.142,0,.213,0,.097,0,.195,0,.292,0,.028,0,.056,0,.085-.001.237.003.44.078.616.24.183.194.261.385.258.651,0,.024,0,.047,0,.071,0,.079,0,.158,0,.237,0,.057,0,.114,0,.172,0,.157,0,.314,0,.471,0,.169,0,.339,0,.508,0,.332,0,.664,0,.995,0,.27,0,.539,0,.809,0,.078,0,.155,0,.233q0,.058,0,.117c0,.731,0,1.462,0,2.194,0,.669,0,1.338.002,2.007.001.687.002,1.374.001,2.06,0,.386,0,.771,0,1.157,0,.328,0,.657,0,.985,0,.167,0,.335,0,.502,0,.153,0,.307,0,.46,0,.055,0,.111,0,.166.002.326-.004.61-.239.862-.218.209-.422.261-.715.259-.03,0-.061,0-.092,0-.101,0-.203,0-.304,0-.073,0-.146,0-.219,0-.198,0-.395,0-.593,0-.186,0-.372,0-.558,0-.391,0-.782,0-1.173,0-.357,0-.714,0-1.072,0-.367,0-.734.001-1.102,0-.206,0-.412,0-.618,0-.194,0-.387,0-.581,0-.071,0-.142,0-.213,0-.097,0-.194,0-.291,0-.028,0-.056,0-.085,0-.276-.003-.506-.1-.701-.299-.142-.214-.193-.381-.192-.637,0-.023,0-.047,0-.07,0-.078,0-.157,0-.235,0-.057,0-.113,0-.17,0-.156,0-.312,0-.467,0-.168,0-.336,0-.504,0-.406,0-.811-.001-1.217,0-.191,0-.382,0-.573,0-.635,0-1.27-.001-1.904,0-.165,0-.329,0-.494,0-.041,0-.082,0-.124,0-.663-.001-1.327-.002-1.99-.001-.681-.002-1.362-.002-2.043,0-.382,0-.765-.001-1.147,0-.326,0-.651,0-.977,0-.166,0-.332,0-.498,0-.152,0-.304,0-.457,0-.055,0-.11,0-.165-.002-.338.019-.606.21-.895.161-.154.364-.276.592-.277ZM9.881,9.603c-.115.174-.159.326-.141.535.046.208.159.359.314.502.177.107.327.142.533.126.164-.054.316-.128.439-.251.012-.037.025-.074.038-.112q.034-.059.088-.107c.156-.035.312-.028.47-.026.049,0,.098,0,.147,0,.105,0,.211,0,.316.001.167.001.333.001.5.001.294,0,.587,0,.881.002.442.002.884.003,1.326.002.166,0,.331,0,.497.002.103,0,.206,0,.309,0,.048,0,.096,0,.143,0,.065,0,.13,0,.196,0,.037,0,.073,0,.111,0,.113-.019.15-.05.219-.141.016-.108.013-.165-.041-.261-.074-.074-.133-.084-.236-.088-.036,0-.073,0-.111,0q-.03,0-.062,0c-.068,0-.136,0-.205,0-.049,0-.098,0-.147,0-.133,0-.266,0-.398,0-.139,0-.277,0-.416,0-.263,0-.525,0-.788,0-.299,0-.598,0-.897,0-.615,0-1.23,0-1.846.002-.004-.02-.009-.039-.014-.059-.039-.143-.149-.248-.27-.328-.341-.17-.714-.109-.956.197ZM14.76,12.021q-.093.114-.126.251-.038,0-.077,0c-.618-.003-1.236-.005-1.854-.006-.299,0-.598-.002-.897-.003-.26-.001-.521-.002-.781-.002-.138,0-.276,0-.414-.001-.13,0-.26-.001-.389,0-.048,0-.095,0-.143,0-.065,0-.13,0-.195,0-.036,0-.073,0-.11,0-.118.019-.17.057-.254.141q-.039.091-.031.188.047.087.126.157.096.023.206.019.031,0,.062,0c.069,0,.138,0,.207-.001.049,0,.099,0,.148,0,.134,0,.269,0,.403-.002.14,0,.281-.001.421-.001.266,0,.532-.002.797-.003.303-.002.605-.003.908-.003.623-.002,1.245-.004,1.868-.008.009.03.018.059.028.09.067.187.239.311.414.397.248.042.442.019.654-.117.173-.133.267-.296.296-.513.009-.249-.07-.44-.237-.623-.158-.139-.343-.196-.552-.185-.187.028-.341.097-.477.23ZM9.897,14.531c-.115.188-.185.373-.157.596.068.211.167.394.361.51.188.094.36.119.566.066.187-.066.32-.152.423-.325.011-.042.022-.083.031-.126.025,0,.05,0,.076,0,.614.002,1.227.004,1.841.005.297,0,.593.001.89.002.259,0,.517.002.776.002.137,0,.274,0,.411.001.129,0,.258,0,.387,0,.047,0,.095,0,.142,0,.065,0,.129,0,.194,0q.054,0,.11,0c.114-.013.19-.046.288-.106.045-.089.041-.152.031-.251-.07-.089-.111-.121-.22-.157-.066-.003-.132-.004-.198-.004-.02,0-.04,0-.061,0-.068,0-.136,0-.203,0-.049,0-.097,0-.146,0-.132,0-.264,0-.396,0-.138,0-.276,0-.413,0-.261,0-.522,0-.783,0-.297,0-.594,0-.891,0-.611,0-1.223,0-1.834.002-.009-.03-.019-.06-.029-.091-.056-.159-.169-.241-.315-.319-.323-.136-.636-.06-.88.19ZM14.707,17.073c-.042.064-.056.114-.073.188-.026,0-.052,0-.078,0-.626-.003-1.253-.006-1.879-.008-.303,0-.606-.002-.909-.004-.264-.002-.528-.003-.792-.003-.14,0-.28,0-.419-.002-.132-.001-.263-.001-.395-.001-.048,0-.097,0-.145,0-.066,0-.132,0-.198,0-.037,0-.074,0-.112,0q-.1.012-.17.093t-.048.181c.03.091.048.129.124.184.105.035.182.035.292.035.02,0,.04,0,.061,0,.068,0,.136,0,.203,0,.049,0,.097,0,.146,0,.132,0,.264,0,.396,0,.138,0,.276,0,.413,0,.261,0,.522,0,.783,0,.297,0,.594,0,.891,0,.611,0,1.223,0,1.834-.002q.013.036.027.073c.074.172.224.273.381.366.216.066.421.05.623-.05.149-.097.253-.227.332-.385.046-.255.036-.473-.108-.694-.161-.187-.353-.269-.594-.296-.256.013-.428.137-.588.328ZM9.865,19.552c-.108.178-.139.326-.126.533.05.204.144.367.32.486.213.119.397.153.633.091.186-.07.32-.189.427-.357v-.094c.025,0,.051,0,.077,0,.618.002,1.236.004,1.854.005.299,0,.598.001.897.002.26,0,.521.002.781.002.138,0,.276,0,.414.001.13,0,.26,0,.389,0,.048,0,.095,0,.143,0,.065,0,.13,0,.195,0,.036,0,.073,0,.11,0,.108-.013.167-.041.254-.106.045-.089.041-.152.031-.251-.068-.091-.105-.122-.218-.141-.036,0-.073,0-.11,0-.02,0-.041,0-.062,0-.068,0-.136,0-.204.002-.049,0-.098,0-.147,0-.105,0-.21,0-.316.002-.166.001-.333.002-.499.002-.473,0-.946.002-1.42.005-.261.002-.523.002-.784.002-.165,0-.331,0-.496.003-.103,0-.206,0-.309,0-.048,0-.095,0-.143.001q-.362.007-.475-.097-.05-.076-.087-.152c-.065-.131-.185-.178-.314-.233-.338-.083-.59.044-.818.29Z" fill="#6232d7"/></svg>