<?xml version="1.0" encoding="UTF-8"?><svg id="a" xmlns="http://www.w3.org/2000/svg" width="41" height="41" viewBox="0 0 41 41"><rect width="41" height="41" rx="1.078" ry="1.078" fill="#6232d7"/><path d="M20.48,10.965c.037,0,.073,0,.111,0,.584.002,1.153.029,1.725.153.037.008.074.016.112.024,1.184.266,2.313.746,3.293,1.461q.041.029.082.06c.632.465,1.213.988,1.691,1.611.038.047.075.093.114.141q1.098,1.365,1.098,1.9c.053-.004.106-.008.16-.012.873.004,1.662.407,2.281.997.536.555.918,1.303.926,2.082,0,.056.001.113.002.17q0,.091.001.184c0,.031,0,.062,0,.094,0,.165.002.331.002.496,0,.169.002.338.004.506.001.131.002.263.002.394,0,.092.002.184.003.276-.002.96-.376,1.732-1.031,2.424-.616.596-1.446.928-2.306.925q-.512-.016-.743-.092-.016.048-.032.097c-.075.166-.178.299-.291.44-.023.028-.045.057-.069.086-.23.284-.474.552-.727.816-.034.036-.068.072-.103.109-1.084,1.124-2.608,1.944-4.132,2.263q-.427.074-.781.296-.068.129-.113.264c-.147.394-.54.606-.902.776-.419.169-1,.168-1.429.028-.536-.234-.92-.599-1.163-1.128-.169-.476-.172-1.053.029-1.519.273-.531.622-.872,1.183-1.092.543-.17,1.072-.1,1.587.129.356.191.661.483.834.85v.093c1.498-.404,2.734-.977,3.871-2.042.03-.027.06-.053.09-.081.549-.512.971-1.157,1.309-1.821.015-.029.03-.059.046-.089.894-1.767,1.026-3.828.409-5.705-.146-.424-.331-.82-.548-1.212-.027-.049-.054-.099-.081-.15-.296-.527-.668-.991-1.085-1.428-.042-.044-.083-.089-.126-.135-1.188-1.242-2.947-2.056-4.67-2.148-.191-.005-.382-.006-.574-.005q-.051,0-.102,0c-.884.004-1.668.149-2.504.432q-.047.016-.095.032c-.951.326-1.792.909-2.517,1.592-.045.041-.089.083-.135.126-1.026.971-1.694,2.269-2.01,3.633-.007.032-.015.064-.022.097-.386,1.737-.076,3.547.746,5.114.119.236.159.433.087.695-.114.231-.241.352-.484.45-.03.013-.059.025-.09.039-.834.317-1.738.219-2.549-.105-.421-.192-.726-.441-1.046-.769-.032-.033-.064-.065-.097-.099-.486-.523-.792-1.234-.796-1.95,0-.057,0-.113-.001-.172,0-.061,0-.122,0-.185,0-.031,0-.063,0-.095,0-.166-.001-.332-.001-.498,0-.17-.001-.34-.003-.51,0-.132-.001-.264-.001-.396,0-.093-.001-.185-.002-.278.001-.515.088-.978.329-1.437.016-.031.033-.063.049-.095.417-.781,1.094-1.347,1.942-1.61.286-.087.563-.152.863-.148.034,0,.068.001.103.002.03,0,.059,0,.089.001.007-.025.015-.051.023-.077.086-.275.201-.514.348-.762.022-.038.045-.076.068-.115.231-.384.492-.74.775-1.088.023-.028.045-.056.069-.085,1.473-1.814,3.666-2.949,5.991-3.2.306-.027.613-.025.919-.023Z" fill="#fff"/><path d="M21.897,14.181c.03.007.06.015.091.023,1.498.385,2.778,1.349,3.582,2.662.775,1.327,1.055,2.929.679,4.431-.443,1.599-1.426,2.924-2.881,3.752-.395.216-.806.375-1.238.5q-.051.015-.103.03c-.523.144-1.04.173-1.579.173-.061,0-.122,0-.185,0-.31-.004-.602-.023-.905-.091-.29-.048-.477-.026-.731.123q-.08.046-.161.093c-.056.034-.113.067-.169.101-.058.034-.116.068-.175.102-.268.156-.534.315-.799.474-.042.025-.084.051-.128.077-.077.047-.155.094-.232.141-.338.206-.595.301-.99.215-.191-.076-.291-.186-.386-.368-.12-.344-.007-.72.091-1.055.013-.045.025-.09.038-.137.04-.143.08-.286.121-.429.041-.144.081-.288.121-.432.025-.089.05-.178.076-.267.011-.04.022-.081.034-.122.01-.035.02-.071.03-.107.018-.111.007-.179-.031-.284-.059-.077-.122-.151-.187-.223-.859-1.024-1.28-2.337-1.274-3.663,0-.057,0-.114,0-.172.006-.439.039-.853.154-1.278.009-.033.018-.066.027-.099.222-.797.604-1.54,1.139-2.174.033-.04.067-.08.101-.121.868-.992,1.97-1.634,3.257-1.921q.072-.017.145-.034c.794-.155,1.684-.114,2.467.081ZM17.588,19.497c-.102.214-.112.39-.076.623.102.228.239.336.463.435.158.047.267.029.424-.017.201-.108.336-.204.42-.418.025-.211.025-.397-.05-.597-.145-.158-.299-.264-.511-.301-.289-.012-.475.066-.669.274ZM19.894,19.523c-.096.259-.092.502.02.754.147.154.285.246.49.307.254,0,.411-.073.606-.232.158-.178.164-.354.156-.583-.025-.171-.086-.266-.203-.391-.379-.257-.77-.182-1.07.145ZM22.226,19.523c-.096.259-.092.502.02.754.147.154.285.246.49.307.254,0,.411-.073.606-.232.159-.18.161-.356.153-.586-.018-.15-.05-.229-.153-.342-.201-.145-.356-.218-.607-.204-.211.041-.364.144-.51.302Z" fill="#fff"/></svg>