<?xml version="1.0" encoding="UTF-8"?><svg id="a" xmlns="http://www.w3.org/2000/svg" width="30" height="30" viewBox="0 0 30 30"><rect width="30" height="30" rx="2.897" ry="2.897" fill="#fff"/><path d="M13.634,13.648c.264.222.455.496.565.824.013,0,.026,0,.04,0,.78.001,1.559.003,2.339.005.094,0,.187,0,.281,0q.028,0,.056,0c.302,0,.603.001.905.002.31,0,.619.001.929.002.191,0,.382.001.573.001.131,0,.262,0,.393.001.076,0,.151,0,.227,0,.082,0,.164,0,.246,0,.024,0,.048,0,.072,0,.195.002.351.041.497.178.108.121.115.249.11.405-.019.159-.094.257-.212.359-.145.086-.3.081-.464.08q-.038,0-.078,0c-.086,0-.172,0-.258,0-.062,0-.123,0-.185,0-.133,0-.265,0-.398.001-.192,0-.383,0-.575.002-.311.001-.622.002-.933.003-.302,0-.604.001-.906.002-.019,0-.037,0-.056,0-.093,0-.187,0-.28,0-.775.002-1.549.004-2.324.006-.009.022-.018.043-.027.066-.012.029-.024.058-.037.087-.006.014-.012.029-.018.043-.056.132-.127.242-.216.353-.014.017-.027.035-.041.053-.27.324-.661.54-1.08.588-.482.034-.913-.072-1.305-.366-.265-.231-.454-.508-.549-.847-.017,0-.034,0-.051,0-.159.001-.318.002-.477.003-.082,0-.163,0-.245.002-.079,0-.158.001-.237.001-.045,0-.089,0-.134.001-.214,0-.378-.025-.54-.176-.108-.121-.115-.249-.11-.405.019-.159.094-.257.212-.359.162-.096.341-.08.524-.078.031,0,.061,0,.092,0,.08,0,.16,0,.24.001.082,0,.164,0,.245,0,.16,0,.32.001.48.002.005-.016.009-.031.014-.047q.009-.031.018-.062c.006-.02.012-.041.018-.062.118-.365.457-.678.786-.854.615-.304,1.328-.254,1.872.177ZM12.002,14.541c-.14.184-.187.365-.16.595.056.21.161.374.348.488.195.101.412.125.623.06.206-.096.348-.234.432-.447.058-.194.048-.372-.029-.559-.092-.165-.251-.31-.429-.378-.315-.066-.568.009-.784.241Z" fill="#6232d7"/><path d="M17.432,17.189h.073c.245-.001.465.049.682.163.016.008.031.016.047.024.113.06.215.126.313.209q.033.024.067.049c.214.183.409.497.459.775.017,0,.035,0,.053,0,.164-.002.329-.003.493-.004.084,0,.169-.001.253-.002.082-.001.163-.002.245-.002.046,0,.092,0,.138-.002.203,0,.326.023.485.156.114.137.132.246.127.422-.014.127-.049.21-.144.297-.117.091-.198.122-.347.122-.029,0-.058,0-.087,0-.032,0-.063,0-.095,0-.032,0-.064,0-.097,0-.085,0-.17,0-.254,0-.087,0-.173,0-.26,0-.17,0-.339,0-.509-.001-.003.017-.006.034-.009.052-.09.412-.424.741-.765.961-.421.241-.891.281-1.355.154-.225-.07-.412-.171-.595-.32-.014-.01-.028-.02-.043-.031-.251-.19-.423-.52-.506-.816-.013,0-.027,0-.04,0-.788.002-1.576.004-2.365.005-.095,0-.189,0-.284,0-.019,0-.038,0-.057,0-.305,0-.61.001-.915.002-.313,0-.626.001-.939.002-.193,0-.386,0-.579.001-.132,0-.265,0-.397,0-.076,0-.153,0-.229,0-.083,0-.166,0-.249,0-.024,0-.048,0-.073,0-.167-.001-.298-.03-.419-.15q-.016-.023-.032-.046t-.033-.047c-.074-.124-.063-.27-.049-.41.045-.145.124-.227.255-.3.076-.035.136-.046.218-.046.022,0,.044,0,.067,0q.036,0,.074,0,.039,0,.078,0c.087,0,.174,0,.26,0,.062,0,.124,0,.186,0,.134,0,.268,0,.401-.001.193,0,.387-.001.58-.002.314-.001.627-.002.941-.003.305,0,.61-.002.914-.003q.028,0,.057,0c.094,0,.188,0,.283,0,.782-.003,1.564-.005,2.346-.007.011-.025.021-.05.032-.075.014-.033.028-.066.043-.099.007-.016.014-.033.021-.049.166-.384.478-.67.855-.843.232-.092.432-.131.681-.131ZM16.866,18.456c-.122.154-.156.331-.15.525.029.188.115.358.261.482.197.143.366.181.609.159.178-.04.317-.138.435-.275.121-.195.156-.366.137-.595-.02-.076-.051-.139-.092-.206-.009-.016-.019-.032-.029-.048-.103-.156-.255-.254-.435-.303-.296-.049-.533.045-.737.262Z" fill="#6232d7"/><path d="M18.502,9.734c.019.015.038.03.058.046.239.201.406.464.515.756v.069c.018,0,.035,0,.054,0,.167-.002.334-.003.501-.004.086,0,.172-.001.258-.002.083-.001.166-.002.249-.002.032,0,.063,0,.095,0,.182-.003.315,0,.47.101q.047.047.079.093c.011.015.022.031.033.047.074.124.063.27.049.41-.045.145-.124.227-.255.3-.087.041-.155.046-.249.046-.028,0-.057,0-.086,0-.031,0-.062,0-.093,0-.032,0-.063,0-.095,0-.083,0-.167,0-.25,0-.085,0-.17,0-.255,0-.167,0-.334,0-.501-.001-.005.016-.009.031-.014.047-.006.021-.012.041-.018.062-.006.02-.012.041-.018.062-.116.362-.421.67-.751.843-.4.201-.855.281-1.297.163-.259-.091-.489-.215-.694-.399q-.022-.019-.044-.039c-.165-.156-.274-.334-.362-.541-.007-.017-.015-.034-.022-.051-.018-.041-.035-.083-.053-.124-.013,0-.026,0-.04,0-.785,0-1.571-.002-2.356-.004-.094,0-.189,0-.283,0-.019,0-.038,0-.057,0-.304,0-.608-.001-.912-.001-.312,0-.624,0-.936-.002-.192,0-.385,0-.577,0-.132,0-.264,0-.396,0-.076,0-.152,0-.228,0-.083,0-.165,0-.248,0-.024,0-.048,0-.073,0-.179-.002-.299-.042-.436-.158-.114-.137-.132-.246-.127-.422.014-.127.049-.21.144-.297.103-.081.181-.122.314-.122.022,0,.044,0,.067,0,.024,0,.049,0,.074,0q.039,0,.078,0c.087,0,.174,0,.261,0,.062,0,.124,0,.187,0,.134,0,.268,0,.403,0,.194,0,.388,0,.582,0,.315,0,.63,0,.945,0,.306,0,.612,0,.918,0,.019,0,.038,0,.057,0,.095,0,.189,0,.284,0,.785,0,1.57,0,2.354.001.005-.014.009-.028.014-.043.006-.019.012-.037.019-.056.006-.018.012-.037.018-.056.133-.392.434-.703.798-.89.616-.288,1.306-.262,1.851.175ZM17.083,10.467c-.016.009-.032.019-.048.029-.153.102-.25.252-.305.426-.037.19-.006.377.088.545.124.183.273.298.491.341.226.028.41-.021.595-.153.15-.133.242-.295.26-.495.009-.22-.041-.38-.18-.551-.119-.127-.286-.224-.462-.239-.169-.004-.294.009-.439.097Z" fill="#6232d7"/></svg>