<?xml version="1.0" encoding="UTF-8"?><svg id="a" xmlns="http://www.w3.org/2000/svg" width="30" height="30" viewBox="0 0 30 30"><rect width="30" height="30" rx="2.897" ry="2.897" fill="#fff"/><path d="M9.374,9.004c.05,0,.101,0,.151,0,.138,0,.277,0,.415,0,.149,0,.299,0,.448,0,.293,0,.585,0,.878,0,.238,0,.476,0,.714,0,.034,0,.068,0,.103,0,.069,0,.138,0,.206,0,.462,0,.923,0,1.385,0h.055c.147,0,.293,0,.44,0,.572,0,1.143,0,1.715,0,.642,0,1.285-.001,1.927,0,.34,0,.68,0,1.02,0,.29,0,.579,0,.869,0,.148,0,.295,0,.443,0,.135,0,.27,0,.406,0,.049,0,.098,0,.147,0,.326-.002.601.013.849.249.162.188.196.381.194.622,0,.03,0,.059,0,.09,0,.099,0,.198,0,.297,0,.071,0,.143,0,.214,0,.173,0,.346,0,.519,0,.141,0,.281,0,.422q0,.03,0,.061c0,.041,0,.081,0,.122,0,.381,0,.763,0,1.144,0,.327,0,.654,0,.982,0,.38,0,.761,0,1.141,0,.041,0,.081,0,.122q0,.03,0,.06c0,.141,0,.281,0,.422,0,.171,0,.342,0,.513,0,.087,0,.175,0,.262,0,.095,0,.189,0,.284,0,.028,0,.055,0,.084q-.003.185-.079.272c-.085.043-.133.051-.227.035q-.057-.041-.105-.105c-.01-.071-.014-.132-.013-.203,0-.021,0-.041,0-.062,0-.069,0-.138,0-.207,0-.049,0-.099,0-.148,0-.134,0-.268.001-.403,0-.14,0-.281,0-.421,0-.266.001-.531.002-.797.001-.302.002-.605.002-.907.001-.622.003-1.244.005-1.866-.024,0-.048,0-.072,0-1.409.002-2.817.003-4.226.004-.169,0-.338,0-.507,0-.034,0-.067,0-.102,0-.545,0-1.091,0-1.636.002-.559,0-1.119.001-1.678.001-.345,0-.691,0-1.036.001-.237,0-.473,0-.71,0-.137,0-.273,0-.41,0-.125,0-.25,0-.375,0-.045,0-.091,0-.136,0-.061,0-.123,0-.184,0-.034,0-.068,0-.104,0-.095-.01-.144-.031-.22-.089-.041-.081-.034-.147-.026-.236q.041-.058.105-.105.086-.013.19-.013c.019,0,.038,0,.058,0,.065,0,.13,0,.194,0,.047,0,.094,0,.14,0,.129,0,.258,0,.386,0,.139,0,.278,0,.416,0,.241,0,.481,0,.722,0,.348,0,.696.001,1.043.001.564,0,1.128,0,1.693.002.548,0,1.096.002,1.644.002.034,0,.068,0,.102,0,.169,0,.339,0,.508,0,1.406.001,2.812.003,4.218.005-.002-.206-.005-.411-.008-.617-.001-.096-.003-.191-.004-.287,0-.092-.002-.185-.004-.277,0-.052-.001-.104-.002-.156q-.003-.23-.062-.449c-.126-.12-.211-.135-.379-.135-.02,0-.041,0-.062,0-.069,0-.139,0-.208,0-.05,0-.1,0-.15,0-.138,0-.276,0-.414,0-.148,0-.297,0-.445,0-.359,0-.718,0-1.077-.001-.169,0-.338,0-.507,0-.561,0-1.122,0-1.683-.001-.036,0-.073,0-.109,0-.018,0-.036,0-.055,0-.091,0-.182,0-.274,0-.018,0-.036,0-.055,0-.587,0-1.174,0-1.761-.002-.62,0-1.24-.001-1.861-.002-.338,0-.676,0-1.015,0-.288,0-.576,0-.864,0-.147,0-.294,0-.441,0-.134,0-.269,0-.403,0-.049,0-.097,0-.146,0-.066,0-.132,0-.198,0q-.029,0-.058,0c-.132.002-.207.036-.309.119-.08.12-.082.23-.084.372,0,.032-.001.064-.002.097,0,.034,0,.069-.001.104,0,.036-.001.071-.002.107-.001.094-.003.187-.004.281-.001.096-.003.191-.004.287-.003.188-.005.375-.008.563.018,0,.035,0,.054-.001.081-.002.161-.003.242-.004.028,0,.056-.001.085-.002.027,0,.054,0,.082,0,.025,0,.049,0,.075-.001.08.011.115.031.172.088q.026.089.026.184c-.055.09-.083.124-.184.158-.043.002-.086.003-.128.003-.025,0-.049,0-.075,0q-.038,0-.078,0c-.026,0-.052,0-.079,0-.064,0-.128,0-.192-.001.002,1.071.005,2.142.007,3.213,0,.126,0,.253,0,.379,0,.025,0,.05,0,.076.001.408.002.815.003,1.223,0,.418.002.836.003,1.254,0,.258.001.516.002.774,0,.177,0,.354.001.531,0,.102,0,.204,0,.306,0,.111,0,.221,0,.332,0,.032,0,.065,0,.098,0,.03,0,.059,0,.09,0,.026,0,.051,0,.077.015.164.068.255.19.362.079.04.161.03.248.03.02,0,.041,0,.062,0,.069,0,.139,0,.208,0,.05,0,.1,0,.15,0,.138,0,.276,0,.414,0,.148,0,.297,0,.445,0,.359,0,.718,0,1.077.001.169,0,.338,0,.507,0,.561,0,1.122,0,1.683.001.036,0,.073,0,.109,0,.018,0,.036,0,.055,0,.091,0,.182,0,.274,0,.018,0,.036,0,.055,0,.587,0,1.174,0,1.761.002.62,0,1.24.001,1.861.002.338,0,.676,0,1.015,0,.288,0,.576,0,.864,0,.147,0,.294,0,.441,0,.134,0,.269,0,.403,0,.049,0,.097,0,.146,0,.066,0,.132,0,.198,0q.029,0,.058,0c.132-.002.207-.036.309-.119.098-.147.082-.301.082-.472,0-.026,0-.052,0-.079,0-.057,0-.114,0-.171,0-.121,0-.242.001-.362,0-.225.002-.45.002-.674,0-.156,0-.313.002-.469,0-.06,0-.119,0-.179,0-.083,0-.167.001-.25,0-.025,0-.049,0-.075q.003-.166.078-.252c.096-.05.151-.039.254-.01.055.042.076.064.089.133,0,.021,0,.042,0,.064,0,.024,0,.049,0,.073,0,.027,0,.053,0,.08,0,.028,0,.056,0,.085,0,.093,0,.186,0,.279,0,.065,0,.129,0,.194,0,.136,0,.271,0,.407,0,.173,0,.347.002.52,0,.134,0,.267,0,.401,0,.064,0,.128,0,.192,0,.09,0,.179,0,.269q0,.039.001.079c-.003.215-.068.381-.205.548q-.027.024-.055.048c-.018.016-.036.032-.055.049-.247.156-.517.134-.798.133-.05,0-.101,0-.151,0-.138,0-.277,0-.415,0-.149,0-.299,0-.448,0-.293,0-.585,0-.878,0-.238,0-.476,0-.714,0q-.051,0-.103,0c-.069,0-.138,0-.206,0-.462,0-.923,0-1.385,0-.018,0-.036,0-.055,0-.147,0-.293,0-.44,0-.572,0-1.143,0-1.715,0-.642,0-1.285.001-1.927,0-.34,0-.68,0-1.02,0-.29,0-.579,0-.869,0-.148,0-.295,0-.443,0-.135,0-.27,0-.406,0-.049,0-.098,0-.147,0-.326.002-.603-.012-.849-.25-.197-.227-.196-.473-.194-.758,0-.045,0-.09,0-.135,0-.123,0-.246,0-.368,0-.133,0-.265,0-.398,0-.26,0-.519,0-.779,0-.211,0-.422,0-.633,0-.03,0-.06,0-.091,0-.061,0-.122,0-.183,0-.572,0-1.145,0-1.717,0-.491,0-.982,0-1.473,0-.57,0-1.141,0-1.711,0-.061,0-.122,0-.183,0-.03,0-.06,0-.091,0-.211,0-.422,0-.632,0-.257,0-.514,0-.771,0-.131,0-.262,0-.393,0-.12,0-.24,0-.36,0-.043,0-.087,0-.13-.002-.277.024-.488.205-.71.018-.016.037-.031.055-.048q.027-.024.055-.049c.247-.156.517-.134.798-.133Z" fill="#6232d7"/><path d="M12.242,13.311h.085c.196-.001.315.021.464.154.083.105.067.225.056.353.026.003.053.005.08.008.124.018.23.069.343.121.074.034.125.055.207.055.044-.034.088-.069.131-.105.141-.047.244-.048.377.016.105.063.188.143.273.23q.022.022.045.044c.117.118.191.222.21.391-.005.149-.088.248-.169.369.011.021.022.042.033.063.014.028.028.056.043.084.014.027.028.055.042.083.056.12.092.213.092.347.017-.002.034-.004.051-.006.128-.008.215-.008.317.076.087.081.126.17.138.288,0,.081.001.162,0,.243,0,.028,0,.056.001.085,0,.184-.017.306-.141.45-.082.069-.151.074-.254.072-.021,0-.042,0-.064,0q-.024,0-.049,0c-.003.026-.005.053-.008.08-.018.124-.069.23-.121.343-.034.074-.055.125-.055.207.034.044.069.088.105.131.047.141.048.244-.016.377-.063.105-.143.188-.23.273-.014.015-.029.03-.044.045-.118.117-.222.191-.391.21-.149-.005-.248-.088-.369-.169-.021.011-.042.022-.063.033-.028.014-.056.028-.084.043-.027.014-.055.028-.083.042-.12.056-.213.092-.347.092,0,.016.002.031.003.047.004.13.005.216-.082.32-.165.149-.308.137-.52.138q-.043,0-.086.002c-.197,0-.316-.02-.467-.154-.083-.105-.067-.225-.056-.353-.026-.003-.053-.005-.08-.008-.124-.018-.23-.069-.343-.121-.074-.034-.125-.055-.207-.055-.044.034-.088.069-.131.105-.141.047-.244.048-.377-.016-.105-.063-.188-.143-.273-.23-.015-.014-.03-.029-.045-.044-.117-.118-.191-.222-.21-.391.005-.149.088-.248.169-.369-.01-.02-.021-.04-.032-.061-.083-.161-.153-.317-.205-.491-.015,0-.03,0-.045,0-.147-.007-.229-.039-.338-.137-.116-.145-.098-.315-.098-.491,0-.028,0-.056-.001-.085,0-.195.02-.316.157-.463.098-.078.204-.079.325-.084.011-.029.022-.058.033-.088.014-.038.029-.077.043-.115.007-.019.014-.038.021-.058.028-.076.056-.149.092-.222q.025-.041.018-.09-.024-.064-.077-.143c-.061-.105-.071-.19-.051-.308.071-.144.158-.249.272-.361.014-.015.029-.03.044-.045.118-.117.222-.191.391-.21.149.005.248.088.369.169.021-.011.042-.022.063-.033.028-.014.056-.028.084-.043.027-.014.055-.028.083-.042.12-.056.213-.092.347-.092q-.003-.025-.006-.051c-.008-.128-.008-.215.076-.317.146-.157.332-.14.532-.139ZM12.059,13.74c-.01.05-.021.1-.031.151-.02.095-.034.15-.101.221-.103.064-.21.101-.324.14q-.182.062-.352.149c-.119.067-.214.067-.347.047q-.075-.036-.131-.079l-.105-.053c-.078.078-.156.156-.236.236q.046.1.095.161c.057.118.062.209.036.338-.044.116-.101.227-.157.337-.045.09-.08.179-.111.275-.039.111-.069.173-.179.228-.088.023-.173.038-.263.053v.368c.05.01.1.021.151.031.097.02.15.034.222.104.055.088.091.179.124.277.044.126.09.243.156.359.067.128.08.242.056.384q-.036.075-.079.131l-.053.105.236.236q.1-.046.161-.095c.118-.057.209-.062.338-.036.116.044.227.101.337.157.09.045.179.08.275.111.111.039.173.069.228.179.023.088.038.173.053.263h.368c.01-.05.021-.1.031-.151.02-.097.034-.15.104-.222.088-.055.179-.091.277-.124.126-.044.243-.09.359-.156.128-.067.242-.08.384-.056q.075.036.131.079c.035.017.069.035.105.053l.236-.236q-.045-.1-.094-.156c-.058-.084-.056-.153-.054-.253.028-.155.102-.288.173-.427.045-.089.08-.178.111-.274.039-.111.069-.173.179-.228.088-.023.173-.038.263-.053v-.368c-.05-.01-.1-.021-.151-.031-.097-.02-.15-.034-.222-.104-.055-.088-.091-.179-.124-.277-.044-.125-.09-.242-.156-.358-.07-.135-.086-.263-.056-.412.037-.067.074-.105.131-.158-.037-.084-.081-.14-.148-.203-.017-.016-.033-.032-.05-.049q-.019-.018-.038-.037c-.059.028-.109.055-.161.095-.118.057-.209.062-.338.036-.116-.044-.227-.101-.337-.157-.09-.045-.179-.08-.275-.111-.111-.039-.173-.069-.228-.179-.023-.088-.038-.173-.053-.263h-.368Z" fill="#6232d7"/><path d="M12.983,14.861c.374.243.607.569.704,1.006.042.489-.052.885-.372,1.265-.22.234-.537.418-.864.446-.511.014-.894-.081-1.276-.438-.305-.326-.39-.708-.383-1.138.015-.399.22-.733.506-1.001.486-.376,1.146-.439,1.685-.139ZM11.408,15.505c-.186.258-.219.524-.189.834.059.283.23.502.461.669.262.163.557.19.855.127.294-.095.516-.303.661-.572.106-.248.112-.544.029-.8-.12-.28-.337-.497-.617-.617-.457-.148-.896-.002-1.201.359Z" fill="#6232d7"/><path d="M9.736,10.185h.072c.026,0,.052,0,.078,0q.041,0,.083,0c.093,0,.185,0,.278,0,.066,0,.133,0,.199,0,.162,0,.323,0,.485,0,.131,0,.263,0,.394,0,.038,0,.076,0,.113,0h.057c.356,0,.712,0,1.068,0,.326,0,.651,0,.977-.001.334,0,.669-.001,1.003-.001.188,0,.375,0,.563,0,.176,0,.353,0,.529,0,.065,0,.13,0,.195,0,.088,0,.177,0,.265,0,.026,0,.052,0,.078,0,.121.002.176.005.276.078q.049.071.049.166c-.025.084-.036.118-.105.167-.061.03-.096.03-.163.03-.023,0-.047,0-.071,0-.026,0-.052,0-.078,0q-.041,0-.083,0c-.092,0-.184,0-.276,0-.066,0-.132,0-.197,0-.161,0-.321,0-.482,0-.13,0-.261,0-.391,0-.37,0-.739,0-1.109,0-.02,0-.04,0-.06,0-.02,0-.04,0-.061,0-.324,0-.647,0-.971,0-.332,0-.664,0-.996,0-.187,0-.373,0-.56,0-.175,0-.351,0-.526,0-.064,0-.129,0-.193,0-.088,0-.176,0-.263,0q-.039,0-.078,0c-.023,0-.047,0-.071,0-.02,0-.041,0-.061,0-.064-.008-.106-.026-.161-.059-.055-.07-.052-.108-.049-.199q.023-.09.07-.135c.066-.039.101-.044.176-.044Z" fill="#6232d7"/><path d="M17.527,17.499c.105.108.176.213.178.366,0,.025,0,.05-.001.075.034,0,.068,0,.103,0,.32-.002.64-.003.96-.004.164,0,.329,0,.493-.002.159,0,.317-.001.476-.002.061,0,.121,0,.182,0,.085,0,.169,0,.254,0,.025,0,.05,0,.076,0,.023,0,.046,0,.07,0,.02,0,.04,0,.061,0,.072.013.108.038.161.088.029.104.037.16-.008.259q-.044.056-.097.082c-.037.002-.073.003-.11.003q-.035,0-.07,0c-.025,0-.051,0-.077,0q-.04,0-.081,0c-.088,0-.177,0-.265,0-.061,0-.122,0-.183,0-.161,0-.322,0-.484,0-.164,0-.329,0-.493,0-.323,0-.645,0-.968-.001-.001.016-.002.032-.004.048-.002.021-.004.042-.006.064-.002.021-.004.042-.005.063-.025.137-.113.222-.218.306-.166.09-.329.129-.514.08-.183-.064-.298-.152-.383-.327-.032-.08-.052-.147-.052-.233-.029.002-.058.003-.087.005-.038.001-.076.002-.115.004-.019.001-.038.002-.057.003-.11.003-.149-.002-.239-.073q-.053-.07-.069-.149c.022-.108.061-.142.148-.21.074-.015.143-.013.218-.008.019,0,.039.001.059.002.048.002.095.004.143.006.002-.017.003-.033.005-.05.027-.187.089-.299.231-.423.261-.158.52-.136.768.031ZM17.003,17.834c-.081.108-.08.185-.077.317,0,.021-.001.042-.002.063,0,.114.008.161.08.254q.064.058.138.051c.067-.028.096-.049.141-.105.016-.086.012-.173.011-.261,0-.024.001-.048.002-.072q0-.139-.06-.261c-.094-.058-.146-.048-.235.015Z" fill="#6232d7"/><path d="M19.84,15.507c.119.122.154.244.175.412.027,0,.054-.001.082-.002.036,0,.072,0,.108-.001.018,0,.036,0,.054-.001.098,0,.172,0,.254.057.055.07.052.108.049.199q-.023.09-.063.135c-.092.049-.18.042-.281.039-.02,0-.039,0-.059-.001-.048,0-.096-.002-.144-.004q-.004.023-.008.046c-.041.217-.125.348-.307.479-.152.072-.322.079-.484.035-.166-.065-.268-.168-.359-.32-.029-.07-.038-.139-.05-.214-.034,0-.067,0-.102,0-.316,0-.633-.002-.949-.003-.163,0-.325-.002-.488-.002-.157,0-.314,0-.471-.002-.06,0-.12,0-.18,0-.084,0-.168,0-.252-.001-.025,0-.05,0-.075,0-.119-.002-.172-.006-.269-.08q-.05-.07-.063-.15c.014-.084.032-.122.092-.182.072-.024.116-.03.19-.03.023,0,.045,0,.069,0,.025,0,.05,0,.075,0q.039,0,.079,0c.087,0,.173-.001.26-.002.06,0,.12-.001.18-.002.158-.001.316-.003.474-.004.161-.001.322-.003.483-.004.316-.003.632-.005.948-.008.005-.018.01-.036.016-.055.007-.024.014-.047.021-.072.007-.023.014-.047.02-.071.05-.148.151-.228.284-.301.242-.092.493-.055.692.113ZM19.326,15.778c-.057.045-.073.073-.098.141-.006.071-.009.138-.008.208,0,.018,0,.037-.001.056,0,.118.014.195.088.287q.075.035.158.026c.071-.052.123-.094.143-.182.003-.058.003-.115,0-.174,0-.02,0-.04,0-.06q-.003-.142-.064-.267c-.08-.038-.129-.06-.217-.036Z" fill="#6232d7"/><path d="M17.442,13.398c.13.084.213.194.263.341.001.061.001.123,0,.184.034,0,.069,0,.104,0,.323-.003.646-.005.969-.006.166,0,.332-.002.498-.003.16-.001.32-.002.481-.003.061,0,.122,0,.184-.001.086,0,.171-.001.257-.001.025,0,.051,0,.077-.001q.171.001.257.077c.049.096.038.152.01.254-.041.054-.064.076-.132.088-.02,0-.041,0-.061,0q-.035,0-.071,0c-.025,0-.051,0-.077,0-.027,0-.054,0-.082,0-.089,0-.178,0-.267-.001-.062,0-.123,0-.185,0-.163,0-.325-.001-.488-.002-.166,0-.332-.001-.497-.002-.325,0-.651-.002-.976-.004-.002.016-.003.033-.005.049-.002.021-.004.043-.007.065q-.003.032-.006.064c-.02.13-.111.227-.214.304-.146.088-.282.116-.451.096-.186-.048-.319-.123-.42-.289-.046-.095-.079-.182-.079-.289-.031.002-.062.003-.094.005-.041.001-.082.002-.123.004-.02.001-.041.002-.062.003q-.151.003-.235-.072c-.052-.097-.041-.151-.012-.255.041-.053.063-.076.129-.088.018,0,.037,0,.055.001.02,0,.04,0,.06,0,.021,0,.041.001.063.002q.031,0,.063.001c.052,0,.103.002.155.004.003-.032.006-.065.009-.098.02-.161.095-.269.209-.383.234-.147.448-.155.701-.044ZM17.005,13.791c-.084.108-.082.184-.079.317,0,.021-.001.042-.002.063,0,.114.008.161.08.254q.064.058.138.051c.067-.028.096-.049.141-.105q.012-.057.01-.12c0-.023,0-.046,0-.07,0-.024,0-.048,0-.073,0-.024,0-.048,0-.073,0-.023,0-.046,0-.07,0-.021,0-.042,0-.064-.013-.069-.034-.092-.089-.135-.094-.039-.117-.037-.2.025Z" fill="#6232d7"/><path d="M18.252,9.813c.152.111.253.249.292.434.033.262-.028.445-.189.651-.181.141-.343.211-.575.2-.185-.027-.341-.112-.47-.247-.141-.195-.165-.394-.131-.63.068-.224.201-.35.395-.469.22-.082.477-.056.678.061ZM17.626,10.248c-.042.084-.042.171-.026.263.077.095.134.151.256.167.119-.014.158-.058.243-.141.037-.074.033-.128.026-.21-.044-.092-.072-.127-.158-.184-.154-.015-.229-.011-.341.105Z" fill="#6232d7"/><path d="M20.169,9.813c.152.111.253.249.292.434.033.262-.028.445-.189.651-.181.141-.343.211-.575.2-.188-.027-.337-.115-.47-.247-.139-.198-.155-.393-.131-.63.068-.224.201-.351.395-.469.22-.082.477-.056.678.061ZM19.542,10.248c-.04.08-.032.147-.026.236.033.075.06.118.126.166.079.025.132.03.215.018.077-.048.143-.102.184-.184.016-.138-.02-.207-.105-.315-.15-.075-.283-.035-.394.079Z" fill="#6232d7"/></svg>