<?xml version="1.0" encoding="UTF-8"?><svg id="a" xmlns="http://www.w3.org/2000/svg" width="41" height="41" viewBox="0 0 41 41"><rect width="41" height="41" rx="1.078" ry="1.078" fill="#6232d7"/><path d="M16.563,9.045c.035,0,.07,0,.106,0,.117,0,.234,0,.352,0,.084,0,.168,0,.252,0,.228,0,.457,0,.685,0,.191,0,.381,0,.572,0,.45,0,.899,0,1.349,0,.464,0,.928,0,1.391-.001.398,0,.796-.001,1.195-.001.238,0,.476,0,.713,0,.224,0,.447,0,.671,0,.082,0,.164,0,.246,0,.112,0,.224,0,.336,0,.032,0,.065,0,.098-.001.226.003.355.057.526.202.127.174.151.296.151.509,0,.058,0,.116.001.176,0,.064,0,.129,0,.193,0,.069,0,.137,0,.206,0,.188,0,.377,0,.565,0,.203,0,.406,0,.609,0,.398,0,.796,0,1.194,0,.323,0,.647,0,.97,0,.046,0,.092,0,.139,0,.093,0,.187,0,.28,0,.877,0,1.753,0,2.63,0,.802,0,1.605.001,2.407.001.824.002,1.647.001,2.471,0,.462,0,.925,0,1.387,0,.394,0,.787,0,1.181,0,.201,0,.402,0,.603,0,.184,0,.368,0,.552,0,.067,0,.133,0,.2,0,.09,0,.181,0,.271,0,.05,0,.1,0,.152-.034.213-.137.355-.301.49-.161.067-.309.069-.48.066-.035,0-.071,0-.107,0-.116,0-.232-.001-.349-.002-.081,0-.162,0-.242,0-.212,0-.425-.002-.637-.003-.217-.001-.433-.002-.65-.003-.425-.001-.85-.004-1.275-.007v1.474c.103.029.206.059.313.089.464.266.77.632.983,1.116v.089h2.814c.029-.088.059-.177.089-.268.254-.485.605-.823,1.116-1.027.015-.472.029-.943.045-1.429h1.34v1.429c.103.029.206.059.313.089.464.266.77.632.983,1.116v.089c.029,0,.058,0,.088-.001.303-.004.606-.007.908-.009.113,0,.226-.002.339-.004.163-.002.325-.003.488-.004.05,0,.101-.002.153-.003.279,0,.449.009.659.199.181.233.169.476.134.759-.098.206-.201.3-.402.402q-.117.018-.243.019c-.047,0-.095.002-.144.003q-.076,0-.153,0t-.158.002c-.167.002-.333.004-.5.005-.113.001-.226.003-.339.005-.277.004-.554.007-.83.009-.015.031-.03.062-.046.093-.02.04-.04.081-.06.122-.02.04-.039.08-.06.121-.223.427-.618.71-1.056.886-.531.162-1.183.149-1.68-.106-.483-.286-.734-.619-.983-1.116h-2.814c-.074.147-.147.295-.223.447-.314.447-.758.744-1.295.849-.666.069-1.225-.018-1.765-.437-.284-.253-.431-.516-.602-.858h-2.858c-.074.147-.147.295-.223.447-.314.447-.758.744-1.295.849-.666.069-1.225-.018-1.765-.437-.224-.2-.384-.418-.517-.686-.016-.032-.032-.064-.048-.097-.012-.025-.024-.049-.037-.074-.029,0-.058,0-.088,0-.303-.002-.606-.005-.908-.009-.113-.001-.226-.002-.339-.003-.163,0-.325-.003-.488-.005-.05,0-.101,0-.153,0-.277-.005-.45-.018-.659-.206-.181-.233-.169-.476-.134-.759.098-.206.201-.3.402-.402q.117-.016.243-.015c.047,0,.095,0,.144,0,.051,0,.101.001.153.002q.078,0,.158,0c.167,0,.333.002.5.004.113,0,.226.001.339.002.277.001.554.004.83.007.013-.049.026-.098.04-.148.137-.458.506-.794.91-1.027q.23-.12.345-.12v-1.429h1.34c.015.472.029.943.045,1.429.147.074.295.147.447.223.348.266.583.58.759.983v.089h2.858c.029-.088.059-.177.089-.268.254-.485.605-.823,1.116-1.027.015-.486.029-.973.045-1.474q-.162.001-.328.003c-.358.003-.716.005-1.073.006-.217,0-.434.002-.651.004-.209.002-.419.003-.628.003-.08,0-.16,0-.239.002-.112.001-.224.001-.336.001-.033,0-.066.001-.1.002-.228-.002-.358-.053-.531-.201-.127-.174-.151-.296-.151-.509q0-.087-.001-.176c0-.064,0-.129,0-.193,0-.069,0-.137,0-.206,0-.188,0-.377,0-.565,0-.203,0-.406,0-.609,0-.398,0-.796,0-1.194,0-.323,0-.647,0-.97,0-.046,0-.092,0-.139,0-.093,0-.187,0-.28,0-.877,0-1.753,0-2.63,0-.802,0-1.605-.001-2.407-.001-.824-.002-1.647-.001-2.471,0-.462,0-.925,0-1.387,0-.394,0-.787,0-1.181,0-.201,0-.402,0-.603,0-.184,0-.368,0-.552,0-.067,0-.133,0-.2,0-.09,0-.181,0-.271,0-.05,0-.1,0-.152.034-.213.137-.355.302-.49.159-.067.304-.07.473-.069ZM17.731,12.054c-.122.2-.118.398-.089.625.098.2.2.309.402.402.217.06.435.051.658.051.044,0,.087,0,.132,0,.144,0,.287,0,.431,0,.1,0,.2,0,.3,0,.21,0,.419,0,.629,0,.268,0,.537,0,.805.001.207,0,.413,0,.62,0,.099,0,.198,0,.297,0,.139,0,.277,0,.416,0,.041,0,.081,0,.123,0,.29-.001.533-.013.761-.21.176-.206.207-.319.201-.583-.021-.165-.082-.258-.193-.38-.271-.201-.557-.185-.881-.185-.044,0-.087,0-.132,0-.144,0-.287,0-.431,0-.1,0-.2,0-.3,0-.21,0-.419,0-.629,0-.268,0-.537,0-.805-.001-.207,0-.413,0-.62,0-.099,0-.198,0-.297,0-.139,0-.277,0-.416,0-.041,0-.081,0-.123,0-.335.002-.607.035-.859.28ZM17.731,14.734c-.122.2-.118.398-.089.625.098.2.2.309.402.402.217.06.435.051.658.051.044,0,.087,0,.132,0,.144,0,.287,0,.431,0,.1,0,.2,0,.3,0,.21,0,.419,0,.629,0,.268,0,.537,0,.805.001.207,0,.413,0,.62,0,.099,0,.198,0,.297,0,.139,0,.277,0,.416,0,.041,0,.081,0,.123,0,.29-.001.533-.013.761-.21.176-.206.207-.319.201-.583-.021-.165-.082-.258-.193-.38-.271-.201-.557-.185-.881-.185-.044,0-.087,0-.132,0-.144,0-.287,0-.431,0-.1,0-.2,0-.3,0-.21,0-.419,0-.629,0-.268,0-.537,0-.805-.001-.207,0-.413,0-.62,0-.099,0-.198,0-.297,0-.139,0-.277,0-.416,0-.041,0-.081,0-.123,0-.335.002-.607.035-.859.28ZM17.731,17.413c-.122.2-.118.398-.089.625.098.2.2.309.402.402.215.059.432.051.654.051.043,0,.086,0,.131,0,.142,0,.285,0,.427,0,.099,0,.198,0,.297,0,.208,0,.415,0,.623,0,.266,0,.531,0,.797.001.205,0,.409,0,.614,0,.098,0,.196,0,.294,0,.137,0,.274,0,.411,0q.06,0,.122,0c.289-.001.531-.013.758-.21.176-.206.207-.319.201-.583-.021-.165-.082-.258-.193-.38-.27-.201-.555-.185-.877-.185-.043,0-.086,0-.131,0-.142,0-.285,0-.427,0-.099,0-.198,0-.297,0-.208,0-.415,0-.623,0-.266,0-.531,0-.797-.001-.205,0-.409,0-.614,0-.098,0-.196,0-.294,0-.137,0-.274,0-.411,0-.04,0-.081,0-.122,0-.334.002-.605.036-.856.28ZM17.731,20.093c-.122.2-.118.398-.089.625.098.2.2.309.402.402.215.059.432.051.654.051.043,0,.086,0,.131,0,.142,0,.285,0,.427,0,.099,0,.198,0,.297,0,.208,0,.415,0,.623,0,.266,0,.531,0,.797.001.205,0,.409,0,.614,0,.098,0,.196,0,.294,0,.137,0,.274,0,.411,0q.06,0,.122,0c.289-.001.531-.013.758-.21.176-.206.207-.319.201-.583-.021-.165-.082-.258-.193-.38-.27-.201-.555-.185-.877-.185-.043,0-.086,0-.131,0-.142,0-.285,0-.427,0-.099,0-.198,0-.297,0-.208,0-.415,0-.623,0-.266,0-.531,0-.797-.001-.205,0-.409,0-.614,0-.098,0-.196,0-.294,0-.137,0-.274,0-.411,0-.04,0-.081,0-.122,0-.334.002-.605.036-.856.28ZM19.964,22.773c-.123.198-.118.399-.089.625.097.197.196.321.402.402.225.031.394.026.6-.075.15-.135.235-.226.263-.431.012-.255-.016-.414-.193-.61-.17-.15-.339-.159-.558-.153-.177.03-.303.111-.425.242Z" fill="#fff"/><path d="M26.529,10.447q1.238-.007,1.765-.009c.36-.001.72-.002,1.08-.005.29-.002.58-.003.87-.003.111,0,.221,0,.332-.002.155-.001.31-.001.465-.001q.069,0,.139-.002c.258.001.42.019.619.201.114.161.151.271.151.468,0,.049,0,.098.001.148,0,.053,0,.107,0,.162,0,.057,0,.114,0,.172,0,.158,0,.316,0,.474,0,.17,0,.341,0,.511,0,.334,0,.667,0,1.001,0,.271,0,.542,0,.813,0,.039,0,.077,0,.117,0,.078,0,.157,0,.235,0,.735,0,1.47,0,2.204,0,.672,0,1.345.001,2.017.001.69.002,1.381.001,2.071,0,.388,0,.775,0,1.163,0,.33,0,.66,0,.99,0,.168,0,.337,0,.505,0,.182,0,.365,0,.547q0,.08.001.161c-.003.28-.012.454-.202.666-.205.183-.448.152-.708.149-.049,0-.098,0-.148,0-.161,0-.322-.001-.484-.002-.112,0-.224,0-.335,0-.264,0-.528-.002-.792-.003-.383-.002-.766-.003-1.149-.003-.536-.001-1.072-.004-1.609-.006v-2.68q1.209-.017,1.589-.021c.1-.002.2-.003.3-.005.051,0,.103-.001.156-.002q.461-.002.853-.218c.155-.182.152-.305.149-.537-.013-.145-.047-.225-.144-.334-.219-.162-.431-.184-.697-.188-.049,0-.098-.002-.149-.003-.053,0-.105-.001-.159-.002q-.081-.001-.164-.003c-.173-.003-.346-.006-.519-.008-.117-.002-.235-.004-.352-.006-.287-.005-.575-.009-.862-.014v-1.34c.174-.002.347-.004.526-.007.169-.002.337-.005.506-.008.117-.002.234-.003.351-.005.168-.002.337-.005.505-.007.052,0,.104-.001.158-.002q.46-.002.851-.218c.155-.182.152-.305.149-.537-.013-.145-.047-.225-.144-.334-.219-.162-.431-.184-.697-.188-.049,0-.098-.002-.149-.003-.053,0-.105-.001-.159-.002q-.081-.001-.164-.003c-.173-.003-.346-.006-.519-.008-.117-.002-.235-.004-.352-.006-.287-.005-.575-.009-.862-.014v-1.34c.174-.002.347-.004.526-.007.169-.002.337-.005.506-.008.117-.002.234-.003.351-.005.168-.002.337-.005.505-.007.052,0,.104-.001.158-.002q.46-.002.851-.218c.155-.182.152-.305.149-.537-.013-.145-.047-.225-.144-.334-.219-.162-.431-.184-.697-.188-.049,0-.098-.002-.149-.003-.053,0-.105-.001-.159-.002q-.081-.001-.164-.003c-.173-.003-.346-.006-.519-.008-.117-.002-.235-.004-.352-.006-.287-.005-.575-.009-.862-.014v-1.34c.174-.002.347-.004.526-.007.169-.002.337-.005.506-.008.117-.002.234-.003.351-.005.168-.002.337-.005.505-.007.052,0,.104-.001.158-.002q.46-.002.851-.218c.155-.182.152-.305.149-.537-.013-.145-.047-.225-.144-.334-.219-.162-.431-.184-.697-.188-.05,0-.1-.002-.151-.003-.052,0-.104-.001-.157-.002-.048,0-.096-.002-.146-.003-.179-.003-.358-.006-.537-.008-.401-.006-.801-.013-1.214-.02v-2.68Z" fill="#fff"/><path d="M9.954,10.431c.049,0,.098,0,.148,0,.161,0,.322.001.484.002.112,0,.224,0,.335,0,.264,0,.528.002.792.003.383.002.766.003,1.149.003.536.001,1.072.004,1.609.006v2.68q-1.209.017-1.589.021c-.1.002-.2.003-.3.005-.051,0-.103.001-.156.002q-.461.002-.853.218c-.155.182-.152.305-.149.537.013.145.047.225.144.334.219.162.431.184.697.188q.074.001.149.003c.053,0,.105.001.159.002q.081.001.164.003c.173.003.346.006.519.008.117.002.235.004.352.006.287.005.575.009.862.014v1.34q-.261.003-.526.007c-.169.002-.337.005-.506.008-.117.002-.234.003-.351.005-.168.002-.337.005-.505.007-.052,0-.104.001-.158.002q-.46.002-.851.218c-.155.182-.152.305-.149.537.013.145.047.225.144.334.219.162.431.184.697.188.049,0,.098.002.149.003.053,0,.105.001.159.002q.081.001.164.003c.173.003.346.006.519.008.117.002.235.004.352.006.287.005.575.009.862.014v1.34q-.261.003-.526.007c-.169.002-.337.005-.506.008-.117.002-.234.003-.351.005-.168.002-.337.005-.505.007-.052,0-.104.001-.158.002q-.46.002-.851.218c-.155.182-.152.305-.149.537.013.145.047.225.144.334.219.162.431.184.697.188.049,0,.098.002.149.003.053,0,.105.001.159.002q.081.001.164.003c.173.003.346.006.519.008.117.002.235.004.352.006.287.005.575.009.862.014v1.34q-.261.003-.526.007c-.169.002-.337.005-.506.008-.117.002-.234.003-.351.005-.168.002-.337.005-.505.007-.052,0-.104.001-.158.002q-.46.002-.851.218c-.155.182-.152.305-.149.537.013.145.047.225.144.334.219.162.431.184.697.188q.075.001.151.003c.052,0,.104.001.157.002.048,0,.096.002.146.003.179.003.358.006.537.008q.601.01,1.214.02v2.68q-1.238.007-1.765.009c-.36.001-.72.002-1.08.005-.29.002-.58.003-.87.003-.111,0-.221,0-.332.002-.155.001-.31.001-.465.001q-.069,0-.139.002c-.258-.001-.42-.019-.619-.201-.114-.161-.151-.271-.151-.468q0-.073-.001-.148c0-.053,0-.107,0-.162,0-.057,0-.114,0-.172,0-.158,0-.316,0-.474,0-.17,0-.341,0-.511,0-.334,0-.667,0-1.001,0-.271,0-.542,0-.813,0-.039,0-.077,0-.117,0-.078,0-.157,0-.235,0-.735,0-1.47,0-2.204,0-.672,0-1.345-.001-2.017-.001-.69-.002-1.381-.001-2.071,0-.388,0-.775,0-1.163,0-.33,0-.66,0-.99,0-.168,0-.337,0-.505,0-.182,0-.365,0-.547,0-.053,0-.107-.001-.161.003-.28.012-.454.202-.666.205-.183.448-.152.708-.149Z" fill="#fff"/></svg>