<?xml version="1.0" encoding="UTF-8"?>
<svg id="Layer_1" data-name="Layer 1" xmlns="http://www.w3.org/2000/svg" viewBox="0 0 1280 270">
  <defs>
    <style>
      .cls-1 {
        fill: #a80030;
      }
    </style>
  </defs>
  <path class="cls-1" d="M237.35,145.6c-4.27.06.81,2.2,6.4,3.06,1.55-1.21,2.94-2.42,4.19-3.61-3.47.77-7.05.96-10.59.55"/>
  <path class="cls-1" d="M260.32,139.87c2.54-3.34,4.28-7.22,5.06-11.35-.57,2.83-2.1,5.28-3.56,7.87-8,5.04-.75-2.99,0-6.05-8.6,10.84-1.19,6.5-1.5,9.52"/>
  <path class="cls-1" d="M268.81,117.81c.52-7.71-1.52-5.27-2.2-2.33.81.42,1.43,5.44,2.2,2.33"/>
  <path class="cls-1" d="M221.12,12.46c2.28.4,4.94.72,4.56,1.27,2.51-.55,3.07-1.05-4.56-1.27"/>
  <path class="cls-1" d="M225.68,13.73l-1.61.34,1.51-.16.1-.2"/>
  <path class="cls-1" d="M302.82,115.96c.27,7.14-2.08,10.62-4.2,16.76l-3.83,1.9c-3.12,6.07.32,3.86-1.92,8.68-4.89,4.34-14.8,13.57-17.98,14.42-2.32-.06,1.57-2.74,2.08-3.79-6.54,4.48-5.25,6.73-15.24,9.46l-.29-.66c-24.63,11.6-58.85-11.37-58.4-42.71-.27,1.99-.75,1.49-1.3,2.29-1.27-16.12,7.45-32.31,22.16-38.93,14.38-7.11,31.24-4.16,41.53,5.41-5.65-7.41-16.92-15.27-30.26-14.54-13.07.21-25.31,8.52-29.39,17.54-6.66,4.21-7.49,16.25-10.39,18.46-3.93,28.86,7.39,41.32,26.54,55.99,3.01,2.03.83,2.34,1.25,3.89-6.49-3.1-12.27-7.52-16.97-12.98,2.54,3.72,5.29,7.34,8.83,10.17-5.99-2.02-14-14.53-16.34-15.04,10.34,18.5,41.93,32.47,58.48,25.53-7.66.28-17.39.16-25.99-3.02-3.62-1.86-8.53-5.7-7.65-6.42,22.58,8.43,45.9,6.38,65.44-9.28,5-3.87,10.4-10.46,11.97-10.55-2.36,3.56.4,1.72-1.42,4.85,4.95-7.99-2.16-3.26,5.12-13.8l2.68,3.7c-1.01-6.66,8.23-14.69,7.29-25.17,2.12-3.21,2.36,3.46.12,10.82,3.12-8.18.83-9.49,1.67-16.25,1.01,2.31,1.87,4.67,2.59,7.09-2.03-7.91,2.08-13.32,3.11-17.92-1.02-.44-3.14,3.5-3.63-5.83.07-4.05,1.13-2.12,1.54-3.12-.83-.46-2.89-3.57-4.16-9.53.92-1.41,2.46,3.63,3.71,3.84-.83-4.75-2.2-8.33-2.26-12-3.66-7.66-1.3,1.02-4.26-3.33-3.91-12.16,3.23-2.82,3.72-8.33,5.9,8.56,9.28,21.84,10.82,27.34-1.23-6.64-3.06-13.15-5.47-19.46,1.8.76-2.9-13.79,2.34-4.16-5.59-20.54-23.89-39.73-40.73-48.73,2.06,1.88,4.65,4.25,3.72,4.62-8.38-5-6.9-5.37-8.1-7.49-6.82-2.78-7.28.22-11.78,0-12.86-6.82-15.35-6.09-27.19-10.37l.54,2.5c-8.52-2.84-9.93,1.07-19.15,0-.56-.43,2.95-1.58,5.83-2-8.24,1.08-7.86-1.67-15.92.3,2.01-1.28,4.08-2.45,6.21-3.51-6.72.41-16.04,3.91-13.16.72-10.96,4.89-30.42,11.75-41.34,21.99l-.35-2.29c-5,6-21.81,17.93-23.16,25.73l-1.34.31c-2.6,4.4-4.29,9.4-6.35,13.94-3.41,5.83-5,2.23-4.5,3.15-6.66,13.58-9.99,24.98-12.91,34.35,2.05,3.06.05,18.43.83,30.73-3.33,60.78,42.64,119.74,92.91,133.35,7.37,2.64,18.32,2.55,27.65,2.81-11-3.15-12.41-1.67-23.13-5.4-7.73-3.65-9.43-7.8-14.9-12.56l2.16,3.83c-10.73-3.8-6.24-4.7-14.99-7.49l2.31-3.01c-3.48-.27-9.22-5.83-10.82-8.98l-3.81.16c-4.57-5.64-7.01-9.72-6.83-12.86l-1.23,2.19c-1.39-2.39-16.83-21.17-8.82-16.79-1.49-1.36-3.47-2.21-5.61-6.11l1.67-1.87c-3.85-5-7.09-11.31-6.84-13.43,2.06,2.77,3.48,3.33,4.9,3.77-9.73-24.15-10.28-1.32-17.65-24.57l1.56-.12c-1.08-1.83-2.04-3.73-2.88-5.68l.68-6.76c-7-8.08-1.96-34.44-.95-48.88.7-5.83,5.83-12.12,9.77-21.93l-2.39-.41c4.6-7.9,26.1-31.89,36.02-30.68,4.82-6.05-.96,0-1.9-1.54,10.58-10.96,13.91-7.74,21.06-9.72,7.69-4.56-6.61,1.79-2.96-1.74,13.32-3.4,9.43-7.73,26.8-9.45,1.83,1.04-4.25,1.61-5.78,2.96,11.09-5.43,35.1-4.16,50.71,3.01,18.08,8.46,38.43,33.45,39.23,56.98l.91.25c-.46,9.35,1.43,20.16-1.85,30.09l2.21-4.7"/>
  <path class="cls-1" d="M190.64,151.47l-.6,3c2.81,3.82,5.05,7.97,8.64,10.94-2.58-5.04-4.5-7.12-8.06-13.94"/>
  <path class="cls-1" d="M197.28,151.21c-1.37-1.71-2.5-3.59-3.35-5.6.94,3.48,2.88,6.45,4.68,9.49l-1.32-3.89"/>
  <path class="cls-1" d="M314.96,125.63l-.62,1.61c-1.17,8.28-3.69,16.3-7.47,23.76,4.18-7.91,6.91-16.51,8.06-25.39"/>
  <path class="cls-1" d="M221.97,10.41c2.9-1.06,7.11-.58,10.19-1.27-4.03.33-7.98.53-11.92,1.03l1.73.24"/>
  <path class="cls-1" d="M114.65,52.5c.71,6.53-4.91,9.08,1.25,4.76,3.3-7.45-1.29-2.06-1.25-4.76"/>
  <path class="cls-1" d="M107.41,82.75c.95-3.1,1.69-6.26,2.22-9.46-3.92,5.01-1.81,6.08-2.22,9.49"/>
  <g>
    <path d="M493.73,129.47c-.32.34-.32,53.47-.98,67.35-.66,11.19-1.66,35.26-25.41,35.26s-30.39-28.08-32.35-40.12c-1.62-9.82-2.4-19.76-2.31-29.71,0-15.85.98-60.17,38.29-60.17,7.89-.1,15.66,1.98,22.44,6.02l.32,21.36ZM397.99,168.45c0,93.09,49.52,93.09,56.78,93.09,20.48,0,33.68-11.23,39.29-30.71l.68,29.34c6.28-.34,12.54-1,22.77-1,3.09-.08,6.17.04,9.25.34,2.76.06,5.51.28,8.24.66-5.28-10.57-9.23-34.34-9.23-85.85s0-135.01,4.29-160.76c-11.87,5.62-22.06,9.27-44.57,11.23,8.91,9.57,8.91,14.52,8.91,58.17-8.94-3-18.32-4.46-27.74-4.33-59.09,0-68.68,51.51-68.68,89.82"/>
    <path d="M576.99,151.6c.34-27.4,6.02-51.83,29.38-51.83,25.75,0,27.72,28.38,27.06,51.83h-56.44ZM666.1,154.91c0-38.63-7.58-76.6-56.44-76.6-67.33,0-67.33,74.61-67.33,90.46,0,66.99,30.09,93.41,80.55,93.41,22.42,0,33.34-3.29,39.27-4.95-.32-11.87,1.32-19.48,3.31-29.71-6.94,4.31-15.85,9.91-35.66,9.91-51.49,0-52.15-46.89-52.15-63.06h87.81l.64-19.46"/>
    <path d="M773.55,169.09c0,30.71-5.62,71.97-43.91,71.97-5.44-.12-10.86-.79-16.17-2.01-.66-11.87-.66-32.35-.66-56.16,0-28.38,2.95-43.22,5.28-50.51,6.92-23.43,22.44-23.75,25.41-23.75,25.09.06,30.05,34.72,30.05,60.45ZM678.8,205.07c0,24.45,0,38.29-4.01,48.86,13.54,5.28,30.37,8.24,50.51,8.24,12.88,0,50.14,0,70.3-41.26,9.59-19.16,12.88-44.91,12.88-64.39,0-11.87-1.32-37.95-10.89-54.46-9.23-15.5-24.07-23.43-39.93-23.43-31.69,0-40.94,26.4-45.87,39.93,0-16.83.32-75.6,2.95-105.64-15.28,7.44-31.88,11.81-48.84,12.88,12.88,5.28,12.88,27.08,12.88,98.06v81.19"/>
    <path d="M872,260.17c-6.88-1.18-13.84-1.73-20.82-1.66-8.52-.04-17.03.52-25.47,1.66,3.29-6.28,4.61-9.27,5.6-30.71,1.32-29.38,1.66-107.95-.64-124.36-1.66-12.56-4.63-14.52-9.25-17.83,27.06-2.65,34.66-4.61,47.2-10.55-2.63,14.5-2.99,21.78-2.99,43.89-.64,113.91-.98,126.12,6.3,139.66"/>
    <path d="M977.7,166.76c-.66,20.82-.98,35.34-6.6,46.89-6.94,14.84-18.49,19.14-27.08,19.14-19.82,0-24.07-16.49-24.07-32.67,0-31.01,27.72-33.36,40.26-33.36h17.49ZM886.92,207.38c0,20.8,6.28,41.6,24.77,50.53,6.06,2.51,12.58,3.75,19.14,3.63,30.39,0,40.62-22.46,46.89-36.32-.38,11.68-.05,23.36.98,35,6.02-.34,11.87-1,21.78-1,5.62,0,10.89.66,16.51,1-3.63-5.62-5.62-8.93-6.62-21.8-.64-12.54-.64-25.07-.64-42.58l.32-67.33c0-25.11-6.6-49.86-56.16-49.86-32.67,0-51.81,9.91-61.4,14.86,5,8.58,8.46,17.97,10.23,27.74,13.05-11.17,29.69-17.27,46.87-17.17,27.42,0,27.42,18.15,27.42,43.89-6.28-.32-11.55-.96-20.48-.96-41.94,0-69.66,16.15-69.66,60.39"/>
    <path d="M1167.85,227.52c.34,11.23.34,23.13,4.95,32.69-8.32-1.1-16.7-1.65-25.09-1.64-6.2-.02-12.39.54-18.49,1.64,1.33-3.73,2.22-7.61,2.65-11.55.98-7.58,1.64-33.01,1.64-41.94v-35.64c0-15.52,0-37.97-1-45.89-.66-5.6-2.29-20.78-21.46-20.78s-25.07,13.86-27.4,25.07c-2.63,11.55-2.63,24.07-2.63,72.95.32,42.26.32,46.13,3.63,57.79-7.45-.91-14.94-1.35-22.44-1.32-6.65-.12-13.3.31-19.88,1.28,2.31-5.3,3.63-8.02,4.29-26.42.66-18.15,2.01-107.29-1-128.37-1.64-12.9-4.95-15.85-8.58-19.16,26.76-1.32,35.32-5.62,43.59-9.89v34.98c4.01-10.25,12.2-33.01,45.23-33.01,41.26,0,41.58,30.09,41.92,49.82v99.39"/>
    <path class="cls-1" d="M874.78,29.95l-27.34,27.32-27.34-27.32,27.34-27.34,27.34,27.34"/>
  </g>
</svg>