<?xml version="1.0" encoding="UTF-8"?><svg id="a" xmlns="http://www.w3.org/2000/svg" width="30" height="30" viewBox="0 0 30 30"><rect width="30" height="30" rx="2.897" ry="2.897" fill="#fff"/><path d="M12.291,8.7c-.317.109-.599.419-.655.718-.015.081-.028.094-.109.109-.381.069-.716.419-.792.823-.013.074-.025.449-.025.83v.693l-.076.119c-.145.231-.16.525-.038.792.086.19.218.325.404.414l.152.071.048.236c.086.434.287.82.597,1.142.107.109.246.241.315.289.119.089.122.094.122.221,0,.129-.003.135-.216.366-.119.127-.254.254-.3.282-.043.028-.503.162-1.021.297-.558.147-.99.274-1.066.315-.069.036-.175.114-.236.175-.211.208-.228.272-.576,2.036-.175.886-.317,1.665-.317,1.729,0,.142.061.358.142.495.089.15.292.333.462.411.142.066.157.069.721.076.32.005.579.005.579,0,0-.008-.096-.815-.216-1.8-.119-.982-.216-1.838-.216-1.899s.013-.155.03-.211c.038-.127.198-.31.335-.383l.104-.056,2.996-.008c2.132-.005,3.034,0,3.128.02.165.036.315.142.399.284.129.223.132.18-.099,2.127-.119.985-.221,1.823-.228,1.861l-.013.071.579-.008.576-.008.17-.081c.343-.162.556-.48.571-.858.01-.18-.028-.388-.307-1.797-.338-1.698-.355-1.764-.543-1.975-.175-.195-.315-.251-1.318-.515-.508-.132-.957-.261-1-.282-.043-.023-.185-.152-.317-.287-.236-.246-.239-.246-.239-.378,0-.119.008-.137.084-.188.388-.272.696-.673.856-1.109.061-.17.089-.282.142-.556.008-.036.036-.061.084-.071.099-.02.287-.157.381-.277.208-.261.239-.635.074-.934l-.091-.165-.013-.619c-.008-.457-.023-.663-.053-.782-.198-.764-.731-1.378-1.437-1.65-.366-.142-.495-.155-1.49-.155-.807.003-.924.008-1.041.048ZM12.639,10.82c.556.119,1.292.193,1.924.193.348,0,.429.023.556.15.096.102.135.241.135.508,0,.241.01.272.104.322.061.03.094.033.18.01.36-.099.683.259.541.597-.056.14-.18.236-.34.269-.195.041-.244.099-.264.317-.066.696-.477,1.295-1.097,1.597-.599.294-1.287.269-1.858-.066-.19-.112-.579-.5-.691-.691-.127-.216-.226-.518-.259-.787-.033-.272-.076-.335-.236-.36-.137-.025-.223-.071-.305-.165-.15-.178-.137-.429.03-.594.122-.124.246-.155.452-.114.14.028.165.025.223-.01.036-.025.071-.069.079-.102.008-.03.043-.198.079-.371.079-.383.145-.564.244-.678.091-.104.117-.107.503-.025ZM12.956,15.334c.17.048.264.058.571.056.366-.003.393-.008.81-.127l.061-.018-.013.231c-.018.287-.089.452-.274.625-.195.183-.322.231-.597.231-.211,0-.241-.008-.388-.086-.305-.165-.454-.406-.48-.779l-.015-.221.061.018c.033.008.152.041.264.071Z" fill="#6232d7"/><path d="M17.97,13.293c-.081.041-.096.066-.19.34-.056.165-.119.315-.14.335-.051.051-.292.142-.371.142-.033,0-.175-.058-.315-.127-.366-.183-.358-.185-.713.17-.18.18-.305.327-.315.371-.015.056.01.127.124.35.079.155.142.302.142.327s-.036.122-.076.218c-.043.094-.074.173-.071.175.005.005.277.076.604.162s.614.162.635.168c.028.01.058-.023.096-.104.066-.135.254-.343.399-.442.355-.241.866-.251,1.244-.023.124.076.33.294.401.426.188.343.188.797,0,1.12-.183.31-.528.548-.843.576-.084.008-.155.023-.155.03-.005.079.373,1.907.393,1.907.081,0,.14-.091.231-.36.051-.157.107-.302.119-.322.043-.051.292-.155.376-.155.041,0,.188.056.327.127.142.071.287.127.333.127.069,0,.124-.043.381-.297.185-.185.305-.327.317-.371.013-.056-.013-.132-.127-.363-.079-.162-.142-.31-.142-.33,0-.074.15-.363.203-.391.03-.015.114-.046.185-.069.074-.02.193-.061.267-.089.195-.074.208-.112.208-.602,0-.505.008-.492-.401-.625-.317-.104-.335-.119-.424-.376l-.046-.135.147-.294c.117-.236.142-.31.129-.368-.013-.043-.135-.185-.317-.371-.355-.355-.348-.353-.713-.17-.14.069-.282.127-.315.127-.079,0-.32-.091-.368-.14-.018-.018-.081-.168-.14-.335-.135-.388-.137-.388-.637-.388-.287,0-.373.008-.444.046Z" fill="#6232d7"/><path d="M10.535,17.418c-.033.015-.084.061-.112.099l-.053.071.221,1.846c.122,1.018.221,1.863.221,1.879,0,.025.551.033,2.676.033,2.351,0,2.678-.005,2.706-.038.03-.036.454-3.435.457-3.651,0-.124-.033-.185-.127-.234-.063-.033-.439-.038-3.001-.038-2.272,0-2.94.008-2.988.033ZM13.642,18.936c.274.076.409.401.277.663-.104.203-.411.287-.619.17-.335-.19-.294-.696.069-.823.119-.043.147-.046.274-.01Z" fill="#6232d7"/></svg>