<?xml version="1.0" encoding="UTF-8"?><svg id="a" xmlns="http://www.w3.org/2000/svg" width="41" height="41" viewBox="0 0 41 41"><rect width="41" height="41" rx="1.078" ry="1.078" fill="#6232d7"/><path d="M15.928,9.453c.052,0,.104,0,.158,0,.11,0,.219,0,.329,0,.166,0,.332,0,.497-.002.7-.002,1.348.025,2.008.28q.051.019.103.039c.527.207,1.002.486,1.428.861q.053.044.107.09c.895.771,1.562,1.955,1.661,3.144.009.316.005.632,0,.948q.068.007.136.015c.418.072.773.343,1.028.675.188.307.351.62.35.985,0,.041,0,.083,0,.125,0,.044,0,.089,0,.134q0,.069,0,.138c0,.146,0,.292-.001.437,0,.099,0,.198,0,.297,0,.242-.001.485-.002.727-.029.009-.059.019-.089.029-2.031.662-3.685,1.841-4.68,3.766-.522,1.042-.799,2.151-.8,3.319,0,.038-.001.077-.002.116,0,.279.023.552.053.828.004.038.008.076.012.115.01.093.02.185.03.277-.942.004-1.883.007-2.825.009-.437,0-.875.002-1.312.004-.381.002-.763.003-1.144.003-.202,0-.404,0-.605.002-.19.001-.38.002-.571.001-.07,0-.139,0-.209.001-.573.005-1.022-.092-1.482-.452-.027-.021-.053-.041-.08-.062-.277-.245-.491-.652-.566-1.015-.004-.12-.006-.239-.006-.36,0-.037,0-.073,0-.111,0-.123,0-.246,0-.369,0-.088,0-.176,0-.264,0-.289-.001-.579-.002-.868,0-.1,0-.199,0-.299,0-.468-.001-.936-.002-1.405,0-.54-.002-1.08-.003-1.62-.001-.418-.002-.835-.002-1.253,0-.249,0-.499-.002-.748-.001-.235-.001-.47,0-.704,0-.086,0-.172,0-.258-.004-.626.055-1.105.452-1.614.021-.027.041-.053.062-.08.223-.253.534-.399.843-.523h.172c0-.025-.001-.05-.002-.076-.03-1.303.289-2.506,1.166-3.502.03-.035.059-.07.09-.107.928-1.078,2.292-1.675,3.707-1.674ZM13.597,11.665c-.026.02-.052.04-.079.061-.689.551-1.029,1.388-1.215,2.223-.014.27-.028.541-.043.819h8.665c-.055-1.041-.222-1.817-.862-2.63q-.035-.045-.071-.091c-.57-.689-1.48-1.159-2.367-1.258-1.435-.126-2.881-.095-4.028.874ZM14.963,18.888c-.14.202-.155.381-.116.622.101.181.236.313.431.388.12.006.236.008.356.005.032,0,.064,0,.097-.001.079-.001.158-.003.237-.004,0,.042-.001.083-.002.126-.002.156-.004.311-.005.467,0,.067-.002.134-.003.202-.002.097-.002.194-.003.291,0,.03-.001.06-.002.09,0,.201.04.334.144.505.156.156.3.225.517.259.197-.033.341-.108.472-.259.135-.197.138-.352.136-.582,0-.031,0-.063,0-.095,0-.1,0-.2-.001-.3,0-.068,0-.136,0-.204,0-.166-.001-.333-.002-.499.047.002.094.004.142.006.062.002.125.003.187.005q.046.002.093.004c.277.005.423-.095.629-.279.104-.184.103-.349.07-.555-.113-.221-.239-.353-.474-.431-.081-.004-.163-.006-.244-.007-.05,0-.1,0-.152-.001-.054,0-.108,0-.164,0-.056,0-.111,0-.169,0-.118,0-.236,0-.354,0-.151,0-.301-.001-.452-.002-.144,0-.288-.001-.432-.001-.054,0-.108-.001-.163-.002-.319,0-.547.006-.772.256Z" fill="#fff"/><path d="M29.319,20.731c.092.08.182.162.272.245.023.021.046.042.07.064,1.026.941,1.762,2.33,1.87,3.73q.055,1.512-.129,2.155-.015.053-.03.106c-.467,1.592-1.475,2.978-2.945,3.785-.927.487-1.877.731-2.925.732-.032,0-.064,0-.097,0-.471,0-.916-.02-1.374-.14-.028-.007-.057-.013-.086-.02-1.062-.253-1.984-.818-2.759-1.575-.033-.031-.067-.062-.101-.093-1.081-1.02-1.665-2.545-1.719-4.011-.039-1.709.558-3.276,1.734-4.518,2.149-2.206,5.843-2.452,8.22-.461ZM23.558,22.112c-.385.524-.573,1.06-.52,1.709.056.176.106.239.245.358.167.085.301.125.488.116.214-.071.355-.198.474-.388.029-.116.048-.219.062-.337.053-.345.144-.593.423-.82.332-.233.621-.257,1.024-.223.364.098.589.324.776.647.125.33.128.652.004.983-.13.259-.327.462-.592.581-.128.039-.255.057-.388.074-.282.038-.44.103-.625.325-.106.194-.106.343-.104.56,0,.039,0,.078,0,.119,0,.082,0,.165,0,.247,0,.126,0,.251-.001.377,0,.08,0,.161,0,.241,0,.037,0,.074-.001.113.004.251.052.398.196.605.15.128.323.188.52.178.199-.038.345-.152.472-.307.075-.158.098-.289.104-.463.002-.046.003-.092.005-.139.001-.048.003-.095.004-.144.002-.048.003-.097.005-.147.004-.119.008-.238.011-.357.035-.013.07-.026.106-.039.654-.248,1.134-.67,1.446-1.297.107-.266.194-.532.216-.819.003-.03.005-.059.008-.09.033-.639-.216-1.257-.628-1.734-.467-.493-1.046-.798-1.731-.823-.78-.011-1.498.286-2.001.895ZM24.919,28.742c-.104.184-.103.349-.07.555.085.167.176.301.345.388.197.053.367.072.552-.024.176-.121.288-.251.329-.466.014-.207-.004-.339-.138-.502-.147-.154-.267-.211-.48-.232-.236.007-.368.127-.539.28Z" fill="#fff"/></svg>