<?xml version="1.0" encoding="UTF-8"?><svg id="a" xmlns="http://www.w3.org/2000/svg" width="41" height="41" viewBox="0 0 41 41"><rect width="41" height="41" rx="1.078" ry="1.078" fill="#6232d7"/><path d="M26.784,23.673c.039.034.078.068.119.103,1.492,1.315,2.599,3.123,2.749,5.145.008.16.013.32.015.48.001.05.003.099.004.151-.002.363-.087.596-.337.859-.238.216-.483.273-.797.273-.058,0-.117,0-.177,0-.064,0-.129,0-.193,0-.069,0-.137,0-.206,0-.189,0-.377,0-.566,0-.203,0-.407,0-.61,0-.398,0-.797.001-1.195.001-.324,0-.648,0-.972,0-.918,0-1.836.001-2.755.001-.049,0-.099,0-.15,0-.05,0-.099,0-.15,0-.803,0-1.606,0-2.41.002-.825.001-1.65.002-2.474.002-.463,0-.926,0-1.389.001-.394,0-.788.001-1.183,0-.201,0-.402,0-.603,0-.184,0-.368,0-.553,0-.067,0-.133,0-.2,0-.408.003-.791-.004-1.102-.299-.39-.428-.325-.912-.303-1.463.123-1.795,1.029-3.41,2.249-4.689q.055-.059.111-.12c1.352-1.421,3.275-2.21,5.174-2.546.035-.006.07-.013.106-.019,2.666-.446,5.762.304,7.797,2.114Z" fill="#fff"/><path d="M23.831,11.504c.961.834,1.652,2.031,1.762,3.314.096,1.479-.264,2.816-1.238,3.952q-.034.044-.069.088c-.718.901-1.947,1.468-3.073,1.626-1.073.078-2.088-.01-3.047-.524-.045-.023-.09-.045-.137-.068-.32-.164-.589-.366-.863-.598-.032-.025-.063-.049-.096-.075-.958-.773-1.532-2.057-1.666-3.258-.101-1.416.243-2.748,1.16-3.847,1.854-2.136,5.084-2.435,7.266-.61Z" fill="#fff"/></svg>