<?xml version="1.0" encoding="UTF-8"?><svg id="a" xmlns="http://www.w3.org/2000/svg" width="83.06" height="83.06" viewBox="0 0 83.06 83.06"><circle cx="41.53" cy="41.53" r="41.53" fill="#eae5ff"/><path d="M51.767,17.676c.09.026.18.051.272.078,2.469.731,4.823,1.873,7.178,2.903.004-.107.008-.213.012-.323q.087-.373.349-.591c.368-.197.58-.229.994-.23.129-.001.259-.003.392-.004.14,0,.28.002.42.002.145,0,.289,0,.434-.001.303,0,.605,0,.908.002.387.002.774,0,1.16-.001.299-.001.597,0,.896,0,.143,0,.285,0,.428,0,.2-.001.399,0,.599.003q.17,0,.344,0c.388.062.607.206.913.448.139.278.113.508.114.819,0,.064,0,.129.001.195.001.217.001.433.002.65,0,.155.001.31.002.465.002.421.003.843.004,1.264,0,.263.001.526.002.789.002.823.003,1.646.004,2.469,0,.951.004,1.901.008,2.852.003.734.004,1.469.005,2.203,0,.439.001.878.004,1.316.002.413.003.826.002,1.239,0,.152,0,.303.002.454.002.207.001.414,0,.621,0,.116,0,.232,0,.351-.06.372-.186.537-.447.804-.281.141-.519.114-.833.117-.065,0-.13.001-.197.002-.216.002-.432.003-.648.004q-.111,0-.223.001c-.39.002-.781.003-1.171.004-.403.001-.806.005-1.209.008-.31.003-.62.003-.93.004-.148,0-.297.002-.445.003-.208.002-.416.002-.624.002q-.177,0-.359.002c-.378-.058-.541-.181-.812-.446-.135-.269-.106-.498-.099-.795-.059.001-.119.002-.18.003-1.053.016-2.1.021-3.148-.09-.075-.008-.15-.016-.228-.024-.455-.053-.875-.15-1.312-.287q.014.145.029.293c.327,3.831-.89,7.833-3.359,10.798-.242.282-.491.557-.743.83-.074.081-.149.163-.225.247-1.518,1.588-4.187,3.641-6.468,3.777-.409-.056-.572-.154-.857-.447-.113-.226-.126-.376-.137-.627-.005-.075-.01-.151-.015-.229.081-.368.258-.5.549-.734.288-.149.586-.263.888-.379,3.219-1.297,5.774-3.732,7.177-6.919.74-1.782,1.061-3.596,1.075-5.518,0-.086.001-.173.002-.262q.01-1.014-.423-1.889c-.281-.201-.57-.363-.871-.532-.186-.154-.369-.314-.546-.478-.079-.072-.158-.145-.239-.219-.172-.162-.34-.326-.506-.495.034.102.067.204.102.309,1.05,3.241.822,6.355-.723,9.389-1.428,2.55-3.711,4.305-6.457,5.24q-.104.036-.209.072c-2.725.878-5.763.455-8.314-.749-2.625-1.364-4.635-3.711-5.559-6.513-.917-2.98-.671-6.149.77-8.916,1.486-2.721,3.994-4.643,6.954-5.513.107-.025.213-.049.323-.075.075-.017.15-.035.227-.053.915-.192,1.83-.173,2.761-.158.764-.008,1.225-.073,1.788-.61.408-.369.952-.548,1.482-.669-2.894-1.072-6.284-.656-9.054.607-1.118.533-2.116,1.185-3.066,1.976q-.133.11-.269.223c-2.412,2.082-3.845,5.184-4.201,8.32-.192,3.713.729,7.122,3.222,9.947.15.162.301.324.453.484q.102.112.206.226c1.267,1.338,2.929,2.305,4.657,2.91.415.149.723.274.997.639.139.381.138.702-.019,1.074q-.316.381-.577.515c-.649.052-1.1-.078-1.689-.341-.082-.036-.164-.072-.249-.109-2.125-.948-4.139-2.298-5.612-4.12-.077-.094-.153-.188-.232-.284-2.645-3.302-3.726-7.375-3.298-11.572.059-.458.147-.907.251-1.357.018-.081.036-.161.055-.245.442-1.898,1.246-3.761,2.429-5.319.062-.082.123-.165.187-.25,2.359-3.041,5.55-5.068,9.335-5.828.068-.014.136-.027.206-.042.137-.027.275-.052.413-.075.693-.129,1.291-.424,1.923-.729.247-.117.495-.234.743-.35.065-.03.129-.061.196-.092,2.054-.966,4.139-1.885,6.27-2.668.072-.029.145-.058.219-.087,1.691-.636,3.764-.197,5.444.286ZM45.549,19.935c-.219.093-.439.183-.659.274-.907.377-1.788.789-2.66,1.241v.099c.055.015.111.03.168.045q4.061,1.104,4.998,2.041c.244.01.487.014.731.014.151.002.303.004.454.006.239.003.478.005.717.005.23,0,.461.004.691.008.071,0,.142-.001.215-.002.391.009.556.058.863.308.305.387.248.57.203,1.052-.006.078-.012.156-.019.236q-.081.161-.3.269c-.292.096-.517.116-.824.118-.107.001-.214.002-.325.003-.115,0-.231,0-.35,0-.248.003-.496.005-.744.008-.388.003-.776.005-1.164.007q-1.818.004-3.623.188c-.074.011-.148.023-.224.035-.829.149-1.349.495-1.848,1.166-.147.318-.168.503-.118.851.263.526.672.921,1.192,1.192.752.246,1.551.259,2.335.304.136.008.273.017.409.025.966.058,1.932.103,2.9.134.272.009.543.021.814.034.09.002.18.005.272.007.428.023.655.041,1.001.308.072.093.143.185.217.281.08.099.16.198.242.3.041.052.082.104.124.158,1.355,1.7,3.189,2.346,5.309,2.591.889.047,1.78.031,2.67.031v-10.332q-.832-.38-1.67-.746c-.099-.042-.198-.084-.301-.128-.45-.19-.901-.379-1.352-.568-.233-.098-.466-.195-.699-.294q-4.741-2.025-9.647-1.27ZM61.205,21.649v12.815h3.974v-12.815h-3.974ZM33.755,29.032c-1.075.853-1.869,1.772-2.552,2.949-.049.082-.098.165-.148.25-1.076,1.964-1.276,4.497-.666,6.632.829,2.585,2.466,4.516,4.865,5.781,2.094,1.012,4.667,1.216,6.877.451,1.189-.45,2.226-1.047,3.179-1.888.087-.076.175-.153.265-.231,1.745-1.632,2.719-3.97,2.818-6.341-.013-1.603-.292-3.948-1.493-5.15-.217-.019-.435-.032-.653-.043-.138-.007-.276-.015-.413-.022-.216-.011-.432-.022-.648-.032-1.444-.069-2.807-.183-4.048-.996-.092-.059-.184-.119-.279-.18-.822-.822-1.121-1.767-1.211-2.9-2.038-.365-4.26.541-5.892,1.72Z" fill="#6232d7"/><path d="M17.485,50.891c.067,0,.134-.002.203-.003.221-.002.441,0,.662,0,.154,0,.308,0,.462-.001.322,0,.645,0,.967.003.413.003.825.001,1.238-.002.318-.002.636-.001.954,0,.152,0,.304,0,.456-.001.213-.001.425,0,.638.003.121,0,.242,0,.366.001.411.081.561.236.817.56q.031.279,0,.497c.104-.002.208-.003.315-.005.393-.005.786-.009,1.179-.012.169-.001.338-.004.506-.006,2.759-.042,4.831.879,6.997,2.537.968.674,1.908.46,3.026.319.217-.027.433-.054.65-.08.616-.075,1.231-.151,1.847-.228.378-.047.757-.093,1.135-.139.142-.017.285-.035.427-.053.771-.098,1.534-.164,2.312-.169.07,0,.139-.002.211-.002.72.004,1.234.22,1.835.589.532.546.817,1.087,1.018,1.819.079-.023.159-.047.24-.071.985-.287,1.976-.537,2.973-.778.085-.02.169-.041.256-.062.447-.108.894-.216,1.34-.323.366-.088.732-.177,1.097-.267.446-.11.893-.217,1.34-.324.168-.04.337-.081.505-.123,1.377-.34,2.856-.665,4.17.06.712.473,1.178,1.053,1.391,1.888.122,1.09,0,1.976-.608,2.906-.826.79-1.94,1.168-2.98,1.596-.253.105-.505.21-.758.315-.175.073-.349.145-.524.218-.85.353-1.696.713-2.543,1.074-.741.316-1.482.63-2.223.944-.076.032-.152.065-.231.098-2.991,1.267-5.996,2.525-9.077,3.559q-.172.058-.348.118c-1.389.454-2.759.71-4.218.716-.1,0-.201.001-.304.002-.212,0-.424.002-.637.002-.319,0-.637.004-.956.007-1.529.008-3.066-.052-4.508-.615-.076-.029-.151-.057-.229-.087-.997-.396-1.923-.939-2.857-1.462-.402-.221-.811-.428-1.223-.631-.067-.033-.133-.066-.202-.1-.148-.073-.296-.145-.444-.217-.027.061-.053.123-.081.186q-.118.211-.416.41-.289.027-.646.029c-.065,0-.13.001-.197.002-.215.002-.431.002-.646.002-.15,0-.3.001-.45.002-.314.001-.628.002-.943.001-.402,0-.804.003-1.206.006-.31.002-.619.003-.929.003-.148,0-.296.001-.445.003-.208.002-.415.001-.623,0q-.177,0-.358,0c-.377-.059-.541-.182-.811-.446-.129-.257-.113-.444-.115-.732,0-.113-.002-.226-.003-.343,0-.125,0-.25-.001-.378,0-.131-.002-.262-.002-.397-.003-.435-.004-.87-.006-1.306,0-.15-.001-.3-.002-.449-.002-.623-.004-1.246-.005-1.869-.002-.893-.005-1.786-.011-2.679-.004-.628-.006-1.255-.006-1.883,0-.375-.002-.75-.005-1.125-.003-.353-.004-.706-.002-1.058,0-.191-.002-.382-.005-.573q.006-.828.272-1.242c.351-.209.566-.234.975-.236ZM18.288,53.042v10.431h3.974v-10.431h-3.974ZM24.249,54.035v8.643c.295.131.59.262.894.397.315.149.626.304.938.459.086.043.171.085.259.129.587.296,1.162.608,1.734.932,3.015,1.701,6.892,1.893,10.223.997,3.869-1.109,7.589-2.83,11.285-4.406.106-.045.211-.09.32-.137.231-.099.463-.197.694-.296.241-.103.482-.206.723-.308.594-.253,1.187-.506,1.78-.76q.166-.071.334-.143c.215-.092.429-.183.643-.275.444-.19.888-.376,1.341-.545q.104-.039.209-.079c.174-.064.349-.126.524-.188.372-.196.535-.407.782-.747.095-.309.053-.46,0-.795-.216-.267-.388-.443-.695-.596-.694-.059-1.33.046-2.001.211q-.143.034-.289.068c-.312.074-.623.149-.935.225-.218.052-.436.105-.654.157-.455.109-.91.22-1.365.33-.583.142-1.166.281-1.749.419-.45.107-.899.216-1.348.325-.215.052-.43.103-.645.154-.3.071-.6.145-.9.219-.089.021-.177.041-.269.062-.525.133-.813.282-1.172.71-.649.522-1.341.887-2.105,1.211-.106.046-.212.091-.321.138-1.786.761-3.592,1.496-5.453,2.054-.093.029-.187.057-.283.087-.586.167-1.162.269-1.772.187-.256-.187-.357-.317-.497-.596-.041-.465.01-.723.298-1.093q.293-.129.664-.23c.146-.042.292-.084.437-.127.079-.023.158-.045.239-.068,1.544-.447,3.032-1.013,4.514-1.63.078-.032.155-.064.235-.097q1.635-.583,2.851-1.722c-.042-.406-.139-.62-.391-.938-.792-.404-1.889-.114-2.743-.008-.221.027-.442.054-.662.08-.548.065-1.096.132-1.644.199-.465.057-.929.113-1.394.168-.215.026-.43.053-.645.079-2.102.255-3.281-.011-4.979-1.239-2.267-1.626-4-1.621-7.013-1.621Z" fill="#6232d7"/><path d="M39.548,30.888q.329.143.596.397.053.211.087.447.051.345.289.583.21.102.421.177c.224.097.341.194.494.383.105.398.123.627-.012,1.018-.212.311-.331.438-.683.571-.278-.018-.524-.048-.795-.099-.267-.045-.525-.076-.795-.099q-.22.181-.236.441.011.261.196.4c.293.188.598.325.915.47.688.329,1.195.711,1.521,1.414.271.797.239,1.579-.111,2.343-.236.397-.451.722-.869.931-.285.206-.272.312-.329.652-.013.088-.027.176-.041.266-.069.31-.195.451-.45.634-.348.174-.723.082-1.093,0q-.248-.149-.397-.397c-.06-.298-.086-.591-.099-.894-.07-.008-.139-.016-.211-.025-.354-.092-.591-.254-.882-.472-.172-.345-.159-.716-.099-1.093.217-.274.385-.441.695-.596.355-.02.624-.029.956.106.293.116.439.105.733-.006q.157-.172.199-.397c-.093-.314-.185-.39-.476-.549-.111-.046-.223-.092-.337-.14-.943-.418-1.436-.739-1.869-1.695-.22-.66-.2-1.446.075-2.086.222-.426.431-.808.882-1.012.292-.223.277-.311.329-.664.056-.356.103-.573.373-.82.39-.221.583-.257,1.024-.186Z" fill="#6232d7"/><path d="M39.746,49.565c.285.243.458.422.541.795.022.367-.033.579-.23.888-.346.336-.612.343-1.079.34-.356-.057-.51-.254-.721-.532-.174-.347-.097-.726,0-1.093.457-.468.858-.591,1.49-.397Z" fill="#6232d7"/></svg>