<?xml version="1.0" encoding="UTF-8"?><svg id="a" xmlns="http://www.w3.org/2000/svg" width="41" height="41" viewBox="0 0 41 41"><rect width="41" height="41" rx="1.078" ry="1.078" fill="#6232d7"/><path d="M12.955,10.727c.061,0,.122,0,.183,0,.167,0,.334,0,.502,0,.181,0,.361,0,.542,0,.354,0,.707,0,1.061,0,.288,0,.575,0,.863,0,.816,0,1.633-.001,2.449-.001.044,0,.088,0,.133,0q.066,0,.133,0c.713,0,1.426,0,2.139-.002.733-.001,1.466-.002,2.199-.002.411,0,.822,0,1.234-.001.35,0,.7,0,1.051,0,.178,0,.357,0,.535,0,.164,0,.328,0,.491,0,.086,0,.173,0,.259-.001.942.007,1.747.38,2.425,1.025.616.65.934,1.464.929,2.353q0,.072,0,.145c0,.159,0,.318,0,.477,0,.114,0,.229,0,.343,0,.246,0,.492,0,.738,0,.355,0,.711-.001,1.066,0,.577,0,1.154-.002,1.73,0,.56-.001,1.12-.002,1.68,0,.035,0,.069,0,.105,0,.173,0,.347,0,.52,0,1.437-.002,2.874-.004,4.311h-1.498c-.001-.122-.002-.244-.003-.369-.002-.12-.004-.241-.006-.361-.001-.083-.002-.165-.003-.248-.007-.906-.131-1.713-.786-2.395-.324-.302-.667-.472-1.086-.609-.032-.011-.063-.021-.095-.032-.678-.189-1.442-.032-2.049.294-.627.405-.96.956-1.152,1.665-.038.19-.049.372-.052.565,0,.03,0,.059-.001.09-.001.097-.002.195-.003.292,0,.068-.002.136-.003.203-.002.178-.004.356-.007.533-.002.182-.005.363-.007.545-.005.356-.009.712-.013,1.068q-.042,0-.085-.001c-.128-.001-.257-.002-.385-.003-.044,0-.088-.001-.133-.002-.784-.004-1.484.27-2.051.81-.478.478-.695,1.011-.696,1.684.004.257.056.481.139.723.029.086.057.171.086.257-.999.004-1.997.007-2.996.009-.464,0-.927.002-1.391.004-.404.002-.809.003-1.213.003-.214,0-.428,0-.642.002-.202.001-.404.002-.606.001-.074,0-.147,0-.221.001-.606.005-1.188-.063-1.73-.358-.028-.015-.057-.03-.086-.045-.208-.111-.398-.234-.577-.388q-.041-.032-.083-.064c-.609-.492-1.012-1.261-1.116-2.033-.03-.403-.024-.807-.022-1.21,0-.164,0-.327,0-.491,0-.32,0-.64,0-.959,0-.26,0-.52,0-.78,0-.037,0-.074,0-.113,0-.075,0-.151,0-.226,0-.706,0-1.413,0-2.119,0-.605,0-1.21,0-1.815,0-.704-.001-1.408,0-2.112,0-.075,0-.15,0-.226,0-.037,0-.074,0-.112,0-.26,0-.519,0-.779,0-.317,0-.633,0-.95,0-.161,0-.323,0-.484q-.004-1.244.194-1.753.021-.054.042-.109c.035-.084.073-.164.116-.244.015-.028.029-.057.044-.086.433-.81,1.195-1.39,2.067-1.659.333-.091.647-.098.991-.097ZM12.721,14.144c-.36.461-.475.937-.414,1.518.07.337.2.601.428.856.033.037.065.074.099.112.398.351.791.495,1.31.557.221.033.331.09.475.272.068.203.065.366-.008.567-.088.134-.149.176-.292.246q-.125.016-.262.016c-.05,0-.1.001-.151.002-.104,0-.208,0-.312,0-.306.005-.515.026-.773.195-.124.145-.181.282-.193.474.031.244.117.366.308.517.163.092.261.102.448.102.029,0,.058,0,.087,0,.061,0,.122,0,.182,0,.091,0,.183,0,.274.001.526.001.976-.094,1.376-.452.037-.033.074-.065.112-.099.361-.408.548-.847.542-1.395-.036-.404-.186-.761-.44-1.075-.021-.027-.043-.054-.065-.081-.311-.348-.764-.52-1.218-.577q-.399-.054-.523-.176c-.14-.192-.143-.345-.12-.578.076-.183.168-.255.342-.342q.125-.016.262-.016c.05,0,.1-.001.151-.002.104,0,.208,0,.312,0,.305-.005.516-.024.773-.195.118-.127.165-.27.179-.441-.013-.246-.088-.375-.265-.543-.217-.143-.491-.102-.741-.101-.092,0-.184-.002-.276-.003-.641-.005-1.166.158-1.608.642ZM16.874,13.778c-.091.162-.12.277-.121.46,0,.042,0,.084,0,.127,0,.046,0,.092,0,.139,0,.048,0,.097,0,.146,0,.16-.001.321-.002.481,0,.055,0,.109,0,.166,0,.26-.001.52-.002.779,0,.299-.002.599-.003.898-.001.26-.002.519-.002.779,0,.11,0,.22-.001.331-.001.154-.001.309,0,.463,0,.045-.001.091-.002.138.002.266.031.483.193.702.145.124.283.181.474.193.24-.03.359-.117.517-.296.128-.199.103-.425.102-.654,0-.05,0-.1,0-.152,0-.166,0-.331,0-.497,0-.115,0-.23,0-.345,0-.241,0-.483,0-.724,0-.279,0-.557,0-.836,0-.24,0-.479,0-.719,0-.143,0-.286,0-.429,0-.159,0-.319-.001-.478,0-.047,0-.094.001-.143-.003-.262-.019-.416-.194-.615-.17-.146-.296-.198-.516-.185-.205.033-.314.108-.439.27ZM19.526,14.108c-.377.506-.376,1.06-.376,1.665,0,.061,0,.121,0,.182,0,.127,0,.254,0,.38,0,.161,0,.322-.001.483,0,.125,0,.251,0,.376,0,.059,0,.119,0,.178-.003.638.038,1.242.49,1.733.375.335.823.481,1.32.466.422-.04.834-.222,1.124-.536.35-.452.42-.921.428-1.477,0-.034.002-.069.002-.104,0-.256-.036-.465-.208-.666-.212-.16-.35-.19-.613-.193-.051-.001-.103-.002-.156-.003-.221.02-.359.088-.508.252-.132.191-.143.346-.115.575.091.179.163.261.342.342-.018.07-.037.139-.056.209-.01.039-.021.077-.032.117q-.041.102-.169.188-.302.029-.447-.075c-.12-.173-.115-.335-.117-.542,0-.056,0-.111-.001-.169,0-.061,0-.121,0-.182,0-.062,0-.125,0-.187,0-.131,0-.262,0-.393,0-.167-.001-.335-.002-.502,0-.129-.001-.258-.001-.387,0-.062,0-.123-.001-.185,0-.086,0-.173,0-.259,0-.049,0-.098,0-.149.018-.156.063-.26.144-.394.134-.067.283-.073.428-.043.152.118.196.219.235.404.062.25.136.383.351.532.19.065.335.064.527.005.157-.083.264-.181.34-.343.108-.382-.01-.762-.194-1.101-.246-.401-.605-.643-1.06-.763-.63-.112-1.249.075-1.67.566ZM23.731,13.796c-.128.199-.104.425-.102.654,0,.05,0,.1,0,.152,0,.166,0,.331,0,.497,0,.115,0,.23,0,.345,0,.241,0,.483,0,.724,0,.279,0,.557,0,.836,0,.24,0,.479,0,.719,0,.143,0,.286,0,.429,0,.159,0,.319.001.478,0,.047,0,.094-.001.143.003.262.019.416.194.615.17.147.296.198.516.185.19-.031.309-.109.439-.247.108-.164.12-.303.124-.497,0-.043.002-.086.003-.13,0-.046.001-.092.002-.139,0-.047.002-.095.003-.143.003-.151.005-.302.008-.453.002-.102.004-.205.006-.307.005-.251.009-.502.013-.753.014.028.028.057.042.086.133.268.265.537.399.805.068.138.137.276.205.414.066.133.132.267.198.4.037.075.074.15.111.226q.191.396.502.696c.157.052.307.051.469.028.219-.114.35-.237.428-.471.004-.069.006-.138.006-.207,0-.043,0-.085,0-.129,0-.047,0-.094,0-.142,0-.049,0-.099,0-.149,0-.163,0-.327.001-.49,0-.085,0-.17,0-.254,0-.236,0-.472,0-.709,0-.305,0-.611.002-.916,0-.236.001-.472.001-.708,0-.141,0-.282.001-.423,0-.157,0-.315,0-.472,0-.047,0-.093.001-.141-.001-.235-.009-.409-.145-.611-.187-.168-.298-.227-.553-.223-.195.02-.315.104-.446.245-.104.153-.121.27-.124.45,0,.044-.002.087-.003.132q-.001.071-.002.143c0,.048-.002.097-.003.146-.003.154-.005.309-.008.463-.002.105-.004.209-.006.314-.005.257-.009.513-.013.77-.014-.028-.028-.057-.042-.086-.133-.268-.265-.537-.399-.805-.068-.138-.137-.276-.205-.414-.066-.133-.132-.267-.198-.4-.037-.075-.074-.15-.111-.226q-.191-.396-.502-.696c-.336-.111-.588-.013-.818.247ZM17.572,21.311c-.114.175-.134.303-.134.509,0,.042,0,.083,0,.126,0,.045,0,.091,0,.137,0,.048,0,.096,0,.145,0,.159,0,.318-.001.477,0,.11,0,.221,0,.331,0,.202,0,.404,0,.606,0,.297,0,.594-.002.89-.001.257-.001.515-.001.772,0,.109,0,.219-.001.328,0,.153,0,.306,0,.459,0,.045,0,.09-.001.137.002.297.033.512.225.749.163.13.288.167.495.155.209-.029.307-.102.452-.254.084-.135.096-.236.094-.394,0-.042,0-.084,0-.127,0-.043-.001-.087-.002-.132,0-.044,0-.088-.001-.134-.001-.109-.002-.218-.004-.326.034-.001.068-.002.104-.003.699-.036,1.299-.294,1.78-.81.435-.559.558-1.19.514-1.884-.076-.581-.381-1.143-.844-1.504-.586-.412-2.072-.915-2.666-.254ZM12.82,21.228c-.165.239-.196.411-.193.698,0,.039,0,.078,0,.118,0,.128,0,.255,0,.383,0,.089,0,.179,0,.268,0,.187,0,.375,0,.562,0,.239,0,.478,0,.716,0,.185,0,.369,0,.554,0,.088,0,.176,0,.264-.003.705.043,1.281.537,1.83.35.331.81.51,1.29.515.482-.023.871-.154,1.236-.472.037-.032.074-.064.112-.096.5-.579.507-1.196.504-1.925,0-.088,0-.176,0-.264,0-.184,0-.367,0-.551,0-.235,0-.47,0-.705,0-.181,0-.363,0-.544,0-.087,0-.173,0-.26,0-.121,0-.242,0-.363,0-.036,0-.071,0-.108-.003-.259-.058-.435-.231-.635-.155-.131-.31-.127-.505-.124-.189.018-.282.108-.405.245-.136.194-.124.376-.124.604,0,.038,0,.075,0,.114,0,.082,0,.163-.001.245,0,.129-.001.259-.002.388-.003.368-.005.736-.006,1.104,0,.225-.002.45-.004.675,0,.086,0,.171-.001.257,0,.12-.001.24-.002.36,0,.035,0,.071,0,.107-.003.209-.03.354-.147.535-.186.127-.334.152-.557.128-.145-.053-.231-.096-.327-.217-.079-.171-.076-.317-.074-.503,0-.038,0-.075,0-.114,0-.081,0-.163,0-.244,0-.129,0-.258-.001-.387-.002-.274-.002-.547-.003-.821,0-.317-.001-.634-.003-.951,0-.127,0-.253,0-.38,0-.078,0-.156-.001-.234,0-.035,0-.07,0-.106-.002-.225-.04-.382-.146-.582-.21-.195-.343-.227-.622-.223-.142.012-.214.041-.32.137Z" fill="#fff"/><path d="M26.597,22.455c.333.199.574.465.696.835.041.165.051.303.05.472,0,.029,0,.059,0,.089,0,.096,0,.191-.001.287,0,.067,0,.134,0,.2,0,.175-.001.35-.002.525,0,.179-.001.358-.002.536,0,.35-.002.7-.004,1.051.036,0,.073,0,.111-.001.346-.003.691-.006,1.037-.008.178,0,.355-.002.533-.004.172-.002.344-.003.515-.003.065,0,.13,0,.196-.002.481-.007.934.024,1.306.363.033.029.066.058.1.087.372.472.343.963.339,1.536,0,.092,0,.183,0,.275,0,.191,0,.382-.002.573-.001.244-.001.488,0,.733,0,.189,0,.377,0,.566,0,.09,0,.18,0,.27,0,.126,0,.252-.002.378q0,.055,0,.111c-.006.368-.154.722-.409.991-.273.22-.537.352-.893.355-.049,0-.098.001-.149.002q-.08,0-.162,0c-.057,0-.115,0-.172.001-.155.001-.31.002-.465.003-.097,0-.194,0-.291.001-.304.001-.608.002-.912.003-.35,0-.7.002-1.05.005-.271.002-.542.003-.813.003-.162,0-.323,0-.485.003-.152.002-.304.002-.456.001-.082,0-.164.001-.246.003-.243-.003-.412-.01-.6-.172-.052-.054-.104-.11-.154-.166-.049-.048-.099-.095-.149-.142-.05-.05-.1-.099-.151-.149-.028-.027-.056-.055-.084-.083-.091-.09-.181-.179-.271-.269-.031-.031-.062-.062-.094-.094-.164-.163-.329-.327-.493-.49-.135-.135-.271-.269-.407-.403-.165-.163-.329-.326-.493-.49-.062-.062-.125-.124-.187-.185-.088-.086-.175-.173-.262-.26-.026-.025-.051-.05-.078-.076-.226-.229-.395-.514-.395-.845.013-.319.14-.59.375-.808.351-.27.756-.426,1.199-.431.051-.001.102-.002.154-.004.462.03.846.268,1.218.523.045.03.089.06.135.09.109.073.217.146.325.22,0-.025,0-.051,0-.077-.004-.619-.007-1.239-.008-1.858,0-.3-.002-.599-.004-.899-.002-.289-.003-.578-.003-.868,0-.11,0-.22-.002-.33-.001-.155-.001-.309-.001-.464,0-.045-.001-.09-.002-.137.002-.429.108-.801.41-1.116.454-.405,1.097-.524,1.657-.259Z" fill="#fff"/><path d="M18.685,22.341c.367,0,.527.012.813.214.241.247.355.497.361.843-.006.332-.084.567-.3.82-.255.243-.53.307-.874.307v-2.183Z" fill="#fff"/></svg>